<?xml version="1.0" encoding="UTF-8" standalone="no"?><!DOCTYPE svg PUBLIC "-//W3C//DTD SVG 1.1//EN" "http://www.w3.org/Graphics/SVG/1.1/DTD/svg11.dtd"><svg width="100%" height="100%" viewBox="0 0 4167 4167" version="1.1" xmlns="http://www.w3.org/2000/svg" xmlns:xlink="http://www.w3.org/1999/xlink" xml:space="preserve" xmlns:serif="http://www.serif.com/" style="fill-rule:evenodd;clip-rule:evenodd;stroke-linecap:round;stroke-linejoin:round;stroke-miterlimit:1.5;"><g><g><path d="M342.371,274.608c7.762,0 7.762,-12.017 0,-12.017c-7.762,0 -7.762,12.017 0,12.017" style="fill-rule:nonzero;"/><path d="M43.221,193.283c6.2,-21.429 13.067,-42.658 19.258,-64.096c2.158,-7.463 -9.458,-10.625 -11.604,-3.192c-6.192,21.429 -13.067,42.658 -19.258,64.096c-2.158,7.463 9.458,10.625 11.604,3.192" style="fill-rule:nonzero;"/><path d="M1366.992,13.821c3.179,15.846 6.454,31.621 13.442,46.3c3.342,7 13.712,0.896 10.4,-6.058c-6.508,-13.65 -9.283,-28.717 -12.242,-43.438c-1.521,-7.596 -13.125,-4.375 -11.604,3.192" style="fill-rule:nonzero;"/><path d="M1578.642,5.812l0,44.867c0,7.75 12.038,7.75 12.038,0l0,-44.867c0,-7.75 -12.038,-7.75 -12.038,0" style="fill-rule:nonzero;"/><g><g><path d="M1073.079,960.571c4.342,8.575 8.996,16.7 15.371,23.958c5.125,5.837 13.608,-2.7 8.504,-8.508c-5.663,-6.442 -9.621,-13.912 -13.483,-21.517c-3.504,-6.921 -13.888,-0.825 -10.392,6.067" style="fill-rule:nonzero;"/><path d="M907.625,718.071c90.833,-27.754 169.296,-104.35 172.946,-202.883c0.287,-7.75 -11.75,-7.721 -12.038,0c-3.446,93.092 -78.571,165.158 -164.108,191.3c-7.404,2.258 -4.246,13.854 3.196,11.583" style="fill-rule:nonzero;"/><path d="M1008.129,648.192c-31.383,-105.4 47.9,-162.583 95.696,-245.342c-3.671,-0.471 -7.329,-0.95 -10.996,-1.433c16.142,81.133 47.854,264.346 -88.904,242.571c-7.587,-1.2 -10.842,10.375 -3.196,11.596c149.458,23.796 122.063,-165.15 103.708,-257.358c-1.042,-5.229 -8.533,-5.721 -10.996,-1.433c-50.433,87.325 -129.517,145.067 -96.908,254.588c2.204,7.412 13.821,4.25 11.604,-3.192" style="fill-rule:nonzero;"/></g></g><g><path d="M325.083,1570.525c1.079,-2.062 2.2,-4.117 3.188,-6.237c28.675,-31.967 56.467,-69.312 49.213,-106.288c-1.592,-8.125 -11.287,-12.487 -18.725,-10.417c-20.262,5.658 -40.663,9.746 -61.475,12.713c-0.842,-8.938 -1.817,-17.871 -3.012,-26.762c-2.958,-22.171 -6.121,-49.346 -22.096,-66.504c-6.358,-6.825 -19.654,-5.442 -23.817,3.221c-14.767,30.775 -12.704,63.279 -9.242,96.017c-22.008,-0.117 -46.292,5.867 -53.879,25.65c-4.233,11.025 7.467,23.221 13.171,31.067c8.071,11.096 23.142,22.883 26.187,36.917c-1.096,1.008 -2.1,2.125 -2.9,3.429c-3.762,6.129 -8.95,10.571 -14.883,13.954c-15.525,1.483 -28.667,7.229 -32.408,21.779c-8.367,32.562 59.629,64.204 79.083,79.625c1.4,1.108 2.917,1.9 4.471,2.475c2.212,3.375 5.675,5.683 10.033,5.796c5.383,5.133 13.608,6.529 19.617,-0.933c21.546,-26.738 57.233,-38.442 77.433,-67.275c21.112,-30.137 -12.317,-44.717 -39.958,-48.213" style="fill:#ff6347;fill-rule:nonzero;"/><path d="M579.529,1676.429c5.2,-4.004 10.079,-8.5 14.479,-13.75c1,-1.192 1.737,-2.446 2.329,-3.7c0.092,-0.1 0.179,-0.212 0.271,-0.304c1.363,-1.4 2.796,-2.721 4.246,-4.025c0.317,-0.258 0.55,-0.458 0.733,-0.613c1.025,-0.746 2.087,-1.429 3.158,-2.096c3.996,-2.454 6.475,-6.5 7.15,-10.842c15.271,-8.671 29.542,-18.85 41.729,-31.829c8.792,-9.371 2.679,-26.404 -11.05,-25.779c-33.55,1.508 -59.763,15.392 -85.346,32.896c-7.804,-7.596 -15.921,-14.871 -25.608,-19.95c-14.958,-7.842 -35.921,-5.204 -45.596,9.812c-8.021,12.45 -10.704,28.938 -13.004,43.308c-1.167,7.304 -1.467,14.517 0.421,20.45c-3.217,1.612 -6.421,3.258 -9.671,4.812c-15.762,-17.887 -31.221,-23.033 -45.462,-20.287c-6.525,-2.017 -13.567,-2.404 -20.633,-1.188c-2.121,0.363 -3.962,1.329 -5.525,2.671c-9.037,2.308 -16.596,7.792 -19.804,17.254c-2.171,6.404 -1.442,13.083 0.567,19.496c-7.129,11.438 -12.933,24.125 -17.025,36.221c-2.483,7.35 1.117,13.033 6.592,16.012c0.158,0.167 0.358,0.267 0.521,0.433c0.113,5.217 2.387,10.35 7.308,12.733c47.688,23.092 102.529,68.704 158.221,35.312c26.138,-15.658 26.175,-33.312 16.442,-50.475c37.929,4.296 76.604,2.229 91.887,-25.1c14.975,-26.775 -25.071,-37.162 -57.333,-41.479" style="fill:#ff6347;fill-rule:nonzero;"/><path d="M206.033,1838.221c81.725,-86.971 84.771,-227.787 74.562,-339.696c-0.583,-6.429 -10.692,-6.321 -10.1,0.171c9.967,109.271 8.125,247.533 -71.646,332.425c-4.458,4.746 2.721,11.846 7.179,7.1" style="fill-rule:nonzero;"/><path d="M208.104,1838.75c49.008,-61.358 133.783,-78.062 205.763,-98.304c54.137,-15.221 111.833,-35.408 140.496,-87.275c3.15,-5.696 -5.625,-10.708 -8.767,-5.017c-35.913,64.979 -118.8,77.462 -184.075,96.546c-58.438,17.083 -121.258,37.696 -160.596,86.95c-4.025,5.038 3.121,12.175 7.179,7.1" style="fill-rule:nonzero;"/><path d="M364.638,1747.125c1.971,-24.917 3.262,-49.171 14.513,-72.004c21.292,-43.188 59.767,-10.892 83.667,0.037c2.654,1.208 6.938,0.408 7.404,-3.121c2.121,-16.05 4.929,-31.662 9.383,-47.237c4.071,-14.217 13.546,-35.771 33.8,-33.175c15.179,1.95 27.733,18.162 37.383,28.483c1.9,2.021 7.146,-0.037 7.146,-0.037c0,0 21.058,-15.292 32.621,-21.217c7.379,-3.646 15.017,-6.646 22.896,-9.021c18.354,-6.096 40.263,7.621 25.775,25.683c-17.638,22.008 -44.558,35.042 -61.883,57.192c-2.017,2.579 -1.917,7.913 2.337,8.433c7.15,0.879 14.087,2.096 21.138,3.6c10.579,2.242 73.629,23.525 14.371,47.375c-21.6,8.696 -51.575,0.021 -74.121,-0.592c-4.033,-0.113 -5.879,4.404 -4.258,7.604c26.146,51.592 -27.762,64.467 -66.375,59.608c-37.517,-4.733 -74.871,-27.225 -104.212,-49.908c-5.096,-3.933 -12.246,3.2 -7.108,7.171c41.696,32.221 112.321,72.758 167.054,47.762c17.812,-8.142 27.45,-18.438 29.629,-38.062c0.371,-3.271 -2.529,-23.767 -6.658,-23.879c16.342,0.442 32.442,2.962 48.838,2.933c22.867,-0.042 73.779,-30.558 40.662,-54.529c-8.608,-6.246 -17.617,-9.933 -27.633,-13.229c-5.017,-1.454 -10.104,-2.671 -15.238,-3.633c-9.175,-1.958 -10.871,5.379 -4.587,-1.088c18.904,-19.475 45.704,-33.133 60.592,-56.396c21.058,-32.925 -14.096,-42.592 -41.108,-35.746c-20.467,5.188 -40.546,16.787 -56.879,29.854c3.888,-3.108 -39.021,-33.433 -52.55,-28.229c-14.804,5.692 -23.383,17.617 -28.621,32.542c-5.188,14.796 -8.375,29.704 -10.863,45.167c-1.117,6.979 -25.025,-9.221 -29.004,-10.783c-63.029,-24.8 -74.746,54.713 -78.217,98.621c-0.512,6.475 9.588,6.262 10.1,-0.171" style="fill-rule:nonzero;"/><path d="M432.05,1688.267c-15.262,15.338 -24.608,34.988 -37.658,52.033c-2.262,2.958 -1.704,7.342 2.338,8.438c21.367,5.792 41.783,14.733 63.675,18.55c6.371,1.113 8.929,-8.642 2.508,-9.767c-21.892,-3.817 -42.308,-12.762 -63.675,-18.55c0.779,2.808 1.558,5.625 2.333,8.429c13.017,-16.988 22.471,-36.771 37.658,-52.033c4.6,-4.617 -2.592,-11.704 -7.179,-7.1" style="fill-rule:nonzero;"/><path d="M503.588,1648.383c-9.262,19.946 -15.067,41.096 -22.658,61.688c-1.117,3.012 1.925,6.5 4.983,6.296c20.721,-1.4 41.467,-2.217 62.238,-1.646c6.504,0.171 6.321,-9.912 -0.179,-10.083c-20.771,-0.571 -41.517,0.238 -62.238,1.646c1.654,2.1 3.321,4.192 4.979,6.304c7.279,-19.729 12.762,-40.062 21.642,-59.183c2.725,-5.863 -6.033,-10.913 -8.767,-5.017" style="fill-rule:nonzero;"/><path d="M272.708,1691.737c-16.879,-18.525 -39.954,-31.242 -59.688,-46.4c-10.637,-8.162 -20.358,-17.225 -27.733,-28.492c-19.725,-30.133 23.633,-36.454 38.475,-45.213c11.379,-6.713 0.979,-27.521 -5.579,-34.304c-12.692,-13.15 -56.746,-57.925 -14.158,-60.875c13.271,-0.913 25.892,-0.421 38.863,-3.783c2.004,-0.525 3.662,-4.942 3.662,-4.942c0,0 -2.083,-27.575 -2.042,-41.392c0.017,-5.558 8.617,-83.062 27.433,-55.621c18.667,27.204 14.083,66.479 27.987,95.958c0.887,1.879 3.783,3.046 5.729,2.279c13.492,-5.296 64.917,-35.254 67.137,2.046c2.075,34.729 -30.425,70.479 -47.65,98.475c-1.575,2.562 -0.117,6.95 3.133,7.396c11.75,1.596 51.342,4.188 38.158,31.729c-4.446,9.279 -13.475,17.237 -20.704,24.371c-20.812,20.533 -48.046,45.85 -75.367,55.958c-6.058,2.25 -3.354,11.975 2.771,9.708c28.071,-10.396 49.825,-32.7 72.3,-51.783c15.454,-13.117 34.225,-30.383 34.817,-52.083c0.379,-13.946 -16.746,-20.204 -27.058,-23.754c-23.387,-8.033 -2.108,-23.267 8.017,-39.383c8.675,-13.825 19.058,-32.383 20.592,-49c1.058,-11.467 3.533,-36.396 -13.062,-40.35c-11.1,-2.654 -62.579,13.113 -62.879,12.258c-7.904,-22.892 -8.646,-100.537 -43.975,-99.692c-34.504,0.808 -27.862,80.892 -26.725,100.146c1.108,18.688 -34.775,9.008 -51.125,15.071c-16.396,6.075 -10.021,27.312 -6.246,39.112c3.037,9.479 12.196,16.179 19.338,22.262c10.754,7.096 16.571,17.704 17.463,31.808c-8.95,1.417 -9.296,2.183 -18.312,6.067c-15.625,6.733 -26.425,23.383 -24.479,40.033c4.738,40.479 69.667,63.075 93.796,89.55c4.4,4.821 11.467,-2.383 7.108,-7.171" style="fill-rule:nonzero;"/><path d="M238.167,1522.142c12.588,15.479 26.146,30.158 37.8,46.375c1.979,2.75 5.358,3.267 7.942,0.983c14.575,-12.892 25.288,-28.95 36.329,-44.812c3.717,-5.342 -8.775,-5.021 -8.775,-5.021c0,0 -20.812,30.408 -34.738,42.737c2.646,0.329 5.288,0.658 7.933,0.979c-12.158,-16.921 -26.254,-32.263 -39.388,-48.417c-4.113,-5.062 -11.163,2.171 -7.108,7.171" style="fill-rule:nonzero;"/><path d="M229.925,1597.171c15.071,16.783 29.983,33.613 42.962,52.108c1.688,2.4 5.767,3.696 7.933,0.979c11.021,-13.796 23.725,-26.217 33.192,-41.204c3.488,-5.517 -5.304,-10.5 -8.767,-5.017c-8.996,14.225 -21.133,26.008 -31.604,39.121c2.646,0.329 5.296,0.663 7.942,0.983c-13.471,-19.188 -28.908,-36.717 -44.55,-54.142c-4.367,-4.854 -11.433,2.35 -7.108,7.171" style="fill-rule:nonzero;"/><path d="M342.821,1482.829l-7.433,28.938c-1.617,6.3 8.167,8.812 9.783,2.512l7.433,-28.938c1.617,-6.3 -8.167,-8.812 -9.783,-2.512" style="fill-rule:nonzero;"/><path d="M504.65,1603.329c-6.763,8.075 -11.642,17.408 -14.421,27.575c-1.712,6.283 8.071,8.788 9.783,2.512c2.296,-8.383 6.221,-16.312 11.812,-22.988c4.154,-4.963 -3,-12.092 -7.179,-7.1" style="fill-rule:nonzero;"/></g><path d="M233.983,51.787c-26.683,4.546 -38.008,29.467 -29.95,54.117c7.946,24.304 34.862,35.725 58.504,27.304c19.8,-7.046 29.217,-28.254 26.321,-48.05c-3.746,-25.592 -30.671,-34.887 -53.275,-33.583c-7.713,0.442 -7.762,12.458 0,12.017c16.825,-0.971 35.025,3.125 40.775,20.929c4.171,12.883 -1.783,27.554 -12.817,34.879c-39.204,26.046 -75.029,-47.733 -26.358,-56.029c7.638,-1.296 4.392,-12.883 -3.196,-11.583" style="fill-rule:nonzero;"/><path d="M758.929,54.525c-14.925,2.538 -21.621,17.025 -17.104,30.804c4.458,13.633 19.567,20.562 33.004,15.775c11.604,-4.133 16.987,-16.142 15.283,-27.767c-2.071,-14.104 -17.046,-19.758 -29.583,-19.025c-7.712,0.442 -7.763,12.458 0,12.017c6.942,-0.404 15.092,0.729 17.525,8.279c1.667,5.142 -0.587,11.142 -5.038,14.096c-15.908,10.575 -30.933,-19.179 -10.892,-22.592c7.638,-1.296 4.392,-12.875 -3.196,-11.583" style="fill-rule:nonzero;"/><g><path d="M2697.421,3776.829c-186.246,-4.346 -367.35,-69.962 -457.663,-242.304c-47.196,-90.054 -71.408,-214.433 -42.121,-314.121c76.367,-259.992 371.962,-384.379 622.587,-337.963c131.912,24.438 264.008,83.7 339.037,198.454c56.008,85.679 84.592,202.55 79.229,304.525c-4.383,82.95 -47.842,167.504 -99.808,230.179c-107.771,130.021 -279.446,167.275 -441.262,161.229c-7.771,-0.287 -7.742,11.729 0,12.017c170.012,6.354 342.496,-35.333 454.812,-170.812c52.783,-63.683 95.646,-152.892 98.488,-237.062c3.267,-97.071 -22.333,-198.154 -67.738,-283.538c-51.175,-96.237 -135.825,-150.429 -234.637,-190.012c-215.3,-86.2 -464.75,-54.125 -635.983,107.054c-134.342,126.442 -166.65,298.304 -108.117,467.712c73.508,212.721 280.679,301.696 493.179,306.658c7.771,0.183 7.754,-11.833 0,-12.017" style="fill-rule:nonzero;"/><path d="M2286.904,3186.6c25.192,-55.971 101.542,-43.725 148.708,-68.346c6.888,-3.596 0.8,-13.979 -6.067,-10.383c-49.992,26.092 -125.942,12.471 -153.042,72.663c-3.15,7.008 7.221,13.125 10.4,6.067" style="fill-rule:nonzero;"/><path d="M2567.233,3022.112c12.45,-9.142 26.071,-16.508 38.521,-25.629c6.192,-4.546 0.192,-14.979 -6.075,-10.383c-12.45,9.133 -26.071,16.496 -38.521,25.629c-6.183,4.546 -0.183,14.979 6.075,10.383" style="fill-rule:nonzero;"/><path d="M2550.738,3322.962c31.521,-85.046 137.075,-84.275 202.675,-131c6.258,-4.462 0.25,-14.892 -6.075,-10.383c-69.433,49.475 -174.642,47.637 -208.204,138.192c-2.696,7.288 8.938,10.392 11.604,3.192" style="fill-rule:nonzero;"/><path d="M2807.988,3095.821c18.163,-10.758 36.892,-20.467 54.563,-32.042c6.463,-4.229 0.433,-14.642 -6.075,-10.383c-17.671,11.583 -36.4,21.296 -54.562,32.042c-6.662,3.95 -0.617,14.346 6.075,10.383" style="fill-rule:nonzero;"/><path d="M2824.029,2983.654c9.629,-6.413 19.258,-12.817 28.892,-19.229c6.425,-4.279 0.404,-14.692 -6.075,-10.383c-9.629,6.413 -19.258,12.825 -28.892,19.229c-6.425,4.267 -0.404,14.692 6.075,10.383" style="fill-rule:nonzero;"/><path d="M2297.592,3438.725c30.458,-22.938 64.946,-38.792 99.508,-54.483c7.05,-3.213 0.933,-13.567 -6.075,-10.383c-34.562,15.7 -69.05,31.554 -99.508,54.483c-6.117,4.604 -0.133,15.046 6.075,10.383" style="fill-rule:nonzero;"/><path d="M2634.646,3429.108c28.408,-18.679 53.292,-41.879 85.333,-54.521c25.954,-10.221 53.517,-12.054 78.379,-25.604c6.817,-3.721 0.742,-14.096 -6.075,-10.383c-27.371,14.921 -58.996,15.288 -86.671,28.842c-28.004,13.729 -51.125,34.246 -77.042,51.279c-6.454,4.242 -0.433,14.65 6.075,10.383" style="fill-rule:nonzero;"/><path d="M2798.358,3518.837c16.054,-9.625 32.096,-19.238 48.15,-28.842c6.646,-3.979 0.596,-14.375 -6.075,-10.383c-16.054,9.613 -32.108,19.229 -48.15,28.842c-6.646,3.992 -0.596,14.383 6.075,10.383" style="fill-rule:nonzero;"/><path d="M2916.083,3590.387c47.783,-62.013 132.925,-72.7 182.029,-133.375c4.825,-5.971 -3.642,-14.538 -8.512,-8.508c-49.662,61.387 -135.225,72.654 -183.917,135.817c-4.729,6.142 5.737,12.112 10.4,6.067" style="fill-rule:nonzero;"/><path d="M3068,3348.988c17.45,-10.663 33.417,-23.45 49.375,-36.188c6.058,-4.846 -2.525,-13.288 -8.521,-8.5c-15.158,12.096 -30.346,24.179 -46.929,34.304c-6.608,4.037 -0.558,14.442 6.075,10.383" style="fill-rule:nonzero;"/><path d="M2969.704,3187.821c28.563,-27.496 63.771,-44.513 98.296,-63.154c6.829,-3.692 0.75,-14.067 -6.075,-10.383c-35.458,19.15 -71.425,36.821 -100.742,65.029c-5.596,5.392 2.929,13.883 8.521,8.508" style="fill-rule:nonzero;"/><path d="M2491.417,3604.425c40.071,-40.254 105.15,-43.417 138.971,-90.95c4.496,-6.337 -5.95,-12.325 -10.4,-6.067c-32.471,45.658 -98.083,49.35 -137.096,88.508c-5.471,5.508 3.042,14.008 8.521,8.508" style="fill-rule:nonzero;"/><path d="M2499.192,3189.971c-0.954,-8.017 -6.933,-13.317 -15.233,-11.583c-41.708,8.633 -94.508,35.6 -113.125,76.029c-0.413,0.913 -0.646,1.837 -0.858,2.742c-0.75,1.258 -1.646,2.354 -2.358,3.663c-3.658,6.7 -0.529,15.662 7.192,17.65c26.321,6.788 55.95,-10.238 77.087,-24.033c20.138,-13.15 50.55,-37.004 47.292,-64.463" style="fill-rule:nonzero;"/><path d="M2769.625,2986.104c-39.688,-8.458 -72.033,18.613 -96.05,47.521c-0.338,0.412 -0.692,0.808 -1.013,1.229c-2.204,2.692 -4.354,5.375 -6.412,8.046c-1.483,1.933 -1.938,4.2 -1.754,6.45c-1.125,2.95 -2.092,5.988 -2.667,9.238c-1.404,7.854 3.283,14.846 11.604,15.208c46.371,2.029 87.979,-31.238 104.7,-72.921c2.35,-5.838 -2.504,-13.517 -8.408,-14.775" style="fill-rule:nonzero;"/><path d="M2965.446,3296.533c-47.988,-1.913 -96.821,33.9 -116.321,76.45c-1.367,2.971 -1.658,6.279 -0.954,9.279c-1.733,7.471 2.725,14.854 11.346,15.221c47.321,2.008 114.925,-37.542 117.971,-88.929c0.396,-6.729 -5.787,-11.767 -12.037,-12.017" style="fill-rule:nonzero;"/><path d="M2978.3,3056.612c-8.35,1.604 -22.012,6.383 -31.375,13.883c-0.963,0.529 -1.917,1.146 -2.833,2.021c-1.579,1.521 -3.062,2.971 -4.496,4.404c-4.238,3.471 -8.146,7.317 -11.554,11.625c-3.4,4.317 -4.863,9.488 -1.879,14.567c0.713,1.221 1.792,2.308 3.004,3.271c3.196,5.25 10.979,7.133 16.679,4.242c15.225,-7.713 30.267,-17.179 40.958,-30.717c0.204,-0.258 0.3,-0.567 0.492,-0.838c0.875,-0.817 1.838,-1.521 2.717,-2.367c9.179,-8.912 -0.433,-22.258 -11.708,-20.083" style="fill-rule:nonzero;"/><path d="M2516.675,3437.946c-1.225,-0.125 -2.475,-0.2 -3.825,0.021c-23.679,3.963 -44.608,16.788 -59.892,35.138c-7.954,9.558 -0.404,22.121 11.708,20.083c24.692,-4.142 45.446,-17.921 63.087,-35.138c9.025,-8.808 -0.087,-21.583 -11.083,-20.104" style="fill-rule:nonzero;"/><path d="M3147.975,3396.767c0.021,-0.008 0.05,-0.021 0.075,-0.029c-0.104,0.021 -0.133,0.021 -0.075,0.029" style="fill-rule:nonzero;"/><path d="M3179.404,3406.775c8.475,-7.971 -0.213,-24.238 -11.708,-20.083c-5.546,2 -10.408,4.808 -15.121,8.308c-0.308,0.229 -0.596,0.479 -0.896,0.721c-0.383,0.146 -0.779,0.317 -0.946,0.375c-0.029,0.021 -0.058,0.021 -0.104,0.038c-0.875,0.067 -1.712,0.354 -2.579,0.604c0.096,-0.008 0.242,-0.021 0.463,-0.029c-0.308,0.058 -0.471,0.058 -0.537,0.058c-0.808,0.242 -1.646,0.354 -2.417,0.75c-4.133,2.133 -7.483,6.308 -7.242,11.208c0.075,1.396 0.454,2.846 0.992,4.258c0.175,1.596 0.558,3.192 1.425,4.683c3.033,5.163 11.208,8.258 16.467,4.317c0.829,-0.617 1.588,-1.317 2.379,-1.971c0.029,0.029 0.05,0.058 0.067,0.087c0.162,-0.175 0.329,-0.337 0.5,-0.508c0.037,-0.038 0.058,-0.075 0.096,-0.117c1.213,-1.021 2.446,-2.021 3.671,-3.029c5.604,-2.412 11.025,-5.471 15.496,-9.671" style="fill-rule:nonzero;"/></g><g><path d="M798.788,1118.396c-73.854,20.2 -172.658,52.504 -180.354,144.787c-8.117,97.475 103.717,86.092 167.921,69.325c60.237,-15.738 179.562,-57.733 168.267,-139.683c-10.687,-77.487 -91.458,-93.229 -155.833,-74.433c-7.433,2.171 -4.267,13.767 3.196,11.583c56.117,-16.383 124.258,-7.162 139.954,58.317c17.583,73.346 -93.25,110.138 -143.304,127.846c-65.246,23.092 -196.608,34.717 -162.587,-73.713c23.062,-73.529 100.367,-94.517 165.937,-112.454c7.475,-2.046 4.296,-13.633 -3.196,-11.583" style="fill-rule:nonzero;"/><path d="M669.392,1183.471c7.983,52.521 22.129,113.146 59.321,153.275c5.288,5.7 13.779,-2.825 8.521,-8.5c-35.642,-38.446 -48.575,-97.583 -56.242,-147.971c-1.154,-7.642 -12.758,-4.383 -11.604,3.192" style="fill-rule:nonzero;"/><path d="M714.108,1153.033c6.125,59.262 42.325,126.704 85.225,167.688c5.613,5.354 14.129,-3.133 8.513,-8.5c-40.329,-38.525 -75.942,-103.475 -81.7,-159.188c-0.792,-7.625 -12.837,-7.712 -12.038,0" style="fill-rule:nonzero;"/><path d="M797.788,1128.996c14.696,58.704 51.108,106.783 80.854,158.458c3.862,6.721 14.271,0.675 10.4,-6.058c-29.229,-50.742 -65.204,-97.921 -79.65,-155.592c-1.879,-7.517 -13.483,-4.325 -11.604,3.192" style="fill-rule:nonzero;"/><path d="M918.533,1132.2c8.8,-23.879 18.267,-47.175 36.671,-65.383c17.421,-17.258 35.092,-11.875 27.858,14.375c-3.9,14.179 -12.663,27.746 -18.354,41.408c-2.129,5.096 4.692,9.229 8.842,6.787c3.187,-1.883 47.137,-23.017 45.938,-16.017c-2.483,14.383 -25.837,30.062 -35.958,37.688c-3.717,2.796 -4.258,9.862 1.433,10.987c14.058,2.779 57.513,12.971 23.304,24.246c-17.15,5.654 -35.921,6.163 -53.804,5.604c-7.763,-0.242 -7.733,11.779 0,12.017c21.425,0.662 65.733,1.721 80.325,-18.842c16.842,-23.737 -35.083,-32.342 -46.629,-34.621c0.483,3.662 0.962,7.325 1.446,10.987c10.187,-7.683 52.829,-36.842 41.083,-55.492c-12.867,-20.438 -50.633,5.625 -63.212,13.054c2.946,2.271 5.892,4.529 8.842,6.788c11.471,-27.546 26.433,-49.408 19.258,-80.104c-0.579,-2.471 -3.237,-4.575 -5.808,-4.412c-48.45,3.075 -68,47.475 -82.837,87.738c-2.688,7.287 8.954,10.404 11.604,3.192" style="fill-rule:nonzero;"/><path d="M614.196,1252.779c-25.308,-0.675 -74.883,3.567 -89.558,29.188c-16.842,29.421 45.058,27.921 57.462,27.7c-1.012,-3.729 -2.021,-7.463 -3.033,-11.2c-24.904,11.654 -45.821,30.392 -44.712,59.675c0.133,3.463 2.65,5.758 6.021,6.008c23.663,1.787 43.2,-6.537 64.021,-16.846c-2.746,-2.75 -5.487,-5.479 -8.233,-8.221c-8.079,10.633 -36.825,51.992 -4.054,52.329c29.208,0.3 59.767,-32.767 72.237,-55.888c3.679,-6.817 -6.712,-12.883 -10.4,-6.058c-9.929,18.421 -25.067,32.629 -43.096,43.1c-5.817,3.383 -14.454,7.825 -21.533,6.683c-6.067,-0.979 15.871,-32.304 17.246,-34.113c3.979,-5.229 -3.408,-10.604 -8.233,-8.221c-18.954,9.392 -36.354,16.833 -57.954,15.208c2.004,2 4.017,4 6.021,6.008c-0.962,-25.254 17.862,-39.525 38.742,-49.292c5.558,-2.596 2.688,-11.304 -3.033,-11.2c-13.483,0.242 -26.908,0.3 -40.092,-2.883c-14.742,-3.546 -2.158,-11.721 4.958,-15.817c19.792,-11.404 44.8,-14.75 67.229,-14.15c7.771,0.2 7.754,-11.817 0,-12.017" style="fill-rule:nonzero;"/><path d="M646.696,1249.175c0.625,20.296 9.862,37.275 20.079,54.308c3.987,6.642 14.396,0.604 10.4,-6.058c-9.063,-15.104 -17.883,-30.208 -18.442,-48.254c-0.229,-7.729 -12.279,-7.758 -12.038,0" style="fill-rule:nonzero;"/><path d="M775.925,1216.958c6.354,12.517 14.079,24.017 22.467,35.246c4.592,6.133 15.05,0.154 10.4,-6.067c-8.396,-11.229 -16.121,-22.729 -22.467,-35.246c-3.517,-6.912 -13.896,-0.825 -10.4,6.067" style="fill-rule:nonzero;"/><path d="M862.596,1168.892c7.346,14.45 15.667,28.421 21.871,43.425c2.908,7.058 14.562,3.971 11.604,-3.192c-6.608,-15.996 -15.254,-30.9 -23.075,-46.3c-3.517,-6.912 -13.896,-0.825 -10.4,6.067" style="fill-rule:nonzero;"/></g><g><path d="M3521.283,3712.183c-0.042,-11.742 0.396,-23.462 1.062,-35.137c-0.762,-15.946 -1.975,-32.142 -1.413,-47.983c-1.246,-6.987 -2.242,-14.037 -2.379,-21.204c-0.312,-16.608 9.438,-31.967 11.55,-48.546c-1.487,-2.021 -2.983,-4.029 -4.425,-6.113c-10.229,-14.817 -0.704,-29.379 12.508,-34.137c5.767,-8.875 16.192,-14.133 26.092,-10.163c39.604,-16.421 84.167,-32.108 126.979,-26.296c7.358,-1.737 14.696,-3.567 22,-5.558c27.562,-7.546 40.275,27.654 19.317,43.546c-17.842,13.533 -35.979,25.971 -50.9,42.679c28.625,3.508 57.333,6.221 85.917,9.892c30.05,-1.4 61.175,-6.929 90.558,1.154c10.671,2.937 11.529,15.762 3.363,21.9c-9.062,6.817 -19.117,11.942 -28.946,17.417c-1.742,4.471 -4.879,8.375 -9.642,10.858c-9.062,4.733 -18.383,8.863 -27.888,12.425c13.413,6.688 26.55,13.971 39.092,22.583c8.117,5.571 11.492,13.35 11.463,20.887c17.883,11.996 33.075,26.483 41.646,44.808c7.908,16.896 -4.033,43.558 -26.396,35.929c-31.992,-10.908 -65.879,-9.775 -98.283,-19.004c-6.8,-1.929 -13.496,-4.45 -20.15,-7.221c6.3,23.579 8.283,48.05 2.325,72.188c-1.804,7.354 -10.788,11.575 -17.475,7.608c-53.425,-31.675 -100.4,-91.754 -117.875,-151.663c-5.133,4.325 -10.137,8.771 -15.092,13.262c-4.008,7.883 -9.229,15.075 -16.304,21.033c-0.717,0.6 -1.542,1.05 -2.358,1.483c-1.021,1.879 -1.971,3.788 -3.067,5.638c-1.421,2.396 -3.583,3.925 -5.942,4.879c-0.521,0.762 -0.867,1.604 -1.521,2.292c-0.333,0.367 -0.746,0.546 -1.104,0.863c-0.258,0.737 -0.558,1.496 -0.983,2.246c-3.571,6.425 -8.104,10.592 -15.096,13.067c-4.596,1.617 -9.604,-0.362 -12.608,-3.946c-6.812,1.096 -14.017,-4.346 -14.042,-11.671" style="fill:#ff6347;fill-rule:nonzero;"/><path d="M3477.875,3405.608c54.942,132.242 174.842,224.467 307.817,270.596c7.271,2.525 4.417,14.204 -2.929,11.662c-137.446,-47.675 -259.725,-142.383 -316.45,-278.9c-2.967,-7.146 8.621,-10.433 11.558,-3.358" style="fill-rule:nonzero;"/><path d="M3534.767,3507.971c47.012,-12.904 96.325,-27.679 144.783,-33.917c16.146,-2.067 60.871,-10.042 71.917,10.438c8.221,15.25 0.958,24.258 -10.933,35.621c-11.808,11.3 -26.362,20.063 -39.004,30.333c-5.754,4.675 -17.5,6.146 -6.442,6.958c7.708,0.575 15.433,0.992 23.154,1.442c33.542,1.992 67.067,3.863 100.529,7.029c14.954,1.421 41.8,0.25 53.512,11.325c23.379,22.113 -66.638,61.004 -82.446,60.85c0.933,-3.754 1.879,-7.513 2.821,-11.271c34.45,22.521 98.125,63.442 97.454,111.262c-0.4,28.45 -30.454,29.55 -52.963,26.296c-24.879,-3.588 -48.896,-10.183 -72.817,-17.792c-4.629,-1.508 -9.262,-3.058 -13.875,-4.642c-7.117,-1.096 -7.321,-2.417 -0.571,-3.971c3.125,10.796 5.858,21.654 8.3,32.617c4.208,18.942 10.475,53.221 -16.708,55.5c-17.925,1.504 -40.4,-21.771 -52.012,-31.575c-27.3,-23.033 -48.829,-52.1 -66.587,-82.812c-0.883,-1.525 -16.971,-32.604 -16.904,-32.683c-11.246,13 -19.175,26.404 -31.312,38.65c-10.417,10.504 -29.15,17.308 -43.546,12.792c-25.183,-7.912 -21.571,-66.146 -21.692,-84.171c-0.275,-42.687 3.062,-92.575 21.108,-131.883c3.246,-7.058 13.763,-1.225 10.546,5.787c-17.471,38.071 -18.896,84.85 -19.608,125.933c-0.35,20.133 0.925,40.567 6.175,60.058c11.675,43.4 64.671,-29.729 77.133,-44.129c3.212,-3.717 8.604,-1.517 10.142,2.458c20.525,53.254 52.188,95.417 95.771,132.192c56.412,47.617 33.521,-35.017 25.625,-62.337c-1.175,-4.075 2.825,-9.058 7.246,-7.513c28.654,10.025 57.521,19.021 87.408,24.554c12.204,2.242 24.45,3.008 36.687,0.804c30.725,-5.521 -12.783,-58.4 -16.579,-62.842c-17.808,-20.846 -41.467,-37.15 -64.225,-52.033c-4.767,-3.113 -3.6,-11.329 2.821,-11.271c14.933,0.137 27.425,-6.775 40.133,-13.7c4.192,-2.279 33.963,-26.596 30.746,-27.792c-18.792,-7.046 -41.583,-6.721 -61.292,-8.417c-38.225,-3.271 -76.629,-4.229 -114.846,-7.567c-4.663,-0.408 -7.321,-4.529 -5.354,-8.896c4.579,-10.129 12.467,-16.458 21.021,-23.404c9.429,-7.654 74.721,-48.054 14.375,-52.742c-55.883,-4.342 -123.217,21.404 -176.338,35.996c-7.487,2.054 -10.846,-9.483 -3.354,-11.542" style="fill-rule:nonzero;"/><path d="M3648.667,3560.587c-28.067,3.429 -56.533,-2.879 -84.021,-7.921c2.188,-3 4.396,-5.992 6.596,-8.983c10.596,21.221 10.5,44.575 14.796,67.442c1.421,7.546 -10.129,10.971 -11.558,3.358c-4.033,-21.513 -3.538,-44.562 -13.5,-64.496c-2.383,-4.783 1.183,-9.975 6.596,-8.983c26.579,4.883 53.8,10.871 80.929,7.567c7.688,-0.942 7.792,11.083 0.162,12.017" style="fill-rule:nonzero;"/><path d="M3745.254,3622.633c-28.929,2.637 -57.888,-0.917 -86.854,0.2c1.904,-2.567 3.796,-5.129 5.696,-7.692c6.508,23.096 10.529,47.95 24.537,67.967c4.45,6.375 -5.842,12.621 -10.262,6.304c-14.646,-20.933 -19.033,-46.771 -25.833,-70.917c-1.071,-3.825 1.783,-7.538 5.7,-7.683c28.975,-1.129 57.929,2.433 86.854,-0.2c7.729,-0.704 7.85,11.317 0.162,12.017" style="fill-rule:nonzero;"/></g><g><path d="M1373.225,2786.283c90.833,-27.754 169.296,-104.35 172.946,-202.883c0.287,-7.75 -11.75,-7.721 -12.038,0c-3.446,93.092 -78.571,165.158 -164.108,191.3c-7.404,2.258 -4.246,13.854 3.196,11.583" style="fill-rule:nonzero;"/><path d="M1473.729,2716.404c-31.383,-105.4 47.9,-162.583 95.696,-245.342c-3.671,-0.471 -7.329,-0.95 -10.996,-1.433c16.142,81.133 47.854,264.346 -88.904,242.571c-7.588,-1.2 -10.842,10.375 -3.196,11.596c149.458,23.796 122.063,-165.15 103.708,-257.358c-1.042,-5.229 -8.533,-5.721 -10.996,-1.433c-50.433,87.325 -129.517,145.067 -96.908,254.588c2.204,7.412 13.821,4.25 11.604,-3.192" style="fill-rule:nonzero;"/></g><g><path d="M268.721,3696.808c-71.725,-41.012 -92.846,-132.942 -40.467,-197.858c30.354,-37.621 77.783,-62.125 117.796,-88.304c55.354,-36.217 136.979,-87.854 151.858,-157.229c11.075,-51.637 -38.608,-48.821 -69.383,-33.458c-22.879,11.421 -65.05,45.896 -90.592,25.7c-20.425,-16.15 -16.554,-58.454 -15.446,-80.737c1.954,-39.467 18.625,-77.221 38.579,-110.563c75.663,-126.417 221.887,-157.142 354.688,-114.262c125.442,40.512 220.067,145.596 262.567,267.808c43.083,123.946 -13.096,247.246 -127.55,309.35c-23.296,12.65 -54.996,16.758 -80.846,19.2c-24.971,2.367 -64.029,-2.896 -56.721,-47.175c2.225,-13.471 11.067,-27.379 17.575,-39.283c12.567,-22.988 34.042,-56.433 22.525,-83.796c-14.117,-33.504 -74.625,17.567 -87.113,27.592c-44.692,35.888 -64.967,72.075 -84.254,124.321c-23.875,64.675 -48.458,132.05 -94.529,184.675c-64.388,73.546 -149.963,45.6 -218.679,-5.979c-6.212,-4.654 -12.2,5.787 -6.075,10.383c55.708,41.821 122.908,73.575 190.071,39.167c57.3,-29.363 89.425,-98.4 113.358,-154.325c24.7,-57.713 36.692,-120.004 81.954,-165.688c7.704,-7.767 84.629,-78.412 95.358,-52.946c16.737,39.746 -44.946,83.767 -43.625,124.137c2.525,77.729 113.817,48.646 157.087,30.092c83.492,-35.792 143.354,-131.133 149.096,-219.067c5.904,-90.45 -42.958,-184.667 -99.038,-252.146c-67.929,-81.75 -167.863,-133.154 -272.533,-146.833c-143.025,-18.692 -277.125,78.008 -316.917,214.192c-10.804,36.983 -18.854,106.004 16.179,133.721c23.613,18.671 61.317,-5.617 82.233,-17.046c16.371,-8.95 36.979,-23.996 56.692,-20.988c46.562,7.075 -17.65,86.65 -27.55,97.158c-42.721,45.35 -96.983,77.654 -148.354,112.013c-48.554,32.475 -95.954,67.008 -109.05,127.021c-13.096,60.021 24.333,122.529 75.046,151.537c6.75,3.854 12.808,-6.537 6.075,-10.383" style="fill-rule:nonzero;"/><path d="M811.396,3259.754c-32.096,-16.017 -64.204,3.212 -96.3,0c12.837,-22.429 115.562,-70.508 99.508,-96.142c-19.258,-22.438 -109.138,35.254 -125.192,44.867c9.629,-38.454 70.629,-105.754 38.521,-118.571c-38.521,-19.229 -89.879,76.913 -121.975,105.754c-9.629,-12.825 12.837,-153.825 -41.737,-108.283c-26.175,21.854 0,82.642 3.217,105.071c19.258,70.508 -38.521,157.038 -80.258,201.896c-57.779,64.096 -112.346,118.579 -176.55,166.65c-23.325,16.296 -68.625,56.196 -105.229,79.296c34.333,29.446 54.312,66.596 96.579,89.312c8.975,4.825 18.017,9.471 27.062,14.104c30.458,-45.512 70.417,-119.579 90.725,-147.471c48.15,-67.3 96.3,-137.796 150.875,-198.683c60.987,-70.508 105.933,-83.325 195.808,-92.938c35.312,-3.2 96.3,-16.025 44.946,-44.867" style="fill-rule:nonzero;"/><path d="M270.121,3458.279c6.425,9.613 12.837,19.229 19.258,28.842c4.275,6.412 14.717,0.404 10.392,-6.067c-6.413,-9.613 -12.837,-19.229 -19.258,-28.842c-4.275,-6.413 -14.717,-0.404 -10.392,6.067" style="fill-rule:nonzero;"/><path d="M324.688,3423.025c9.542,18.863 20.408,36.879 32.096,54.483c4.267,6.421 14.704,0.412 10.4,-6.067c-11.7,-17.604 -22.554,-35.621 -32.108,-54.483c-3.496,-6.921 -13.887,-0.838 -10.392,6.067" style="fill-rule:nonzero;"/><path d="M369.025,3392.746c3.767,14.229 10.533,27.275 20.812,37.908c5.392,5.587 13.896,-2.913 8.504,-8.5c-8.858,-9.183 -14.462,-20.333 -17.708,-32.6c-1.975,-7.488 -13.587,-4.308 -11.604,3.192" style="fill-rule:nonzero;"/><path d="M413.967,3360.7c3.754,10.613 9.738,20.217 17.596,28.283c5.421,5.567 13.925,-2.942 8.512,-8.5c-6.375,-6.546 -11.45,-14.354 -14.504,-22.979c-2.562,-7.258 -14.196,-4.133 -11.604,3.192" style="fill-rule:nonzero;"/><path d="M462.721,3314.067c4.004,7.267 11.15,11.596 16.988,17.238c5.575,5.392 14.1,-3.104 8.512,-8.508c-4.979,-4.808 -11.7,-8.625 -15.108,-14.796c-3.746,-6.787 -14.137,-0.721 -10.392,6.067" style="fill-rule:nonzero;"/><path d="M371.217,3195.667c-5.221,-114.821 102.871,-214.133 215.475,-211.912c7.771,0.154 7.754,-11.863 0,-12.017c-118.921,-2.354 -233.029,102.725 -227.513,223.929c0.358,7.721 12.396,7.758 12.038,0" style="fill-rule:nonzero;"/><path d="M779.296,3502.912c127.946,-5.212 190.754,-151.612 169.521,-263.983c-1.446,-7.613 -13.037,-4.375 -11.612,3.192c19.733,104.4 -38.133,243.9 -157.904,248.771c-7.733,0.317 -7.762,12.333 0,12.017" style="fill-rule:nonzero;"/><path d="M470.079,3574.867c11.317,10.729 25.942,16.554 39.733,23.371c6.933,3.413 13.037,-6.95 6.075,-10.383c-12.75,-6.296 -26.829,-11.567 -37.296,-21.496c-5.625,-5.325 -14.146,3.154 -8.513,8.508" style="fill-rule:nonzero;"/><path d="M508.05,3528.337c10.312,3.808 18.5,12.508 27.454,18.621c6.425,4.392 12.433,-6.029 6.067,-10.383c-10.017,-6.838 -18.758,-15.567 -30.325,-19.825c-7.3,-2.692 -10.421,8.933 -3.196,11.583" style="fill-rule:nonzero;"/><path d="M547.121,3465.9l16.054,16.025c5.488,5.479 14.004,-3.008 8.513,-8.508l-16.054,-16.025c-5.5,-5.479 -14.004,3.021 -8.513,8.508" style="fill-rule:nonzero;"/><path d="M590.071,3409.154c5.354,2.671 10.892,5.221 13.888,10.662c3.746,6.787 14.137,0.742 10.392,-6.058c-4.025,-7.325 -10.95,-11.354 -18.2,-14.987c-6.912,-3.462 -13.021,6.904 -6.075,10.383" style="fill-rule:nonzero;"/><path d="M623.225,3368.542c4.033,7.325 10.958,11.354 18.212,14.988c6.913,3.462 13.021,-6.904 6.075,-10.383c-5.354,-2.683 -10.892,-5.221 -13.896,-10.671c-3.746,-6.787 -14.138,-0.721 -10.392,6.067" style="fill-rule:nonzero;"/><path d="M627.804,3123.55c6.2,-21.429 13.067,-42.658 19.258,-64.096c2.158,-7.462 -9.458,-10.625 -11.604,-3.192c-6.192,21.429 -13.067,42.658 -19.258,64.096c-2.158,7.462 9.458,10.625 11.604,3.192" style="fill-rule:nonzero;"/><path d="M748.238,3148.637c15.658,-17.95 36.942,-27.921 56.567,-40.717c6.462,-4.229 0.433,-14.642 -6.075,-10.383c-20.483,13.354 -42.671,23.871 -59.004,42.592c-5.075,5.825 3.408,14.354 8.513,8.508" style="fill-rule:nonzero;"/><path d="M806.571,3239.917c21.65,-3.096 43.308,-6.192 64.204,-12.825c7.367,-2.337 4.208,-13.942 -3.208,-11.583c-20.887,6.633 -42.554,9.729 -64.196,12.825c-7.654,1.096 -4.392,12.671 3.196,11.583" style="fill-rule:nonzero;"/></g><g><path d="M1081.567,3211.025c6.171,4.708 13.458,-4.85 7.288,-9.554c-6.171,-4.708 -13.458,4.85 -7.288,9.554" style="fill-rule:nonzero;"/><path d="M1414.617,3912.408l30.629,23.358c6.171,4.708 13.458,-4.85 7.288,-9.554l-30.629,-23.358c-6.171,-4.708 -13.458,4.85 -7.287,9.554" style="fill-rule:nonzero;"/><path d="M1413.225,3660.433c6.325,12.875 12.65,25.767 18.967,38.65c3.412,6.942 14.546,2.4 11.129,-4.571c-6.317,-12.883 -12.65,-25.767 -18.967,-38.65c-3.413,-6.942 -14.546,-2.4 -11.129,4.571" style="fill-rule:nonzero;"/><path d="M1530.071,3595.212c3.417,23.354 10.804,45.829 16.183,68.771c1.754,7.479 13.696,5.958 11.921,-1.608c-5.383,-22.921 -12.758,-45.412 -16.175,-68.767c-1.129,-7.667 -13.054,-6.088 -11.929,1.604" style="fill-rule:nonzero;"/><path d="M1639.413,3556.158c0.004,17.825 2.371,35.275 7.104,52.475c2.062,7.475 13.15,2.8 11.121,-4.575c-4.133,-15.05 -6.275,-30.821 -6.283,-46.421c0,-7.642 -11.942,-9.242 -11.942,-1.479" style="fill-rule:nonzero;"/><path d="M1911.146,3564.112c-5.771,13.967 -8.133,28.704 -8.392,43.767c-0.133,7.671 11.804,9.246 11.933,1.488c0.242,-14.071 2.237,-27.688 7.621,-40.75c2.958,-7.15 -8.208,-11.675 -11.162,-4.5" style="fill-rule:nonzero;"/><path d="M930.108,3730.8c92.446,-20.167 181.675,-78.404 245.367,-147.254c69.458,-75.079 59.45,-174.958 52.233,-268.971c-9.317,-121.367 23.133,-279.425 139.296,-342.642c39.088,-21.283 83.525,-20.583 118.442,7.883c19.429,15.846 34.863,36.867 53.8,53.5c28.396,24.921 65.642,29.108 100.462,17.788c86.996,-28.3 44.958,-132.533 18.792,-188.363c-24.425,-52.121 -44.442,-102.621 -23.196,-159.762c26.604,-71.504 117.55,-76.708 181.854,-78.337c32.058,-0.808 25.667,5.142 26.654,30.717c0.133,3.429 -39.633,-3.979 -46.092,-4.404c-35.654,-2.383 -70.796,8.217 -100.917,26.617c-65.833,40.221 -61.888,117.683 -26.533,176.788c16.371,27.367 36.592,50.096 43.237,82.213c7.213,34.896 -11.433,76.762 -29.383,105.746c-25.729,41.579 -70.275,56.442 -116.454,42.783c-36.229,-10.717 -53.104,-50.042 -79.079,-73.663c-81.896,-74.446 -163.083,6.738 -198.208,85.475c-26.271,58.883 -39.263,131.146 -36.942,195.292c1.233,34.083 9.117,67.954 12.442,101.879c4.242,43.379 -5.408,88.046 -20.958,128.204c-55.35,142.887 -213.004,197.45 -342.204,252.262c-7.15,3.021 -2.554,14.146 4.583,11.125c149.521,-63.433 315.121,-126.796 362.129,-299.492c24.5,-90.025 -11.617,-181.363 1.829,-272.771c11.8,-80.279 80.812,-287.337 199.779,-201.742c50.383,36.25 81.1,115.95 159.258,87.646c59.025,-21.363 90.167,-83.083 96.096,-142.908c7.117,-71.771 -72.421,-117.358 -71.004,-190.121c1.837,-94.796 123.554,-115.692 193.854,-93.438c4.213,1.337 8.838,-1.629 8.192,-6.375c-3.058,-15.221 -2.517,-30.492 1.621,-45.825c0.85,-3.292 -0.533,-8.242 -4.85,-8.221c-68.167,0.258 -143.121,-1.667 -199.325,42.646c-48.304,38.088 -47.487,107.171 -30.046,159.892c22.683,68.542 117.188,204.679 -8.496,229.917c-54.829,11.021 -89.533,-42.279 -123.625,-74.612c-25.95,-24.592 -56.95,-28.296 -90.792,-23.192c-149.275,22.504 -193.537,234.304 -187.021,356.229c5.017,93.738 20.454,184.671 -41.787,264.483c-56.362,72.279 -155.575,131.679 -244.633,151.092c-7.533,1.654 -5.975,13.579 1.608,11.929" style="fill-rule:nonzero;"/><path d="M2067.7,2880.008c-67.346,-17.571 -243.013,-53.308 -237.129,67.108c2.683,54.763 63.65,107.438 48.938,160.521c-23.371,84.333 -181.112,46.162 -241.912,37.633c-49.971,-7.004 -115.196,-11.129 -147.875,35.408c-21.796,31.038 27.487,64.671 44.929,82.596c70.825,72.783 -72.038,99.217 -117.488,104.737c-47.179,5.708 -100.708,1.021 -145.954,17.008c-7.333,2.596 -2.696,13.7 4.583,11.125c85.354,-30.146 205.371,9.146 275.529,-62.037c26.704,-27.104 8.996,-61.55 -12.858,-84.008c-16.617,-17.075 -54.783,-39.883 -34.696,-68.479c29.287,-41.721 102.558,-28.583 145.021,-22.629c65.821,9.233 275.325,39.958 242,-88.871c-14.829,-57.367 -77.317,-104.479 -34.929,-167.946c37.892,-56.729 154.554,-24.788 207.35,-11.012c7.396,1.929 11.992,-9.196 4.483,-11.15" style="fill-rule:nonzero;"/><path d="M2059.875,2883.337c-7.975,22.575 -5.883,26.321 -27.204,21.475c-17.467,-3.967 -35.504,-5.438 -53.329,-6.696c-30.142,-2.117 -60.925,-0.325 -89.75,8.946c-57.562,18.525 -20.438,73.754 1.425,104.467c33.208,46.642 28.917,110.15 -17.071,145.629c-35.108,27.088 -86.325,31.433 -128.925,34.033c-65.571,4 -154.85,-28.637 -212.912,8.679c-2.963,1.9 -2.729,5.8 -1.138,8.417c13.092,21.617 31.596,39.117 44.029,61.113c38.121,67.462 -50.067,108.854 -99.442,120.712c-66.475,15.971 -135.629,18 -202.521,32.179c-7.542,1.6 -5.988,13.533 1.6,11.921c72.008,-15.271 145.904,-18.579 217.542,-35.787c41.842,-10.046 92.796,-36.221 99,-84.471c2.808,-21.833 0.825,-38.704 -10.096,-58.033c-11.596,-20.512 -58.467,-48.983 -10.229,-59.429c49.354,-10.688 112.462,7.896 163.504,7.079c74.617,-1.188 194.588,-23.971 190.354,-122.117c-0.867,-20.238 -2.796,-42.263 -13.375,-60.163c-13.283,-22.442 -61.246,-69.346 -30.546,-96.229c36.912,-32.313 129.004,-16.837 171.346,-2.537c3,1.004 6.688,-0.113 7.821,-3.333c3.692,-10.446 7.379,-20.9 11.071,-31.35c2.575,-7.283 -8.571,-11.833 -11.162,-4.5" style="fill-rule:nonzero;"/><path d="M1228.096,3397.429c-78.433,7.275 -148.438,44.325 -207.642,94.871c-77.237,65.921 -128.092,158.662 -231.454,188.092c-7.467,2.117 -2.775,13.217 4.587,11.117c78.104,-22.229 129.217,-80.033 182.421,-137.817c68.054,-73.904 150.575,-134.779 253.696,-144.333c7.742,-0.721 6.096,-12.642 -1.608,-11.929" style="fill-rule:nonzero;"/><path d="M1220.496,3433.821c-82.483,5.929 -160.375,54.446 -217.825,111.988c-59.113,59.213 -121.733,147.767 -212.925,152.504c-7.758,0.408 -6.083,12.325 1.608,11.929c72.029,-3.754 126.342,-59.133 173.604,-107.954c70.817,-73.162 149.817,-148.825 257.146,-156.542c7.75,-0.558 6.096,-12.471 -1.608,-11.929" style="fill-rule:nonzero;"/><path d="M2187.508,2937.358c-57.733,-1.796 -112.283,3.604 -159.975,38.804c-36.212,26.742 -30.504,73.962 -24.554,112.738c10.337,67.371 25.85,139.671 -2.587,204.446c-37.483,85.383 -158.329,100.025 -238.754,111.938c-142.592,21.142 -305.412,15.404 -436.196,83.967c-53.663,28.137 -91.283,82.083 -123.871,131.146c-19.571,29.471 -37.808,59.779 -57.642,89.088c-23.796,35.171 -54.254,64.512 -79.692,98.375c-4.646,6.188 4.917,13.496 9.571,7.3c40.917,-54.471 84.021,-103.717 120.717,-161.629c39.496,-62.312 81.392,-124.792 148.463,-159.958c65.171,-34.158 149.267,-42.979 221.304,-53.254c75.383,-10.737 151.521,-15.65 226.775,-27.333c103.033,-15.996 215.383,-49.842 235.604,-165.871c8.987,-51.579 -3.671,-108.933 -11.771,-159.817c-7,-43.971 -8.813,-80.342 31.154,-109.846c39.067,-28.846 93.783,-29.604 139.987,-28.158c7.679,0.238 9.238,-11.696 1.467,-11.942" style="fill-rule:nonzero;"/><path d="M1108.138,3832.317c17.671,-38.142 45.721,-68.375 71.9,-100.692c28.746,-35.483 54.242,-73.596 83.062,-109.117c60.175,-74.183 133.046,-114.558 225.208,-136.996c142.079,-34.592 289.883,-16.225 429.817,-65.196c49.971,-17.483 104.979,-46.683 132.354,-93.821c20.537,-35.375 20.692,-79.775 18.542,-119.354c-2.642,-48.783 -14.187,-96.608 -18.425,-145.217c-2.5,-28.7 -0.846,-51.804 28.7,-63.608c31.929,-12.754 70.567,-13.904 104.508,-16.767c7.746,-0.658 6.104,-12.575 -1.608,-11.929c-38.992,3.308 -106,1.592 -134.2,34.292c-19.404,22.488 -8.837,68.675 -5.333,94.233c7.767,56.513 19.425,112.558 13.262,169.837c-9.446,87.688 -95.012,126.592 -169.967,150.408c-149.404,47.492 -310.129,22.908 -459.417,72.362c-72.071,23.867 -125.196,66.921 -173.013,124.45c-29.271,35.217 -55.346,72.725 -83.062,109.117c-26.013,34.137 -55.263,64.121 -73.492,103.492c-3.254,7.033 7.917,11.517 11.162,4.5" style="fill-rule:nonzero;"/><path d="M2181.879,2946.312c-1.746,9.454 -2.975,18.733 -2.308,28.371c0.533,7.746 12.458,6.104 11.921,-1.608c-0.596,-8.554 0.787,-16.896 2.329,-25.283c1.413,-7.629 -10.542,-9.079 -11.942,-1.479" style="fill-rule:nonzero;"/></g><g><path d="M499.038,771.412c3.179,15.846 6.454,31.621 13.442,46.3c3.342,7 13.712,0.896 10.4,-6.058c-6.508,-13.65 -9.283,-28.717 -12.242,-43.438c-1.521,-7.596 -13.125,-4.375 -11.604,3.192" style="fill-rule:nonzero;"/><path d="M192.621,396.225l93.942,-64.45l80.225,-28.112l78.171,-10.971l80.225,15.083l87.771,31.537l91.883,65.138l69.254,83.65l28.8,62.392l15.083,57.25l-1.371,113.817l-29.483,82.963l-37.029,52.45l-33.6,44.567l-109.025,77.479l-146.737,34.967l-181.708,-30.167l-139.883,-102.846l-51.429,-147.413l9.6,-95.992l32.229,-128.558l63.083,-112.787l-0,0.004Z" style="fill:#ff6347;stroke:#000;stroke-width:4.17px;"/><g><path d="M481.95,214.6c-245.283,-25.483 -408.45,147.717 -457.579,374.075c-23.721,109.275 -16.337,228.425 44.875,324.317c63.342,99.187 189.496,149.396 300.992,166.188c250.813,37.767 480.138,-130.271 522.529,-380.171c41.404,-243.954 -190.129,-443.692 -408.908,-484.154c-9.058,-1.675 -12.925,12.154 -3.817,13.842c214.413,39.646 417.925,218.896 400.642,451.933c-8.671,116.842 -81.979,227.333 -169.35,301.187c-88.717,74.992 -210.512,95.25 -323.146,85.196c-107.817,-9.621 -215.758,-57.254 -288.7,-137.833c-80.9,-89.396 -82.521,-225.346 -61.262,-336.692c42.254,-221.225 208.513,-387.975 443.725,-363.537c9.208,0.954 9.117,-13.396 0,-14.35" style="fill-rule:nonzero;"/><path d="M477.358,285.567c-212.504,-21.225 -349.213,133.221 -385.658,329.575c-17.396,93.746 -5.613,194.104 53.371,271.229c54.2,70.879 153.15,111.779 239.487,122.121c212.192,25.425 403.242,-107.129 436.988,-322.675c31.7,-202.438 -161.533,-366.017 -342.279,-399.996c-9.058,-1.7 -12.925,12.133 -3.817,13.842c176.433,33.162 342.058,176.954 333.6,368.337c-4.279,96.858 -64.321,188.871 -134.583,251.621c-74.254,66.333 -177.617,84.471 -273.958,76.438c-95.283,-7.942 -193.738,-52.492 -252.413,-129.192c-56.237,-73.542 -55.708,-176.908 -39.654,-263.421c34.321,-184.954 173.042,-323.087 368.921,-303.529c9.221,0.917 9.129,-13.442 0,-14.35" style="fill-rule:nonzero;"/><path d="M450.217,635.408c-19.317,-39.567 -46.058,-74.037 -72.733,-108.862c-14.704,-19.204 -29.067,-38.613 -42.875,-58.462c-18.775,-26.975 -44.196,-49.758 -5.829,-77.192c66.042,-47.2 144.158,-40.312 217.817,-19.329c39.208,11.167 52.558,22.062 32.079,55.546c-15.096,24.679 -31.987,48.312 -48.521,72.042c-30.779,44.146 -68.55,87.767 -92.337,136.262c-4.058,8.275 8.338,15.542 12.404,7.242c23.767,-48.475 61.492,-92.208 92.338,-136.262c14.175,-20.25 73.137,-82.358 65.342,-110.654c-11.442,-41.529 -98.329,-49.438 -131.146,-53.271c-73.367,-8.596 -132.454,16.321 -189.288,61.938c-2.608,2.1 -2.437,6.017 -1.117,8.7c40.796,83.037 111.013,146.683 151.463,229.55c4.058,8.312 16.454,1.046 12.404,-7.242" style="fill-rule:nonzero;"/><path d="M439.092,678.9c21.512,38.983 178.237,200.254 147.829,227.275c-66.85,59.367 -148.163,60.479 -230.358,41.425c-9.542,-2.204 -51.775,-12.146 -48.325,-26.85c2.175,-9.242 8.508,-18.563 13.004,-26.804c13.842,-25.404 29.525,-49.85 44.854,-74.371c28.538,-45.629 64.079,-91.071 85.404,-140.683c3.621,-8.404 -8.762,-15.725 -12.404,-7.242c-21.317,49.575 -56.8,95.146 -85.404,140.683c-13.842,22.037 -68.067,84.517 -60.008,113.742c11.521,41.838 100.262,43.996 133.396,47.037c72.85,6.658 132.754,-23.725 186.058,-71.062c2.438,-2.158 2.633,-5.992 1.125,-8.688c-44.913,-80.9 -118.233,-141.012 -162.762,-221.708c-4.471,-8.104 -16.879,-0.863 -12.404,7.242" style="fill-rule:nonzero;"/><path d="M428.583,657.167c-39.633,19.296 -74.162,45.983 -109.046,72.625c-19.238,14.679 -38.667,29.008 -58.558,42.804c-27.021,18.733 -49.842,44.125 -77.321,5.821c-47.279,-65.946 -40.392,-143.917 -19.363,-217.463c11.188,-39.142 22.1,-52.446 55.638,-32.012c24.708,15.071 48.396,31.933 72.158,48.442c44.221,30.729 87.913,68.425 136.492,92.183c8.292,4.05 15.579,-8.333 7.254,-12.396c-48.546,-23.725 -92.363,-61.375 -136.492,-92.175c-20.283,-14.167 -82.496,-73.017 -110.838,-65.233c-41.613,11.421 -49.508,98.167 -53.363,130.925c-8.625,73.246 16.35,132.233 62.054,188.971c2.092,2.604 6.025,2.433 8.704,1.125c83.188,-40.738 146.929,-110.85 229.933,-151.221c8.325,-4.05 1.046,-16.438 -7.254,-12.396" style="fill-rule:nonzero;"/><path d="M472.142,668.283c39.046,-21.475 200.592,-177.942 227.658,-147.571c59.467,66.713 60.583,147.9 41.508,229.963c-2.221,9.529 -12.175,51.687 -26.892,48.233c-9.267,-2.171 -18.592,-8.483 -26.846,-12.971c-25.446,-13.821 -49.933,-29.475 -74.496,-44.788c-45.704,-28.479 -91.225,-63.971 -140.929,-85.262c-8.417,-3.604 -15.75,8.758 -7.254,12.396c49.671,21.283 95.317,56.692 140.929,85.262c22.062,13.821 84.658,67.942 113.921,59.896c41.908,-11.5 44.083,-100.071 47.108,-133.162c6.667,-72.742 -23.742,-132.533 -71.171,-185.758c-2.163,-2.421 -6,-2.604 -8.704,-1.113c-81.038,44.833 -141.237,118.033 -222.079,162.479c-8.117,4.475 -0.875,16.863 7.254,12.396" style="fill-rule:nonzero;"/><path d="M438.121,528.492c-9.417,-7.267 -17.717,-16.117 -25.317,-25.217c-3.012,-3.629 -23.479,-31.496 -9.392,-32.804c8.175,-0.758 14.2,25.896 15.658,31.142c2.85,10.229 4.587,20.683 7.05,30.992c2.137,9.013 15.992,5.188 13.854,-3.812c-4.058,-17.033 -12.454,-84.883 -43.417,-71.1c-36.829,16.404 15.592,68.733 31.4,80.958c7.233,5.579 17.488,-4.5 10.163,-10.158" style="fill-rule:nonzero;"/><path d="M460.363,522.079c1.125,-8.621 2.908,-17.183 4.933,-25.621c1.979,-8.321 4.438,-23.613 11.887,-29.1c1.196,-0.883 0.504,3.5 0.058,5.533c-1.458,6.45 -4.829,12.5 -7.967,18.263c-4.887,8.954 -10.542,17.825 -16.854,25.85c-5.667,7.188 4.425,17.412 10.154,10.146c8.958,-11.362 49.592,-66.012 18.754,-73.704c-27.158,-6.771 -33.158,51.929 -35.333,68.629c-1.196,9.158 13.188,9.046 14.371,0" style="fill-rule:nonzero;"/><path d="M422.2,775.537c-8.163,10.262 -15.854,20.912 -22.754,32.071c-5.529,8.967 -16.787,26.25 -8.142,36.492c10.108,11.938 24.492,-0.929 29.608,-10.375c8.325,-15.346 11.567,-33.092 16.179,-49.758c2.471,-8.929 -11.396,-12.717 -13.854,-3.812c-2.908,10.467 -5.392,21.029 -8.737,31.383c-2.117,6.521 -4.621,12.867 -8.15,18.754c-0.783,1.287 -2.104,3.479 -3.771,3.675c-3.229,0.379 0.079,0.162 0.092,1.008c-0.138,-9.125 9.383,-20.637 14.121,-27.825c4.863,-7.379 10.083,-14.554 15.579,-21.454c5.704,-7.163 -4.404,-17.4 -10.162,-10.158" style="fill-rule:nonzero;"/><path d="M450.308,786.367c0,15.175 -2.508,62.25 21.212,61.996c14.671,-0.15 19.063,-16.367 16.371,-27.858c-3.517,-14.967 -14.279,-28.983 -23.879,-40.646c-5.887,-7.15 -15.992,3.054 -10.154,10.146c6.508,7.896 12.2,16.529 16.846,25.642c2.229,4.396 4.025,9.229 4,14.213c-0.012,1.962 -1.887,2.983 -3.321,3.912c-0.837,0.55 1.033,1.204 -0.312,-0.162c-5.058,-5.188 -5.025,-18.25 -5.6,-24.887c-0.633,-7.425 -0.792,-14.912 -0.792,-22.358c0,-9.25 -14.371,-9.25 -14.371,0" style="fill-rule:nonzero;"/><path d="M348.154,664.283c-17.925,0.354 -73.333,12.283 -55.042,40.875c15.75,24.6 56.225,-16.792 65.562,-30.083c5.333,-7.6 -7.142,-14.75 -12.417,-7.233c-4.404,6.267 -10.671,11.637 -16.421,16.654c-5.288,4.604 -16.467,14.979 -24.329,13.179c-3.333,-0.758 0.058,-5.429 0.883,-6.292c3.713,-3.821 9.729,-5.783 14.625,-7.471c8.567,-2.95 18.029,-5.096 27.133,-5.279c9.254,-0.183 9.279,-14.533 0,-14.35" style="fill-rule:nonzero;"/><path d="M337.108,644.442c-7.6,-1.308 -15.083,-3.158 -22.421,-5.546c-1.713,-0.55 -17.708,-8.504 -15.337,-9.483c5.887,-2.388 17.983,9.733 21.787,12.983c5.842,4.992 11.188,10.917 17.638,15.162c7.762,5.083 14.958,-7.333 7.242,-12.408c-9.854,-6.45 -17.742,-16.058 -27.467,-22.9c-8.429,-5.925 -24.537,-12.546 -31.275,-0.367c-13.475,24.379 30.471,33.725 46.012,36.387c9.058,1.562 12.933,-12.258 3.817,-13.833" style="fill-rule:nonzero;"/><path d="M555.775,653.533c8.704,-14.704 32.413,-26.596 48.683,-29.742c3.712,-0.713 0.817,-2.8 -0.125,0.071c-2.163,6.475 -7.946,10.125 -13.992,12.362c-12.338,4.579 -25.983,3.775 -38.358,8.217c-8.658,3.1 -4.921,16.975 3.817,13.833c17.004,-6.083 38.875,-2.904 52.946,-16.175c7.346,-6.908 17.2,-24.117 4.575,-31.117c-10.671,-5.933 -27.171,3.363 -36.458,8.171c-12.167,6.312 -26.342,15.05 -33.492,27.133c-4.725,7.979 7.692,15.196 12.404,7.242" style="fill-rule:nonzero;"/><path d="M549.125,680.829c7.933,13.088 45.992,43.767 59.812,24.046c7.933,-11.329 -0.496,-24.471 -11.258,-29.487c-12.833,-5.958 -28.4,-6.738 -42.346,-6.796c-9.279,-0.046 -9.267,14.304 0,14.35c9.013,0.033 18.004,0.654 26.858,2.479c4.646,0.963 9.058,2.421 13.062,4.992c1.896,1.204 2.413,5.867 2.275,5.958c-3.85,2.687 -16.037,-5.829 -19.004,-7.692c-6.117,-3.821 -13.175,-8.817 -16.996,-15.096c-4.796,-7.896 -17.225,-0.688 -12.404,7.242" style="fill-rule:nonzero;"/><path d="M252.433,482.654c22.296,23.004 50.279,39.475 71.942,63.192c6.254,6.854 16.396,-3.329 10.162,-10.158c-21.662,-23.692 -49.646,-40.175 -71.942,-63.192c-6.462,-6.658 -16.613,3.5 -10.162,10.158" style="fill-rule:nonzero;"/><path d="M265.475,837.404c23.112,-22.912 47.396,-44.596 70.492,-67.496c6.588,-6.533 -3.575,-16.679 -10.154,-10.158c-23.113,22.912 -47.396,44.596 -70.504,67.496c-6.588,6.542 3.587,16.679 10.162,10.158" style="fill-rule:nonzero;"/><path d="M549.125,764.137c12.213,22.729 35.137,37.167 55.812,51.413c7.658,5.267 14.833,-7.175 7.254,-12.396c-18.663,-12.854 -39.633,-25.733 -50.658,-46.258c-4.379,-8.162 -16.788,-0.908 -12.404,7.242" style="fill-rule:nonzero;"/><path d="M567.604,537.221c19.042,-14.854 36.171,-31.808 53.225,-48.829c6.567,-6.542 -3.6,-16.7 -10.154,-10.158c-17.062,17.033 -34.196,33.988 -53.233,48.829c-7.3,5.692 2.954,15.771 10.162,10.158" style="fill-rule:nonzero;"/><path d="M250.583,269.762c1.896,8.046 5.933,15.208 10.796,21.833c5.417,7.392 17.892,0.242 12.404,-7.242c-4.162,-5.683 -7.717,-11.492 -9.346,-18.4c-2.117,-9 -15.983,-5.188 -13.854,3.812" style="fill-rule:nonzero;"/><path d="M353.913,226.2c0.125,9.858 1.863,19.363 6.738,28.042c4.529,8.071 16.958,0.85 12.417,-7.242c-3.646,-6.475 -4.692,-13.454 -4.783,-20.8c-0.125,-9.25 -14.5,-9.262 -14.371,0" style="fill-rule:nonzero;"/><path d="M461.817,226.2l0,34.483c0,9.25 14.371,9.25 14.371,0l0,-34.483c0,-9.25 -14.371,-9.25 -14.371,0" style="fill-rule:nonzero;"/><path d="M596.604,264.237c-3,5.979 -6.129,11.813 -10.071,17.242c-5.463,7.496 7.012,14.646 12.404,7.242c3.954,-5.429 7.071,-11.262 10.071,-17.242c4.129,-8.254 -8.267,-15.521 -12.404,-7.242" style="fill-rule:nonzero;"/><path d="M718.892,336.046c-3.829,6.292 -8.104,11.971 -13.258,17.229c-6.496,6.612 3.667,16.771 10.154,10.158c5.992,-6.108 11.071,-12.854 15.513,-20.146c4.829,-7.933 -7.6,-15.129 -12.404,-7.242" style="fill-rule:nonzero;"/><path d="M797.704,420.779c-5.692,5.888 -10.142,12.787 -15.821,18.675c-6.429,6.671 3.725,16.829 10.163,10.158c5.679,-5.9 10.129,-12.808 15.821,-18.675c6.429,-6.658 -3.712,-16.817 -10.163,-10.158" style="fill-rule:nonzero;"/><path d="M837.317,533.567c8.358,-0.162 16.187,-1.754 23.767,-5.292c8.392,-3.912 1.092,-16.275 -7.242,-12.396c-5.208,2.433 -10.829,3.238 -16.521,3.342c-9.254,0.171 -9.279,14.521 0,14.35" style="fill-rule:nonzero;"/><path d="M856.988,613.742c7.796,1.413 15.579,1.7 23.492,1.7c9.267,0.013 9.267,-14.338 0,-14.35c-6.587,0 -13.175,-0.013 -19.671,-1.183c-9.058,-1.654 -12.925,12.179 -3.817,13.833" style="fill-rule:nonzero;"/><path d="M858.429,702.8c6.796,1.688 13.579,2.996 20.604,3.121c9.279,0.183 9.267,-14.167 0,-14.35c-5.771,-0.104 -11.2,-1.217 -16.787,-2.604c-8.992,-2.225 -12.808,11.604 -3.817,13.833" style="fill-rule:nonzero;"/><path d="M832.254,795.437c7.175,3.408 14.371,5.142 22.329,5.292c9.279,0.171 9.254,-14.175 0,-14.35c-5.325,-0.104 -10.246,-1.046 -15.075,-3.342c-8.325,-3.958 -15.625,8.412 -7.254,12.396" style="fill-rule:nonzero;"/><path d="M786.513,877.6c3.562,6.521 9.004,10.733 15.521,14.083c8.221,4.212 15.5,-8.162 7.254,-12.408c-4.438,-2.271 -7.933,-4.454 -10.371,-8.921c-4.438,-8.125 -16.846,-0.883 -12.404,7.242" style="fill-rule:nonzero;"/><path d="M728.967,939.367c3.608,8.275 9.913,14.396 16.958,19.825c3.117,2.387 8.037,0.471 9.829,-2.583c2.175,-3.696 0.517,-7.438 -2.575,-9.825c-5.138,-3.938 -9.2,-8.713 -11.808,-14.658c-3.704,-8.458 -16.075,-1.146 -12.404,7.242" style="fill-rule:nonzero;"/></g><path d="M142.617,343.762l111.287,-76.358l95.042,-33.304l92.604,-12.996l95.042,17.871l103.979,37.367l108.85,77.171l82.046,99.104l34.117,73.921l17.871,67.829l-1.625,134.846l-34.929,98.292l-43.867,62.142l-39.804,52.8l-129.158,91.792l-173.837,41.429l-215.267,-35.742l-165.713,-121.85l-60.925,-174.65l11.371,-113.725l38.179,-152.312l74.733,-133.629l0.004,0.004Z" style="fill:none;"/></g><g><path d="M-36.908,2383.312l774.963,-115.758l314.371,-32.9l108.446,10.967c0,0 52.9,14.521 67.321,24.675c11.596,8.167 19.192,36.25 19.192,36.25l-4.875,49.958c0,0 -43.458,38.129 -69.15,50.554c-36.962,17.871 -152.617,56.675 -152.617,56.675l-690.883,158.404l-343.617,68.238l-23.15,-307.058l0,-0.004Z" style="fill:#ff6347;"/><g><path d="M-46.158,2388.433c220.654,-27.737 440.388,-62 660.646,-92.642c117.525,-16.333 235.333,-32.062 353.454,-43.483c65.079,-6.288 306.104,-38.679 272.437,88.046c-13.175,49.608 -100.771,74.038 -141.321,90.133c-47.083,18.692 -95.763,33.283 -144.596,46.629c-97.283,26.583 -196.896,44.188 -295.875,63.058c-228.063,43.475 -452.538,103.958 -680.658,147.317c-7.625,1.442 -4.392,13.025 3.196,11.583c255.342,-48.533 507.067,-113.888 762.342,-162.892c116.15,-22.296 231.721,-47.637 343.046,-88.121c60.1,-21.854 160.158,-48.158 169.029,-123.529c8.312,-70.546 -87.692,-87.979 -136.7,-91.517c-122.696,-8.854 -252.858,17.775 -374.179,33.312c-264,33.812 -526.721,76.892 -790.817,110.092c-7.6,0.95 -7.683,12.987 0,12.017" style="fill-rule:nonzero;"/><path d="M1149.967,2244.454c46.3,-69.992 64.088,-173.996 -6.704,-234.158c-35.004,-29.767 -89.821,-34.725 -133.542,-39.062c-69.462,-6.883 -141.158,-5.962 -210.921,-6.267c-161.304,-0.721 -319.017,21.025 -477.258,50.35c-76.529,14.192 -152.608,27.613 -229.688,38.35c-61.083,8.508 -123.275,18.592 -179.575,44.771c-7.029,3.258 -0.917,13.625 6.075,10.375c101.542,-47.212 222.379,-47.129 331.092,-67.692c141.225,-26.725 282.142,-53.1 425.933,-60.858c115.092,-6.2 234.204,-6.933 349.046,4.442c65.746,6.517 130.942,27.583 150.646,97.179c14.792,52.254 -6.829,113.158 -35.496,156.508c-4.296,6.488 6.133,12.5 10.392,6.067" style="fill-rule:nonzero;"/><path d="M95.488,2241.421c0,39.562 -0.163,79.113 -3.208,118.571c-0.608,7.738 11.442,7.683 12.037,0c3.042,-39.454 3.208,-79.008 3.208,-118.571c0,-7.75 -12.037,-7.75 -12.037,0" style="fill-rule:nonzero;"/><path d="M233.521,2289.492c0,18.767 -0.125,37.504 -2.996,56.087c-1.175,7.575 10.421,10.833 11.604,3.192c3.042,-19.679 3.429,-39.4 3.429,-59.279c0,-7.75 -12.037,-7.75 -12.037,0" style="fill-rule:nonzero;"/><path d="M368.342,2183.737c-2.387,46.117 5.758,91.746 6.425,137.796c0.104,7.75 12.142,7.758 12.037,0c-0.663,-46.05 -8.812,-91.679 -6.425,-137.796c0.404,-7.75 -11.633,-7.713 -12.037,0" style="fill-rule:nonzero;"/><path d="M500.171,2217.392c-6.008,26.996 -3.65,54.308 -3.429,81.721c0.058,7.738 12.096,7.75 12.037,0c-0.212,-26.275 -2.762,-52.637 2.996,-78.529c1.683,-7.546 -9.921,-10.758 -11.604,-3.192" style="fill-rule:nonzero;"/><path d="M590.05,2159.708c-7.696,43.8 5,87.804 -3.208,131.396c-1.425,7.575 10.171,10.804 11.604,3.192c8.225,-43.717 -4.479,-87.621 3.208,-131.396c1.329,-7.575 -10.267,-10.817 -11.604,-3.192" style="fill-rule:nonzero;"/><path d="M682.925,2202.967c3.083,23.392 3.208,46.946 3.208,70.5c0,7.758 12.038,7.758 12.038,0c0,-23.554 -0.125,-47.108 -3.208,-70.5c-1,-7.567 -13.05,-7.663 -12.038,0" style="fill-rule:nonzero;"/><path d="M782.438,2161.304c0.425,34.304 5.95,68.258 6.425,102.554c0.096,7.738 12.133,7.758 12.038,0c-0.471,-34.292 -6,-68.25 -6.425,-102.554c-0.096,-7.75 -12.133,-7.758 -12.038,0" style="fill-rule:nonzero;"/><path d="M881.946,2177.329c0.212,24.754 3.333,49.183 6.425,73.712c0.954,7.575 13.008,7.671 12.038,0c-3.092,-24.525 -6.212,-48.954 -6.425,-73.712c-0.067,-7.75 -12.104,-7.75 -12.038,0" style="fill-rule:nonzero;"/><path d="M984.888,2156.492c5.962,25.833 6.192,52.154 6.2,78.517c0.008,7.758 12.046,7.758 12.038,0c-0.008,-27.45 -0.425,-54.838 -6.633,-81.708c-1.742,-7.558 -13.346,-4.346 -11.604,3.192" style="fill-rule:nonzero;"/><path d="M1071.342,2190.146l0,44.867c0,7.75 12.038,7.75 12.038,0l0,-44.867c0,-7.75 -12.038,-7.75 -12.038,0" style="fill-rule:nonzero;"/><path d="M-0.171,2546.912c52.204,-53.667 132.25,-103.15 209.938,-90.833c49.083,7.779 90.821,42.033 140.983,45.717c81.096,5.942 144.8,-44.975 207.608,-88.996c37.25,-26.113 75.904,-49.492 120.625,-60.079c64,-15.133 122.85,20.121 182.646,36.233c41.392,11.154 75.021,1.45 110.179,-19.767c41.658,-25.142 93,-76.583 145.683,-64.288c42.038,9.817 -62.067,61.954 -72.062,66.404c-43.038,19.171 -82.887,31.621 -130.721,34.908c-64.617,4.442 -127.821,-16.479 -191.921,-20.938c-49.471,-3.442 -94.625,11.383 -136.4,36.842c-49.692,30.275 -90.196,69.796 -146.338,88.929c-67.458,22.967 -129.488,6.125 -196.183,-7.325c-92.371,-18.621 -177.608,29.946 -242.921,92.379c-5.613,5.375 2.908,13.854 8.512,8.5c43.463,-41.542 96.967,-75.433 155.383,-91.025c59.783,-15.958 125.8,17.333 185.9,21.863c127.908,9.642 194.962,-99.621 306.708,-132.358c62.142,-18.2 191.996,12.179 191.996,12.179c0,0 105.854,3.75 155.062,-14.5c35.458,-13.142 131.463,-39.446 138.037,-84.229c2.388,-16.237 -19.192,-22.592 -30.712,-25.283c-35.912,-8.383 -77.821,22.767 -105.354,40.746c-19.837,12.95 -39.183,26.429 -59.917,37.929c-35.562,19.717 -74.333,10.633 -110.767,-1.154c-49.163,-15.912 -96.65,-38.975 -149.729,-29.467c-86.142,15.421 -149.133,79.971 -222.408,122.388c-45.117,26.121 -93.162,35.592 -143.846,21.438c-49.779,-13.913 -96.496,-48.696 -150.75,-41.079c-67.421,9.471 -130.833,48.146 -177.754,96.371c-5.404,5.558 3.1,14.067 8.512,8.5" style="fill-rule:nonzero;"/><path d="M1178.483,2413.858c127.079,48.188 76.454,201.442 3.129,272.721c-92.45,89.863 -223.254,132.25 -345.683,162.171c-132.846,32.488 -269.017,54.079 -403.167,80.642c-155.333,30.754 -311.342,58.704 -469.288,71.942c-7.683,0.646 -7.742,12.662 0,12.017c177.417,-14.863 352.242,-48.321 526.625,-83.142c153.929,-30.725 312.038,-52.579 461.475,-101.783c110.112,-36.254 239.596,-98.583 294.921,-206.479c41.533,-81.025 26.713,-184.963 -64.821,-219.671c-7.271,-2.758 -10.383,8.863 -3.196,11.583" style="fill-rule:nonzero;"/><path d="M89.067,2674.054c3.283,32.746 6.817,65.404 13.05,97.738c1.475,7.604 13.067,4.375 11.612,-3.192c-6.029,-31.283 -9.446,-62.875 -12.625,-94.546c-0.771,-7.633 -12.808,-7.713 -12.037,0" style="fill-rule:nonzero;"/><path d="M198.208,2651.617c0.229,20.342 2.983,40.55 3.208,60.887c0.096,7.75 12.133,7.758 12.038,0c-0.221,-20.333 -2.975,-40.542 -3.208,-60.887c-0.088,-7.75 -12.125,-7.758 -12.038,0" style="fill-rule:nonzero;"/><path d="M323.4,2619.575c3.208,35.208 6.183,70.383 6.425,105.754c0.05,7.75 12.087,7.75 12.037,0c-0.242,-35.371 -3.217,-70.546 -6.425,-105.754c-0.692,-7.654 -12.742,-7.721 -12.037,0" style="fill-rule:nonzero;"/><path d="M442.388,2598.738c6.325,18.979 12.529,37.954 16.054,57.683c1.358,7.625 12.954,4.383 11.604,-3.192c-3.525,-19.729 -9.725,-38.704 -16.054,-57.683c-2.437,-7.317 -14.058,-4.183 -11.604,3.192" style="fill-rule:nonzero;"/><path d="M564.367,2576.3c5.721,27.575 6.492,55.875 12.837,83.325c1.754,7.558 13.358,4.346 11.613,-3.192c-6.346,-27.438 -7.125,-55.763 -12.846,-83.325c-1.571,-7.587 -13.175,-4.375 -11.604,3.192" style="fill-rule:nonzero;"/><path d="M715.029,2542.662c0.242,17.179 3.658,33.65 9.842,49.667c2.763,7.154 14.408,4.046 11.612,-3.192c-5.817,-15.037 -9.188,-30.321 -9.417,-46.475c-0.117,-7.737 -12.154,-7.758 -12.038,0" style="fill-rule:nonzero;"/><path d="M837.225,2515.417c6.354,26.504 9.688,53.608 16.054,80.113c1.8,7.537 13.404,4.337 11.604,-3.192c-6.367,-26.504 -9.696,-53.608 -16.054,-80.113c-1.8,-7.538 -13.404,-4.337 -11.604,3.192" style="fill-rule:nonzero;"/><path d="M978.462,2480.162c6.308,28.158 12.242,55.946 12.625,84.929c0.104,7.75 12.142,7.758 12.038,0c-0.396,-30.071 -6.508,-58.896 -13.058,-88.121c-1.696,-7.567 -13.3,-4.354 -11.604,3.192" style="fill-rule:nonzero;"/><path d="M1078.583,2452.754c5.962,12.296 8.629,24.996 8.812,38.629c0.096,7.75 12.133,7.758 12.038,0c-0.204,-15.804 -3.554,-30.458 -10.458,-44.696c-3.379,-6.971 -13.763,-0.875 -10.392,6.067" style="fill-rule:nonzero;"/><path d="M599.063,2808.25c186.429,3.287 362.583,-63.067 526.279,-145.029c6.942,-3.479 0.838,-13.846 -6.075,-10.383c-161.738,81 -335.938,146.642 -520.2,143.392c-7.771,-0.133 -7.754,11.883 0,12.017" style="fill-rule:nonzero;"/><path d="M245.958,2116.042c151.542,-10.788 300.296,-46.579 452.617,-48.071c7.762,-0.075 7.762,-12.096 0,-12.017c-152.35,1.492 -301.058,37.283 -452.617,48.071c-7.696,0.55 -7.754,12.575 0,12.017" style="fill-rule:nonzero;"/><path d="M759.567,2067.971c7.762,0 7.762,-12.017 0,-12.017c-7.763,0 -7.763,12.017 0,12.017" style="fill-rule:nonzero;"/><path d="M525.233,2830.679c7.763,0 7.763,-12.017 0,-12.017c-7.762,0 -7.762,12.017 0,12.017" style="fill-rule:nonzero;"/></g></g><path d="M1400.017,1168.912c-82.179,47.621 -141.242,140.004 -122.467,236.8c1.475,7.613 13.192,4.858 11.725,-2.729c-17.742,-91.45 39.096,-178.671 116.483,-223.512c6.7,-3.879 0.996,-14.454 -5.737,-10.558" style="fill-rule:nonzero;"/><path d="M1317.963,1259.75c54.454,95.542 -9.808,169.208 -37.604,260.646c3.679,-0.371 7.354,-0.733 11.038,-1.096c-34.108,-75.363 -106.517,-246.625 31.617,-256.408c7.662,-0.55 8.212,-12.562 0.487,-12.017c-150.962,10.696 -81.458,188.517 -42.683,274.167c2.2,4.858 9.608,3.638 11.037,-1.096c29.329,-96.483 93.271,-170.646 36.688,-269.929c-3.829,-6.721 -14.421,-1.008 -10.579,5.737" style="fill-rule:nonzero;"/><g><g><path d="M2110.696,3788.112c-18.875,-6.267 -42.95,-10.133 -63.771,-5.854c-0.888,-9.125 -12.383,-16.575 -20.167,-7.875c-4.525,5.058 -9.121,10.112 -13.588,15.258c-29.979,23.95 -59.929,55.783 -62.171,94.188c-4.338,74.179 78.65,122.65 85.133,122.325c35.487,-1.796 89.438,-6.937 118.071,-26.525c11.342,-7.758 36.35,-108.25 21.867,-130.029c-5.75,-8.646 -21.696,-34.25 -35.296,-47.35c-4.012,-3.867 -24.954,-12.437 -30.079,-14.142" style="fill:#ff6347;fill-rule:nonzero;"/><path d="M2018.875,3777.779c-70.6,30.312 -88.558,112.446 -54.883,177.525c34.217,66.117 127.475,73.904 183.992,33.225c47.825,-34.417 48.217,-101.6 26.05,-150.487c-27.579,-60.858 -92.979,-82.25 -153.725,-60.858c-7.263,2.558 -4.133,14.162 3.196,11.583c52.946,-18.65 103.187,-4.017 133.821,43.696c26.683,41.579 27.1,100.362 -6.713,137.771c-45.262,50.042 -135.083,38.079 -171.975,-14c-40.842,-57.638 -17.554,-140.654 46.312,-168.071c7.108,-3.058 0.971,-13.4 -6.075,-10.383" style="fill-rule:nonzero;"/><path d="M2033.525,3773.529c-16.987,-22.158 -41.525,-40.233 -40.908,-70.671l-6.021,6.008c26.029,-0.471 43.808,21.488 64.379,34.429c3.908,2.462 9.042,-0.758 9.054,-5.192c0.075,-23.054 -0.067,-45.629 17.5,-63.037c-3.158,-0.412 -6.308,-0.817 -9.458,-1.221c8.762,19.729 11.554,39.667 12.017,61.058c0.133,6.067 8.012,8.083 11.221,3.038c10.112,-15.958 19.971,-28.062 38.133,-35.696c-2.467,-1.404 -4.942,-2.796 -7.404,-4.2c7.375,28.188 -9.137,54.762 -19.258,80.133c-2.871,7.2 8.783,10.304 11.604,3.192c11.171,-27.988 27.342,-55.667 19.258,-86.517c-0.75,-2.854 -4.4,-5.462 -7.396,-4.192c-20.463,8.596 -33.562,22.633 -45.338,41.217c3.746,1.008 7.475,2.021 11.221,3.029c-0.508,-23.717 -3.987,-45.35 -13.654,-67.125c-1.608,-3.617 -6.942,-3.721 -9.458,-1.221c-20,19.842 -20.938,44.717 -21.021,71.546c3.013,-1.721 6.038,-3.45 9.054,-5.192c-22.979,-14.458 -41.371,-36.592 -70.446,-36.062c-3.333,0.067 -5.95,2.692 -6.021,6.008c-0.683,33.554 23.679,52.108 42.546,76.737c4.65,6.067 15.108,0.096 10.4,-6.067" style="fill-rule:nonzero;"/></g></g><g><path d="M2316.821,2720.042c-9.513,-68.567 -48.104,-96.275 -97.129,-110.254c-0.337,-0.212 -0.683,-0.404 -1.012,-0.604c-9.696,-7.133 -19.529,-13.721 -31.213,-17.258c-1.725,-3.117 -4.708,-5.596 -9.054,-6.296c-62.787,-10.125 -124.583,-25.354 -187.596,-34.121c-13.138,-1.825 -15.525,15.621 -6.971,22.171c2.504,1.921 5.083,3.713 7.742,5.421c0.271,3.183 1.829,6.354 5.229,8.787c0.396,0.279 0.762,0.575 1.154,0.867c60.333,92.179 179.575,151.871 289.329,141.596c4.458,1.375 9.092,2.633 14.158,3.683c9.121,1.875 16.671,-4.537 15.358,-13.987" style="fill:#ff6347;fill-rule:nonzero;"/><path d="M2386.35,2901.242c8.079,-142.796 -165.917,-265.271 -287.363,-301.188c-7.454,-2.2 -10.621,9.392 -3.196,11.583c116.629,34.496 286.267,152.871 278.521,289.604c-0.442,7.75 11.604,7.7 12.037,0" style="fill-rule:nonzero;"/><path d="M2328.446,2752.271c2.271,-170.85 -231.529,-196 -358.117,-205.896c-4.496,-0.346 -7.571,5.392 -5.2,9.046c74.096,114.1 207.029,204.117 347.871,185.417c7.588,-1.008 7.675,-13.038 0,-12.017c-85.525,11.354 -164.579,-18.854 -233.475,-67.962c-37.867,-26.996 -69.917,-62.137 -96.513,-99.988c-7.867,-2.287 -7.079,-2.713 2.329,-1.271c5.442,0.463 10.883,0.95 16.304,1.471c11.95,1.117 23.862,2.521 35.767,3.971c108.108,13.229 280.833,48.829 278.996,187.225c-0.104,7.758 11.933,7.75 12.038,0" style="fill-rule:nonzero;"/></g><g><path d="M1611.488,2076.65c-18.875,-6.267 -42.95,-10.133 -63.771,-5.854c-0.888,-9.125 -12.383,-16.575 -20.167,-7.875c-4.525,5.058 -9.121,10.112 -13.588,15.258c-29.979,23.95 -61.625,55.721 -62.171,94.188c-0.088,6.296 5.558,12.346 12.038,12.017c35.487,-1.796 65.217,-19.912 93.421,-40.1c15.592,-11.154 30.404,-23.4 45.667,-34.996c8.271,-6.287 17.4,-9.642 17.4,-21.046c0,-5.567 -3.708,-9.892 -8.829,-11.596" style="fill:#ff6347;fill-rule:nonzero;"/><path d="M1676.85,2179.246c-0.329,-4.942 -0.808,-9.892 -1.579,-14.883c-0.008,-0.038 -0.029,-0.067 -0.029,-0.104c0.258,-2.117 0.425,-4.221 0.454,-6.317c0.075,-4.383 -2.079,-7.488 -5.025,-9.442c0.846,-2.95 1.6,-5.933 2.196,-8.988c2.446,-12.546 -16.033,-22.4 -22.004,-9.267c-25.567,56.308 -82.163,77.479 -133.829,103.938c-10.046,1.75 -19.875,2.838 -29.121,3.075c-13.108,0.346 -16.996,21.092 -3.196,23.612c4.15,0.75 8.254,1.229 12.338,1.575c0.279,0.521 0.617,1.021 0.992,1.508c0.221,1.117 0.558,2.25 1.146,3.404c20.042,39.137 85.171,32.254 119.529,19.95c23.621,-8.471 41.333,-24.408 49.279,-48.129c1.225,-3.654 2.013,-7.375 2.638,-11.142c0.346,-0.492 0.712,-0.95 1.013,-1.537c8.158,-15.508 9.208,-31.321 5.208,-47.254" style="fill:#ff6347;fill-rule:nonzero;"/><path d="M1519.663,2066.321c-70.6,30.313 -88.558,112.446 -54.883,177.525c34.217,66.117 127.475,73.904 183.992,33.225c47.825,-34.417 48.217,-101.6 26.05,-150.488c-27.579,-60.858 -92.979,-82.25 -153.725,-60.858c-7.262,2.558 -4.133,14.163 3.196,11.583c52.946,-18.65 103.188,-4.017 133.821,43.696c26.683,41.579 27.1,100.363 -6.713,137.771c-45.262,50.042 -135.083,38.079 -171.975,-14c-40.842,-57.637 -17.554,-140.654 46.312,-168.071c7.108,-3.058 0.971,-13.4 -6.075,-10.383" style="fill-rule:nonzero;"/><path d="M1534.317,2062.067c-16.988,-22.158 -41.525,-40.233 -40.908,-70.671l-6.021,6.008c26.029,-0.471 43.808,21.487 64.379,34.429c3.908,2.462 9.042,-0.758 9.054,-5.192c0.075,-23.054 -0.067,-45.629 17.5,-63.038c-3.158,-0.412 -6.308,-0.817 -9.458,-1.221c8.763,19.729 11.554,39.667 12.017,61.058c0.133,6.067 8.013,8.083 11.221,3.038c10.112,-15.958 19.971,-28.062 38.133,-35.696c-2.467,-1.404 -4.942,-2.796 -7.404,-4.2c7.375,28.188 -9.137,54.762 -19.258,80.133c-2.871,7.2 8.783,10.304 11.604,3.192c11.171,-27.988 27.342,-55.667 19.258,-86.517c-0.75,-2.854 -4.4,-5.462 -7.396,-4.192c-20.463,8.596 -33.563,22.633 -45.338,41.217c3.746,1.008 7.475,2.021 11.221,3.029c-0.508,-23.717 -3.987,-45.35 -13.654,-67.125c-1.608,-3.617 -6.942,-3.721 -9.458,-1.221c-20,19.842 -20.938,44.717 -21.021,71.546c3.013,-1.721 6.038,-3.45 9.054,-5.192c-22.979,-14.458 -41.371,-36.592 -70.446,-36.062c-3.333,0.067 -5.95,2.692 -6.021,6.008c-0.683,33.554 23.679,52.108 42.546,76.737c4.65,6.067 15.108,0.096 10.4,-6.067" style="fill-rule:nonzero;"/><path d="M1456.888,2195.875c71.204,-16.738 129.054,-54.925 179.208,-107.292c5.362,-5.604 -3.138,-14.113 -8.513,-8.508c-48.833,51.004 -104.533,87.912 -173.892,104.217c-7.55,1.771 -4.354,13.363 3.196,11.583" style="fill-rule:nonzero;"/><path d="M1471.333,2244.162c77.108,-5.808 156.479,-51.117 191.388,-121.55c3.417,-6.913 -6.963,-13.008 -10.4,-6.058c-32.962,66.521 -107.962,110.1 -180.987,115.587c-7.696,0.588 -7.754,12.604 0,12.017" style="fill-rule:nonzero;"/></g></g></g></svg>