<?xml version="1.0" encoding="UTF-8" standalone="no"?><!DOCTYPE svg PUBLIC "-//W3C//DTD SVG 1.1//EN" "http://www.w3.org/Graphics/SVG/1.1/DTD/svg11.dtd"><svg width="100%" height="100%" viewBox="0 0 1000 1600" version="1.1" xmlns="http://www.w3.org/2000/svg" xmlns:xlink="http://www.w3.org/1999/xlink" xml:space="preserve" xmlns:serif="http://www.serif.com/" style="fill-rule:evenodd;clip-rule:evenodd;stroke-linejoin:round;stroke-miterlimit:2;"><g><g><g><path d="M575.323,791.997c-10.308,1.754 -14.572,11.207 -11.457,20.734c3.067,9.373 13.449,13.613 22.514,10.385c7.479,-2.663 11.075,-10.808 9.985,-18.274c-1.461,-9.961 -11.891,-13.401 -20.658,-12.896c-1.851,0.106 -1.863,2.99 0,2.884c7.313,-0.422 15.032,1.557 17.51,9.227c1.83,5.662 -0.82,12.063 -5.66,15.277c-17.147,11.387 -32.662,-20.946 -11.466,-24.557c1.835,-0.311 1.054,-3.092 -0.767,-2.78" style="fill-rule:nonzero;"/><path d="M613.603,798.238c-5.538,0.944 -7.916,6.158 -6.243,11.274c1.65,5.049 7.243,7.46 12.166,5.706c4.149,-1.479 6.111,-5.891 5.503,-10.042c-0.777,-5.298 -6.361,-7.259 -11.043,-6.989c-1.851,0.106 -1.863,2.99 0,2.884c3.314,-0.192 6.938,0.572 8.075,4.093c0.816,2.522 -0.337,5.406 -2.503,6.844c-7.694,5.113 -14.764,-9.359 -5.189,-10.99c1.835,-0.311 1.054,-3.092 -0.767,-2.78" style="fill-rule:nonzero;"/><path d="M599.993,831.439c-3.15,0.535 -4.581,3.627 -3.631,6.534c0.943,2.88 4.135,4.377 6.982,3.362c2.482,-0.886 3.629,-3.429 3.261,-5.918c-0.432,-2.96 -3.589,-4.181 -6.229,-4.029c-1.851,0.106 -1.863,2.99 0,2.884c1.301,-0.076 2.889,0.088 3.354,1.523c0.305,0.946 -0.099,2.067 -0.922,2.614c-2.963,1.97 -5.801,-3.551 -2.048,-4.19c1.835,-0.311 1.054,-3.092 -0.767,-2.78" style="fill-rule:nonzero;"/></g></g><g><path d="M861.344,1350.448c-8.845,11.141 -18.413,20.762 -24.431,32.869c-2.446,1.35 -4.373,3.787 -4.7,6.658c-13.15,7.569 -27.342,13.012 -41.079,19.428c-10.341,1.847 -21.048,4.734 -31.511,6.236c-6.18,-0.119 -12.456,-0.599 -18.889,-1.426c-2.667,-0.775 -5.361,-1.493 -8.087,-2.135c-13.255,-7.216 -24.502,-13.702 -35.231,-24.968c-7.446,-7.817 -13.17,-17.29 -17.402,-27.623c-1.5,-5.803 -3.098,-11.663 -5.024,-17.378c-0.515,-1.772 -1.086,-3.519 -1.678,-5.256c-3.646,-18.927 -3.187,-38.861 0.691,-56.16c0.202,-0.895 0.225,-1.725 0.172,-2.519c0.62,-1.106 1.26,-2.208 1.871,-3.322c10.883,-19.798 27.068,-35.403 43.317,-50.989c13.448,-2.633 26.035,-7.672 38.689,-11.841c0.217,0.012 0.413,0.059 0.642,0.057c4.411,-0.052 8.869,-0.286 13.326,-0.433c2.233,1.029 4.655,1.634 7.098,1.915c1.862,0.219 3.726,0.347 5.597,0.451c1.665,0.092 2.271,0.147 3.108,0.268c1.312,0.192 2.607,0.104 3.829,-0.183c7.69,2.36 15.156,5.521 22.422,8.899c24.035,11.17 44.159,32.437 54.078,56.869c8.744,21.533 7.929,52.02 -6.807,70.585m126.202,-52.76c-0.143,-0.279 -0.309,-0.541 -0.475,-0.806c-0.114,-0.173 -0.183,-0.35 -0.31,-0.523c-7.84,-10.685 -18.846,-18.385 -28.144,-27.594c-3.45,-4.173 -6.945,-8.311 -10.203,-12.562c-1.929,-3.538 -3.889,-7.038 -6.218,-10.339c-1.877,-2.656 -4.958,-4.054 -8.004,-3.711c-11.981,-14.367 -26.244,-27.151 -40.018,-39.812c-6.144,-7.458 -12.405,-14.83 -18.736,-22.139c-1.469,-1.697 -3.118,-2.452 -4.747,-2.577c-2.529,-2.901 -5.059,-5.794 -7.668,-8.629c-12.303,-13.368 -25.435,-25.969 -38.655,-38.42c-5.783,-5.443 -11.277,-10.833 -17.715,-14.341c-1.936,-2.344 -4.03,-4.566 -6.455,-6.542c-4.35,-3.547 -9.654,-2.202 -12.271,1.677c-0.823,-0 -1.655,0.085 -2.469,0.361c-5.246,1.776 -9.496,5.097 -12.76,9.53c-0.039,0.054 -0.063,0.11 -0.102,0.164c-3.919,3.544 -7.414,7.552 -10.378,10.948c-13.718,15.708 -26.056,32.544 -39.885,48.165c-1.109,1.252 -1.707,2.874 -1.868,4.568c-29.872,13.946 -61.77,32.178 -69.619,63.913c-4.783,9.752 -8.39,20.084 -15.203,28.699c-13.12,16.593 -36.609,26.117 -54.676,36.146c-7.64,4.238 -14.732,11.738 -15.863,20.206c-1.091,0.975 -1.979,2.273 -2.47,3.994c-1.938,6.767 -2.028,14.592 4.661,18.738c2.238,1.39 4.733,1.794 7.266,1.685c6.643,6.933 13.684,13.455 20.591,20.117c0.122,1.24 0.509,2.442 1.295,3.485c0.435,0.578 0.903,1.135 1.369,1.689c0.56,0.922 1.263,1.709 2.072,2.333c0.079,0.087 0.16,0.176 0.239,0.263c0.413,0.428 0.829,0.855 1.244,1.29c0.101,0.111 0.202,0.222 0.303,0.334c0.053,0.07 0.095,0.127 0.182,0.236c0.716,0.95 1.578,1.722 2.523,2.335c7.432,9.155 14.743,18.282 24.428,25.27c1.283,0.922 2.618,1.4 3.945,1.584c5.031,5.525 10.384,10.778 16.255,15.608c18.798,15.464 33.967,34.762 53.391,49.314c10.909,17.833 31.193,27.874 45.374,43.441c3.978,4.367 10.211,1.687 12.978,-2.295c0.761,-1.091 1.589,-2.126 2.404,-3.168c18.622,-9.492 32.65,-24.398 46.916,-39.556c19.555,-20.768 42.541,-38.039 63.04,-57.908c19.893,-19.285 39.202,-39.102 59.513,-57.965c19.393,-18.008 38.91,-36.263 54.324,-57.892c2.071,-2.904 2.025,-6.097 0.863,-8.743c-0.081,-0.191 -0.172,-0.382 -0.266,-0.572" style="fill:#ff6347;fill-rule:nonzero;"/><path d="M800.632,1278.463c-1.275,-1.235 -2.647,-1.882 -4.01,-2.149c-4.028,-5.978 -9.007,-11.024 -14.939,-11.98c-27.471,-4.419 -16.904,37.407 -10.346,57.089c-17.241,-3.888 -36.835,-7.994 -48.238,-1.253c-3.843,1.32 -6.538,2.866 -9.357,5.844c-3.002,3.164 -2.762,8.351 0.238,11.397c0.78,7.237 7.781,11.745 17.171,14.42c20.573,9.379 42.493,6.41 65.108,4.198c1.356,0.565 2.871,0.781 4.462,0.604c0.006,-0.002 0.011,0 0.018,0.001c0.612,-0.073 1.233,-0.197 1.857,-0.386c0.504,-0.151 0.968,-0.362 1.416,-0.603c1.29,-0.65 2.266,-1.534 2.947,-2.569c3.954,0.509 8.091,-1.481 8.962,-6.18c1.48,-7.964 0.923,-15.727 -0.942,-23.223c0.258,-5.266 -0.38,-10.555 -1.977,-15.597c-0.585,-10.975 -4.348,-21.852 -12.37,-29.614" style="fill:#ff6347;fill-rule:nonzero;"/><path d="M891.69,1200.928c23.997,21.348 45.651,45.51 67.752,68.76c10.158,10.689 20.291,21.399 30.591,31.942c0.688,0.704 -0.294,1.203 -2.543,3.55c-2.541,2.651 -5.109,5.271 -7.684,7.891c-35.139,35.784 -71.123,70.774 -107.117,105.697c-34.65,33.622 -69.092,67.785 -105.571,99.45c-3.386,2.939 -6.825,6.076 -10.665,8.433c-3.132,1.92 -13.286,-7.607 -15.44,-9.295c-19.804,-15.533 -37.91,-33.404 -56.013,-50.838c-23.759,-22.885 -47.024,-46.276 -70.295,-69.654c-31.946,-32.1 -67.498,-60.708 -95.962,-96.111c-0.765,-0.952 -2.409,-1.445 -3.288,-0.275c-3.906,4.958 -8.928,7.249 -15.078,6.88c-3.626,-2.046 -6.831,-2.012 -9.614,0.111c1.514,-2.041 3.145,-3.989 4.781,-5.931c4.276,-5.091 8.844,-9.939 13.426,-14.753c11.951,-12.554 24.466,-24.577 37.028,-36.514c33.153,-31.493 67.289,-61.949 101.573,-92.2c30.536,-26.941 61.318,-53.608 92.294,-80.046c9.835,-8.389 19.682,-16.757 29.605,-25.042c2.426,-2.026 4.855,-4.053 7.32,-6.032c0.445,-0.362 0.896,-0.726 1.37,-1.052c-1.408,5.762 -3.139,11.429 -5.191,16.995c-1.87,4.708 -4.948,9.201 -7.868,13.273c-0.682,0.944 -0.753,2.078 0.133,2.936c41.905,40.726 86.963,78.694 126.456,121.825c1.81,1.973 4.604,-1.108 2.806,-3.075c-25.917,-28.304 -54.716,-54.144 -82.659,-80.415c-12.945,-12.172 -25.941,-24.296 -38.789,-36.574c-5.781,-5.527 0.295,-9.3 3.608,-16.044c3.373,-6.874 4.439,-13.998 2.44,-21.331c-0.375,-1.377 -1.975,-1.754 -3.112,-1.127c-14.115,7.763 -27.033,22.492 -39.194,32.866c-30.068,25.639 -59.915,51.536 -89.57,77.645c-32.846,28.914 -65.456,58.116 -97.366,88.06c-21.686,20.347 -45.123,40.838 -62.959,64.795c-0.983,1.321 -0.482,2.898 1.071,3.426c5.409,1.837 11.502,3.251 17.251,1.966c3.495,-0.783 11.325,-6.501 13.812,-3.409c15.428,19.189 33.618,36.111 51.61,52.845c17.702,16.465 35.007,33.1 52.056,50.222c37.285,37.441 74.187,76.58 115.516,109.65c5.079,4.061 14.508,13.703 21.525,9.054c11.066,-7.329 20.755,-17.532 30.472,-26.465c40.271,-37.044 79.434,-75.322 118.537,-113.589c28.938,-28.315 58.699,-56.206 86.124,-86.012c0.797,-0.866 0.653,-2.13 -0.136,-2.935c-33.467,-33.999 -64.558,-70.887 -100.236,-102.628c-2,-1.778 -4.812,1.288 -2.806,3.075" style="fill-rule:nonzero;"/><path d="M563.142,1346.068c3.254,-33.656 32.281,-34.919 56.036,-49.561c21.94,-13.521 28.262,-41.724 39.485,-63.102c16.389,-31.222 52.375,-33.831 75.206,-57.692c8.798,-9.193 14.686,-21.75 21.253,-32.523c10.141,-16.648 22.666,-27.476 41.05,-34.373c2.504,-0.94 1.277,-4.909 -1.24,-3.966c-28.272,10.604 -39.746,31.036 -55.074,55.403c-20.57,32.686 -61.985,35.004 -82.643,67.334c-8.027,12.564 -12.649,27.193 -19.279,40.487c-9.009,18.059 -22.847,27.334 -40.981,34.696c-21.821,8.855 -35.574,18.636 -37.971,43.44c-0.262,2.666 3.905,2.481 4.159,-0.144" style="fill-rule:nonzero;"/><path d="M500.013,1289.194c-13.431,-21.238 -28.79,-41.187 -40.535,-63.46c-12.811,-24.298 -18.657,-52.148 -18.667,-79.473c-0.015,-48.455 24.585,-99.061 59.557,-131.874c38.217,-35.858 94.801,-54.766 145.012,-35.15c42.806,16.714 72.678,56.02 106.088,85.597c2.006,1.776 4.822,-1.291 2.81,-3.073c-36.707,-32.489 -68.313,-73 -116.178,-89.606c-46.967,-16.291 -101.497,4.555 -137.111,36.156c-36.581,32.456 -59.59,80.047 -63.915,128.623c-2.448,27.396 3.522,55.365 13.96,80.575c11.09,26.793 30.09,49.609 45.478,73.937c1.429,2.263 4.934,0.014 3.5,-2.25" style="fill-rule:nonzero;"/><path d="M703.828,1235.568c-43.164,34.706 -42.179,102.377 -12.784,145.625c34.473,50.718 102.755,41.011 143.682,5.419c19.87,-17.283 38.221,-44.549 40.042,-71.463c1.777,-26.208 -9.144,-49.536 -26.742,-68.458c-37.688,-40.516 -102.659,-49.005 -144.611,-10.778c-1.982,1.807 1.104,4.593 3.074,2.804c40.324,-36.751 98.575,-27.013 136.159,8.461c17.788,16.787 28.667,40.034 28.199,64.572c-0.501,26.394 -18.126,51.563 -36.256,69.347c-38.947,38.211 -105.072,45.308 -140.048,-2.154c-29.481,-40.017 -28.728,-107.507 11.534,-139.881c2.066,-1.659 -0.157,-5.178 -2.25,-3.493" style="fill-rule:nonzero;"/><path d="M815.723,1348.018c-25.197,12.575 -62.126,15.271 -88.106,2.911c-16.028,-7.628 -21.149,-29.109 1.719,-32.598c12.583,-1.917 27.318,2.534 39.132,6.649c1.671,0.581 2.692,-1.298 2.452,-2.647c-2.632,-14.79 -17.95,-71.725 15.972,-54.47c22.839,11.617 29.265,59.534 27.877,81.974c-0.168,2.675 3.995,2.502 4.162,-0.145c1.634,-26.397 -6.212,-73.354 -32.465,-86.711c-30.551,-15.544 -26.001,28.505 -22.932,44.112c0.692,3.531 1.487,7.044 2.247,10.557c1.275,5.908 1.381,2.441 -3.876,0.836c-10.562,-3.221 -21.683,-4.808 -32.707,-4.308c-10.034,0.452 -23.756,9.474 -20.303,21.165c4.499,15.23 18.858,21.168 33.073,24.281c25.336,5.546 52.718,3.509 76.008,-8.114c2.396,-1.195 0.127,-4.682 -2.25,-3.493" style="fill-rule:nonzero;"/><path d="M503.098,1287.651c-11.158,-32.222 -3.577,-59.012 22.891,-79.983c12.874,-10.203 27.472,-19.524 32.404,-36.04c0.769,-2.574 -3.296,-3.48 -4.057,-0.926c-7.227,24.217 -35.95,31.716 -49.475,51.445c-14.132,20.608 -13.639,43.923 -5.736,66.746c0.874,2.527 4.849,1.295 3.972,-1.242" style="fill-rule:nonzero;"/><path d="M510.221,1214.675c-22.025,-15.486 -18.502,-47.701 4.186,-60.212c13.3,-7.334 26.558,-10.552 35.474,-23.843c1.494,-2.229 -2.206,-4.134 -3.687,-1.929c-11.918,17.781 -38.456,16.748 -49.043,35.14c-10.341,17.95 -7.17,41.661 10.263,53.919c2.16,1.519 4.998,-1.531 2.806,-3.075" style="fill-rule:nonzero;"/><path d="M518.484,1145.481c-30.544,-16.222 67.445,-80.229 23.646,-111.426c-2.157,-1.534 -4.993,1.515 -2.806,3.075c43.439,30.938 -63.098,90.609 -22.774,112.038c2.374,1.257 4.303,-2.428 1.935,-3.687" style="fill-rule:nonzero;"/><path d="M541.125,1038.725c18.269,0.369 36.16,24.514 34.904,42.131c-0.189,2.675 3.977,2.5 4.162,-0.145c1.425,-20.024 -18.668,-45.723 -39.205,-46.139c-2.693,-0.057 -2.528,4.099 0.14,4.153" style="fill-rule:nonzero;"/><path d="M578.173,1064.894c6.002,-15.695 18.344,-29.576 35.799,-31.752c22.438,-2.797 28.476,21.393 27.862,38.754c-0.096,2.684 4.066,2.518 4.159,-0.144c0.623,-17.601 -4.825,-41.087 -26.248,-42.72c-21.274,-1.624 -38.155,15.369 -45.262,33.934c-0.946,2.476 2.732,4.432 3.69,1.928" style="fill-rule:nonzero;"/><path d="M641.936,1052.483c12.843,-8.462 47.905,-33.601 56.642,-7.528c4.246,12.666 -2.216,28.696 -3.33,41.581c-0.228,2.673 3.935,2.489 4.162,-0.145c1.307,-15.122 10.127,-36.598 -0.76,-49.967c-15.447,-18.971 -45.414,3.631 -58.964,12.565c-2.235,1.475 0.006,4.975 2.25,3.493" style="fill-rule:nonzero;"/><path d="M703.823,1064.479c13.034,-9.19 31.653,-4.912 44.911,1.656c2.401,1.186 4.339,-2.492 1.931,-3.686c-14.586,-7.222 -34.805,-11.533 -49.092,-1.463c-2.187,1.54 0.049,5.045 2.25,3.493" style="fill-rule:nonzero;"/><path d="M522.343,1175.774c4.351,0.047 8.673,-0.388 12.86,-1.624c2.577,-0.76 1.334,-4.725 -1.24,-3.966c-3.842,1.135 -7.766,1.481 -11.76,1.437c-2.692,-0.029 -2.531,4.124 0.14,4.153" style="fill-rule:nonzero;"/><path d="M554.095,1144.595c0.354,4.671 1.615,9.117 3.004,13.569c0.799,2.557 4.772,1.315 3.972,-1.242c-1.278,-4.1 -2.49,-8.165 -2.817,-12.471c-0.199,-2.668 -4.359,-2.527 -4.159,0.144" style="fill-rule:nonzero;"/><path d="M539.435,1116.812c5.744,0.889 11.552,1.313 17.35,1.76c2.677,0.204 2.503,-3.955 -0.141,-4.156c-5.436,-0.418 -10.878,-0.82 -16.275,-1.658c-2.643,-0.41 -3.588,3.643 -0.934,4.053" style="fill-rule:nonzero;"/><path d="M575.229,1104.326c0.69,5.743 2.275,11.238 3.992,16.743c0.799,2.557 4.772,1.315 3.972,-1.242c-1.604,-5.144 -3.163,-10.274 -3.806,-15.645c-0.314,-2.646 -4.48,-2.514 -4.159,0.144" style="fill-rule:nonzero;"/><path d="M586.54,1086.656c4.543,2.268 9.497,3.14 14.468,3.943c2.641,0.425 3.583,-3.624 0.934,-4.053c-4.603,-0.741 -9.26,-1.469 -13.467,-3.577c-2.397,-1.194 -4.337,2.484 -1.935,3.687" style="fill-rule:nonzero;"/><path d="M610.859,1058.362c-0.05,3.947 0.171,7.977 1.281,11.785c0.746,2.577 4.717,1.329 3.972,-1.242c-1.006,-3.454 -1.141,-7.11 -1.094,-10.687c0.035,-2.689 -4.124,-2.524 -4.159,0.144" style="fill-rule:nonzero;"/><path d="M603.975,1118.694c5.234,0.808 10.52,1.225 15.756,2.039c2.642,0.407 3.582,-3.641 0.934,-4.053c-5.235,-0.812 -10.521,-1.228 -15.756,-2.039c-2.643,-0.41 -3.588,3.643 -0.934,4.053" style="fill-rule:nonzero;"/><path d="M628.92,1086.378c0.638,5.376 2.054,10.533 3.662,15.686c0.799,2.557 4.772,1.315 3.972,-1.242c-1.495,-4.795 -2.879,-9.589 -3.476,-14.588c-0.311,-2.647 -4.477,-2.515 -4.159,0.144" style="fill-rule:nonzero;"/><path d="M654.366,1099.676c3.648,0.131 7.201,1.12 10.855,1.249c2.689,0.1 2.524,-4.056 -0.14,-4.153c-3.648,-0.131 -7.201,-1.12 -10.855,-1.249c-2.689,-0.1 -2.524,4.056 0.14,4.153" style="fill-rule:nonzero;"/><path d="M671.96,1056.674c0.192,4.676 -0.468,9.337 -0.272,14.015c0.108,2.679 4.269,2.531 4.159,-0.144c-0.192,-4.676 0.464,-9.339 0.272,-14.015c-0.108,-2.679 -4.269,-2.531 -4.159,0.144" style="fill-rule:nonzero;"/><path d="M632.744,1124.654c-0.446,5.67 -1.036,11.259 -3.61,16.417c-1.193,2.4 2.487,4.328 3.689,1.925c2.899,-5.824 3.578,-12.089 4.079,-18.486c0.211,-2.674 -3.951,-2.495 -4.159,0.144" style="fill-rule:nonzero;"/><path d="M584.612,1145.5c2.523,3.495 5.219,6.483 9.052,8.579c2.359,1.286 4.288,-2.396 1.936,-3.684c-3.201,-1.747 -5.384,-4.234 -7.487,-7.146c-1.562,-2.162 -5.074,0.071 -3.5,2.25" style="fill-rule:nonzero;"/><path d="M579.767,1191.648c1.129,-3.832 2.444,-7.301 5.338,-10.173c1.902,-1.894 -1.176,-4.689 -3.073,-2.8c-3.39,3.372 -5,7.55 -6.323,12.045c-0.756,2.58 3.305,3.487 4.058,0.929" style="fill-rule:nonzero;"/><path d="M547.651,1205.81c2.71,4.307 6.29,7.914 10.775,10.363c2.359,1.286 4.288,-2.396 1.936,-3.684c-3.874,-2.115 -6.874,-5.217 -9.21,-8.93c-1.424,-2.268 -4.928,-0.02 -3.5,2.25" style="fill-rule:nonzero;"/><path d="M522.884,1247.738c1.1,-3.6 2.839,-6.954 4.583,-10.278c1.248,-2.379 -2.438,-4.305 -3.687,-1.929c-1.91,3.644 -3.749,7.336 -4.954,11.279c-0.783,2.571 3.277,3.475 4.058,0.929" style="fill-rule:nonzero;"/><path d="M605.772,1172.986l10.592,-3.311c2.561,-0.801 1.322,-4.766 -1.24,-3.966l-10.592,3.311c-2.561,0.801 -1.322,4.766 1.24,3.966" style="fill-rule:nonzero;"/><path d="M678.663,1102.372c-2.296,4.385 -4.473,8.813 -5.352,13.723c-0.468,2.633 3.586,3.57 4.058,0.929c0.819,-4.578 2.839,-8.64 4.984,-12.723c1.244,-2.381 -2.444,-4.303 -3.69,-1.928" style="fill-rule:nonzero;"/><path d="M709.269,1083.75l13.773,-4.306c2.561,-0.801 1.322,-4.766 -1.24,-3.966l-13.773,4.306c-2.561,0.801 -1.322,4.766 1.24,3.966" style="fill-rule:nonzero;"/><path d="M517.371,1112.163c-34.668,-23.57 -68.966,-47.659 -100.951,-74.798c-16.568,-14.055 -24.634,-26.421 -14.477,-47.312c6.066,-12.476 14.568,-24.102 22.116,-35.732c6.876,-10.598 13.834,-21.149 20.933,-31.604c4.689,-6.906 2.76,-5.018 8.641,-0.567c2.477,1.876 4.956,3.747 7.434,5.623c5.643,4.282 -13.584,27.27 -17.168,32.747c-9.558,14.62 -17.763,30.004 -25.551,45.62c-0.398,0.803 -0.288,1.901 0.444,2.501c36.663,30.072 74.969,58.16 111.086,88.896c2.035,1.732 4.852,-1.329 2.806,-3.075c-28.578,-24.318 -58.537,-47.04 -87.952,-70.33c-6.351,-5.028 -12.688,-10.079 -18.987,-15.176c-5.817,-4.704 8.013,-23.501 11.258,-29.231c9.614,-16.974 21.101,-32.83 31.733,-49.169c0.471,-0.725 0.242,-1.981 -0.44,-2.502c-6.346,-4.811 -12.696,-9.613 -19.043,-14.416c-0.877,-0.663 -2.161,-0.787 -2.943,0.137c-10.734,12.72 -19.137,28.142 -28.174,42.063c-10.375,15.989 -25.72,33.954 -25.842,53.885c-0.123,21.31 30.614,38.708 44.596,49.758c25.284,19.984 51.911,38.253 78.547,56.369c2.218,1.504 4.124,-2.195 1.935,-3.687" style="fill-rule:nonzero;"/><path d="M540.72,1297.163c6.509,3.158 13.653,3.188 20.52,1.187c2.579,-0.754 1.333,-4.718 -1.24,-3.966c-5.8,1.688 -11.83,1.772 -17.346,-0.909c-2.41,-1.169 -4.35,2.509 -1.935,3.687" style="fill-rule:nonzero;"/><path d="M558.764,1266.702c5.06,5.328 9.306,11.244 13.35,17.363c1.475,2.231 4.985,-0.012 3.503,-2.251c-4.246,-6.418 -8.745,-12.596 -14.047,-18.186c-1.842,-1.942 -4.643,1.138 -2.806,3.075" style="fill-rule:nonzero;"/><path d="M594.543,1282.132c4.634,-1.369 9.465,-1.862 14.101,-3.245c2.575,-0.767 1.333,-4.731 -1.24,-3.966c-4.636,1.383 -9.467,1.876 -14.101,3.245c-2.577,0.76 -1.334,4.725 1.24,3.966" style="fill-rule:nonzero;"/><path d="M588.281,1246.506c2.787,4.419 6.473,8.03 10.671,11.113c2.138,1.571 4.968,-1.483 2.807,-3.072c-3.924,-2.879 -7.372,-6.162 -9.978,-10.292c-1.426,-2.264 -4.931,-0.019 -3.5,2.25" style="fill-rule:nonzero;"/><path d="M621.38,1254.092c1.231,-4.007 3.213,-7.788 3.433,-12.04c0.138,-2.683 -4.025,-2.51 -4.162,0.145c-0.193,3.79 -2.227,7.383 -3.329,10.966c-0.788,2.569 3.277,3.475 4.058,0.929" style="fill-rule:nonzero;"/><path d="M613.133,1213.72c4.627,3.286 9.489,5.827 14.835,7.753c2.523,0.907 3.422,-3.159 0.931,-4.052c-4.619,-1.663 -8.959,-3.931 -12.96,-6.776c-2.153,-1.531 -4.992,1.519 -2.806,3.075" style="fill-rule:nonzero;"/><path d="M655.489,1214.409c1.036,-3.726 1.235,-7.532 1.313,-11.377c0.05,-2.687 -4.109,-2.522 -4.162,0.145c-0.07,3.504 -0.265,6.909 -1.209,10.303c-0.721,2.593 3.342,3.504 4.058,0.929" style="fill-rule:nonzero;"/><path d="M651.352,1173.53c4.861,1.792 9.119,4.832 13.29,7.832c2.151,1.546 4.988,-1.507 2.807,-3.072c-4.8,-3.448 -9.579,-6.75 -15.164,-8.814c-2.515,-0.927 -3.411,3.138 -0.934,4.053" style="fill-rule:nonzero;"/><path d="M696.474,1181.861c0.693,-4.413 0.968,-8.877 1.661,-13.29c0.41,-2.639 -3.644,-3.576 -4.058,-0.929c-0.689,4.412 -0.968,8.877 -1.661,13.29c-0.413,2.64 3.644,3.576 4.058,0.929" style="fill-rule:nonzero;"/><path d="M689.561,1139.531c5.017,1.81 9.739,4.283 14.458,6.746c2.38,1.241 4.312,-2.442 1.936,-3.684c-5.047,-2.633 -10.093,-5.182 -15.459,-7.116c-2.526,-0.906 -3.423,3.156 -0.934,4.053" style="fill-rule:nonzero;"/><path d="M730.761,1153.209c0.082,-3.296 0.304,-6.458 -0.623,-9.671c-0.743,-2.578 -4.713,-1.33 -3.972,1.242c0.815,2.82 0.51,5.681 0.437,8.573c-0.067,2.688 4.091,2.52 4.159,-0.144" style="fill-rule:nonzero;"/><path d="M720.55,1115.913c5.017,1.81 9.739,4.283 14.458,6.746c2.38,1.241 4.312,-2.442 1.936,-3.684c-5.047,-2.633 -10.093,-5.182 -15.459,-7.116c-2.526,-0.906 -3.423,3.156 -0.934,4.053" style="fill-rule:nonzero;"/><path d="M751.275,1098.622c1.068,3.417 1.905,6.774 2.15,10.36c0.182,2.67 4.345,2.528 4.162,-0.145c-0.27,-3.945 -1.166,-7.691 -2.34,-11.457c-0.799,-2.557 -4.772,-1.315 -3.972,1.242" style="fill-rule:nonzero;"/><path d="M778.4,1288.586c11.148,12.016 17.829,25.721 19.895,42.024c0.337,2.639 4.497,2.512 4.162,-0.145c-2.211,-17.449 -9.296,-32.069 -21.25,-44.954c-1.824,-1.962 -4.617,1.12 -2.806,3.075" style="fill-rule:nonzero;"/><path d="M727.599,857.827c1.814,-24.057 4.462,-48.071 2.467,-72.205c-0.219,-2.665 -4.383,-2.527 -4.159,0.144c1.99,24.132 -0.654,48.145 -2.467,72.205c-0.203,2.675 3.961,2.495 4.159,-0.144" style="fill-rule:nonzero;"/><path d="M683.096,922.9c-10.248,3.204 -5.29,19.066 4.959,15.863c10.248,-3.204 5.29,-19.066 -4.959,-15.863" style="fill:#ff6347;fill-rule:nonzero;"/></g><g><path d="M859.409,683.948c-39.35,-1.721 -69.822,31.03 -78.802,67.084c-3.633,14.583 -2.855,30.826 6.153,43.309c9.386,13 22.652,23.101 35.833,31.963c35.011,23.543 75.309,39.454 114.994,53.194c35.872,12.419 72.722,22.956 110.066,29.914c11.642,2.169 37.471,9.684 44.668,-4.897c7.849,-15.91 -14.986,-40.421 -23.712,-50.943c-23.24,-28.031 -50.608,-52.8 -78.159,-76.503c-28.56,-24.573 -58.309,-47.988 -89.493,-69.167c-12.924,-8.778 -26.3,-17.794 -40.794,-23.813c-1.714,-0.714 -2.988,1.877 -1.267,2.591c26.184,10.875 49.846,29.59 72.339,46.452c31.752,23.803 62.289,49.361 91.211,76.521c22.873,21.483 47.636,44.714 62.867,72.513c3.56,6.497 8.545,17.096 2.652,23.666c-5.462,6.089 -16.351,4.169 -23.378,3.33c-31.653,-3.778 -63.033,-12.698 -93.471,-21.844c-40.446,-12.153 -80.47,-26.928 -117.984,-46.419c-26.963,-14.007 -69.096,-36.108 -71.558,-70.432c-3.014,-41.988 35.658,-85.498 78.075,-83.646c1.856,0.083 1.596,-2.793 -0.242,-2.874" style="fill-rule:nonzero;"/><path d="M1047.653,909.412l-76.535,-22.094l-52.484,-18.131c0,0 -20.787,-6.837 -31.296,-11.471c-12.617,-5.563 -44.408,-21.909 -44.408,-21.909c0,0 -22.946,-12.238 -31.294,-18.709c-7.373,-5.715 -19.229,-18.72 -19.229,-18.72c0,0 -12.222,-14.822 -11.221,-22.454c0.635,-4.841 0.003,-23.457 0.003,-23.457c0,0 8.887,-23.051 11.071,-26.75c3.748,-6.346 10.396,-14.785 10.396,-14.785c0,0 15.044,-13.741 23.247,-18.311c7.41,-4.129 33.426,-8.053 33.426,-8.053l26.587,15.444c0,0 28.982,21.515 38.085,27.647c16.614,11.192 47.544,37.024 47.544,37.024c0,0 46.706,40.098 65.408,58.082c16.297,15.67 45.936,51.443 45.936,51.443c0,0 9.457,21.146 9.363,26.646c-0.081,4.744 -13.261,10.605 -13.261,10.605l-31.339,-2.048Z" style="fill:#ff6347;"/><path d="M801.56,808.818c18.656,-22.795 29.908,-49.119 38.522,-77.059c0.547,-1.776 -2.299,-2.288 -2.84,-0.532c-8.478,27.494 -19.499,53.261 -37.868,75.701c-1.178,1.441 1.005,3.332 2.185,1.891" style="fill-rule:nonzero;"/><path d="M825.063,795.705c6.442,-9.753 10.762,-20.547 15.369,-31.233c0.736,-1.705 -1.86,-2.973 -2.596,-1.266c-4.607,10.686 -8.926,21.48 -15.369,31.233c-1.027,1.552 1.586,2.793 2.596,1.266" style="fill-rule:nonzero;"/><path d="M898.718,708.692c-1.154,17.116 -7.802,35.626 -19.545,48.341c-1.266,1.373 0.925,3.256 2.185,1.891c12.042,-13.039 19.014,-32.139 20.2,-49.7c0.122,-1.832 -2.715,-2.387 -2.84,-0.532" style="fill-rule:nonzero;"/><path d="M878.988,738.753c5.238,-3.957 7.055,-10.373 8.287,-16.541c0.366,-1.826 -2.474,-2.356 -2.84,-0.532c-1.069,5.349 -2.499,11.232 -7.081,14.69c-1.48,1.122 0.144,3.506 1.634,2.384" style="fill-rule:nonzero;"/><path d="M867.13,848.285c15.986,-16.87 20.022,-40.765 28.028,-61.789c0.658,-1.727 -1.934,-3.004 -2.596,-1.266c-7.921,20.796 -11.807,44.482 -27.617,61.164c-1.284,1.356 0.908,3.236 2.185,1.891" style="fill-rule:nonzero;"/><path d="M889.5,842.303c6.682,-7.095 11.165,-16.255 13.793,-25.575c0.505,-1.79 -2.34,-2.307 -2.84,-0.532c-2.486,8.821 -6.821,17.513 -13.138,24.217c-1.28,1.359 0.911,3.242 2.185,1.891" style="fill-rule:nonzero;"/><path d="M950.381,748.394c-0.851,17.893 -15.024,34.573 -24.356,49.026c-1.01,1.562 1.602,2.808 2.596,1.266c9.759,-15.113 23.748,-31.803 24.638,-50.532c0.089,-1.852 -2.791,-1.594 -2.879,0.24" style="fill-rule:nonzero;"/><path d="M962.342,765.566c-4.264,8.83 -7.805,17.984 -12.97,26.354c-0.979,1.586 1.63,2.832 2.596,1.266c5.165,-8.37 8.706,-17.524 12.97,-26.354c0.811,-1.677 -1.789,-2.939 -2.596,-1.266" style="fill-rule:nonzero;"/><path d="M823.013,729.437c1.298,-6.245 3.7,-12.119 7.34,-17.372c1.051,-1.517 -1.127,-3.42 -2.185,-1.891c-3.938,5.687 -6.589,11.963 -7.994,18.73c-0.38,1.823 2.461,2.351 2.84,0.532" style="fill-rule:nonzero;"/><path d="M780.543,744.855c-16.132,6.084 -32.945,9.659 -49.977,12.165c-2.998,0.44 -6.085,0.073 -9.065,-0.324c-5.891,-0.79 -4.697,-7.269 0.105,-9.112c4.593,-1.761 10.37,-1.614 15.187,-2.624c8.615,-1.803 17.674,-11.398 5.677,-15.84c-15.576,-5.768 -34.791,-4.937 -51.159,-5.771c-23.701,-1.205 -46.924,-5.519 -70.132,-10.383c-4.109,-0.862 -8.185,-1.833 -12.237,-2.921c-4.527,-1.213 -13.478,-3.952 -3.107,-5.829c18.623,-3.368 37.658,1.838 56.073,4.284c7.223,0.96 44.329,1.286 23.686,-10.642c-12.83,-7.409 -28.498,-12.138 -42.474,-16.864c-11.7,-3.955 -26.842,-6.108 -34.767,-16.565c-4.301,-5.678 -0.013,-12.909 6.6,-10.653c1.943,0.662 3.792,1.648 5.623,2.566c4.039,2.025 7.912,4.418 11.694,6.874c14.748,9.585 31.292,15.798 46.721,24.145c6.693,3.621 13.435,6.39 21.005,7.282c1.09,0.129 1.983,-0.816 1.626,-1.902c-2.327,-7.139 -3.953,-14.545 -5.613,-21.857c-2.119,-9.339 -5.513,-20.559 -4.224,-30.231c0.152,-1.126 8.697,11.918 9.115,12.738c3.041,5.965 5.704,12.129 8.477,18.222c4.249,9.356 8.417,20.439 16.041,27.643c0.705,0.665 1.815,0.326 2.245,-0.459c1.822,-3.318 6.433,-13.94 12.696,-9.705c2.074,1.405 3.573,3.696 5.104,5.636c3.298,4.182 6.452,8.328 10.217,12.114c9.61,9.659 23.513,13.043 35.285,19.195c1.653,0.866 2.911,-1.731 1.267,-2.591c-11.715,-6.122 -24.813,-9.545 -34.662,-18.784c-6.047,-5.674 -10.293,-15.987 -18.231,-19.389c-4.393,-1.878 -8.698,2.994 -10.69,6.144c-3.945,6.24 -5.584,0.737 -8.17,-3.694c-3.683,-6.315 -6.59,-13.126 -9.611,-19.773c-1.518,-3.341 -13.569,-35.296 -20.484,-30.573c-6.556,4.475 1.64,28.763 2.905,34.479c1.514,6.827 3.177,13.641 5.138,20.352c-0.024,-0.084 -14.545,-5.575 -18.168,-7.437c-8.156,-4.196 -16.07,-8.34 -24.48,-12.025c-11.956,-5.237 -22.473,-12.879 -33.938,-18.994c-4.608,-2.461 -10.973,-5.727 -16.023,-2.796c-3.803,2.21 -2.426,10.215 -0.866,13.172c4.629,8.772 14.818,12.361 23.682,15.362c13.928,4.717 27.713,9.328 41.377,14.811c6.093,2.445 12.411,4.579 17.839,8.374c4.156,2.904 -8.904,3.744 -10.196,3.823c-6.395,0.395 -12.853,-0.516 -19.181,-1.357c-19.187,-2.551 -40.496,-8.676 -59.585,-2.196c-8.042,2.734 2.585,7.732 5.265,8.652c28.916,9.937 61.086,13.25 91.48,14.839c13.779,0.722 27.785,1.369 41.331,4.161c2.25,0.464 4.452,1.114 6.549,2.059c8.887,3.995 -7.102,9.46 -9.163,9.891c-4.55,0.954 -10.937,0.412 -15.04,2.873c-9.365,5.622 -9.434,11.76 1.659,14.115c8.336,1.77 17.313,-0.723 25.455,-2.246c11.955,-2.242 23.719,-5.424 35.093,-9.712c1.739,-0.658 0.772,-3.377 -0.974,-2.718" style="fill-rule:nonzero;"/><path d="M794.023,723.735c-14.398,-18.45 -35.371,-31.202 -50.526,-49.163c-3.38,-4.007 -6.389,-8.377 -8.305,-13.272c-0.85,-2.176 -2.836,-5.553 -0.64,-3.623c2.273,2.001 4.309,4.311 6.384,6.51c6.332,6.714 13.983,17.952 23.561,20.123c1.01,0.229 1.662,-0.649 1.704,-1.537c0.607,-12.227 -9.673,-24.496 -15.766,-34.238c-4.342,-6.944 -8.488,-14.027 -11.12,-21.812c-1.71,-5.053 -1.034,-23.381 7.453,-15.507c9.256,8.586 13.794,24.205 18.577,35.514c3.454,8.165 6.266,19.364 12.523,25.977c0.746,0.788 2.228,0.197 2.365,-0.824c0.595,-4.478 1.222,-8.938 2.142,-13.365c0.302,-1.458 2.187,-11.664 6.473,-6.327c3.526,4.398 3.518,10.707 3.74,16.036c0.606,14.737 0.236,30.38 8.939,43.21c1.047,1.541 3.431,-0.087 2.387,-1.63c-6.004,-8.849 -8.11,-21.285 -8.384,-31.746c-0.207,-7.901 1.39,-18.184 -2.982,-25.343c-5.416,-8.864 -10.065,-5.291 -12.525,3.255c-0.78,2.706 -1.194,5.528 -1.646,8.302c-0.198,1.294 -0.385,2.592 -0.558,3.891c-0.385,2.78 1.471,1.851 0.758,0.783c-3.092,-4.629 -5.041,-10.263 -7.21,-15.36c-5.302,-12.471 -10.246,-25.205 -17.084,-36.941c-2.408,-4.128 -7.496,-12.695 -13.513,-9.903c-8.905,4.136 -5.176,18.676 -2.616,25.223c6.004,15.359 17.911,27.694 23.894,43.061c1.94,4.979 3.016,7.519 -2.261,3.734c-3.441,-2.467 -6.41,-5.695 -9.362,-8.702c-5.379,-5.476 -10.211,-11.836 -16.342,-16.511c-0.831,-0.635 -2.189,-0.317 -2.365,0.824c-1.995,12.883 11.829,25.088 19.925,33.215c12.775,12.833 28.831,23.466 39.994,37.776c1.144,1.461 3.531,-0.159 2.387,-1.63" style="fill-rule:nonzero;"/><path d="M697.011,703.538c16.612,8.796 34.192,15.37 51.491,22.623c9.653,4.05 25.475,13.564 36.472,11.25c1.796,-0.374 1.582,-3.255 -0.242,-2.874c-11.133,2.34 -27.368,-7.785 -37.361,-11.973c-16.506,-6.919 -33.244,-13.225 -49.093,-21.617c-1.649,-0.873 -2.907,1.723 -1.267,2.591" style="fill-rule:nonzero;"/><path d="M745.722,749.993c10.677,-2.839 21.848,-6.958 30.686,-13.74c1.47,-1.128 -0.154,-3.517 -1.634,-2.382c-8.653,6.643 -19.558,10.625 -30.026,13.404c-1.799,0.48 -0.817,3.192 0.974,2.718" style="fill-rule:nonzero;"/><path d="M735.974,699.794c4.137,9.14 11.153,16.553 15.287,25.685c0.762,1.681 3.492,0.73 2.722,-0.971c-4.137,-9.14 -11.158,-16.553 -15.287,-25.685c-0.762,-1.681 -3.489,-0.729 -2.722,0.971" style="fill-rule:nonzero;"/><path d="M689.832,718.568c9.149,-0.583 18.822,-0.907 27.628,-3.66c1.779,-0.556 0.802,-3.272 -0.974,-2.718c-8.546,2.675 -18.018,2.939 -26.895,3.504c-1.858,0.116 -1.617,2.993 0.242,2.874" style="fill-rule:nonzero;"/><path d="M701.465,677.397c4.257,10.066 8.432,20.193 10.616,30.941c0.366,1.799 3.251,1.584 2.881,-0.239c-2.241,-11.012 -6.413,-21.356 -10.775,-31.673c-0.722,-1.706 -3.448,-0.75 -2.722,0.971" style="fill-rule:nonzero;"/><path d="M750.853,633.782c6.009,14.391 13.282,28.06 21.701,41.191c8.782,13.697 14.984,28.941 22.672,43.256c0.88,1.639 3.256,-0.007 2.384,-1.63c-7.056,-13.134 -13.122,-26.76 -20.53,-39.707c-8.343,-14.575 -17.002,-28.502 -23.505,-44.082c-0.714,-1.709 -3.438,-0.75 -2.722,0.971" style="fill-rule:nonzero;"/><path d="M764.388,688.751c7.546,2.673 14.219,7.263 22.113,8.983c0.947,0.203 1.75,-0.63 1.706,-1.537c-0.433,-8.777 0.549,-17.511 0.789,-26.277c0.052,-1.857 -2.827,-1.601 -2.879,0.24c-0.243,8.77 -1.223,17.497 -0.789,26.277c0.569,-0.513 1.135,-1.027 1.704,-1.537c-7.63,-1.661 -14.081,-6.155 -21.378,-8.739c-1.737,-0.617 -3.02,1.971 -1.267,2.591" style="fill-rule:nonzero;"/><path d="M933.511,678.003c-7.326,-1.374 -9.452,9.965 -2.126,11.339c7.326,1.374 9.452,-9.965 2.126,-11.339" style="fill:#ff6347;fill-rule:nonzero;"/></g><g><path d="M411,1250.507c-0.069,1.964 -0.124,3.925 -0.235,5.883c-1.315,3.396 -1.341,6.951 -1.082,10.583c0.056,1.645 0.211,3.284 0.616,4.885c0.493,1.935 2.645,2.445 4.257,1.674c0.333,-0.159 0.599,-0.363 0.897,-0.545c0.72,0.949 2.029,1.063 3.144,0.572c-0.034,0.521 -0.05,1.029 -0.032,1.518c0.047,1.288 0.944,2.437 2.218,2.734c3.591,0.834 6.956,1.626 9.841,4.094c0.783,0.67 1.658,0.822 2.456,0.661c0.116,1.212 0.869,2.392 2.155,2.533c0.495,0.054 1.003,0.096 1.516,0.128c0.1,0.134 0.179,0.278 0.298,0.406c1.025,1.104 2.334,1.468 3.701,1.453c0.091,0.495 0.314,0.992 0.732,1.448c8.795,9.59 26.278,4.921 31.406,-6.319c0.938,-2.055 -0.329,-4.171 -2.607,-4.275c-7.673,-0.345 -15.382,3.381 -22.424,5.961c-0.288,0.105 -0.534,0.265 -0.767,0.439c0.096,-0.221 0.104,-0.462 0.146,-0.696c3.461,-1.597 5.927,-4.505 5.835,-9.378c-0.011,-0.659 -0.247,-1.203 -0.594,-1.641c0.412,-1.217 0.747,-2.355 1,-3.274c0.108,-0.391 0.12,-0.764 0.061,-1.112c0.211,-0.824 0.414,-1.65 0.597,-2.476c0.278,-1.256 -0.279,-2.571 -1.419,-3.198l-1.519,-0.835c-0.852,-0.469 -2.045,-0.508 -2.874,0.05c-3.18,2.141 -5.965,5.503 -8.163,9.107c-0.048,0.005 -0.093,0.025 -0.141,0.031c0.836,-4.378 0.755,-8.951 0.524,-13.415c-0.074,-1.413 -0.859,-2.414 -1.954,-3.1c-0.105,-0.508 -0.369,-0.925 -0.74,-1.237c0.278,-2.362 -2.228,-3.635 -4.022,-2.975c-0.628,0.052 -1.227,0.311 -1.683,0.847c-0.857,1.004 -1.518,2.102 -2.051,3.26c-2.737,1.432 -5.225,4.075 -7.188,7.156c-0.392,-2.007 -0.985,-3.866 -1.954,-5.497c-1.059,-2.903 -2.494,-5.556 -5.046,-7.589c-1.999,-1.592 -4.811,-0.525 -4.905,2.139" style="fill:#ff6347;fill-rule:nonzero;"/><path d="M347.907,1427.154c32.577,22.217 67.72,-3.583 91.66,-26.366c7.001,-6.664 13.58,-13.768 20.062,-20.931c7.066,-7.806 15.904,-16.036 19.672,-26.087c8.574,-22.852 -9.302,-46.469 -26.451,-60.081c-34.355,-27.277 -93.336,-42.145 -115.235,6.858c-9.408,21.048 -10.163,48.124 -9.398,70.894c0.631,18.796 3.282,43.173 19.378,55.484c1.463,1.118 3.491,-0.938 2.016,-2.068c-15.616,-11.945 -17.643,-35.359 -18.506,-53.49c-0.938,-19.694 0.93,-40.264 5.686,-59.35c5.803,-23.286 23.073,-40.474 47.539,-41.604c21.829,-1.01 45.931,11.545 63.57,23.225c10.979,7.267 19.205,17.521 25.496,28.931c8.601,15.596 5.667,29.456 -5.139,43.151c-9.243,11.713 -20.061,22.681 -30.762,33.055c-22.763,22.069 -56.922,47.18 -88.196,25.853c-1.538,-1.049 -2.917,1.486 -1.393,2.526" style="fill-rule:nonzero;"/><path d="M453.003,1295.272c6.844,-1.641 13.221,-3.926 18.751,-8.386c2.109,-1.701 6.258,-6.159 3.632,-9.078c-3.275,-3.642 -10.282,-1.629 -14.293,-0.648c-7.385,1.807 -14.267,5.455 -21.196,8.472c-1.71,0.743 -0.201,3.208 1.482,2.477c8.888,-3.87 17.809,-8.707 27.669,-9.334c7.828,-0.497 1.841,5.271 -1.05,7.385c-4.645,3.395 -10.279,5.019 -15.801,6.342c-1.815,0.435 -1.002,3.205 0.805,2.771" style="fill-rule:nonzero;"/><path d="M451.758,1282.451c2.624,-4.483 8.455,-18.085 2.08,-21.799c-3.603,-2.1 -8.709,2.936 -11.106,4.944c-5.022,4.213 -9.837,9.501 -12.81,15.382c-0.839,1.656 1.689,3.054 2.531,1.392c1.971,-3.896 4.785,-7.224 7.76,-10.39c3.029,-3.225 6.796,-7.125 11.031,-8.675c3.609,-1.321 1.885,6.87 1.576,8.299c-0.71,3.289 -1.893,6.55 -3.592,9.455c-0.942,1.608 1.592,2.995 2.531,1.392" style="fill-rule:nonzero;"/><path d="M441.223,1269.243c0.205,-5.063 2.223,-20.732 -6.055,-20.86c-4.531,-0.071 -8.751,6.118 -11.108,9.212c-3.732,4.903 -7.34,10.668 -8.485,16.807c-0.341,1.82 2.468,2.506 2.81,0.671c1.527,-8.183 7.472,-16.316 13.481,-21.874c5.262,-4.868 6.259,1.967 6.547,6.015c0.24,3.356 0.057,6.745 -0.078,10.102c-0.074,1.858 2.814,1.779 2.888,-0.074" style="fill-rule:nonzero;"/><path d="M424.513,1258.404c-1.04,-4.867 -4.954,-14.447 -11.454,-10.367c-6.584,4.131 -7.273,17.131 -5.262,23.694c0.544,1.779 3.32,0.98 2.774,-0.8c-1.673,-5.471 -0.774,-12.509 1.726,-17.6c4.07,-8.287 8.505,1.487 9.442,5.877c0.39,1.824 3.161,1.006 2.775,-0.802" style="fill-rule:nonzero;"/><path d="M463.967,1333.19c1.445,-0.572 4.38,-2.824 3.509,-4.494c-2.041,-3.909 -4.92,1.338 -3.509,4.494" style="fill-rule:nonzero;"/><path d="M439.978,1319.999c1.445,-0.572 4.38,-2.824 3.509,-4.494c-2.041,-3.909 -4.92,1.338 -3.509,4.494" style="fill-rule:nonzero;"/><path d="M415.988,1306.808c1.445,-0.572 4.38,-2.824 3.509,-4.494c-2.041,-3.909 -4.92,1.338 -3.509,4.494" style="fill-rule:nonzero;"/><path d="M392.001,1293.618c1.443,-0.574 4.378,-2.826 3.507,-4.495c-2.039,-3.907 -4.918,1.339 -3.507,4.495" style="fill-rule:nonzero;"/><path d="M368.013,1280.428c1.445,-0.572 4.38,-2.824 3.509,-4.494c-2.041,-3.909 -4.92,1.338 -3.509,4.494" style="fill-rule:nonzero;"/><path d="M467.67,1355.183c1.445,-0.572 4.38,-2.824 3.509,-4.494c-2.041,-3.909 -4.92,1.338 -3.509,4.494" style="fill-rule:nonzero;"/><path d="M443.68,1341.991c1.445,-0.572 4.38,-2.824 3.509,-4.494c-2.041,-3.909 -4.92,1.338 -3.509,4.494" style="fill-rule:nonzero;"/><path d="M419.691,1328.8c1.445,-0.572 4.38,-2.824 3.509,-4.494c-2.041,-3.909 -4.92,1.338 -3.509,4.494" style="fill-rule:nonzero;"/><path d="M395.704,1315.61c1.443,-0.574 4.378,-2.826 3.507,-4.495c-2.039,-3.907 -4.918,1.339 -3.507,4.495" style="fill-rule:nonzero;"/><path d="M371.715,1302.42c1.445,-0.572 4.38,-2.824 3.509,-4.494c-2.041,-3.909 -4.92,1.338 -3.509,4.494" style="fill-rule:nonzero;"/><path d="M449.591,1363.239c1.445,-0.572 4.38,-2.824 3.509,-4.494c-2.041,-3.909 -4.92,1.338 -3.509,4.494" style="fill-rule:nonzero;"/><path d="M425.601,1350.048c1.445,-0.572 4.38,-2.824 3.509,-4.494c-2.041,-3.909 -4.92,1.338 -3.509,4.494" style="fill-rule:nonzero;"/><path d="M401.612,1336.856c1.445,-0.572 4.38,-2.824 3.509,-4.494c-2.041,-3.909 -4.92,1.338 -3.509,4.494" style="fill-rule:nonzero;"/><path d="M377.625,1323.667c1.443,-0.574 4.378,-2.826 3.507,-4.495c-2.039,-3.907 -4.918,1.339 -3.507,4.495" style="fill-rule:nonzero;"/><path d="M353.637,1310.476c1.445,-0.572 4.38,-2.824 3.509,-4.494c-2.041,-3.909 -4.922,1.336 -3.509,4.494" style="fill-rule:nonzero;"/><path d="M432.36,1373.784c1.445,-0.572 4.38,-2.824 3.509,-4.494c-2.041,-3.909 -4.92,1.338 -3.509,4.494" style="fill-rule:nonzero;"/><path d="M408.37,1360.593c1.445,-0.572 4.38,-2.824 3.509,-4.494c-2.041,-3.909 -4.92,1.338 -3.509,4.494" style="fill-rule:nonzero;"/><path d="M384.383,1347.403c1.443,-0.574 4.378,-2.826 3.507,-4.495c-2.039,-3.907 -4.918,1.339 -3.507,4.495" style="fill-rule:nonzero;"/><path d="M360.396,1334.213c1.445,-0.572 4.38,-2.824 3.509,-4.494c-2.041,-3.909 -4.922,1.336 -3.509,4.494" style="fill-rule:nonzero;"/><path d="M439.736,1300.012c1.445,-0.572 4.38,-2.824 3.509,-4.494c-2.041,-3.909 -4.922,1.336 -3.509,4.494" style="fill-rule:nonzero;"/><path d="M412.619,1288.611c1.445,-0.572 4.38,-2.824 3.509,-4.494c-2.041,-3.909 -4.922,1.336 -3.509,4.494" style="fill-rule:nonzero;"/><path d="M349.653,1293.828c1.447,-0.571 4.38,-2.824 3.509,-4.494c-2.041,-3.909 -4.918,1.339 -3.509,4.494" style="fill-rule:nonzero;"/></g><g><g><path d="M200.255,1438.197c1.487,-1.122 -0.249,-3.424 -1.737,-2.303c-1.487,1.122 0.249,3.424 1.737,2.303" style="fill-rule:nonzero;"/><path d="M383.906,1406.622l7.381,-5.567c1.487,-1.122 -0.249,-3.424 -1.737,-2.303l-7.381,5.567c-1.487,1.122 0.249,3.424 1.737,2.303" style="fill-rule:nonzero;"/><path d="M325.583,1390.635c3.385,-0.628 6.773,-1.256 10.16,-1.882c1.826,-0.339 1.496,-3.206 -0.336,-2.868c-3.386,0.626 -6.773,1.256 -10.16,1.882c-1.826,0.339 -1.496,3.206 0.336,2.868" style="fill-rule:nonzero;"/><path d="M318.073,1359.41c5.619,0.722 11.291,0.47 16.941,0.711c1.842,0.079 2.264,-2.779 0.4,-2.859c-5.646,-0.239 -11.321,0.009 -16.939,-0.712c-1.845,-0.236 -2.251,2.623 -0.402,2.861" style="fill-rule:nonzero;"/><path d="M316.124,1331.612c4.12,1.153 8.306,1.736 12.587,1.755c1.861,0.007 1.498,-2.858 -0.338,-2.866c-3.746,-0.019 -7.529,-0.544 -11.135,-1.553c-1.766,-0.495 -2.909,2.162 -1.114,2.664" style="fill-rule:nonzero;"/><path d="M335.55,1269.328c2.854,2.237 6.107,3.738 9.571,4.772c1.764,0.528 2.901,-2.13 1.116,-2.662c-3.236,-0.967 -6.254,-2.309 -8.925,-4.399c-1.461,-1.147 -3.23,1.141 -1.762,2.289" style="fill-rule:nonzero;"/><path d="M310.576,1506.842c1.323,-22.67 -6.361,-47.061 -18.151,-66.237c-12.856,-20.912 -36.586,-25.063 -58.78,-29.48c-28.652,-5.702 -63.08,-23.432 -70.172,-54.369c-2.389,-10.411 0.649,-20.635 9.488,-26.863c4.92,-3.464 10.776,-5.671 15.846,-8.971c7.598,-4.95 10.976,-13.286 10.613,-22.067c-0.909,-21.937 -27.72,-18.968 -42.316,-16.535c-13.627,2.271 -26.593,3.629 -38.424,-4.979c-14.803,-10.777 -10.12,-32.131 -6.334,-47.098c1.888,-7.461 2.849,-5.599 8.824,-4.172c0.801,0.191 -3.485,8.902 -4.001,10.367c-2.858,8.086 -2.684,16.893 -0.38,25.045c5.034,17.818 23.192,21.92 39.14,17.575c7.385,-2.012 13.946,-5.214 21.798,-4.671c8.531,0.592 17.001,7.611 22.537,13.635c7.944,8.638 8.496,19.894 2.35,29.682c-4.821,7.679 -15.002,9.034 -22.142,13.508c-22.505,14.109 -8.999,38.125 6.925,51.34c11.908,9.882 27.768,17.562 42.743,21.178c7.956,1.921 16.295,2.291 24.35,3.718c10.3,1.827 19.998,6.948 28.272,13.141c29.44,22.04 31.846,62.006 36.151,95.413c0.236,1.848 3.104,1.506 2.868,-0.339c-4.983,-38.662 -8.908,-81.034 -45.777,-103.075c-19.219,-11.489 -42.666,-9.054 -62.921,-18.078c-17.789,-7.923 -61.176,-37.274 -33.694,-59.228c11.639,-9.298 32.046,-11.238 30.564,-31.133c-1.117,-15.023 -13.365,-26.216 -26.808,-31.458c-16.127,-6.29 -31.81,9.141 -48.534,4.105c-21.789,-6.56 -18.741,-36.042 -9.047,-50.849c0.582,-0.887 0.196,-2.147 -0.943,-2.306c-3.716,-0.278 -7.21,-1.392 -10.485,-3.34c-0.706,-0.41 -1.939,-0.41 -2.214,0.589c-4.352,15.77 -9.648,32.968 -3.045,48.825c5.676,13.629 21.695,17.911 35.007,17.292c17.308,-0.806 54.888,-13.835 52.585,16.844c-1.002,13.385 -15.566,17.956 -25.245,23.741c-7.363,4.405 -10.225,11.33 -11.236,19.482c-4.461,35.955 41.623,59.893 70.223,66.278c21.988,4.908 44.003,7.225 58.419,26.776c13.056,17.704 20.363,44.477 19.085,66.316c-0.106,1.848 2.752,2.26 2.861,0.4" style="fill-rule:nonzero;"/><path d="M187.581,1188.869c-8.419,14.427 -28.049,52.712 0.162,59.146c12.83,2.925 28.95,-7.756 40.265,-0.92c17.977,10.86 -1.054,44.844 -6.96,58.344c-4.853,11.096 -10.027,25.902 -1.388,36.467c5.763,7.046 16.725,-2.166 21.997,-5.038c21.404,-11.657 18.268,23.071 16.601,33.931c-1.735,11.273 -6.282,23.341 -5.516,34.832c0.125,1.862 2.991,1.51 2.868,-0.339c-1.442,-21.677 15.406,-46.871 3.496,-67.693c-4.536,-7.926 -13.642,-6.063 -20.248,-2.466c-5.021,2.735 -12.763,10.08 -18.072,3.586c-7.746,-9.469 0.032,-25.552 4.157,-34.98c6.394,-14.614 27.055,-61.043 -4.875,-61.68c-14.218,-0.286 -29.15,11.106 -41.075,-2.798c-10.659,-12.429 4.275,-37.323 10.876,-48.633c0.924,-1.584 -1.349,-3.367 -2.287,-1.758" style="fill-rule:nonzero;"/><path d="M187.844,1190.893c4.701,3.304 5.703,3.063 3.202,7.677c-2.047,3.781 -3.555,7.854 -5,11.891c-2.44,6.829 -4.019,14.059 -3.742,21.321c0.556,14.502 15.722,9.497 24.235,6.432c12.929,-4.655 27.328,0.447 32.551,13.371c3.988,9.867 1.678,21.985 -0.48,31.998c-3.319,15.413 -16.641,33.933 -11.775,49.768c0.247,0.808 1.164,1.006 1.872,0.808c5.843,-1.626 11.085,-4.77 16.974,-6.22c18.059,-4.444 21.917,18.616 21.461,30.794c-0.612,16.397 -4.618,32.51 -5.671,48.887c-0.119,1.847 2.74,2.26 2.859,0.402c1.132,-17.63 5.15,-34.922 5.809,-52.592c0.386,-10.32 -2.365,-23.79 -13.114,-28.347c-4.864,-2.062 -8.891,-2.696 -14.065,-1.423c-5.491,1.352 -15.104,10.342 -14.397,-1.483c0.725,-12.098 9.104,-25.48 12.219,-37.329c4.555,-17.321 7.054,-46.523 -15.902,-51.896c-4.733,-1.109 -9.948,-2.09 -14.77,-0.803c-6.046,1.618 -19.991,9.666 -24.217,0.831c-5.079,-10.623 4.458,-30.904 10.504,-39.764c0.427,-0.628 0.407,-1.552 -0.264,-2.023c-2.175,-1.53 -4.353,-3.058 -6.528,-4.588c-1.517,-1.067 -3.29,1.215 -1.762,2.289" style="fill-rule:nonzero;"/><path d="M252.818,1416.397c-3.396,18.597 0.636,37.174 8.486,54.128c10.236,22.117 28.377,39.873 28.489,65.665c0.006,1.862 2.874,1.497 2.866,-0.341c-0.082,-19.489 -10.133,-35.043 -20.044,-51.079c-12.675,-20.511 -21.403,-43.522 -16.936,-67.973c0.335,-1.836 -2.527,-2.227 -2.861,-0.4" style="fill-rule:nonzero;"/><path d="M260.737,1420.509c-3.969,19.446 2.203,40.587 11.783,57.589c9.859,17.494 26.271,37.698 21.464,59.08c-0.408,1.819 2.455,2.203 2.861,0.4c3.795,-16.89 -5.489,-33.026 -13.712,-47.109c-12.325,-21.102 -24.698,-44.257 -19.534,-69.56c0.373,-1.828 -2.488,-2.216 -2.861,-0.4" style="fill-rule:nonzero;"/><path d="M208.59,1164.892c-4.152,13.226 -6.434,26.183 -1.386,39.482c3.836,10.1 15.119,11.836 24.465,12.972c16.239,1.972 33.953,3.066 47.082,13.83c17.307,14.189 12.869,43.066 10.417,62.423c-4.343,34.322 -16.207,71.58 -8.827,106.243c3.029,14.223 13.062,26.41 22.291,37.116c5.544,6.431 11.369,12.607 16.858,19.087c6.588,7.776 11.398,16.714 17.577,24.785c1.129,1.475 3.437,-0.263 2.307,-1.74c-9.941,-12.981 -18.532,-26.131 -29.54,-38.359c-11.845,-13.161 -23.572,-26.888 -27.359,-44.664c-3.676,-17.273 -0.272,-37.278 2.016,-54.592c2.398,-18.116 6.19,-36.03 8.361,-54.178c2.972,-24.847 2.422,-53.003 -23.085,-65.186c-11.339,-5.416 -25.413,-6.202 -37.696,-7.623c-10.615,-1.228 -19.138,-3.164 -23.37,-14.31c-4.138,-10.896 -0.772,-23.59 2.553,-34.174c0.552,-1.76 -2.105,-2.892 -2.665,-1.111" style="fill-rule:nonzero;"/><path d="M345.56,1472.268c-7.671,-6.552 -12.843,-14.992 -18.616,-23.134c-6.34,-8.94 -13.498,-17.299 -19.841,-26.259c-13.249,-18.708 -17.865,-38.163 -17.084,-60.915c1.202,-35.075 15.013,-68.044 12.752,-103.553c-0.806,-12.68 -3.994,-27.283 -13.116,-36.66c-6.846,-7.036 -17.097,-9.946 -26.384,-12.011c-11.445,-2.547 -23.245,-2.974 -34.753,-5.141c-6.795,-1.28 -12.027,-3.157 -12.843,-10.749c-0.881,-8.205 1.354,-17.208 2.889,-25.238c0.349,-1.833 -2.511,-2.224 -2.861,-0.4c-1.759,9.225 -6.493,24.601 -0.761,33.234c3.941,5.94 15.299,6.487 21.433,7.331c13.563,1.863 27.271,2.796 40.109,7.928c19.654,7.858 23.107,30.151 23.76,49.016c1.306,37.602 -14.779,73.156 -13.012,110.859c0.851,18.201 7.363,33.266 17.564,48.039c6.245,9.044 13.225,17.498 19.841,26.259c6.206,8.221 11.242,16.922 19.161,23.683c1.414,1.208 3.174,-1.085 1.762,-2.289" style="fill-rule:nonzero;"/><path d="M210.295,1166.772c2.072,1.016 4.137,1.9 6.407,2.37c1.825,0.378 2.217,-2.484 0.4,-2.859c-2.016,-0.416 -3.854,-1.275 -5.693,-2.175c-1.672,-0.82 -2.78,1.848 -1.114,2.664" style="fill-rule:nonzero;"/></g><path d="M388.863,1219.937c2.899,2.577 5.806,5.127 9.267,6.929c1.652,0.858 2.757,-1.81 1.118,-2.664c-3.22,-1.675 -5.929,-4.161 -8.622,-6.554c-1.389,-1.235 -3.147,1.059 -1.762,2.289" style="fill-rule:nonzero;"/></g><g><g><path d="M444.801,1459.172c-4.53,-1.504 -10.308,-2.432 -15.305,-1.405c-0.213,-2.19 -2.972,-3.978 -4.84,-1.89c-1.086,1.214 -2.189,2.427 -3.261,3.662c-7.195,5.748 -14.79,13.373 -14.921,22.605c-0.021,1.511 1.334,2.963 2.889,2.884c8.517,-0.431 15.652,-4.779 22.421,-9.624c3.742,-2.677 7.297,-5.616 10.96,-8.399c1.985,-1.509 4.176,-2.314 4.176,-5.051c0,-1.336 -0.89,-2.374 -2.119,-2.783" style="fill:#ff6347;fill-rule:nonzero;"/><path d="M460.488,1483.795c-0.079,-1.186 -0.194,-2.374 -0.379,-3.572c-0.002,-0.009 -0.007,-0.016 -0.007,-0.025c0.062,-0.508 0.102,-1.013 0.109,-1.516c0.018,-1.052 -0.499,-1.797 -1.206,-2.266c0.203,-0.708 0.384,-1.424 0.527,-2.157c0.587,-3.011 -3.848,-5.376 -5.281,-2.224c-6.136,13.514 -19.719,18.595 -32.119,24.945c-2.411,0.42 -4.77,0.681 -6.989,0.738c-3.146,0.083 -4.079,5.062 -0.767,5.667c0.996,0.18 1.981,0.295 2.961,0.378c0.067,0.125 0.148,0.245 0.238,0.362c0.053,0.268 0.134,0.54 0.275,0.817c4.81,9.393 20.441,7.741 28.687,4.788c5.669,-2.033 9.92,-5.858 11.827,-11.551c0.294,-0.877 0.483,-1.77 0.633,-2.674c0.083,-0.118 0.171,-0.228 0.243,-0.369c1.958,-3.722 2.21,-7.517 1.25,-11.341" style="fill:#ff6347;fill-rule:nonzero;"/><path d="M422.764,1456.693c-16.944,7.275 -21.254,26.987 -13.172,42.606c8.212,15.868 30.594,17.737 44.158,7.974c11.478,-8.26 11.572,-24.384 6.252,-36.117c-6.619,-14.606 -22.315,-19.74 -36.894,-14.606c-1.743,0.614 -0.992,3.399 0.767,2.78c12.707,-4.476 24.765,-0.964 32.117,10.487c6.404,9.979 6.504,24.087 -1.611,33.065c-10.863,12.01 -32.42,9.139 -41.274,-3.36c-9.802,-13.833 -4.213,-33.757 11.115,-40.337c1.706,-0.734 0.233,-3.216 -1.458,-2.492" style="fill-rule:nonzero;"/><path d="M426.28,1455.672c-4.077,-5.318 -9.966,-9.656 -9.818,-16.961l-1.445,1.442c6.247,-0.113 10.514,5.157 15.451,8.263c0.938,0.591 2.17,-0.182 2.173,-1.246c0.018,-5.533 -0.016,-10.951 4.2,-15.129c-0.758,-0.099 -1.514,-0.196 -2.27,-0.293c2.103,4.735 2.773,9.52 2.884,14.654c0.032,1.456 1.923,1.94 2.693,0.729c2.427,-3.83 4.793,-6.735 9.152,-8.567c-0.592,-0.337 -1.186,-0.671 -1.777,-1.008c1.77,6.765 -2.193,13.143 -4.622,19.232c-0.689,1.728 2.108,2.473 2.785,0.766c2.681,-6.717 6.562,-13.36 4.622,-20.764c-0.18,-0.685 -1.056,-1.311 -1.775,-1.006c-4.911,2.063 -8.055,5.432 -10.881,9.892c0.899,0.242 1.794,0.485 2.693,0.727c-0.122,-5.692 -0.957,-10.884 -3.277,-16.11c-0.386,-0.868 -1.666,-0.893 -2.27,-0.293c-4.8,4.762 -5.025,10.732 -5.045,17.171c0.723,-0.413 1.449,-0.828 2.173,-1.246c-5.515,-3.47 -9.929,-8.782 -16.907,-8.655c-0.8,0.016 -1.428,0.646 -1.445,1.442c-0.164,8.053 5.683,12.506 10.211,18.417c1.116,1.456 3.626,0.023 2.496,-1.456" style="fill-rule:nonzero;"/><path d="M407.698,1487.786c17.089,-4.017 30.973,-13.182 43.01,-25.75c1.287,-1.345 -0.753,-3.387 -2.043,-2.042c-11.72,12.241 -25.088,21.099 -41.734,25.012c-1.812,0.425 -1.045,3.207 0.767,2.78" style="fill-rule:nonzero;"/><path d="M411.164,1499.375c18.506,-1.394 37.555,-12.268 45.933,-29.172c0.82,-1.659 -1.671,-3.122 -2.496,-1.454c-7.911,15.965 -25.911,26.424 -43.437,27.741c-1.847,0.141 -1.861,3.025 0,2.884" style="fill-rule:nonzero;"/></g></g><g><path d="M878.959,1084.673c1.325,1.663 2.838,3.087 4.679,4.171c1.044,0.614 2.024,0.476 2.767,-0.042c0.236,0.352 0.502,0.697 0.84,1.029c15.289,14.792 33.183,28.215 52.518,37.403c0.188,0.183 0.38,0.366 0.606,0.541c9.376,7.16 18.155,15.208 28.855,20.391c0.113,0.053 0.221,0.075 0.335,0.121c10.762,8.646 21.806,16.915 32.903,25.209c17.314,12.937 34.808,25.616 52.575,37.921c19.189,13.289 38.459,27.428 59.027,38.491c5.817,3.129 12.333,0.366 15.551,-4.954c3.286,-5.436 6.337,-10.961 10.354,-15.901c3.591,-4.414 4.691,-12.48 -0.628,-16.332c-16.707,-12.11 -35.646,-19.848 -52.014,-32.62c-2.647,-2.067 -5.299,-4.113 -7.954,-6.147c-29.059,-17.028 -56.536,-36.833 -84.656,-55.479c-8.075,-4.752 -16.135,-9.528 -24.09,-14.478c-6.408,-3.987 -12.598,-8.088 -18.803,-12.051c-4.103,-2.301 -8.228,-4.561 -12.406,-6.726c-1.6,-0.829 -2.845,-1.865 -3.785,-3.021c-5.82,-3.219 -11.832,-6.129 -18.178,-8.577c-4.853,-3.145 -8.916,-6.919 -14.82,-8.534c-2.229,-0.608 -5.485,0.726 -6.319,3.001c-0.205,0.563 -0.437,1.111 -0.66,1.664c-2.204,1.635 -4.232,3.437 -6.054,5.488c-1.173,1.324 -1.609,3.042 -1.397,4.687c-1.399,-0.616 -2.793,-1.242 -4.156,-1.93c-1.403,-0.709 -3.159,-0.172 -3.888,1.239l-1.327,2.566c-0.428,0.827 -0.492,2.103 0.123,2.872" style="fill:none;fill-rule:nonzero;"/><path d="M1117.122,1248.941c-24.509,-13.683 -47.399,-30.822 -70.429,-46.799c-34.313,-23.803 -68.377,-47.964 -102.39,-72.197c-20.951,-14.926 -41.848,-29.931 -62.772,-44.895c-3.2,-2.288 1.267,-8.128 0.636,-8.416c2.81,1.287 5.476,2.95 8.142,4.506c10.709,6.255 21.225,12.853 31.752,19.41c40.59,25.281 80.878,51.038 121.292,76.595c29.191,18.46 58.07,38.333 88.526,54.677c1.641,0.882 2.965,-1.685 1.327,-2.566c-45.675,-24.51 -88.808,-54.841 -132.56,-82.562c-26.246,-16.629 -52.484,-33.278 -78.858,-49.705c-12.276,-7.646 -25.86,-18.938 -39.765,-23.505c-0.598,-0.195 -1.316,0.224 -1.58,0.75c-1.654,3.271 -2.391,6.624 -3.242,10.196c-0.106,0.437 0.042,1.089 0.43,1.36c36.278,25.511 72.127,51.638 108.335,77.251c25.917,18.33 51.895,36.583 78.066,54.555c16.931,11.627 33.807,23.887 51.764,33.912c1.627,0.908 2.947,-1.661 1.327,-2.566" style="fill-rule:nonzero;"/><path d="M1142.208,1212.609c-44.364,-27.88 -88.247,-56.539 -132.466,-84.648c-22.792,-14.49 -45.583,-29.004 -68.656,-43.046c-6.925,-4.213 -14.023,-8.082 -21.015,-12.169c-6.35,-3.712 -14.866,-10.224 -22.753,-9.009c-3.946,0.607 -7.338,10.4 -9.246,13.266c-1.03,1.551 1.542,2.861 2.561,1.327c2.188,-3.288 4.167,-6.638 6.113,-10.075c2.843,-5.026 12.829,1.803 15.99,3.524c4.981,2.712 9.85,5.662 14.793,8.45c6.94,3.912 13.711,8.137 20.493,12.315c23.174,14.275 46.132,28.903 69.095,43.515c41.304,26.291 82.309,53.066 123.766,79.116c1.576,0.991 2.89,-1.584 1.327,-2.566" style="fill-rule:nonzero;"/><path d="M881.255,1076.638c-47.105,-35.451 -103.263,-63.051 -159.632,-79.966c-0.075,0.95 -0.15,1.903 -0.224,2.856c31.795,1.952 60.617,14.547 88.743,28.636c15.037,7.533 29.614,15.119 43.288,24.985c11.538,8.325 22.519,17.36 34.328,25.318c1.542,1.038 2.851,-1.539 1.327,-2.566c-12.878,-8.678 -24.742,-18.705 -37.465,-27.586c-13.839,-9.663 -28.796,-17.029 -43.849,-24.57c-27.377,-13.712 -55.649,-25.207 -86.52,-27.102c-1.734,-0.108 -1.686,2.416 -0.226,2.855c55.764,16.735 111.664,44.188 158.272,79.261c1.473,1.11 3.445,-1.005 1.959,-2.121" style="fill-rule:nonzero;"/><path d="M893.578,1067.969c-30.477,-16.54 -57.415,-35.651 -82.892,-59.349c-26.242,-24.41 -48.727,-51.721 -67.096,-82.49c-0.8,-1.341 -2.602,-0.51 -2.659,0.847c-0.718,16.9 17.446,36.274 27.362,48.334c17.53,21.308 38.329,39.804 57.009,60.073c1.265,1.372 3.211,-0.764 1.959,-2.121c-15.984,-17.344 -33.032,-33.644 -49.035,-50.964c-8.15,-8.823 -15.235,-18.289 -22.017,-28.17c-5.485,-7.988 -12.829,-17.13 -12.397,-27.301l-2.659,0.847c17.845,29.893 39.453,56.016 64.502,80.156c26.28,25.327 54.696,45.392 86.598,62.704c1.638,0.888 2.96,-1.68 1.327,-2.566" style="fill-rule:nonzero;"/><path d="M812.497,1026.007c-6.11,-4.668 -13.147,-7.514 -19.804,-11.291c-8.54,-4.848 -16.891,-9.941 -25.688,-14.317c-18.405,-9.153 -37.506,-16.814 -55.968,-25.846c-0.321,0.898 -0.641,1.797 -0.962,2.695c17.751,5.66 36.034,9.37 53.109,17.019c16.312,7.306 31.357,17.592 47.159,25.926c1.645,0.868 2.972,-1.698 1.327,-2.566c-17.047,-8.991 -33.279,-19.709 -50.885,-27.597c-15.965,-7.149 -33.511,-10.316 -50.111,-15.609c-1.57,-0.501 -2.4,1.994 -0.963,2.697c17.14,8.383 34.774,15.687 51.994,23.901c7.667,3.656 15.06,7.748 22.398,12.027c8.647,5.043 18.479,9.004 26.435,15.082c1.467,1.122 3.436,-0.994 1.959,-2.121" style="fill-rule:nonzero;"/><path d="M895.809,1065.178c-12.524,-7.253 -23.247,-18.555 -34.246,-27.943c-10.794,-9.217 -20.954,-19.116 -30.493,-29.624c-20.312,-22.369 -35.182,-49.363 -48.904,-76.091c-0.744,-1.45 -2.564,-0.418 -2.659,0.847c-1.363,18.158 12.698,40.417 21.596,55.377c6.415,10.782 14.968,20.404 23.293,29.732c4.6,5.153 9.439,10.095 14.297,15.004c5.511,5.571 12.889,10.652 17.621,16.839c1.124,1.47 3.568,-0.067 2.438,-1.545c-5.724,-7.485 -14.336,-13.611 -21.021,-20.368c-9.7,-9.806 -18.786,-20.17 -27.227,-31.078c-7.291,-9.424 -12.448,-19.926 -17.618,-30.598c-4.915,-10.15 -11.372,-21.872 -10.498,-33.511l-2.659,0.847c13.324,25.955 27.844,51.15 46.66,73.548c10.005,11.908 21.507,22.554 33.217,32.743c11.139,9.69 22.063,20.966 34.878,28.388c1.611,0.934 2.93,-1.636 1.327,-2.566" style="fill-rule:nonzero;"/><path d="M879.459,1077.681c-13.151,-4.13 -24.18,-11.998 -35.639,-19.405c-10.795,-6.979 -22.35,-11.456 -34.405,-15.712c-25.051,-8.845 -50.218,-13.546 -76.297,-17.837c-0.077,0.952 -0.151,1.905 -0.228,2.857c11.733,-1.121 23.909,1.506 35.676,2.209c14.6,0.87 28.387,2.427 42.38,6.834c1.769,0.558 2.36,-2.273 0.597,-2.827c-12.978,-4.087 -25.75,-5.865 -39.269,-6.671c-13.03,-0.777 -26.484,-3.676 -39.53,-2.431c-1.575,0.152 -1.899,2.582 -0.225,2.858c26.133,4.301 51.136,9.224 76.297,17.837c13.359,4.571 25.341,10.059 37.198,17.722c10.557,6.825 20.765,13.598 32.847,17.393c1.772,0.557 2.36,-2.273 0.599,-2.826" style="fill-rule:nonzero;"/><path d="M1000.594,1169.653l3.702,-7.16c0.855,-1.655 -1.706,-2.982 -2.561,-1.327l-3.702,7.16c-0.855,1.655 1.706,2.982 2.561,1.327" style="fill-rule:nonzero;"/><path d="M976.727,1153.338l3.058,-5.914c0.856,-1.657 -1.705,-2.984 -2.561,-1.327l-3.058,5.914c-0.855,1.655 1.706,2.982 2.561,1.327" style="fill-rule:nonzero;"/><path d="M954.669,1129.85c-0.695,1.972 -1.375,3.97 -2.367,5.818c-0.871,1.623 1.488,3.289 2.367,1.651c1.119,-2.085 1.934,-4.277 2.72,-6.507c0.619,-1.757 -2.1,-2.719 -2.72,-0.962" style="fill-rule:nonzero;"/><path d="M934.736,1124.076l3.701,-7.158c0.855,-1.655 -1.706,-2.982 -2.561,-1.327l-3.701,7.158c-0.855,1.655 1.706,2.982 2.561,1.327" style="fill-rule:nonzero;"/><path d="M915.189,1109.962c0.68,-2.562 2.108,-4.644 3.821,-6.627c1.216,-1.408 -0.899,-3.371 -2.117,-1.961c-2.059,2.379 -3.711,4.922 -4.526,7.99c-0.479,1.8 2.345,2.394 2.821,0.598" style="fill-rule:nonzero;"/><path d="M897.256,1096.76c1.291,-2.496 2.602,-4.973 4.171,-7.31c1.04,-1.543 -1.533,-2.853 -2.561,-1.327c-1.569,2.336 -2.881,4.813 -4.171,7.31c-0.855,1.655 1.706,2.982 2.561,1.327" style="fill-rule:nonzero;"/><path d="M802.456,1112.226c6.606,3.423 11.912,-6.84 5.306,-10.264c-6.606,-3.423 -11.912,6.84 -5.306,10.264" style="fill:#61cab1;fill-rule:nonzero;"/></g></g></svg>