<?xml version="1.0" encoding="UTF-8" standalone="no"?><!DOCTYPE svg PUBLIC "-//W3C//DTD SVG 1.1//EN" "http://www.w3.org/Graphics/SVG/1.1/DTD/svg11.dtd"><svg width="100%" height="100%" viewBox="0 0 1000 1600" version="1.1" xmlns="http://www.w3.org/2000/svg" xmlns:xlink="http://www.w3.org/1999/xlink" xml:space="preserve" xmlns:serif="http://www.serif.com/" style="fill-rule:evenodd;clip-rule:evenodd;stroke-linecap:round;stroke-linejoin:round;stroke-miterlimit:1.5;"><g><path d="M82.169,656.503c1.863,0 1.863,-2.884 0,-2.884c-1.863,0 -1.863,2.884 0,2.884" style="fill-rule:nonzero;"/><path d="M10.373,636.985c1.488,-5.143 3.136,-10.238 4.622,-15.383c0.518,-1.791 -2.27,-2.55 -2.785,-0.766c-1.486,5.143 -3.136,10.238 -4.622,15.383c-0.518,1.791 2.27,2.55 2.785,0.766" style="fill-rule:nonzero;"/><path d="M328.078,593.914c0.763,3.803 1.549,7.589 3.226,11.112c0.802,1.68 3.291,0.215 2.496,-1.454c-1.562,-3.276 -2.228,-6.892 -2.938,-10.425c-0.365,-1.823 -3.15,-1.05 -2.785,0.766" style="fill-rule:nonzero;"/><path d="M378.874,591.992l0,10.768c0,1.86 2.889,1.86 2.889,0l0,-10.768c0,-1.86 -2.889,-1.86 -2.889,0" style="fill-rule:nonzero;"/><g><g><path d="M257.539,821.134c1.042,2.058 2.159,4.008 3.689,5.75c1.23,1.401 3.266,-0.648 2.041,-2.042c-1.359,-1.546 -2.309,-3.339 -3.236,-5.164c-0.841,-1.661 -3.333,-0.198 -2.494,1.456" style="fill-rule:nonzero;"/><path d="M217.83,762.934c21.8,-6.661 40.631,-25.044 41.507,-48.692c0.069,-1.86 -2.82,-1.853 -2.889,0c-0.827,22.342 -18.857,39.638 -39.386,45.912c-1.777,0.542 -1.019,3.325 0.767,2.78" style="fill-rule:nonzero;"/><path d="M241.951,746.163c-7.532,-25.296 11.496,-39.02 22.967,-58.882c-0.881,-0.113 -1.759,-0.228 -2.639,-0.344c3.874,19.472 11.485,63.443 -21.337,58.217c-1.821,-0.288 -2.602,2.49 -0.767,2.783c35.87,5.711 29.295,-39.636 24.89,-61.766c-0.25,-1.255 -2.048,-1.373 -2.639,-0.344c-12.104,20.958 -31.084,34.816 -23.258,61.101c0.529,1.779 3.317,1.02 2.785,-0.766" style="fill-rule:nonzero;"/></g></g><g><path d="M78.02,967.523c0.259,-0.495 0.528,-0.988 0.765,-1.497c6.882,-7.672 13.552,-16.635 11.811,-25.509c-0.382,-1.95 -2.709,-2.997 -4.494,-2.5c-4.863,1.358 -9.759,2.339 -14.754,3.051c-0.202,-2.145 -0.436,-4.289 -0.723,-6.423c-0.71,-5.321 -1.469,-11.843 -5.303,-15.961c-1.526,-1.638 -4.717,-1.306 -5.716,0.773c-3.544,7.386 -3.049,15.187 -2.218,23.044c-5.282,-0.028 -11.11,1.408 -12.931,6.156c-1.016,2.646 1.792,5.573 3.161,7.456c1.937,2.663 5.554,5.492 6.285,8.86c-0.263,0.242 -0.504,0.51 -0.696,0.823c-0.903,1.471 -2.148,2.537 -3.572,3.349c-3.726,0.356 -6.88,1.735 -7.778,5.227c-2.008,7.815 14.311,15.409 18.98,19.11c0.336,0.266 0.7,0.456 1.073,0.594c0.531,0.81 1.362,1.364 2.408,1.391c1.292,1.232 3.266,1.567 4.708,-0.224c5.171,-6.417 13.736,-9.226 18.584,-16.146c5.067,-7.233 -2.956,-10.732 -9.59,-11.571" style="fill:#ff6347;fill-rule:nonzero;"/><path d="M139.087,992.94c1.248,-0.961 2.419,-2.04 3.475,-3.3c0.24,-0.286 0.417,-0.587 0.559,-0.888c0.022,-0.024 0.043,-0.051 0.065,-0.073c0.327,-0.336 0.671,-0.653 1.019,-0.966c0.076,-0.062 0.132,-0.11 0.176,-0.147c0.246,-0.179 0.501,-0.343 0.758,-0.503c0.959,-0.589 1.554,-1.56 1.716,-2.602c3.665,-2.081 7.09,-4.524 10.015,-7.639c2.11,-2.249 0.643,-6.337 -2.652,-6.187c-8.052,0.362 -14.343,3.694 -20.483,7.895c-1.873,-1.823 -3.821,-3.569 -6.146,-4.788c-3.59,-1.882 -8.621,-1.249 -10.943,2.355c-1.925,2.988 -2.569,6.945 -3.121,10.394c-0.28,1.753 -0.352,3.484 0.101,4.908c-0.772,0.387 -1.541,0.782 -2.321,1.155c-3.783,-4.293 -7.493,-5.528 -10.911,-4.869c-1.566,-0.484 -3.256,-0.577 -4.952,-0.285c-0.509,0.087 -0.951,0.319 -1.326,0.641c-2.169,0.554 -3.983,1.87 -4.753,4.141c-0.521,1.537 -0.346,3.14 0.136,4.679c-1.711,2.745 -3.104,5.79 -4.086,8.693c-0.596,1.764 0.268,3.128 1.582,3.843c0.038,0.04 0.086,0.064 0.125,0.104c0.027,1.252 0.573,2.484 1.754,3.056c11.445,5.542 24.607,16.489 37.973,8.475c6.273,-3.758 6.282,-7.995 3.946,-12.114c9.103,1.031 18.385,0.535 22.053,-6.024c3.594,-6.426 -6.017,-8.919 -13.76,-9.955" style="fill:#ff6347;fill-rule:nonzero;"/><path d="M49.448,1031.77c19.614,-20.873 20.345,-54.669 17.895,-81.527c-0.14,-1.543 -2.566,-1.517 -2.424,0.041c2.392,26.225 1.95,59.408 -17.195,79.782c-1.07,1.139 0.653,2.843 1.723,1.704" style="fill-rule:nonzero;"/><path d="M49.945,1031.897c11.762,-14.726 32.108,-18.735 49.383,-23.593c12.993,-3.653 26.84,-8.498 33.719,-20.946c0.756,-1.367 -1.35,-2.57 -2.104,-1.204c-8.619,15.595 -28.512,18.591 -44.178,23.171c-14.025,4.1 -29.102,9.047 -38.543,20.868c-0.966,1.209 0.749,2.922 1.723,1.704" style="fill-rule:nonzero;"/><path d="M87.513,1009.907c0.473,-5.98 0.783,-11.801 3.483,-17.281c5.11,-10.365 14.344,-2.614 20.08,0.009c0.637,0.29 1.665,0.098 1.777,-0.749c0.509,-3.852 1.183,-7.599 2.252,-11.337c0.977,-3.412 3.251,-8.585 8.112,-7.962c3.643,0.468 6.656,4.359 8.972,6.836c0.456,0.485 1.715,-0.009 1.715,-0.009c0,0 5.054,-3.67 7.829,-5.092c1.771,-0.875 3.604,-1.595 5.495,-2.165c4.405,-1.463 9.663,1.829 6.186,6.164c-4.233,5.282 -10.694,8.41 -14.852,13.726c-0.484,0.619 -0.46,1.899 0.561,2.024c1.716,0.211 3.381,0.503 5.073,0.864c2.539,0.538 17.671,5.646 3.449,11.37c-5.184,2.087 -12.378,0.005 -17.789,-0.142c-0.968,-0.027 -1.411,1.057 -1.022,1.825c6.275,12.382 -6.663,15.472 -15.93,14.306c-9.004,-1.136 -17.969,-6.534 -25.011,-11.978c-1.223,-0.944 -2.939,0.768 -1.706,1.721c10.007,7.733 26.957,17.462 40.093,11.463c4.275,-1.954 6.588,-4.425 7.111,-9.135c0.089,-0.785 -0.607,-5.704 -1.598,-5.731c3.922,0.106 7.786,0.711 11.721,0.704c5.488,-0.01 17.707,-7.334 9.759,-13.087c-2.066,-1.499 -4.228,-2.384 -6.632,-3.175c-1.204,-0.349 -2.425,-0.641 -3.657,-0.872c-2.202,-0.47 -2.609,1.291 -1.101,-0.261c4.537,-4.674 10.969,-7.952 14.542,-13.535c5.054,-7.902 -3.383,-10.222 -9.866,-8.579c-4.912,1.245 -9.731,4.029 -13.651,7.165c0.933,-0.746 -9.365,-8.024 -12.612,-6.775c-3.553,1.366 -5.612,4.228 -6.869,7.81c-1.245,3.551 -2.01,7.129 -2.607,10.84c-0.268,1.675 -6.006,-2.213 -6.961,-2.588c-15.127,-5.952 -17.939,13.131 -18.772,23.669c-0.123,1.554 2.301,1.503 2.424,-0.041" style="fill-rule:nonzero;"/><path d="M103.692,995.781c-3.663,3.681 -5.906,8.397 -9.038,12.488c-0.543,0.71 -0.409,1.762 0.561,2.025c5.128,1.39 10.028,3.536 15.282,4.452c1.529,0.267 2.143,-2.074 0.602,-2.344c-5.254,-0.916 -10.154,-3.063 -15.282,-4.452c0.187,0.674 0.374,1.35 0.56,2.023c3.124,-4.077 5.393,-8.825 9.038,-12.488c1.104,-1.108 -0.622,-2.809 -1.723,-1.704" style="fill-rule:nonzero;"/><path d="M120.861,986.209c-2.223,4.787 -3.616,9.863 -5.438,14.805c-0.268,0.723 0.462,1.56 1.196,1.511c4.973,-0.336 9.952,-0.532 14.937,-0.395c1.561,0.041 1.517,-2.379 -0.043,-2.42c-4.985,-0.137 -9.964,0.057 -14.937,0.395c0.397,0.504 0.797,1.006 1.195,1.513c1.747,-4.735 3.063,-9.615 5.194,-14.204c0.654,-1.407 -1.448,-2.619 -2.104,-1.204" style="fill-rule:nonzero;"/><path d="M65.45,996.614c-4.051,-4.446 -9.589,-7.498 -14.325,-11.136c-2.553,-1.959 -4.886,-4.134 -6.656,-6.838c-4.734,-7.232 5.672,-8.749 9.234,-10.851c2.731,-1.611 0.235,-6.605 -1.339,-8.233c-3.046,-3.156 -13.619,-13.902 -3.398,-14.61c3.185,-0.219 6.214,-0.101 9.327,-0.908c0.481,-0.126 0.879,-1.186 0.879,-1.186c0,0 -0.5,-6.618 -0.49,-9.934c0.004,-1.334 2.068,-19.935 6.584,-13.349c4.48,6.529 3.38,15.955 6.717,23.03c0.213,0.451 0.908,0.731 1.375,0.547c3.238,-1.271 15.58,-8.461 16.113,0.491c0.498,8.335 -7.302,16.915 -11.436,23.634c-0.378,0.615 -0.028,1.668 0.752,1.775c2.82,0.383 12.322,1.005 9.158,7.615c-1.067,2.227 -3.234,4.137 -4.969,5.849c-4.995,4.928 -11.531,11.004 -18.088,13.43c-1.454,0.54 -0.805,2.874 0.665,2.33c6.737,-2.495 11.958,-7.848 17.352,-12.428c3.709,-3.148 8.214,-7.292 8.356,-12.5c0.091,-3.347 -4.019,-4.849 -6.494,-5.701c-5.613,-1.928 -0.506,-5.584 1.924,-9.452c2.082,-3.318 4.574,-7.772 4.942,-11.76c0.254,-2.752 0.848,-8.735 -3.135,-9.684c-2.664,-0.637 -15.019,3.147 -15.091,2.942c-1.897,-5.494 -2.075,-24.129 -10.554,-23.926c-8.281,0.194 -6.687,19.414 -6.414,24.035c0.266,4.485 -8.346,2.162 -12.27,3.617c-3.935,1.458 -2.405,6.555 -1.499,9.387c0.729,2.275 2.927,3.883 4.641,5.343c2.581,1.703 3.977,4.249 4.191,7.634c-2.148,0.34 -2.231,0.524 -4.395,1.456c-3.75,1.616 -6.342,5.612 -5.875,9.608c1.137,9.715 16.72,15.138 22.511,21.492c1.056,1.157 2.752,-0.572 1.706,-1.721" style="fill-rule:nonzero;"/><path d="M57.16,955.911c3.021,3.715 6.275,7.238 9.072,11.13c0.475,0.66 1.286,0.784 1.906,0.236c3.498,-3.094 6.069,-6.948 8.719,-10.755c0.892,-1.282 -2.106,-1.205 -2.106,-1.205c0,0 -4.995,7.298 -8.337,10.257c0.635,0.079 1.269,0.158 1.904,0.235c-2.918,-4.061 -6.301,-7.743 -9.453,-11.62c-0.987,-1.215 -2.679,0.521 -1.706,1.721" style="fill-rule:nonzero;"/><path d="M55.182,973.918c3.617,4.028 7.196,8.067 10.311,12.506c0.405,0.576 1.384,0.887 1.904,0.235c2.645,-3.311 5.694,-6.292 7.966,-9.889c0.837,-1.324 -1.273,-2.52 -2.104,-1.204c-2.159,3.414 -5.072,6.242 -7.585,9.389c0.635,0.079 1.271,0.159 1.906,0.236c-3.233,-4.605 -6.938,-8.812 -10.692,-12.994c-1.048,-1.165 -2.744,0.564 -1.706,1.721" style="fill-rule:nonzero;"/><path d="M82.277,946.476l-1.784,6.945c-0.388,1.512 1.96,2.115 2.348,0.603l1.784,-6.945c0.388,-1.512 -1.96,-2.115 -2.348,-0.603" style="fill-rule:nonzero;"/><path d="M121.116,975.396c-1.623,1.938 -2.794,4.178 -3.461,6.618c-0.411,1.508 1.937,2.109 2.348,0.603c0.551,-2.012 1.493,-3.915 2.835,-5.517c0.997,-1.191 -0.72,-2.902 -1.723,-1.704" style="fill-rule:nonzero;"/></g><path d="M56.156,603.026c-6.404,1.091 -9.122,7.072 -7.188,12.988c1.907,5.833 8.367,8.574 14.041,6.553c4.752,-1.691 7.012,-6.781 6.317,-11.532c-0.899,-6.142 -7.361,-8.373 -12.786,-8.06c-1.851,0.106 -1.863,2.99 0,2.884c4.038,-0.233 8.406,0.75 9.786,5.023c1.001,3.092 -0.428,6.613 -3.076,8.371c-9.409,6.251 -18.007,-11.456 -6.326,-13.447c1.833,-0.311 1.054,-3.092 -0.767,-2.78" style="fill-rule:nonzero;"/><path d="M182.143,603.683c-3.582,0.609 -5.189,4.086 -4.105,7.393c1.07,3.272 4.696,4.935 7.921,3.786c2.785,-0.992 4.077,-3.874 3.668,-6.664c-0.497,-3.385 -4.091,-4.742 -7.1,-4.566c-1.851,0.106 -1.863,2.99 0,2.884c1.666,-0.097 3.622,0.175 4.206,1.987c0.4,1.234 -0.141,2.674 -1.209,3.383c-3.818,2.538 -7.424,-4.603 -2.614,-5.422c1.833,-0.311 1.054,-3.09 -0.767,-2.78" style="fill-rule:nonzero;"/><g><path d="M647.381,1497.036c-44.699,-1.043 -88.164,-16.791 -109.839,-58.153c-11.327,-21.613 -17.138,-51.464 -10.109,-75.389c18.328,-62.398 89.271,-92.251 149.421,-81.111c31.659,5.865 63.362,20.088 81.369,47.629c13.442,20.563 20.302,48.612 19.015,73.086c-1.052,19.908 -11.482,40.201 -23.954,55.243c-25.865,31.205 -67.067,40.146 -105.903,38.695c-1.865,-0.069 -1.858,2.815 0,2.884c40.803,1.525 82.199,-8.48 109.155,-40.995c12.668,-15.284 22.955,-36.694 23.637,-56.895c0.784,-23.297 -5.36,-47.557 -16.257,-68.049c-12.282,-23.097 -32.598,-36.103 -56.313,-45.603c-51.672,-20.688 -111.54,-12.99 -152.636,25.693c-32.242,30.346 -39.996,71.593 -25.948,112.251c17.642,51.053 67.363,72.407 118.363,73.598c1.865,0.044 1.861,-2.84 0,-2.884" style="fill-rule:nonzero;"/><path d="M548.857,1355.381c6.046,-13.433 24.37,-10.494 35.69,-16.403c1.653,-0.863 0.192,-3.355 -1.456,-2.492c-11.998,6.262 -30.226,2.993 -36.73,17.439c-0.756,1.682 1.733,3.15 2.496,1.456" style="fill-rule:nonzero;"/><path d="M616.136,1315.904c2.988,-2.194 6.257,-3.962 9.245,-6.151c1.486,-1.091 0.046,-3.595 -1.458,-2.492c-2.988,2.192 -6.257,3.959 -9.245,6.151c-1.484,1.091 -0.044,3.595 1.458,2.492" style="fill-rule:nonzero;"/><path d="M612.177,1388.108c7.565,-20.411 32.898,-20.226 48.642,-31.44c1.502,-1.071 0.06,-3.574 -1.458,-2.492c-16.664,11.874 -41.914,11.433 -49.969,33.166c-0.647,1.749 2.145,2.494 2.785,0.766" style="fill-rule:nonzero;"/><path d="M673.917,1333.594c4.359,-2.582 8.854,-4.912 13.095,-7.69c1.551,-1.015 0.104,-3.514 -1.458,-2.492c-4.241,2.78 -8.736,5.111 -13.095,7.69c-1.599,0.948 -0.148,3.443 1.458,2.492" style="fill-rule:nonzero;"/><path d="M677.767,1306.674c2.311,-1.539 4.622,-3.076 6.934,-4.615c1.542,-1.027 0.097,-3.526 -1.458,-2.492c-2.311,1.539 -4.622,3.078 -6.934,4.615c-1.542,1.024 -0.097,3.526 1.458,2.492" style="fill-rule:nonzero;"/><path d="M551.422,1415.891c7.31,-5.505 15.587,-9.31 23.882,-13.076c1.692,-0.771 0.224,-3.256 -1.458,-2.492c-8.295,3.768 -16.572,7.573 -23.882,13.076c-1.468,1.105 -0.032,3.611 1.458,2.492" style="fill-rule:nonzero;"/><path d="M632.315,1413.583c6.818,-4.483 12.79,-10.051 20.48,-13.085c6.229,-2.453 12.844,-2.893 18.811,-6.145c1.636,-0.893 0.178,-3.383 -1.458,-2.492c-6.569,3.581 -14.159,3.669 -20.801,6.922c-6.721,3.295 -12.27,8.219 -18.49,12.307c-1.549,1.018 -0.104,3.516 1.458,2.492" style="fill-rule:nonzero;"/><path d="M671.606,1435.118c3.853,-2.31 7.703,-4.617 11.556,-6.922c1.595,-0.955 0.143,-3.45 -1.458,-2.492c-3.853,2.307 -7.706,4.615 -11.556,6.922c-1.595,0.958 -0.143,3.452 1.458,2.492" style="fill-rule:nonzero;"/><path d="M699.86,1452.29c11.468,-14.883 31.902,-17.448 43.687,-32.01c1.158,-1.433 -0.874,-3.489 -2.043,-2.042c-11.919,14.733 -32.454,17.437 -44.14,32.596c-1.135,1.474 1.377,2.907 2.496,1.456" style="fill-rule:nonzero;"/><path d="M736.32,1394.354c4.188,-2.559 8.02,-5.628 11.85,-8.685c1.454,-1.163 -0.606,-3.189 -2.045,-2.04c-3.638,2.903 -7.283,5.803 -11.263,8.233c-1.586,0.969 -0.134,3.466 1.458,2.492" style="fill-rule:nonzero;"/><path d="M712.729,1355.674c6.855,-6.599 15.305,-10.683 23.591,-15.157c1.639,-0.886 0.18,-3.376 -1.458,-2.492c-8.51,4.596 -17.142,8.837 -24.178,15.607c-1.343,1.294 0.703,3.332 2.045,2.042" style="fill-rule:nonzero;"/><path d="M597.94,1455.659c9.617,-9.661 25.236,-10.42 33.353,-21.828c1.079,-1.521 -1.428,-2.958 -2.496,-1.456c-7.793,10.958 -23.54,11.844 -32.903,21.242c-1.313,1.322 0.73,3.362 2.045,2.042" style="fill-rule:nonzero;"/><path d="M599.806,1356.19c-0.229,-1.924 -1.664,-3.196 -3.656,-2.78c-10.01,2.072 -22.682,8.544 -27.15,18.247c-0.099,0.219 -0.155,0.441 -0.206,0.658c-0.18,0.302 -0.395,0.565 -0.566,0.879c-0.878,1.608 -0.127,3.759 1.726,4.236c6.317,1.629 13.428,-2.457 18.501,-5.768c4.833,-3.156 12.132,-8.881 11.35,-15.471" style="fill-rule:nonzero;"/><path d="M664.71,1307.262c-9.525,-2.03 -17.288,4.467 -23.052,11.405c-0.081,0.099 -0.166,0.194 -0.243,0.295c-0.529,0.646 -1.045,1.29 -1.539,1.931c-0.356,0.464 -0.465,1.008 -0.421,1.548c-0.27,0.708 -0.502,1.437 -0.64,2.217c-0.337,1.885 0.788,3.563 2.785,3.65c11.129,0.487 21.115,-7.497 25.128,-17.501c0.564,-1.401 -0.601,-3.244 -2.018,-3.546" style="fill-rule:nonzero;"/><path d="M711.707,1381.765c-11.517,-0.459 -23.237,8.136 -27.917,18.348c-0.328,0.713 -0.398,1.507 -0.229,2.227c-0.416,1.793 0.654,3.565 2.723,3.653c11.357,0.482 27.582,-9.01 28.313,-21.343c0.095,-1.615 -1.389,-2.824 -2.889,-2.884" style="fill-rule:nonzero;"/><path d="M714.792,1324.184c-2.004,0.385 -5.283,1.532 -7.53,3.332c-0.231,0.127 -0.46,0.275 -0.68,0.485c-0.379,0.365 -0.735,0.713 -1.079,1.057c-1.017,0.833 -1.955,1.756 -2.773,2.79c-0.816,1.036 -1.167,2.277 -0.451,3.496c0.171,0.293 0.43,0.554 0.721,0.785c0.767,1.26 2.635,1.712 4.003,1.018c3.654,-1.851 7.264,-4.123 9.83,-7.372c0.049,-0.062 0.072,-0.136 0.118,-0.201c0.21,-0.196 0.441,-0.365 0.652,-0.568c2.203,-2.139 -0.104,-5.342 -2.81,-4.82" style="fill-rule:nonzero;"/><path d="M604.002,1415.704c-0.294,-0.03 -0.594,-0.048 -0.918,0.005c-5.683,0.951 -10.706,4.029 -14.374,8.433c-1.909,2.294 -0.097,5.309 2.81,4.82c5.926,-0.994 10.907,-4.301 15.141,-8.433c2.166,-2.114 -0.021,-5.18 -2.66,-4.825" style="fill-rule:nonzero;"/><path d="M755.514,1405.821c0.005,-0.002 0.012,-0.005 0.018,-0.007c-0.025,0.005 -0.032,0.005 -0.018,0.007" style="fill-rule:nonzero;"/><path d="M763.057,1408.223c2.034,-1.913 -0.051,-5.817 -2.81,-4.82c-1.331,0.48 -2.498,1.154 -3.629,1.994c-0.074,0.055 -0.143,0.115 -0.215,0.173c-0.092,0.035 -0.187,0.076 -0.227,0.09c-0.007,0.005 -0.014,0.005 -0.025,0.009c-0.21,0.016 -0.411,0.085 -0.619,0.145c0.023,-0.002 0.058,-0.005 0.111,-0.007c-0.074,0.014 -0.113,0.014 -0.129,0.014c-0.194,0.058 -0.395,0.085 -0.58,0.18c-0.992,0.512 -1.796,1.514 -1.738,2.69c0.018,0.335 0.109,0.683 0.238,1.022c0.042,0.383 0.134,0.766 0.342,1.124c0.728,1.239 2.69,1.982 3.952,1.036c0.199,-0.148 0.381,-0.316 0.571,-0.473c0.007,0.007 0.012,0.014 0.016,0.021c0.039,-0.042 0.079,-0.081 0.12,-0.122c0.009,-0.009 0.014,-0.018 0.023,-0.028c0.291,-0.245 0.587,-0.485 0.881,-0.727c1.345,-0.579 2.646,-1.313 3.719,-2.321" style="fill-rule:nonzero;"/></g><g><path d="M191.709,859.012c-17.725,4.848 -41.438,12.601 -43.285,34.749c-1.948,23.394 24.892,20.662 40.301,16.638c14.457,-3.777 43.095,-13.856 40.384,-33.524c-2.565,-18.597 -21.95,-22.375 -37.4,-17.864c-1.784,0.521 -1.024,3.304 0.767,2.78c13.468,-3.932 29.822,-1.719 33.589,13.996c4.22,17.603 -22.38,26.433 -34.393,30.683c-15.659,5.542 -47.186,8.332 -39.021,-17.691c5.535,-17.647 24.088,-22.684 39.825,-26.989c1.794,-0.491 1.031,-3.272 -0.767,-2.78" style="fill-rule:nonzero;"/><path d="M160.654,874.63c1.916,12.605 5.311,27.155 14.237,36.786c1.269,1.368 3.307,-0.678 2.045,-2.04c-8.554,-9.227 -11.658,-23.42 -13.498,-35.513c-0.277,-1.834 -3.062,-1.052 -2.785,0.766" style="fill-rule:nonzero;"/><path d="M171.386,867.325c1.47,14.223 10.158,30.409 20.454,40.245c1.347,1.285 3.391,-0.752 2.043,-2.04c-9.679,-9.246 -18.226,-24.834 -19.608,-38.205c-0.19,-1.83 -3.081,-1.851 -2.889,0" style="fill-rule:nonzero;"/><path d="M191.469,861.556c3.527,14.089 12.266,25.628 19.405,38.03c0.927,1.613 3.425,0.162 2.496,-1.454c-7.015,-12.178 -15.649,-23.501 -19.116,-37.342c-0.451,-1.804 -3.236,-1.038 -2.785,0.766" style="fill-rule:nonzero;"/><path d="M220.448,862.325c2.112,-5.731 4.384,-11.322 8.801,-15.692c4.181,-4.142 8.422,-2.85 6.686,3.45c-0.936,3.403 -3.039,6.659 -4.405,9.938c-0.511,1.223 1.126,2.215 2.122,1.629c0.765,-0.452 11.313,-5.524 11.025,-3.844c-0.596,3.452 -6.201,7.215 -8.63,9.045c-0.892,0.671 -1.022,2.367 0.344,2.637c3.374,0.667 13.803,3.113 5.593,5.819c-4.116,1.357 -8.621,1.479 -12.913,1.345c-1.863,-0.058 -1.856,2.827 0,2.884c5.142,0.159 15.776,0.413 19.278,-4.522c4.042,-5.697 -8.42,-7.762 -11.191,-8.309c0.116,0.879 0.231,1.758 0.347,2.637c2.445,-1.844 12.679,-8.842 9.86,-13.318c-3.088,-4.905 -12.152,1.35 -15.171,3.133c0.707,0.545 1.414,1.087 2.122,1.629c2.753,-6.611 6.344,-11.858 4.622,-19.225c-0.139,-0.593 -0.777,-1.098 -1.394,-1.059c-11.628,0.738 -16.32,11.394 -19.881,21.057c-0.645,1.749 2.149,2.497 2.785,0.766" style="fill-rule:nonzero;"/><path d="M147.407,891.264c-6.074,-0.162 -17.972,0.856 -21.494,7.005c-4.042,7.061 10.814,6.701 13.791,6.648c-0.243,-0.895 -0.485,-1.791 -0.728,-2.688c-5.977,2.797 -10.997,7.294 -10.731,14.322c0.032,0.831 0.636,1.382 1.445,1.442c5.679,0.429 10.368,-1.569 15.365,-4.043c-0.659,-0.66 -1.317,-1.315 -1.976,-1.973c-1.939,2.552 -8.838,12.478 -0.973,12.559c7.01,0.072 14.344,-7.864 17.337,-13.413c0.883,-1.636 -1.611,-3.092 -2.496,-1.454c-2.383,4.421 -6.016,7.831 -10.343,10.344c-1.396,0.812 -3.469,1.878 -5.168,1.604c-1.456,-0.235 3.809,-7.753 4.139,-8.187c0.955,-1.255 -0.818,-2.545 -1.976,-1.973c-4.549,2.254 -8.725,4.04 -13.909,3.65c0.481,0.48 0.964,0.96 1.445,1.442c-0.231,-6.061 4.287,-9.486 9.298,-11.83c1.334,-0.623 0.645,-2.713 -0.728,-2.688c-3.236,0.058 -6.458,0.072 -9.622,-0.692c-3.538,-0.851 -0.518,-2.813 1.19,-3.796c4.75,-2.737 10.752,-3.54 16.135,-3.396c1.865,0.048 1.861,-2.836 0,-2.884" style="fill-rule:nonzero;"/><path d="M155.207,890.399c0.15,4.871 2.367,8.946 4.819,13.034c0.957,1.594 3.455,0.145 2.496,-1.454c-2.175,-3.625 -4.292,-7.25 -4.426,-11.581c-0.055,-1.855 -2.947,-1.862 -2.889,0" style="fill-rule:nonzero;"/><path d="M186.222,882.667c1.525,3.004 3.379,5.764 5.392,8.459c1.102,1.472 3.612,0.037 2.496,-1.456c-2.015,-2.695 -3.869,-5.455 -5.392,-8.459c-0.844,-1.659 -3.335,-0.198 -2.496,1.456" style="fill-rule:nonzero;"/><path d="M207.023,871.131c1.763,3.468 3.76,6.821 5.249,10.422c0.698,1.694 3.495,0.953 2.785,-0.766c-1.586,-3.839 -3.661,-7.416 -5.538,-11.112c-0.844,-1.659 -3.335,-0.198 -2.496,1.456" style="fill-rule:nonzero;"/></g><g><path d="M845.108,1481.521c-0.01,-2.818 0.095,-5.631 0.255,-8.433c-0.183,-3.827 -0.474,-7.714 -0.339,-11.516c-0.299,-1.677 -0.538,-3.369 -0.571,-5.089c-0.075,-3.986 2.265,-7.672 2.772,-11.651c-0.357,-0.485 -0.716,-0.967 -1.062,-1.467c-2.455,-3.556 -0.169,-7.051 3.002,-8.193c1.384,-2.13 3.886,-3.392 6.262,-2.439c9.505,-3.941 20.2,-7.706 30.475,-6.311c1.766,-0.417 3.527,-0.856 5.28,-1.334c6.615,-1.811 9.666,6.637 4.636,10.451c-4.282,3.248 -8.635,6.233 -12.216,10.243c6.87,0.842 13.76,1.493 20.62,2.374c7.212,-0.336 14.682,-1.663 21.734,0.277c2.561,0.705 2.767,3.783 0.807,5.256c-2.175,1.636 -4.588,2.866 -6.947,4.18c-0.418,1.073 -1.171,2.01 -2.314,2.606c-2.175,1.136 -4.412,2.127 -6.693,2.982c3.219,1.605 6.372,3.353 9.382,5.42c1.948,1.337 2.758,3.204 2.751,5.013c4.292,2.879 7.938,6.356 9.995,10.754c1.898,4.055 -0.968,10.454 -6.335,8.623c-7.678,-2.618 -15.811,-2.346 -23.588,-4.561c-1.632,-0.463 -3.239,-1.068 -4.836,-1.733c1.512,5.659 1.988,11.532 0.558,17.325c-0.433,1.765 -2.589,2.778 -4.194,1.826c-12.822,-7.602 -24.096,-22.021 -28.29,-36.399c-1.232,1.038 -2.433,2.105 -3.622,3.183c-0.962,1.892 -2.215,3.618 -3.913,5.048c-0.172,0.144 -0.37,0.252 -0.566,0.356c-0.245,0.451 -0.473,0.909 -0.736,1.353c-0.341,0.575 -0.86,0.942 -1.426,1.171c-0.125,0.183 -0.208,0.385 -0.365,0.55c-0.08,0.088 -0.179,0.131 -0.265,0.207c-0.062,0.177 -0.134,0.359 -0.236,0.539c-0.857,1.542 -1.945,2.542 -3.623,3.136c-1.103,0.388 -2.305,-0.087 -3.026,-0.947c-1.635,0.263 -3.364,-1.043 -3.37,-2.801" style="fill:#ff6347;fill-rule:nonzero;"/><path d="M834.69,1407.943c13.186,31.738 41.962,53.872 73.876,64.943c1.745,0.606 1.06,3.409 -0.703,2.799c-32.987,-11.442 -62.334,-34.172 -75.948,-66.936c-0.712,-1.715 2.069,-2.504 2.774,-0.806" style="fill-rule:nonzero;"/><path d="M848.344,1432.51c11.283,-3.097 23.118,-6.643 34.748,-8.14c3.875,-0.496 14.609,-2.41 17.26,2.505c1.973,3.66 0.23,5.822 -2.624,8.549c-2.834,2.712 -6.327,4.815 -9.361,7.28c-1.381,1.122 -4.2,1.475 -1.546,1.67c1.85,0.138 3.704,0.238 5.557,0.346c8.05,0.478 16.096,0.927 24.127,1.687c3.589,0.341 10.032,0.06 12.843,2.718c5.611,5.307 -15.993,14.641 -19.787,14.604c0.224,-0.901 0.451,-1.803 0.677,-2.705c8.268,5.405 23.55,15.226 23.389,26.703c-0.096,6.828 -7.309,7.092 -12.711,6.311c-5.971,-0.861 -11.735,-2.444 -17.476,-4.27c-1.111,-0.362 -2.223,-0.734 -3.33,-1.114c-1.708,-0.263 -1.757,-0.58 -0.137,-0.953c0.75,2.591 1.406,5.197 1.992,7.828c1.01,4.546 2.514,12.773 -4.01,13.32c-4.302,0.361 -9.696,-5.225 -12.483,-7.578c-6.552,-5.528 -11.719,-12.504 -15.981,-19.875c-0.212,-0.366 -4.073,-7.825 -4.057,-7.844c-2.699,3.12 -4.602,6.337 -7.515,9.276c-2.5,2.521 -6.996,4.154 -10.451,3.07c-6.044,-1.899 -5.177,-15.875 -5.206,-20.201c-0.066,-10.245 0.735,-22.218 5.066,-31.652c0.779,-1.694 3.303,-0.294 2.531,1.389c-4.193,9.137 -4.535,20.364 -4.706,30.224c-0.084,4.832 0.222,9.736 1.482,14.414c2.802,10.416 15.521,-7.135 18.512,-10.591c0.771,-0.892 2.065,-0.364 2.434,0.59c4.926,12.781 12.525,22.9 22.985,31.726c13.539,11.428 8.045,-8.404 6.15,-14.961c-0.282,-0.978 0.678,-2.174 1.739,-1.803c6.877,2.406 13.805,4.565 20.978,5.893c2.929,0.538 5.868,0.722 8.805,0.193c7.374,-1.325 -3.068,-14.016 -3.979,-15.082c-4.274,-5.003 -9.952,-8.916 -15.414,-12.488c-1.144,-0.747 -0.864,-2.719 0.677,-2.705c3.584,0.033 6.582,-1.626 9.632,-3.288c1.006,-0.547 8.151,-6.383 7.379,-6.67c-4.51,-1.691 -9.98,-1.613 -14.71,-2.02c-9.174,-0.785 -18.391,-1.015 -27.563,-1.816c-1.119,-0.098 -1.757,-1.087 -1.285,-2.135c1.099,-2.431 2.992,-3.95 5.045,-5.617c2.263,-1.837 17.933,-11.533 3.45,-12.658c-13.412,-1.042 -29.572,5.137 -42.321,8.639c-1.797,0.493 -2.603,-2.276 -0.805,-2.77" style="fill-rule:nonzero;"/><path d="M875.68,1445.138c-6.736,0.823 -13.568,-0.691 -20.165,-1.901c0.525,-0.72 1.055,-1.438 1.583,-2.156c2.543,5.093 2.52,10.698 3.551,16.186c0.341,1.811 -2.431,2.633 -2.774,0.806c-0.968,-5.163 -0.849,-10.695 -3.24,-15.479c-0.572,-1.148 0.284,-2.394 1.583,-2.156c6.379,1.172 12.912,2.609 19.423,1.816c1.845,-0.226 1.87,2.66 0.039,2.884" style="fill-rule:nonzero;"/><path d="M898.861,1460.029c-6.943,0.633 -13.893,-0.22 -20.845,0.048c0.457,-0.616 0.911,-1.231 1.367,-1.846c1.562,5.543 2.527,11.508 5.889,16.312c1.068,1.53 -1.402,3.029 -2.463,1.513c-3.515,-5.024 -4.568,-11.225 -6.2,-17.02c-0.257,-0.918 0.428,-1.809 1.368,-1.844c6.954,-0.271 13.903,0.584 20.845,-0.048c1.855,-0.169 1.884,2.716 0.039,2.884" style="fill-rule:nonzero;"/></g><g><path d="M329.574,1259.305c21.8,-6.661 40.631,-25.044 41.507,-48.692c0.069,-1.86 -2.82,-1.853 -2.889,0c-0.827,22.342 -18.857,39.638 -39.386,45.912c-1.777,0.542 -1.019,3.325 0.767,2.78" style="fill-rule:nonzero;"/><path d="M353.695,1242.534c-7.532,-25.296 11.496,-39.02 22.967,-58.882c-0.881,-0.113 -1.759,-0.228 -2.639,-0.344c3.874,19.472 11.485,63.443 -21.337,58.217c-1.821,-0.288 -2.602,2.49 -0.767,2.783c35.87,5.711 29.295,-39.636 24.89,-61.766c-0.25,-1.255 -2.048,-1.373 -2.639,-0.344c-12.104,20.958 -31.084,34.816 -23.258,61.101c0.529,1.779 3.317,1.02 2.785,-0.766" style="fill-rule:nonzero;"/></g><g><path d="M64.493,1477.831c-17.214,-9.843 -22.283,-31.906 -9.712,-47.486c7.285,-9.029 18.668,-14.91 28.271,-21.193c13.285,-8.692 32.875,-21.085 36.446,-37.735c2.658,-12.393 -9.266,-11.717 -16.652,-8.03c-5.491,2.741 -15.612,11.015 -21.742,6.168c-4.902,-3.876 -3.973,-14.029 -3.707,-19.377c0.469,-9.472 4.47,-18.533 9.259,-26.535c18.159,-30.34 53.253,-37.714 85.125,-27.423c30.106,9.723 52.816,34.943 63.016,64.274c10.34,29.747 -3.143,59.339 -30.612,74.244c-5.591,3.036 -13.199,4.022 -19.403,4.608c-5.993,0.568 -15.367,-0.695 -13.613,-11.322c0.534,-3.233 2.656,-6.571 4.218,-9.428c3.016,-5.517 8.17,-13.544 5.406,-20.111c-3.388,-8.041 -17.91,4.216 -20.907,6.622c-10.726,8.613 -15.592,17.298 -20.221,29.837c-5.73,15.522 -11.63,31.692 -22.687,44.322c-15.453,17.651 -35.991,10.944 -52.483,-1.435c-1.491,-1.117 -2.928,1.389 -1.458,2.492c13.37,10.037 29.498,17.658 45.617,9.4c13.752,-7.047 21.462,-23.616 27.206,-37.038c5.928,-13.851 8.806,-28.801 19.669,-39.765c1.849,-1.864 20.311,-18.819 22.886,-12.707c4.017,9.539 -10.787,20.104 -10.47,29.793c0.606,18.655 27.316,11.675 37.701,7.222c20.038,-8.59 34.405,-31.472 35.783,-52.576c1.417,-21.708 -10.31,-44.32 -23.769,-60.515c-16.303,-19.62 -40.287,-31.957 -65.408,-35.24c-34.326,-4.486 -66.51,18.722 -76.06,51.406c-2.593,8.876 -4.525,25.441 3.883,32.093c5.667,4.481 14.716,-1.348 19.736,-4.091c3.929,-2.148 8.875,-5.759 13.606,-5.037c11.175,1.698 -4.236,20.796 -6.612,23.318c-10.253,10.884 -23.276,18.637 -35.605,26.883c-11.653,7.794 -23.029,16.082 -26.172,30.485c-3.143,14.405 5.84,29.407 18.011,36.369c1.62,0.925 3.074,-1.569 1.458,-2.492" style="fill-rule:nonzero;"/><path d="M194.735,1372.938c-7.703,-3.844 -15.409,0.771 -23.112,0c3.081,-5.383 27.735,-16.922 23.882,-23.074c-4.622,-5.385 -26.193,8.461 -30.046,10.768c2.311,-9.229 16.951,-25.381 9.245,-28.457c-9.245,-4.615 -21.571,18.459 -29.274,25.381c-2.311,-3.078 3.081,-36.918 -10.017,-25.988c-6.282,5.245 0,19.834 0.772,25.217c4.622,16.922 -9.245,37.689 -19.262,48.455c-13.867,15.383 -26.963,28.459 -42.372,39.996c-5.598,3.911 -16.47,13.487 -25.255,19.031c8.24,7.067 13.035,15.983 23.179,21.435c2.154,1.158 4.324,2.273 6.495,3.385c7.31,-10.923 16.9,-28.699 21.774,-35.393c11.556,-16.152 23.112,-33.071 36.21,-47.684c14.637,-16.922 25.424,-19.998 46.994,-22.305c8.475,-0.768 23.112,-3.846 10.787,-10.768" style="fill-rule:nonzero;"/><path d="M64.829,1420.584c1.542,2.307 3.081,4.615 4.622,6.922c1.026,1.539 3.532,0.097 2.494,-1.456c-1.539,-2.307 -3.081,-4.615 -4.622,-6.922c-1.026,-1.539 -3.532,-0.097 -2.494,1.456" style="fill-rule:nonzero;"/><path d="M77.925,1412.123c2.29,4.527 4.898,8.851 7.703,13.076c1.024,1.541 3.529,0.099 2.496,-1.456c-2.808,-4.225 -5.413,-8.549 -7.706,-13.076c-0.839,-1.661 -3.333,-0.201 -2.494,1.456" style="fill-rule:nonzero;"/><path d="M88.566,1404.856c0.904,3.415 2.528,6.546 4.995,9.098c1.294,1.341 3.335,-0.699 2.041,-2.04c-2.126,-2.204 -3.471,-4.88 -4.25,-7.824c-0.474,-1.797 -3.261,-1.034 -2.785,0.766" style="fill-rule:nonzero;"/><path d="M99.352,1397.165c0.901,2.547 2.337,4.852 4.223,6.788c1.301,1.336 3.342,-0.706 2.043,-2.04c-1.53,-1.571 -2.748,-3.445 -3.481,-5.515c-0.615,-1.742 -3.407,-0.992 -2.785,0.766" style="fill-rule:nonzero;"/><path d="M111.053,1385.973c0.961,1.744 2.676,2.783 4.077,4.137c1.338,1.294 3.384,-0.745 2.043,-2.042c-1.195,-1.154 -2.808,-2.07 -3.626,-3.551c-0.899,-1.629 -3.393,-0.173 -2.494,1.456" style="fill-rule:nonzero;"/><path d="M89.092,1357.557c-1.253,-27.557 24.689,-51.392 51.714,-50.859c1.865,0.037 1.861,-2.847 0,-2.884c-28.541,-0.565 -55.927,24.654 -54.603,53.743c0.086,1.853 2.975,1.862 2.889,0" style="fill-rule:nonzero;"/><path d="M187.031,1431.296c30.707,-1.251 45.781,-36.387 40.685,-63.356c-0.347,-1.827 -3.129,-1.05 -2.787,0.766c4.736,25.056 -9.152,58.536 -37.897,59.705c-1.856,0.076 -1.863,2.96 0,2.884" style="fill-rule:nonzero;"/><path d="M112.819,1448.565c2.716,2.575 6.226,3.973 9.536,5.609c1.664,0.819 3.129,-1.668 1.458,-2.492c-3.06,-1.511 -6.439,-2.776 -8.951,-5.159c-1.35,-1.278 -3.395,0.757 -2.043,2.042" style="fill-rule:nonzero;"/><path d="M121.932,1437.398c2.475,0.914 4.44,3.002 6.589,4.469c1.542,1.054 2.984,-1.447 1.456,-2.492c-2.404,-1.641 -4.502,-3.736 -7.278,-4.758c-1.752,-0.646 -2.501,2.144 -0.767,2.78" style="fill-rule:nonzero;"/><path d="M131.309,1422.413l3.853,3.846c1.317,1.315 3.361,-0.722 2.043,-2.042l-3.853,-3.846c-1.32,-1.315 -3.361,0.725 -2.043,2.042" style="fill-rule:nonzero;"/><path d="M141.617,1408.794c1.285,0.641 2.614,1.253 3.333,2.559c0.899,1.629 3.393,0.178 2.494,-1.454c-0.966,-1.758 -2.628,-2.725 -4.368,-3.597c-1.659,-0.831 -3.125,1.657 -1.458,2.492" style="fill-rule:nonzero;"/><path d="M149.574,1399.047c0.968,1.758 2.63,2.725 4.371,3.597c1.659,0.831 3.125,-1.657 1.458,-2.492c-1.285,-0.644 -2.614,-1.253 -3.335,-2.561c-0.899,-1.629 -3.393,-0.173 -2.494,1.456" style="fill-rule:nonzero;"/><path d="M150.673,1340.249c1.488,-5.143 3.136,-10.238 4.622,-15.383c0.518,-1.791 -2.27,-2.55 -2.785,-0.766c-1.486,5.143 -3.136,10.238 -4.622,15.383c-0.518,1.791 2.27,2.55 2.785,0.766" style="fill-rule:nonzero;"/><path d="M179.577,1346.27c3.758,-4.308 8.866,-6.701 13.576,-9.772c1.551,-1.015 0.104,-3.514 -1.458,-2.492c-4.916,3.205 -10.241,5.729 -14.161,10.222c-1.218,1.398 0.818,3.445 2.043,2.042" style="fill-rule:nonzero;"/><path d="M193.577,1368.177c5.196,-0.743 10.394,-1.486 15.409,-3.078c1.768,-0.561 1.01,-3.346 -0.77,-2.78c-5.013,1.592 -10.213,2.335 -15.407,3.078c-1.837,0.263 -1.054,3.041 0.767,2.78" style="fill-rule:nonzero;"/></g><g><path d="M259.576,1361.243c1.481,1.13 3.23,-1.164 1.749,-2.293c-1.481,-1.13 -3.23,1.164 -1.749,2.293" style="fill-rule:nonzero;"/><path d="M339.508,1529.575l7.351,5.606c1.481,1.13 3.23,-1.164 1.749,-2.293l-7.351,-5.606c-1.481,-1.13 -3.23,1.164 -1.749,2.293" style="fill-rule:nonzero;"/><path d="M339.174,1469.101c1.518,3.09 3.036,6.184 4.552,9.276c0.819,1.666 3.491,0.576 2.671,-1.097c-1.516,-3.092 -3.036,-6.184 -4.552,-9.276c-0.819,-1.666 -3.491,-0.576 -2.671,1.097" style="fill-rule:nonzero;"/><path d="M367.217,1453.448c0.82,5.605 2.593,10.999 3.884,16.505c0.421,1.795 3.287,1.43 2.861,-0.386c-1.292,-5.501 -3.062,-10.899 -3.882,-16.504c-0.271,-1.84 -3.133,-1.461 -2.863,0.385" style="fill-rule:nonzero;"/><path d="M393.459,1444.075c0.001,4.278 0.569,8.466 1.705,12.594c0.495,1.794 3.156,0.672 2.669,-1.098c-0.992,-3.612 -1.506,-7.397 -1.508,-11.141c0,-1.834 -2.866,-2.218 -2.866,-0.355" style="fill-rule:nonzero;"/><path d="M458.675,1445.984c-1.385,3.352 -1.952,6.889 -2.014,10.504c-0.032,1.841 2.833,2.219 2.864,0.357c0.058,-3.377 0.537,-6.645 1.829,-9.78c0.71,-1.716 -1.97,-2.802 -2.679,-1.08" style="fill-rule:nonzero;"/><path d="M223.226,1485.989c22.187,-4.84 43.602,-18.817 58.888,-35.341c16.67,-18.019 14.268,-41.99 12.536,-64.553c-2.236,-29.128 5.552,-67.062 33.431,-82.234c9.381,-5.108 20.046,-4.94 28.426,1.892c4.663,3.803 8.367,8.848 12.912,12.84c6.815,5.981 15.754,6.986 24.111,4.269c20.879,-6.792 10.79,-31.808 4.51,-45.207c-5.862,-12.509 -10.666,-24.629 -5.567,-38.343c6.385,-17.161 28.212,-18.41 43.645,-18.801c7.694,-0.194 6.16,1.234 6.397,7.372c0.032,0.823 -9.512,-0.955 -11.062,-1.057c-8.557,-0.572 -16.991,1.972 -24.22,6.388c-15.8,9.653 -14.853,28.244 -6.368,42.429c3.929,6.568 8.782,12.023 10.377,19.731c1.731,8.375 -2.744,18.423 -7.052,25.379c-6.175,9.979 -16.866,13.546 -27.949,10.268c-8.695,-2.572 -12.745,-12.01 -18.979,-17.679c-19.655,-17.867 -39.14,1.617 -47.57,20.514c-6.305,14.132 -9.423,31.475 -8.866,46.87c0.296,8.18 2.188,16.309 2.986,24.451c1.018,10.411 -1.298,21.131 -5.03,30.769c-13.284,34.293 -51.121,47.388 -82.129,60.543c-1.716,0.725 -0.613,3.395 1.1,2.67c35.885,-15.224 75.629,-30.431 86.911,-71.878c5.88,-21.606 -2.788,-43.527 0.439,-65.465c2.832,-19.267 19.395,-68.961 47.947,-48.418c12.092,8.7 19.464,27.828 38.222,21.035c14.166,-5.127 21.64,-19.94 23.063,-34.298c1.708,-17.225 -17.381,-28.166 -17.041,-45.629c0.441,-22.751 29.653,-27.766 46.525,-22.425c1.011,0.321 2.121,-0.391 1.966,-1.53c-0.734,-3.653 -0.604,-7.318 0.389,-10.998c0.204,-0.79 -0.128,-1.978 -1.164,-1.973c-16.36,0.062 -34.349,-0.4 -47.838,10.235c-11.593,9.141 -11.397,25.721 -7.211,38.374c5.444,16.45 28.125,49.123 -2.039,55.18c-13.159,2.645 -21.488,-10.147 -29.67,-17.907c-6.228,-5.902 -13.668,-6.791 -21.79,-5.566c-35.826,5.401 -46.449,56.233 -44.885,85.495c1.204,22.497 4.909,44.321 -10.029,63.476c-13.527,17.347 -37.338,31.603 -58.712,36.262c-1.808,0.397 -1.434,3.259 0.386,2.863" style="fill-rule:nonzero;"/><path d="M496.248,1281.799c-16.163,-4.217 -58.323,-12.794 -56.911,16.106c0.644,13.143 15.276,25.785 11.745,38.525c-5.609,20.24 -43.467,11.079 -58.059,9.032c-11.993,-1.681 -27.647,-2.671 -35.49,8.498c-5.231,7.449 6.597,15.521 10.783,19.823c16.998,17.468 -17.289,23.812 -28.197,25.137c-11.323,1.37 -24.17,0.245 -35.029,4.082c-1.76,0.623 -0.647,3.288 1.1,2.67c20.485,-7.235 49.289,2.195 66.127,-14.889c6.409,-6.505 2.159,-14.772 -3.086,-20.162c-3.988,-4.098 -13.148,-9.572 -8.327,-16.435c7.029,-10.013 24.614,-6.86 34.805,-5.431c15.797,2.216 66.078,9.59 58.08,-21.329c-3.559,-13.768 -18.556,-25.075 -8.383,-40.307c9.094,-13.615 37.093,-5.949 49.764,-2.643c1.775,0.463 2.878,-2.207 1.076,-2.676" style="fill-rule:nonzero;"/><path d="M494.37,1282.598c-1.914,5.418 -1.412,6.317 -6.529,5.154c-4.192,-0.952 -8.521,-1.305 -12.799,-1.607c-7.234,-0.508 -14.622,-0.078 -21.54,2.147c-13.815,4.446 -4.905,17.701 0.342,25.072c7.97,11.194 6.94,26.436 -4.097,34.951c-8.426,6.501 -20.718,7.544 -30.942,8.168c-15.737,0.96 -37.164,-6.873 -51.099,2.083c-0.711,0.456 -0.655,1.392 -0.273,2.02c3.142,5.188 7.583,9.388 10.567,14.667c9.149,16.191 -12.016,26.125 -23.866,28.971c-15.954,3.833 -32.551,4.32 -48.605,7.723c-1.81,0.384 -1.437,3.248 0.384,2.861c17.282,-3.665 35.017,-4.459 52.21,-8.589c10.042,-2.411 22.271,-8.693 23.76,-20.273c0.674,-5.24 0.198,-9.289 -2.423,-13.928c-2.783,-4.923 -14.032,-11.756 -2.455,-14.263c11.845,-2.565 26.991,1.895 39.241,1.699c17.908,-0.285 46.701,-5.753 45.685,-29.308c-0.208,-4.857 -0.671,-10.143 -3.21,-14.439c-3.188,-5.386 -14.699,-16.643 -7.331,-23.095c8.859,-7.755 30.961,-4.041 41.123,-0.609c0.72,0.241 1.605,-0.027 1.877,-0.8c0.886,-2.507 1.771,-5.016 2.657,-7.524c0.618,-1.748 -2.057,-2.84 -2.679,-1.08" style="fill-rule:nonzero;"/><path d="M294.743,1405.98c-18.824,1.746 -35.625,10.638 -49.834,22.769c-18.537,15.821 -30.742,38.079 -55.549,45.142c-1.792,0.508 -0.666,3.172 1.101,2.668c18.745,-5.335 31.012,-19.208 43.781,-33.076c16.333,-17.737 36.138,-32.347 60.887,-34.64c1.858,-0.173 1.463,-3.034 -0.386,-2.863" style="fill-rule:nonzero;"/><path d="M292.919,1414.714c-19.796,1.423 -38.49,13.067 -52.278,26.877c-14.187,14.211 -29.216,35.464 -51.102,36.601c-1.862,0.098 -1.46,2.958 0.386,2.863c17.287,-0.901 30.322,-14.192 41.665,-25.909c16.996,-17.559 35.956,-35.718 61.715,-37.57c1.86,-0.134 1.463,-2.993 -0.386,-2.863" style="fill-rule:nonzero;"/><path d="M525.002,1295.563c-13.856,-0.431 -26.948,0.865 -38.394,9.313c-8.691,6.418 -7.321,17.751 -5.893,27.057c2.481,16.169 6.204,33.521 -0.621,49.067c-8.996,20.492 -37.999,24.006 -57.301,26.865c-34.222,5.074 -73.299,3.697 -104.687,20.152c-12.879,6.753 -21.908,19.7 -29.729,31.475c-4.697,7.073 -9.074,14.347 -13.834,21.381c-5.711,8.441 -13.021,15.483 -19.126,23.61c-1.115,1.485 1.18,3.239 2.297,1.752c9.82,-13.073 20.165,-24.892 28.972,-38.791c9.479,-14.955 19.534,-29.95 35.631,-38.39c15.641,-8.198 35.824,-10.315 53.113,-12.781c18.092,-2.577 36.365,-3.756 54.426,-6.56c24.728,-3.839 51.692,-11.962 56.545,-39.809c2.157,-12.379 -0.881,-26.144 -2.825,-38.356c-1.68,-10.553 -2.115,-19.282 7.477,-26.363c9.376,-6.923 22.508,-7.105 33.597,-6.758c1.843,0.057 2.217,-2.807 0.352,-2.866" style="fill-rule:nonzero;"/><path d="M265.953,1510.353c4.241,-9.154 10.973,-16.41 17.256,-24.166c6.899,-8.516 13.018,-17.663 19.935,-26.188c14.442,-17.804 31.931,-27.494 54.05,-32.879c34.099,-8.302 69.572,-3.894 103.156,-15.647c11.993,-4.196 25.195,-11.204 31.765,-22.517c4.929,-8.49 4.966,-19.146 4.45,-28.645c-0.634,-11.708 -3.405,-23.186 -4.422,-34.852c-0.6,-6.888 -0.203,-12.433 6.888,-15.266c7.663,-3.061 16.936,-3.337 25.082,-4.024c1.859,-0.158 1.465,-3.018 -0.386,-2.863c-9.358,0.794 -25.44,0.382 -32.208,8.23c-4.657,5.397 -2.121,16.482 -1.28,22.616c1.864,13.563 4.662,27.014 3.183,40.761c-2.267,21.045 -22.803,30.382 -40.792,36.098c-35.857,11.398 -74.431,5.498 -110.26,17.367c-17.297,5.728 -30.047,16.061 -41.523,29.868c-7.025,8.452 -13.283,17.454 -19.935,26.188c-6.243,8.193 -13.263,15.389 -17.638,24.838c-0.781,1.688 1.9,2.764 2.679,1.08" style="fill-rule:nonzero;"/><path d="M523.651,1297.712c-0.419,2.269 -0.714,4.496 -0.554,6.809c0.128,1.859 2.99,1.465 2.861,-0.386c-0.143,-2.053 0.189,-4.055 0.559,-6.068c0.339,-1.831 -2.53,-2.179 -2.866,-0.355" style="fill-rule:nonzero;"/></g><g><path d="M119.769,775.736c0.763,3.803 1.549,7.589 3.226,11.112c0.802,1.68 3.291,0.215 2.496,-1.454c-1.562,-3.276 -2.228,-6.892 -2.938,-10.425c-0.365,-1.823 -3.15,-1.05 -2.785,0.766" style="fill-rule:nonzero;"/><path d="M46.229,685.691l22.546,-15.468l19.254,-6.747l18.761,-2.633l19.254,3.62l21.065,7.569l22.052,15.633l16.621,20.076l6.912,14.974l3.62,13.74l-0.329,27.316l-7.076,19.911l-8.887,12.588l-8.064,10.696l-26.166,18.595l-35.217,8.392l-43.61,-7.24l-33.572,-24.683l-12.343,-35.379l2.304,-23.038l7.735,-30.854l15.14,-27.069Z" style="fill:#ff6347;stroke:#000;stroke-width:1px;"/><g><path d="M115.668,642.101c-58.868,-6.116 -98.028,35.452 -109.819,89.778c-5.693,26.226 -3.921,54.822 10.77,77.836c15.202,23.805 45.479,35.855 72.238,39.885c60.195,9.064 115.233,-31.265 125.407,-91.241c9.937,-58.549 -45.631,-106.486 -98.138,-116.197c-2.174,-0.402 -3.102,2.917 -0.916,3.322c51.459,9.515 100.302,52.535 96.154,108.464c-2.081,28.042 -19.675,54.56 -40.644,72.285c-21.292,17.998 -50.523,22.86 -77.555,20.447c-25.876,-2.309 -51.782,-13.741 -69.288,-33.08c-19.416,-21.455 -19.805,-54.083 -14.703,-80.806c10.141,-53.094 50.043,-93.114 106.494,-87.249c2.21,0.229 2.188,-3.215 0,-3.444" style="fill-rule:nonzero;"/><path d="M114.566,659.133c-51.001,-5.094 -83.811,31.973 -92.558,79.098c-4.175,22.499 -1.347,46.585 12.809,65.095c13.008,17.011 36.756,26.827 57.477,29.309c50.926,6.102 96.778,-25.711 104.877,-77.442c7.608,-48.585 -38.768,-87.844 -82.147,-95.999c-2.174,-0.408 -3.102,2.912 -0.916,3.322c42.344,7.959 82.094,42.469 80.064,88.401c-1.027,23.246 -15.437,45.329 -32.3,60.389c-17.821,15.92 -42.628,20.273 -65.75,18.345c-22.868,-1.906 -46.497,-12.598 -60.579,-31.006c-13.497,-17.65 -13.37,-42.458 -9.517,-63.221c8.237,-44.389 41.53,-77.541 88.541,-72.847c2.213,0.22 2.191,-3.226 0,-3.444" style="fill-rule:nonzero;"/><path d="M108.052,743.095c-4.636,-9.496 -11.054,-17.769 -17.456,-26.127c-3.529,-4.609 -6.976,-9.267 -10.29,-14.031c-4.506,-6.474 -10.607,-11.942 -1.399,-18.526c15.85,-11.328 34.598,-9.675 52.276,-4.639c9.41,2.68 12.614,5.295 7.699,13.331c-3.623,5.923 -7.677,11.595 -11.645,17.29c-7.387,10.595 -16.452,21.064 -22.161,32.703c-0.974,1.986 2.001,3.73 2.977,1.738c5.704,-11.634 14.758,-22.13 22.161,-32.703c3.402,-4.86 17.553,-19.766 15.682,-26.557c-2.746,-9.967 -23.599,-11.865 -31.475,-12.785c-17.608,-2.063 -31.789,3.917 -45.429,14.865c-0.626,0.504 -0.585,1.444 -0.268,2.088c9.791,19.929 26.643,35.204 36.351,55.092c0.974,1.995 3.949,0.251 2.977,-1.738" style="fill-rule:nonzero;"/><path d="M105.382,753.533c5.163,9.356 42.777,48.061 35.479,54.546c-16.044,14.248 -35.559,14.515 -55.286,9.942c-2.29,-0.529 -12.426,-2.915 -11.598,-6.444c0.522,-2.218 2.042,-4.455 3.121,-6.433c3.322,-6.097 7.086,-11.964 10.765,-17.849c6.849,-10.951 15.379,-21.857 20.497,-33.764c0.869,-2.017 -2.103,-3.774 -2.977,-1.738c-5.116,11.898 -13.632,22.835 -20.497,33.764c-3.322,5.289 -16.336,20.284 -14.402,27.298c2.765,10.041 24.063,10.559 32.015,11.289c17.484,1.598 31.861,-5.694 44.654,-17.055c0.585,-0.518 0.632,-1.438 0.27,-2.085c-10.779,-19.416 -28.376,-33.843 -39.063,-53.21c-1.073,-1.945 -4.051,-0.207 -2.977,1.738" style="fill-rule:nonzero;"/><path d="M102.86,748.317c-9.512,4.631 -17.799,11.036 -26.171,17.43c-4.617,3.523 -9.28,6.962 -14.054,10.273c-6.485,4.496 -11.962,10.59 -18.557,1.397c-11.347,-15.827 -9.694,-34.54 -4.647,-52.191c2.685,-9.394 5.304,-12.587 13.353,-7.683c5.93,3.617 11.615,7.664 17.318,11.626c10.613,7.375 21.099,16.422 32.758,22.124c1.99,0.972 3.739,-2 1.741,-2.975c-11.651,-5.694 -22.167,-14.73 -32.758,-22.122c-4.868,-3.4 -19.799,-17.524 -26.601,-15.656c-9.987,2.741 -11.882,23.56 -12.807,31.422c-2.07,17.579 3.924,31.736 14.893,45.353c0.502,0.625 1.446,0.584 2.089,0.27c19.965,-9.777 35.263,-26.604 55.184,-36.293c1.998,-0.972 0.251,-3.945 -1.741,-2.975" style="fill-rule:nonzero;"/><path d="M113.314,750.985c9.371,-5.154 48.142,-42.706 54.638,-35.417c14.272,16.011 14.54,35.496 9.962,55.191c-0.533,2.287 -2.922,12.405 -6.454,11.576c-2.224,-0.521 -4.462,-2.036 -6.443,-3.113c-6.107,-3.317 -11.984,-7.074 -17.879,-10.749c-10.969,-6.835 -21.894,-15.353 -33.823,-20.463c-2.02,-0.865 -3.78,2.102 -1.741,2.975c11.921,5.108 22.876,13.606 33.823,20.463c5.295,3.317 20.318,16.306 27.341,14.375c10.058,-2.76 10.58,-24.017 11.306,-31.959c1.6,-17.458 -5.698,-31.808 -17.081,-44.582c-0.519,-0.581 -1.44,-0.625 -2.089,-0.267c-19.449,10.76 -33.897,28.328 -53.299,38.995c-1.948,1.074 -0.21,4.047 1.741,2.975" style="fill-rule:nonzero;"/><path d="M105.149,717.435c-2.26,-1.744 -4.252,-3.868 -6.076,-6.052c-0.723,-0.871 -5.635,-7.559 -2.254,-7.873c1.962,-0.182 3.408,6.215 3.758,7.474c0.684,2.455 1.101,4.964 1.692,7.438c0.513,2.163 3.838,1.245 3.325,-0.915c-0.974,-4.088 -2.989,-20.372 -10.42,-17.064c-8.839,3.937 3.742,16.496 7.536,19.43c1.736,1.339 4.197,-1.08 2.439,-2.438" style="fill-rule:nonzero;"/><path d="M110.487,715.896c0.27,-2.069 0.698,-4.124 1.184,-6.149c0.475,-1.997 1.065,-5.667 2.853,-6.984c0.287,-0.212 0.121,0.84 0.014,1.328c-0.35,1.548 -1.159,3 -1.912,4.383c-1.173,2.149 -2.53,4.278 -4.045,6.204c-1.36,1.725 1.062,4.179 2.437,2.435c2.15,-2.727 11.902,-15.843 4.501,-17.689c-6.518,-1.625 -7.958,12.463 -8.48,16.471c-0.287,2.198 3.165,2.171 3.449,0" style="fill-rule:nonzero;"/><path d="M101.328,776.726c-1.959,2.463 -3.805,5.019 -5.461,7.697c-1.327,2.152 -4.029,6.3 -1.954,8.758c2.426,2.865 5.878,-0.223 7.106,-2.49c1.998,-3.683 2.776,-7.942 3.883,-11.942c0.593,-2.143 -2.735,-3.052 -3.325,-0.915c-0.698,2.512 -1.294,5.047 -2.097,7.532c-0.508,1.565 -1.109,3.088 -1.956,4.501c-0.188,0.309 -0.505,0.835 -0.905,0.882c-0.775,0.091 0.019,0.039 0.022,0.242c-0.033,-2.19 2.252,-4.953 3.389,-6.678c1.167,-1.771 2.42,-3.493 3.739,-5.149c1.369,-1.719 -1.057,-4.176 -2.439,-2.438" style="fill-rule:nonzero;"/><path d="M108.074,779.325c0,3.642 -0.602,14.94 5.091,14.879c3.521,-0.036 4.575,-3.928 3.929,-6.686c-0.844,-3.592 -3.427,-6.956 -5.731,-9.755c-1.413,-1.716 -3.838,0.733 -2.437,2.435c1.562,1.895 2.928,3.967 4.043,6.154c0.535,1.055 0.966,2.215 0.96,3.411c-0.003,0.471 -0.453,0.716 -0.797,0.939c-0.201,0.132 0.248,0.289 -0.075,-0.039c-1.214,-1.245 -1.206,-4.38 -1.344,-5.973c-0.152,-1.782 -0.19,-3.579 -0.19,-5.366c0,-2.22 -3.449,-2.22 -3.449,0" style="fill-rule:nonzero;"/><path d="M83.557,750.025c-4.302,0.085 -17.6,2.948 -13.21,9.81c3.78,5.904 13.494,-4.03 15.735,-7.22c1.28,-1.824 -1.714,-3.54 -2.98,-1.736c-1.057,1.504 -2.561,2.793 -3.941,3.997c-1.269,1.105 -3.952,3.595 -5.839,3.163c-0.8,-0.182 0.014,-1.303 0.212,-1.51c0.891,-0.917 2.335,-1.388 3.51,-1.793c2.056,-0.708 4.327,-1.223 6.512,-1.267c2.221,-0.044 2.227,-3.488 0,-3.444" style="fill-rule:nonzero;"/><path d="M80.906,745.263c-1.824,-0.314 -3.62,-0.758 -5.381,-1.331c-0.411,-0.132 -4.25,-2.041 -3.681,-2.276c1.413,-0.573 4.316,2.336 5.229,3.116c1.402,1.198 2.685,2.62 4.233,3.639c1.863,1.22 3.59,-1.76 1.738,-2.978c-2.365,-1.548 -4.258,-3.854 -6.592,-5.496c-2.023,-1.422 -5.889,-3.011 -7.506,-0.088c-3.234,5.851 7.313,8.094 11.043,8.733c2.174,0.375 3.104,-2.942 0.916,-3.32" style="fill-rule:nonzero;"/><path d="M133.386,747.445c2.089,-3.529 7.779,-6.383 11.684,-7.138c0.891,-0.171 0.196,-0.672 -0.03,0.017c-0.519,1.554 -1.907,2.43 -3.358,2.967c-2.961,1.099 -6.236,0.906 -9.206,1.972c-2.078,0.744 -1.181,4.074 0.916,3.32c4.081,-1.46 9.33,-0.697 12.707,-3.882c1.763,-1.658 4.128,-5.788 1.098,-7.468c-2.561,-1.424 -6.521,0.807 -8.75,1.961c-2.92,1.515 -6.322,3.612 -8.038,6.512c-1.134,1.915 1.846,3.647 2.977,1.738" style="fill-rule:nonzero;"/><path d="M131.79,753.996c1.904,3.141 11.038,10.504 14.355,5.771c1.904,-2.719 -0.119,-5.873 -2.702,-7.077c-3.08,-1.43 -6.816,-1.617 -10.163,-1.631c-2.227,-0.011 -2.224,3.433 0,3.444c2.163,0.008 4.321,0.157 6.446,0.595c1.115,0.231 2.174,0.581 3.135,1.198c0.455,0.289 0.579,1.408 0.546,1.43c-0.924,0.645 -3.849,-1.399 -4.561,-1.846c-1.468,-0.917 -3.162,-2.116 -4.079,-3.623c-1.151,-1.895 -4.134,-0.165 -2.977,1.738" style="fill-rule:nonzero;"/><path d="M60.584,706.434c5.351,5.521 12.067,9.474 17.266,15.166c1.501,1.645 3.935,-0.799 2.439,-2.438c-5.199,-5.686 -11.915,-9.642 -17.266,-15.166c-1.551,-1.598 -3.987,0.84 -2.439,2.438" style="fill-rule:nonzero;"/><path d="M63.714,791.574c5.547,-5.499 11.375,-10.703 16.918,-16.199c1.581,-1.568 -0.858,-4.003 -2.437,-2.438c-5.547,5.499 -11.375,10.703 -16.921,16.199c-1.581,1.57 0.861,4.003 2.439,2.438" style="fill-rule:nonzero;"/><path d="M131.79,773.99c2.931,5.455 8.433,8.92 13.395,12.339c1.838,1.264 3.56,-1.722 1.741,-2.975c-4.479,-3.085 -9.512,-6.176 -12.158,-11.102c-1.051,-1.959 -4.029,-0.218 -2.977,1.738" style="fill-rule:nonzero;"/><path d="M136.225,719.53c4.57,-3.565 8.681,-7.634 12.774,-11.719c1.576,-1.57 -0.864,-4.008 -2.437,-2.438c-4.095,4.088 -8.207,8.157 -12.776,11.719c-1.752,1.366 0.709,3.785 2.439,2.438" style="fill-rule:nonzero;"/><path d="M60.14,655.34c0.455,1.931 1.424,3.65 2.591,5.24c1.3,1.774 4.294,0.058 2.977,-1.738c-0.999,-1.364 -1.852,-2.758 -2.243,-4.416c-0.508,-2.16 -3.836,-1.245 -3.325,0.915" style="fill-rule:nonzero;"/><path d="M84.939,644.885c0.03,2.366 0.447,4.647 1.617,6.73c1.087,1.937 4.07,0.204 2.98,-1.738c-0.875,-1.554 -1.126,-3.229 -1.148,-4.992c-0.03,-2.22 -3.48,-2.223 -3.449,0" style="fill-rule:nonzero;"/><path d="M110.836,644.885l0,8.276c0,2.22 3.449,2.22 3.449,0l0,-8.276c0,-2.22 -3.449,-2.22 -3.449,0" style="fill-rule:nonzero;"/><path d="M143.185,654.014c-0.72,1.435 -1.471,2.835 -2.417,4.138c-1.311,1.799 1.683,3.515 2.977,1.738c0.949,-1.303 1.697,-2.703 2.417,-4.138c0.991,-1.981 -1.984,-3.725 -2.977,-1.738" style="fill-rule:nonzero;"/><path d="M172.534,671.248c-0.919,1.51 -1.945,2.873 -3.182,4.135c-1.559,1.587 0.88,4.025 2.437,2.438c1.438,-1.466 2.657,-3.085 3.723,-4.835c1.159,-1.904 -1.824,-3.631 -2.977,-1.738" style="fill-rule:nonzero;"/><path d="M191.449,691.584c-1.366,1.413 -2.434,3.069 -3.797,4.482c-1.543,1.601 0.894,4.039 2.439,2.438c1.363,-1.416 2.431,-3.074 3.797,-4.482c1.543,-1.598 -0.891,-4.036 -2.439,-2.438" style="fill-rule:nonzero;"/><path d="M200.956,718.653c2.006,-0.039 3.885,-0.421 5.704,-1.27c2.014,-0.939 0.262,-3.906 -1.738,-2.975c-1.25,0.584 -2.599,0.777 -3.965,0.802c-2.221,0.041 -2.227,3.485 0,3.444" style="fill-rule:nonzero;"/><path d="M205.677,737.895c1.871,0.339 3.739,0.408 5.638,0.408c2.224,0.003 2.224,-3.441 0,-3.444c-1.581,0 -3.162,-0.003 -4.721,-0.284c-2.174,-0.397 -3.102,2.923 -0.916,3.32" style="fill-rule:nonzero;"/><path d="M206.023,759.269c1.631,0.405 3.259,0.719 4.945,0.749c2.227,0.044 2.224,-3.4 0,-3.444c-1.385,-0.025 -2.688,-0.292 -4.029,-0.625c-2.158,-0.534 -3.074,2.785 -0.916,3.32" style="fill-rule:nonzero;"/><path d="M199.741,781.502c1.722,0.818 3.449,1.234 5.359,1.27c2.227,0.041 2.221,-3.402 0,-3.444c-1.278,-0.025 -2.459,-0.251 -3.618,-0.802c-1.998,-0.95 -3.75,2.019 -1.741,2.975" style="fill-rule:nonzero;"/><path d="M188.763,801.221c0.855,1.565 2.161,2.576 3.725,3.38c1.973,1.011 3.72,-1.959 1.741,-2.978c-1.065,-0.545 -1.904,-1.069 -2.489,-2.141c-1.065,-1.95 -4.043,-0.212 -2.977,1.738" style="fill-rule:nonzero;"/><path d="M174.952,816.045c0.866,1.986 2.379,3.455 4.07,4.758c0.748,0.573 1.929,0.113 2.359,-0.62c0.522,-0.887 0.124,-1.785 -0.618,-2.358c-1.233,-0.945 -2.208,-2.091 -2.834,-3.518c-0.889,-2.03 -3.858,-0.275 -2.977,1.738" style="fill-rule:nonzero;"/></g><path d="M34.228,673.1l26.709,-18.326l22.81,-7.993l22.225,-3.119l22.81,4.289l24.955,8.968l26.124,18.521l19.691,23.785l8.188,17.741l4.289,16.279l-0.39,32.363l-8.383,23.59l-10.528,14.914l-9.553,12.672l-30.998,22.03l-41.721,9.943l-51.664,-8.578l-39.771,-29.244l-14.622,-41.916l2.729,-27.294l9.163,-36.555l17.936,-32.071Z" style="fill:none;"/></g><g><path d="M-8.858,1162.592l185.991,-27.782l75.449,-7.896l26.027,2.632c0,0 12.696,3.485 16.157,5.922c2.783,1.96 4.606,8.7 4.606,8.7l-1.17,11.99c0,0 -10.43,9.151 -16.596,12.133c-8.871,4.289 -36.628,13.602 -36.628,13.602l-165.812,38.017l-82.468,16.377l-5.556,-73.694Z" style="fill:#ff6347;"/><g><path d="M-11.078,1163.821c52.957,-6.657 105.693,-14.88 158.555,-22.234c28.206,-3.92 56.48,-7.695 84.829,-10.436c15.619,-1.509 73.465,-9.283 65.385,21.131c-3.162,11.906 -24.185,17.769 -33.917,21.632c-11.3,4.486 -22.983,7.988 -34.703,11.191c-23.348,6.38 -47.255,10.605 -71.01,15.134c-54.735,10.434 -108.609,24.95 -163.358,35.356c-1.83,0.346 -1.054,3.126 0.767,2.78c61.282,-11.648 121.696,-27.333 182.962,-39.094c27.876,-5.351 55.613,-11.433 82.331,-21.149c14.424,-5.245 38.438,-11.558 40.567,-29.647c1.995,-16.931 -21.046,-21.115 -32.808,-21.964c-29.447,-2.125 -60.686,4.266 -89.803,7.995c-63.36,8.115 -126.413,18.454 -189.796,26.422c-1.824,0.228 -1.844,3.117 0,2.884" style="fill-rule:nonzero;"/><path d="M275.992,1129.266c11.112,-16.798 15.381,-41.759 -1.609,-56.198c-8.401,-7.144 -21.557,-8.334 -32.05,-9.375c-16.671,-1.652 -33.878,-1.431 -50.621,-1.504c-38.713,-0.173 -76.564,5.046 -114.542,12.084c-18.367,3.406 -36.626,6.627 -55.125,9.204c-14.66,2.042 -29.586,4.462 -43.098,10.745c-1.687,0.782 -0.22,3.27 1.458,2.49c24.37,-11.331 53.371,-11.311 79.462,-16.246c33.894,-6.414 67.714,-12.744 102.224,-14.606c27.622,-1.488 56.209,-1.664 83.771,1.066c15.779,1.564 31.426,6.62 36.155,23.323c3.55,12.541 -1.639,27.158 -8.519,37.562c-1.031,1.557 1.472,3 2.494,1.456" style="fill-rule:nonzero;"/><path d="M22.917,1128.538c0,9.495 -0.039,18.987 -0.77,28.457c-0.146,1.857 2.746,1.844 2.889,0c0.73,-9.469 0.77,-18.962 0.77,-28.457c0,-1.86 -2.889,-1.86 -2.889,0" style="fill-rule:nonzero;"/><path d="M56.045,1140.075c0,4.504 -0.03,9.001 -0.719,13.461c-0.282,1.818 2.501,2.6 2.785,0.766c0.73,-4.723 0.823,-9.456 0.823,-14.227c0,-1.86 -2.889,-1.86 -2.889,0" style="fill-rule:nonzero;"/><path d="M88.402,1114.694c-0.573,11.068 1.382,22.019 1.542,33.071c0.025,1.86 2.914,1.862 2.889,0c-0.159,-11.052 -2.115,-22.003 -1.542,-33.071c0.097,-1.86 -2.792,-1.851 -2.889,0" style="fill-rule:nonzero;"/><path d="M120.041,1122.771c-1.442,6.479 -0.876,13.034 -0.823,19.613c0.014,1.857 2.903,1.86 2.889,0c-0.051,-6.306 -0.663,-12.633 0.719,-18.847c0.404,-1.811 -2.381,-2.582 -2.785,-0.766" style="fill-rule:nonzero;"/><path d="M141.612,1108.927c-1.847,10.512 1.2,21.073 -0.77,31.535c-0.342,1.818 2.441,2.593 2.785,0.766c1.974,-10.492 -1.075,-21.029 0.77,-31.535c0.319,-1.818 -2.464,-2.596 -2.785,-0.766" style="fill-rule:nonzero;"/><path d="M163.902,1119.309c0.74,5.614 0.77,11.267 0.77,16.92c0,1.862 2.889,1.862 2.889,0c0,-5.653 -0.03,-11.306 -0.77,-16.92c-0.24,-1.816 -3.132,-1.839 -2.889,0" style="fill-rule:nonzero;"/><path d="M187.785,1109.31c0.102,8.233 1.428,16.382 1.542,24.613c0.023,1.857 2.912,1.862 2.889,0c-0.113,-8.23 -1.44,-16.38 -1.542,-24.613c-0.023,-1.86 -2.912,-1.862 -2.889,0" style="fill-rule:nonzero;"/><path d="M211.667,1113.156c0.051,5.941 0.8,11.804 1.542,17.691c0.229,1.818 3.122,1.841 2.889,0c-0.742,-5.886 -1.491,-11.749 -1.542,-17.691c-0.016,-1.86 -2.905,-1.86 -2.889,0" style="fill-rule:nonzero;"/><path d="M236.373,1108.155c1.431,6.2 1.486,12.517 1.488,18.844c0.002,1.862 2.891,1.862 2.889,0c-0.002,-6.588 -0.102,-13.161 -1.592,-19.61c-0.418,-1.814 -3.203,-1.043 -2.785,0.766" style="fill-rule:nonzero;"/><path d="M257.122,1116.232l0,10.768c0,1.86 2.889,1.86 2.889,0l0,-10.768c0,-1.86 -2.889,-1.86 -2.889,0" style="fill-rule:nonzero;"/><path d="M-0.041,1201.856c12.529,-12.88 31.74,-24.756 50.385,-21.8c11.78,1.867 21.797,10.088 33.836,10.972c19.463,1.426 34.752,-10.794 49.826,-21.359c8.94,-6.267 18.217,-11.878 28.95,-14.419c15.36,-3.632 29.484,4.829 43.835,8.696c9.934,2.677 18.005,0.348 26.443,-4.744c9.998,-6.034 22.32,-18.38 34.964,-15.429c10.089,2.356 -14.896,14.869 -17.295,15.937c-10.329,4.601 -19.893,7.589 -31.373,8.378c-15.508,1.066 -30.677,-3.955 -46.061,-5.025c-11.873,-0.826 -22.71,2.732 -32.736,8.842c-11.926,7.266 -21.647,16.751 -35.121,21.343c-16.19,5.512 -31.077,1.47 -47.084,-1.758c-22.169,-4.469 -42.626,7.187 -58.301,22.171c-1.347,1.29 0.698,3.325 2.043,2.04c10.431,-9.97 23.272,-18.104 37.292,-21.846c14.348,-3.83 30.192,4.16 44.616,5.247c30.698,2.314 46.791,-23.909 73.61,-31.766c14.914,-4.368 46.079,2.923 46.079,2.923c0,0 25.405,0.9 37.215,-3.48c8.51,-3.154 31.551,-9.467 33.129,-20.215c0.573,-3.897 -4.606,-5.422 -7.371,-6.068c-8.619,-2.012 -18.677,5.464 -25.285,9.779c-4.761,3.108 -9.404,6.343 -14.38,9.103c-8.535,4.732 -17.84,2.552 -26.584,-0.277c-11.799,-3.819 -23.196,-9.354 -35.935,-7.072c-20.674,3.701 -35.792,19.193 -53.378,29.373c-10.828,6.269 -22.359,8.542 -34.523,5.145c-11.947,-3.339 -23.159,-11.687 -36.18,-9.859c-16.181,2.273 -31.4,11.555 -42.661,23.129c-1.297,1.334 0.744,3.376 2.043,2.04" style="fill-rule:nonzero;"/><path d="M282.836,1169.923c30.499,11.565 18.349,48.346 0.751,65.453c-22.188,21.567 -53.581,31.74 -82.964,38.921c-31.883,7.797 -64.564,12.979 -96.76,19.354c-37.28,7.381 -74.722,14.089 -112.629,17.266c-1.844,0.155 -1.858,3.039 0,2.884c42.58,-3.567 84.538,-11.597 126.39,-19.954c36.943,-7.374 74.889,-12.619 110.754,-24.428c26.427,-8.701 57.503,-23.66 70.781,-49.555c9.968,-19.446 6.411,-44.391 -15.557,-52.721c-1.745,-0.662 -2.492,2.127 -0.767,2.78" style="fill-rule:nonzero;"/><path d="M21.376,1232.37c0.788,7.859 1.636,15.697 3.132,23.457c0.354,1.825 3.136,1.05 2.787,-0.766c-1.447,-7.508 -2.267,-15.09 -3.03,-22.691c-0.185,-1.832 -3.074,-1.851 -2.889,0" style="fill-rule:nonzero;"/><path d="M47.57,1226.985c0.055,4.882 0.716,9.732 0.77,14.613c0.023,1.86 2.912,1.862 2.889,0c-0.053,-4.88 -0.714,-9.73 -0.77,-14.613c-0.021,-1.86 -2.91,-1.862 -2.889,0" style="fill-rule:nonzero;"/><path d="M77.616,1219.295c0.77,8.45 1.484,16.892 1.542,25.381c0.012,1.86 2.901,1.86 2.889,0c-0.058,-8.489 -0.772,-16.931 -1.542,-25.381c-0.166,-1.837 -3.058,-1.853 -2.889,0" style="fill-rule:nonzero;"/><path d="M106.173,1214.294c1.518,4.555 3.007,9.109 3.853,13.844c0.326,1.83 3.109,1.052 2.785,-0.766c-0.846,-4.735 -2.334,-9.289 -3.853,-13.844c-0.585,-1.756 -3.374,-1.004 -2.785,0.766" style="fill-rule:nonzero;"/><path d="M135.448,1208.909c1.373,6.618 1.558,13.41 3.081,19.998c0.421,1.814 3.206,1.043 2.787,-0.766c-1.523,-6.585 -1.71,-13.383 -3.083,-19.998c-0.377,-1.821 -3.162,-1.05 -2.785,0.766" style="fill-rule:nonzero;"/><path d="M171.607,1200.836c0.058,4.123 0.878,8.076 2.362,11.92c0.663,1.717 3.458,0.971 2.787,-0.766c-1.396,-3.609 -2.205,-7.277 -2.26,-11.154c-0.028,-1.857 -2.917,-1.862 -2.889,0" style="fill-rule:nonzero;"/><path d="M200.934,1194.297c1.525,6.361 2.325,12.866 3.853,19.227c0.432,1.809 3.217,1.041 2.785,-0.766c-1.528,-6.361 -2.327,-12.866 -3.853,-19.227c-0.432,-1.809 -3.217,-1.041 -2.785,0.766" style="fill-rule:nonzero;"/><path d="M234.831,1185.836c1.514,6.758 2.938,13.427 3.03,20.383c0.025,1.86 2.914,1.862 2.889,0c-0.095,-7.217 -1.562,-14.135 -3.134,-21.149c-0.407,-1.816 -3.192,-1.045 -2.785,0.766" style="fill-rule:nonzero;"/><path d="M258.86,1179.258c1.431,2.951 2.071,5.999 2.115,9.271c0.023,1.86 2.912,1.862 2.889,0c-0.049,-3.793 -0.853,-7.31 -2.51,-10.727c-0.811,-1.673 -3.303,-0.21 -2.494,1.456" style="fill-rule:nonzero;"/><path d="M143.775,1264.577c44.743,0.789 87.02,-15.136 126.307,-34.807c1.666,-0.835 0.201,-3.323 -1.458,-2.492c-38.817,19.44 -80.625,35.194 -124.848,34.414c-1.865,-0.032 -1.861,2.852 0,2.884" style="fill-rule:nonzero;"/><path d="M59.03,1098.447c36.37,-2.589 72.071,-11.179 108.628,-11.537c1.863,-0.018 1.863,-2.903 -0,-2.884c-36.564,0.358 -72.254,8.948 -108.628,11.537c-1.847,0.132 -1.861,3.018 0,2.884" style="fill-rule:nonzero;"/><path d="M182.296,1086.91c1.863,0 1.863,-2.884 0,-2.884c-1.863,0 -1.863,2.884 0,2.884" style="fill-rule:nonzero;"/><path d="M126.056,1269.96c1.863,0 1.863,-2.884 0,-2.884c-1.863,0 -1.863,2.884 0,2.884" style="fill-rule:nonzero;"/></g></g><path d="M336.004,871.136c-19.723,11.429 -33.898,33.601 -29.392,56.832c0.354,1.827 3.166,1.166 2.814,-0.655c-4.258,-21.948 9.383,-42.881 27.956,-53.643c1.608,-0.931 0.239,-3.469 -1.377,-2.534" style="fill-rule:nonzero;"/><path d="M316.311,892.937c13.069,22.93 -2.354,40.61 -9.025,62.555c0.883,-0.089 1.765,-0.176 2.649,-0.263c-8.186,-18.087 -25.564,-59.19 7.588,-61.538c1.839,-0.132 1.971,-3.015 0.117,-2.884c-36.231,2.567 -19.55,45.244 -10.244,65.8c0.528,1.166 2.306,0.873 2.649,-0.263c7.039,-23.156 22.385,-40.955 8.805,-64.783c-0.919,-1.613 -3.461,-0.242 -2.539,1.377" style="fill-rule:nonzero;"/><g><g><path d="M506.567,1499.744c-4.53,-1.504 -10.308,-2.432 -15.305,-1.405c-0.213,-2.19 -2.972,-3.978 -4.84,-1.89c-1.086,1.214 -2.189,2.427 -3.261,3.662c-7.195,5.748 -14.383,13.388 -14.921,22.605c-1.041,17.803 18.876,29.436 20.432,29.358c8.517,-0.431 21.465,-1.665 28.337,-6.366c2.722,-1.862 8.724,-25.98 5.248,-31.207c-1.38,-2.075 -5.207,-8.22 -8.471,-11.364c-0.963,-0.928 -5.989,-2.985 -7.219,-3.394" style="fill:#ff6347;fill-rule:nonzero;"/><path d="M484.53,1497.264c-16.944,7.275 -21.254,26.987 -13.172,42.606c8.212,15.868 30.594,17.737 44.158,7.974c11.478,-8.26 11.572,-24.384 6.252,-36.117c-6.619,-14.606 -22.315,-19.74 -36.894,-14.606c-1.743,0.614 -0.992,3.399 0.767,2.78c12.707,-4.476 24.765,-0.964 32.117,10.487c6.404,9.979 6.504,24.087 -1.611,33.065c-10.863,12.01 -32.42,9.139 -41.274,-3.36c-9.802,-13.833 -4.213,-33.757 11.115,-40.337c1.706,-0.734 0.233,-3.216 -1.458,-2.492" style="fill-rule:nonzero;"/><path d="M488.046,1496.244c-4.077,-5.318 -9.966,-9.656 -9.818,-16.961l-1.445,1.442c6.247,-0.113 10.514,5.157 15.451,8.263c0.938,0.591 2.17,-0.182 2.173,-1.246c0.018,-5.533 -0.016,-10.951 4.2,-15.129c-0.758,-0.099 -1.514,-0.196 -2.27,-0.293c2.103,4.735 2.773,9.52 2.884,14.654c0.032,1.456 1.923,1.94 2.693,0.729c2.427,-3.83 4.793,-6.735 9.152,-8.567c-0.592,-0.337 -1.186,-0.671 -1.777,-1.008c1.77,6.765 -2.193,13.143 -4.622,19.232c-0.689,1.728 2.108,2.473 2.785,0.766c2.681,-6.717 6.562,-13.36 4.622,-20.764c-0.18,-0.685 -1.056,-1.311 -1.775,-1.006c-4.911,2.063 -8.055,5.432 -10.881,9.892c0.899,0.242 1.794,0.485 2.693,0.727c-0.122,-5.692 -0.957,-10.884 -3.277,-16.11c-0.386,-0.868 -1.666,-0.893 -2.27,-0.293c-4.8,4.762 -5.025,10.732 -5.045,17.171c0.723,-0.413 1.449,-0.828 2.173,-1.246c-5.515,-3.47 -9.929,-8.782 -16.907,-8.655c-0.8,0.016 -1.428,0.646 -1.445,1.442c-0.164,8.053 5.683,12.506 10.211,18.417c1.116,1.456 3.626,0.023 2.496,-1.456" style="fill-rule:nonzero;"/></g></g><g><path d="M556.037,1243.407c-2.283,-16.456 -11.545,-23.106 -23.311,-26.461c-0.081,-0.051 -0.164,-0.097 -0.243,-0.145c-2.327,-1.712 -4.687,-3.293 -7.491,-4.142c-0.414,-0.748 -1.13,-1.343 -2.173,-1.511c-15.069,-2.43 -29.9,-6.085 -45.023,-8.189c-3.153,-0.438 -3.726,3.749 -1.673,5.321c0.601,0.461 1.22,0.891 1.858,1.301c0.065,0.764 0.439,1.525 1.255,2.109c0.095,0.067 0.183,0.138 0.277,0.208c14.48,22.123 43.098,36.449 69.439,33.983c1.07,0.33 2.182,0.632 3.398,0.884c2.189,0.45 4.001,-1.089 3.686,-3.357" style="fill:#ff6347;fill-rule:nonzero;"/><path d="M572.724,1286.895c1.939,-34.271 -39.82,-63.665 -68.967,-72.285c-1.789,-0.528 -2.549,2.254 -0.767,2.78c27.991,8.279 68.704,36.689 66.845,69.505c-0.106,1.86 2.785,1.848 2.889,0" style="fill-rule:nonzero;"/><path d="M558.827,1251.142c0.545,-41.004 -55.567,-47.04 -85.948,-49.415c-1.079,-0.083 -1.817,1.294 -1.248,2.171c17.783,27.384 49.687,48.988 83.489,44.5c1.821,-0.242 1.842,-3.129 0,-2.884c-20.526,2.725 -39.499,-4.525 -56.034,-16.311c-9.088,-6.479 -16.78,-14.913 -23.163,-23.997c-1.888,-0.549 -1.699,-0.651 0.559,-0.305c1.306,0.111 2.612,0.228 3.913,0.353c2.868,0.268 5.727,0.605 8.584,0.953c25.946,3.175 67.4,11.719 66.959,44.934c-0.025,1.862 2.864,1.86 2.889,0" style="fill-rule:nonzero;"/></g></g><g><g><path d="M386.757,1088.993c-4.53,-1.504 -10.308,-2.432 -15.305,-1.405c-0.213,-2.19 -2.972,-3.978 -4.84,-1.89c-1.086,1.214 -2.189,2.427 -3.261,3.662c-7.195,5.748 -14.79,13.373 -14.921,22.605c-0.021,1.511 1.334,2.963 2.889,2.884c8.517,-0.431 15.652,-4.779 22.421,-9.624c3.742,-2.677 7.297,-5.616 10.96,-8.399c1.985,-1.509 4.176,-2.314 4.176,-5.051c0,-1.336 -0.89,-2.374 -2.119,-2.783" style="fill:#ff6347;fill-rule:nonzero;"/><path d="M402.444,1113.616c-0.079,-1.186 -0.194,-2.374 -0.379,-3.572c-0.002,-0.009 -0.007,-0.016 -0.007,-0.025c0.062,-0.508 0.102,-1.013 0.109,-1.516c0.018,-1.052 -0.499,-1.797 -1.206,-2.266c0.203,-0.708 0.384,-1.424 0.527,-2.157c0.587,-3.011 -3.848,-5.376 -5.281,-2.224c-6.136,13.514 -19.719,18.595 -32.119,24.945c-2.411,0.42 -4.77,0.681 -6.989,0.738c-3.146,0.083 -4.079,5.062 -0.767,5.667c0.996,0.18 1.981,0.295 2.961,0.378c0.067,0.125 0.148,0.245 0.238,0.362c0.053,0.268 0.134,0.54 0.275,0.817c4.81,9.393 20.441,7.741 28.687,4.788c5.669,-2.033 9.92,-5.858 11.827,-11.551c0.294,-0.877 0.483,-1.77 0.633,-2.674c0.083,-0.118 0.171,-0.228 0.243,-0.369c1.958,-3.722 2.21,-7.517 1.25,-11.341" style="fill:#ff6347;fill-rule:nonzero;"/><path d="M364.719,1086.514c-16.944,7.275 -21.254,26.987 -13.172,42.606c8.212,15.868 30.594,17.737 44.158,7.974c11.478,-8.26 11.572,-24.384 6.252,-36.117c-6.619,-14.606 -22.315,-19.74 -36.894,-14.606c-1.743,0.614 -0.992,3.399 0.767,2.78c12.707,-4.476 24.765,-0.964 32.117,10.487c6.404,9.979 6.504,24.087 -1.611,33.065c-10.863,12.01 -32.42,9.139 -41.274,-3.36c-9.802,-13.833 -4.213,-33.757 11.115,-40.337c1.706,-0.734 0.233,-3.216 -1.458,-2.492" style="fill-rule:nonzero;"/><path d="M368.236,1085.493c-4.077,-5.318 -9.966,-9.656 -9.818,-16.961l-1.445,1.442c6.247,-0.113 10.514,5.157 15.451,8.263c0.938,0.591 2.17,-0.182 2.173,-1.246c0.018,-5.533 -0.016,-10.951 4.2,-15.129c-0.758,-0.099 -1.514,-0.196 -2.27,-0.293c2.103,4.735 2.773,9.52 2.884,14.654c0.032,1.456 1.923,1.94 2.693,0.729c2.427,-3.83 4.793,-6.735 9.152,-8.567c-0.592,-0.337 -1.186,-0.671 -1.777,-1.008c1.77,6.765 -2.193,13.143 -4.622,19.232c-0.689,1.728 2.108,2.473 2.785,0.766c2.681,-6.717 6.562,-13.36 4.622,-20.764c-0.18,-0.685 -1.056,-1.311 -1.775,-1.006c-4.911,2.063 -8.055,5.432 -10.881,9.892c0.899,0.242 1.794,0.485 2.693,0.727c-0.122,-5.692 -0.957,-10.884 -3.277,-16.11c-0.386,-0.868 -1.666,-0.893 -2.27,-0.293c-4.8,4.762 -5.025,10.732 -5.045,17.171c0.723,-0.413 1.449,-0.828 2.173,-1.246c-5.515,-3.47 -9.929,-8.782 -16.907,-8.655c-0.8,0.016 -1.428,0.646 -1.445,1.442c-0.164,8.053 5.683,12.506 10.211,18.417c1.116,1.456 3.626,0.023 2.496,-1.456" style="fill-rule:nonzero;"/><path d="M349.653,1117.607c17.089,-4.017 30.973,-13.182 43.01,-25.75c1.287,-1.345 -0.753,-3.387 -2.043,-2.042c-11.72,12.241 -25.088,21.099 -41.734,25.012c-1.812,0.425 -1.045,3.207 0.767,2.78" style="fill-rule:nonzero;"/><path d="M353.12,1129.196c18.506,-1.394 37.555,-12.268 45.933,-29.172c0.82,-1.659 -1.671,-3.122 -2.496,-1.454c-7.911,15.965 -25.911,26.424 -43.437,27.741c-1.847,0.141 -1.861,3.025 0,2.884" style="fill-rule:nonzero;"/></g></g></svg>