<?xml version="1.0" encoding="UTF-8" standalone="no"?><!DOCTYPE svg PUBLIC "-//W3C//DTD SVG 1.1//EN" "http://www.w3.org/Graphics/SVG/1.1/DTD/svg11.dtd"><svg width="100%" height="100%" viewBox="0 0 4167 4167" version="1.1" xmlns="http://www.w3.org/2000/svg" xmlns:xlink="http://www.w3.org/1999/xlink" xml:space="preserve" xmlns:serif="http://www.serif.com/" style="fill-rule:evenodd;clip-rule:evenodd;stroke-linejoin:round;stroke-miterlimit:2;"><g><g><g><g><path d="M2397.179,774.169c-42.95,7.308 -60.717,46.696 -47.738,86.392c12.779,39.054 56.037,56.721 93.808,43.271c31.163,-11.096 46.146,-45.033 41.604,-76.142c-6.088,-41.504 -49.546,-55.838 -86.075,-53.733c-7.713,0.442 -7.763,12.458 0,12.017c30.471,-1.758 62.633,6.488 72.958,38.446c7.625,23.592 -3.417,50.263 -23.583,63.654c-71.446,47.446 -136.092,-87.275 -47.775,-102.321c7.646,-1.296 4.392,-12.883 -3.196,-11.583" style="fill-rule:nonzero;"/><path d="M2556.679,800.173c-23.075,3.933 -32.983,25.658 -26.013,46.975c6.875,21.037 30.179,31.083 50.692,23.775c17.288,-6.163 25.463,-24.546 22.929,-41.842c-3.238,-22.075 -26.504,-30.246 -46.013,-29.121c-7.713,0.442 -7.763,12.458 0,12.017c13.808,-0.8 28.908,2.383 33.646,17.054c3.4,10.508 -1.404,22.525 -10.429,28.517c-32.058,21.304 -61.517,-38.996 -21.621,-45.792c7.646,-1.296 4.392,-12.883 -3.196,-11.583" style="fill-rule:nonzero;"/><path d="M2499.971,938.511c-13.125,2.229 -19.088,15.112 -15.129,27.225c3.929,12 17.229,18.237 29.092,14.008c10.342,-3.692 15.121,-14.287 13.587,-24.658c-1.8,-12.333 -14.954,-17.421 -25.954,-16.787c-7.712,0.442 -7.763,12.458 0,12.017c5.421,-0.317 12.038,0.367 13.975,6.346c1.271,3.942 -0.413,8.612 -3.842,10.892c-12.346,8.208 -24.171,-14.796 -8.533,-17.458c7.646,-1.296 4.392,-12.883 -3.196,-11.583" style="fill-rule:nonzero;"/></g></g><g><path d="M3588.933,3101.048c-36.854,46.421 -76.721,86.508 -101.796,136.954c-10.192,5.625 -18.221,15.779 -19.583,27.742c-54.792,31.537 -113.925,54.217 -171.162,80.95c-43.088,7.696 -87.7,19.725 -131.296,25.983c-25.75,-0.496 -51.9,-2.496 -78.704,-5.942c-11.113,-3.229 -22.337,-6.221 -33.696,-8.896c-55.229,-30.067 -102.092,-57.092 -146.796,-104.033c-31.025,-32.571 -54.875,-72.042 -72.508,-115.096c-6.25,-24.179 -12.908,-48.596 -20.933,-72.408c-2.146,-7.383 -4.525,-14.663 -6.992,-21.9c-15.192,-78.862 -13.279,-161.921 2.879,-234c0.842,-3.729 0.938,-7.188 0.717,-10.496c2.583,-4.608 5.25,-9.2 7.796,-13.842c45.346,-82.492 112.783,-147.512 180.488,-212.454c56.033,-10.971 108.479,-31.967 161.204,-49.337c0.904,0.05 1.721,0.246 2.675,0.237c18.379,-0.217 36.954,-1.192 55.525,-1.804c9.304,4.287 19.396,6.808 29.575,7.979c7.758,0.913 15.525,1.446 23.321,1.879c6.938,0.383 9.463,0.613 12.95,1.117c5.467,0.8 10.863,0.433 15.954,-0.762c32.042,9.833 63.15,23.004 93.425,37.079c100.146,46.542 183.996,135.154 225.325,236.954c36.433,89.721 33.037,216.75 -28.363,294.104m525.842,-219.833c-0.596,-1.162 -1.287,-2.254 -1.979,-3.358c-0.475,-0.721 -0.763,-1.458 -1.292,-2.179c-32.667,-44.521 -78.525,-76.604 -117.267,-114.975c-14.375,-17.387 -28.938,-34.629 -42.512,-52.342c-8.037,-14.742 -16.204,-29.325 -25.908,-43.079c-7.821,-11.067 -20.658,-16.892 -33.35,-15.462c-49.921,-59.863 -109.35,-113.129 -166.742,-165.883c-25.6,-31.075 -51.687,-61.792 -78.067,-92.246c-6.121,-7.071 -12.992,-10.217 -19.779,-10.738c-10.537,-12.088 -21.079,-24.142 -31.95,-35.954c-51.262,-55.7 -105.979,-108.204 -161.062,-160.083c-24.096,-22.679 -46.988,-45.137 -73.813,-59.754c-8.067,-9.767 -16.792,-19.025 -26.896,-27.258c-18.125,-14.779 -40.225,-9.175 -51.129,6.987c-3.429,0 -6.896,0.354 -10.288,1.504c-21.858,7.4 -39.567,21.237 -53.167,39.708c-0.162,0.225 -0.263,0.458 -0.425,0.683c-16.329,14.767 -30.892,31.467 -43.242,45.617c-57.158,65.45 -108.567,135.6 -166.188,200.688c-4.621,5.217 -7.112,11.975 -7.783,19.033c-124.467,58.108 -257.375,134.075 -290.079,266.304c-19.929,40.633 -34.958,83.683 -63.346,119.579c-54.667,69.138 -152.538,108.821 -227.817,150.608c-31.833,17.658 -61.383,48.908 -66.096,84.192c-4.546,4.062 -8.246,9.471 -10.292,16.642c-8.075,28.196 -8.45,60.8 19.421,78.075c9.325,5.792 19.721,7.475 30.275,7.021c27.679,28.887 57.017,56.062 85.796,83.821c0.508,5.167 2.121,10.175 5.396,14.521c1.812,2.408 3.763,4.729 5.704,7.038c2.333,3.842 5.263,7.121 8.633,9.721c0.329,0.363 0.667,0.733 0.996,1.096c1.721,1.783 3.454,3.563 5.183,5.375c0.421,0.463 0.842,0.925 1.262,1.392c0.221,0.292 0.396,0.529 0.758,0.983c2.983,3.958 6.575,7.175 10.512,9.729c30.967,38.146 61.429,76.175 101.783,105.292c5.346,3.842 10.908,5.833 16.438,6.6c20.962,23.021 43.267,44.908 67.729,65.033c78.325,64.433 141.529,144.842 222.463,205.475c45.454,74.304 129.971,116.142 189.058,181.004c16.575,18.196 42.546,7.029 54.075,-9.562c3.171,-4.546 6.621,-8.858 10.017,-13.2c77.592,-39.55 136.042,-101.658 195.483,-164.817c81.479,-86.533 177.254,-158.496 262.667,-241.283c82.888,-80.354 163.342,-162.925 247.971,-241.521c80.804,-75.033 162.125,-151.096 226.35,-241.217c8.629,-12.1 8.438,-25.404 3.596,-36.429c-0.337,-0.796 -0.717,-1.592 -1.108,-2.383" style="fill:#ff6347;fill-rule:nonzero;"/><path d="M3335.967,2801.111c-5.312,-5.146 -11.029,-7.842 -16.708,-8.954c-16.783,-24.908 -37.529,-45.933 -62.246,-49.917c-114.463,-18.413 -70.433,155.862 -43.108,237.871c-71.837,-16.2 -153.479,-33.308 -200.992,-5.221c-16.012,5.5 -27.242,11.942 -38.987,24.35c-12.508,13.183 -11.508,34.796 0.992,47.487c3.25,30.154 32.421,48.938 71.546,60.083c85.721,39.079 177.054,26.708 271.283,17.492c5.65,2.354 11.962,3.254 18.592,2.517c0.025,-0.008 0.046,0 0.075,0.004c2.55,-0.304 5.137,-0.821 7.737,-1.608c2.1,-0.629 4.033,-1.508 5.9,-2.512c5.375,-2.708 9.442,-6.392 12.279,-10.704c16.475,2.121 33.712,-6.171 37.342,-25.75c6.167,-33.183 3.846,-65.529 -3.925,-96.762c1.075,-21.942 -1.583,-43.979 -8.238,-64.987c-2.438,-45.729 -18.117,-91.05 -51.542,-123.392" style="fill:#ff6347;fill-rule:nonzero;"/><path d="M3715.375,2478.048c99.987,88.95 190.212,189.625 282.3,286.5c42.325,44.538 84.546,89.162 127.463,133.092c2.867,2.933 -1.225,5.012 -10.596,14.792c-10.588,11.046 -21.287,21.962 -32.017,32.879c-146.413,149.1 -296.346,294.892 -446.321,440.404c-144.375,140.092 -287.883,282.438 -439.879,414.375c-14.108,12.246 -28.438,25.317 -44.437,35.138c-13.05,8 -55.358,-31.696 -64.333,-38.729c-82.517,-64.721 -157.958,-139.183 -233.388,-211.825c-98.996,-95.354 -195.933,-192.817 -292.896,-290.225c-133.108,-133.75 -281.242,-252.95 -399.842,-400.463c-3.188,-3.967 -10.038,-6.021 -13.7,-1.146c-16.275,20.658 -37.2,30.204 -62.825,28.667c-15.108,-8.525 -28.463,-8.383 -40.058,0.463c6.308,-8.504 13.104,-16.621 19.921,-24.712c17.817,-21.212 36.85,-41.413 55.942,-61.471c49.796,-52.308 101.942,-102.404 154.283,-152.142c138.137,-131.221 280.371,-258.121 423.221,-384.167c127.233,-112.254 255.492,-223.367 384.558,-333.525c40.979,-34.954 82.008,-69.821 123.354,-104.342c10.108,-8.442 20.229,-16.888 30.5,-25.133c1.854,-1.508 3.733,-3.025 5.708,-4.383c-5.867,24.008 -13.079,47.621 -21.629,70.812c-7.792,19.617 -20.617,38.338 -32.783,55.304c-2.842,3.933 -3.138,8.658 0.554,12.233c174.604,169.692 362.346,327.892 526.9,507.604c7.542,8.221 19.183,-4.617 11.692,-12.812c-107.988,-117.933 -227.983,-225.6 -344.413,-335.062c-53.938,-50.717 -108.088,-101.233 -161.621,-152.392c-24.088,-23.029 1.229,-38.75 15.033,-66.85c14.054,-28.642 18.496,-58.325 10.167,-88.879c-1.562,-5.737 -8.229,-7.308 -12.967,-4.696c-58.812,32.346 -112.637,93.717 -163.308,136.942c-125.283,106.829 -249.646,214.733 -373.208,323.521c-136.858,120.475 -272.733,242.15 -405.692,366.917c-90.358,84.779 -188.013,170.158 -262.329,269.979c-4.096,5.504 -2.008,12.075 4.463,14.275c22.537,7.654 47.925,13.546 71.879,8.192c14.562,-3.262 47.188,-27.087 57.55,-14.204c64.283,79.954 140.075,150.463 215.042,220.188c73.758,68.604 145.862,137.917 216.9,209.258c155.354,156.004 309.113,319.083 481.317,456.875c21.162,16.921 60.45,57.096 89.688,37.725c46.108,-30.538 86.479,-73.05 126.967,-110.271c167.796,-154.35 330.975,-313.842 493.904,-473.288c120.575,-117.979 244.579,-234.192 358.85,-358.383c3.321,-3.608 2.721,-8.875 -0.567,-12.229c-139.446,-141.663 -268.992,-295.362 -417.65,-427.617c-8.333,-7.408 -20.05,5.367 -11.692,12.812" style="fill-rule:nonzero;"/><path d="M2346.425,3082.798c13.558,-140.233 134.504,-145.496 233.483,-206.504c91.417,-56.338 117.758,-173.85 164.521,-262.925c68.288,-130.092 218.229,-140.962 313.358,-240.383c36.658,-38.304 61.192,-90.625 88.554,-135.512c42.254,-69.367 94.442,-114.483 171.042,-143.221c10.433,-3.917 5.321,-20.454 -5.167,-16.525c-117.8,44.183 -165.608,129.317 -229.475,230.846c-85.708,136.192 -258.271,145.85 -344.346,280.558c-33.446,52.35 -52.704,113.304 -80.329,168.696c-37.537,75.246 -95.196,113.892 -170.754,144.567c-90.921,36.896 -148.225,77.65 -158.213,181c-1.092,11.108 16.271,10.337 17.329,-0.6" style="fill-rule:nonzero;"/><path d="M2083.388,2845.823c-55.963,-88.492 -119.958,-171.613 -168.896,-264.417c-53.379,-101.242 -77.737,-217.283 -77.779,-331.137c-0.062,-201.896 102.437,-412.754 248.154,-549.475c159.238,-149.408 395.004,-228.192 604.217,-146.458c178.358,69.642 302.825,233.417 442.033,356.654c8.358,7.4 20.092,-5.379 11.708,-12.804c-152.946,-135.371 -284.637,-304.167 -484.075,-373.358c-195.696,-67.879 -422.904,18.979 -571.296,150.65c-152.421,135.233 -248.292,333.529 -266.312,535.929c-10.2,114.15 14.675,230.688 58.167,335.729c46.208,111.637 125.375,206.704 189.492,308.071c5.954,9.429 20.558,0.058 14.583,-9.375" style="fill-rule:nonzero;"/><path d="M2932.617,2622.382c-179.85,144.608 -175.746,426.571 -53.267,606.771c143.638,211.325 428.146,170.879 598.675,22.579c82.792,-72.012 159.254,-185.621 166.842,-297.762c7.404,-109.2 -38.1,-206.4 -111.425,-285.242c-157.033,-168.817 -427.746,-204.188 -602.546,-44.908c-8.258,7.529 4.6,19.137 12.808,11.683c168.017,-153.129 410.729,-112.554 567.329,35.254c74.117,69.946 119.446,166.808 117.496,269.05c-2.087,109.975 -75.525,214.846 -151.067,288.946c-162.279,159.213 -437.8,188.783 -583.533,-8.975c-122.838,-166.738 -119.7,-447.946 48.058,-582.838c8.608,-6.913 -0.654,-21.575 -9.375,-14.554" style="fill-rule:nonzero;"/><path d="M3398.846,3090.923c-104.987,52.396 -258.858,63.629 -367.108,12.129c-66.783,-31.783 -88.121,-121.287 7.162,-135.825c52.429,-7.988 113.825,10.558 163.05,27.704c6.963,2.421 11.217,-5.408 10.217,-11.029c-10.967,-61.625 -74.792,-298.854 66.55,-226.958c95.163,48.404 121.938,248.058 116.154,341.558c-0.7,11.146 16.646,10.425 17.342,-0.604c6.808,-109.988 -25.883,-305.642 -135.271,-361.296c-127.296,-64.767 -108.338,118.771 -95.55,183.8c2.883,14.712 6.196,29.35 9.362,43.988c5.312,24.617 5.754,10.171 -16.15,3.483c-44.008,-13.421 -90.346,-20.033 -136.279,-17.95c-41.808,1.883 -98.983,39.475 -84.596,88.188c18.746,63.458 78.575,88.2 137.804,101.171c105.567,23.108 219.658,14.621 316.7,-33.808c9.983,-4.979 0.529,-19.508 -9.375,-14.554" style="fill-rule:nonzero;"/><path d="M2096.242,2839.394c-46.492,-134.258 -14.904,-245.883 95.379,-333.262c53.642,-42.512 114.467,-81.35 135.017,-150.167c3.204,-10.725 -13.733,-14.5 -16.904,-3.858c-30.112,100.904 -149.792,132.15 -206.146,214.354c-58.883,85.867 -56.829,183.012 -23.9,278.108c3.642,10.529 20.204,5.396 16.55,-5.175" style="fill-rule:nonzero;"/><path d="M2125.921,2535.327c-91.771,-64.525 -77.092,-198.754 17.442,-250.883c55.417,-30.558 110.658,-43.967 147.808,-99.346c6.225,-9.288 -9.192,-17.225 -15.363,-8.038c-49.658,74.087 -160.233,69.783 -204.346,146.417c-43.088,74.792 -29.875,173.587 42.762,224.663c9,6.329 20.825,-6.379 11.692,-12.812" style="fill-rule:nonzero;"/><path d="M2160.35,2247.019c-127.267,-67.592 281.021,-334.288 98.525,-464.275c-8.988,-6.392 -20.804,6.312 -11.692,12.812c180.996,128.908 -262.908,377.537 -94.892,466.825c9.892,5.238 17.929,-10.117 8.062,-15.362" style="fill-rule:nonzero;"/><path d="M2254.688,1802.202c76.121,1.537 150.667,102.142 145.433,175.546c-0.787,11.146 16.571,10.417 17.342,-0.604c5.938,-83.433 -77.783,-190.512 -163.354,-192.246c-11.221,-0.238 -10.533,17.079 0.583,17.304" style="fill-rule:nonzero;"/><path d="M2409.054,1911.24c25.008,-65.396 76.433,-123.233 149.162,-132.3c93.492,-11.654 118.65,89.137 116.092,161.475c-0.4,11.183 16.942,10.492 17.329,-0.6c2.596,-73.338 -20.104,-171.196 -109.367,-178c-88.642,-6.767 -158.979,64.037 -188.592,141.392c-3.942,10.317 11.383,18.467 15.375,8.033" style="fill-rule:nonzero;"/><path d="M2674.733,1859.527c53.512,-35.258 199.604,-140.004 236.008,-31.367c17.692,52.775 -9.233,119.567 -13.875,173.254c-0.95,11.138 16.396,10.371 17.342,-0.604c5.446,-63.008 42.196,-152.492 -3.167,-208.196c-64.363,-79.046 -189.225,15.129 -245.683,52.354c-9.312,6.146 0.025,20.729 9.375,14.554" style="fill-rule:nonzero;"/><path d="M2932.596,1909.511c54.308,-38.292 131.888,-20.467 187.129,6.9c10.004,4.942 18.079,-10.383 8.046,-15.358c-60.775,-30.092 -145.021,-48.054 -204.55,-6.096c-9.112,6.417 0.204,21.021 9.375,14.554" style="fill-rule:nonzero;"/><path d="M2176.429,2373.24c18.129,0.196 36.137,-1.617 53.583,-6.767c10.737,-3.167 5.558,-19.687 -5.167,-16.525c-16.008,4.729 -32.358,6.171 -49,5.987c-11.217,-0.121 -10.546,17.183 0.583,17.304" style="fill-rule:nonzero;"/><path d="M2308.729,2243.327c1.475,19.462 6.729,37.987 12.517,56.537c3.329,10.654 19.883,5.479 16.55,-5.175c-5.325,-17.083 -10.375,-34.021 -11.738,-51.963c-0.829,-11.117 -18.162,-10.529 -17.329,0.6" style="fill-rule:nonzero;"/><path d="M2247.646,2127.565c23.933,3.704 48.133,5.471 72.292,7.333c11.154,0.85 10.429,-16.479 -0.587,-17.317c-22.65,-1.742 -45.325,-3.417 -67.812,-6.908c-11.013,-1.708 -14.95,15.179 -3.892,16.888" style="fill-rule:nonzero;"/><path d="M2396.788,2075.54c2.875,23.929 9.479,46.825 16.633,69.762c3.329,10.654 19.883,5.479 16.55,-5.175c-6.683,-21.433 -13.179,-42.808 -15.858,-65.187c-1.308,-11.025 -18.667,-10.475 -17.329,0.6" style="fill-rule:nonzero;"/><path d="M2443.917,2001.915c18.929,9.45 39.571,13.083 60.283,16.429c11.004,1.771 14.929,-15.1 3.892,-16.888c-19.179,-3.087 -38.583,-6.121 -56.112,-14.904c-9.988,-4.975 -18.071,10.35 -8.062,15.363" style="fill-rule:nonzero;"/><path d="M2545.246,1884.023c-0.208,16.446 0.713,33.238 5.337,49.104c3.108,10.738 19.654,5.538 16.55,-5.175c-4.192,-14.392 -4.754,-29.625 -4.558,-44.529c0.146,-11.204 -17.183,-10.517 -17.329,0.6" style="fill-rule:nonzero;"/><path d="M2516.563,2135.407c21.808,3.367 43.833,5.104 65.65,8.496c11.008,1.696 14.925,-15.171 3.892,-16.888c-21.812,-3.383 -43.837,-5.117 -65.65,-8.496c-11.013,-1.708 -14.95,15.179 -3.892,16.888" style="fill-rule:nonzero;"/><path d="M2620.5,2000.757c2.658,22.4 8.558,43.887 15.258,65.358c3.329,10.654 19.883,5.479 16.55,-5.175c-6.229,-19.979 -11.996,-39.954 -14.483,-60.783c-1.296,-11.029 -18.654,-10.479 -17.329,0.6" style="fill-rule:nonzero;"/><path d="M2726.525,2056.165c15.2,0.546 30.004,4.667 45.229,5.204c11.204,0.417 10.517,-16.9 -0.583,-17.304c-15.2,-0.546 -30.004,-4.667 -45.229,-5.204c-11.204,-0.417 -10.517,16.9 0.583,17.304" style="fill-rule:nonzero;"/><path d="M2799.833,1876.99c0.8,19.483 -1.95,38.904 -1.133,58.396c0.45,11.163 17.787,10.546 17.329,-0.6c-0.8,-19.483 1.933,-38.912 1.133,-58.396c-0.45,-11.163 -17.787,-10.546 -17.329,0.6" style="fill-rule:nonzero;"/><path d="M2636.433,2160.24c-1.858,23.625 -4.317,46.913 -15.042,68.404c-4.971,10 10.362,18.033 15.371,8.021c12.079,-24.267 14.908,-50.371 16.996,-77.025c0.879,-11.142 -16.463,-10.396 -17.329,0.6" style="fill-rule:nonzero;"/><path d="M2435.883,2247.098c10.513,14.562 21.746,27.012 37.717,35.746c9.829,5.358 17.867,-9.983 8.067,-15.35c-13.338,-7.279 -22.433,-17.642 -31.196,-29.775c-6.508,-9.008 -21.142,0.296 -14.583,9.375" style="fill-rule:nonzero;"/><path d="M2415.696,2439.382c4.704,-15.967 10.183,-30.421 22.242,-42.387c7.925,-7.892 -4.9,-19.538 -12.804,-11.667c-14.125,14.05 -20.833,31.458 -26.346,50.188c-3.15,10.75 13.771,14.529 16.908,3.871" style="fill-rule:nonzero;"/><path d="M2281.879,2498.39c11.292,17.946 26.208,32.975 44.896,43.179c9.829,5.358 17.867,-9.983 8.067,-15.35c-16.142,-8.812 -28.642,-21.738 -38.375,-37.208c-5.933,-9.45 -20.533,-0.083 -14.583,9.375" style="fill-rule:nonzero;"/><path d="M2178.683,2673.09c4.583,-15 11.829,-28.975 19.096,-42.825c5.2,-9.912 -10.158,-17.938 -15.363,-8.038c-7.958,15.183 -15.621,30.567 -20.642,46.996c-3.262,10.712 13.654,14.479 16.908,3.871" style="fill-rule:nonzero;"/><path d="M2524.05,2361.623l44.133,-13.796c10.671,-3.338 5.508,-19.858 -5.167,-16.525l-44.133,13.796c-10.671,3.337 -5.508,19.858 5.167,16.525" style="fill-rule:nonzero;"/><path d="M2827.763,2067.398c-9.567,18.271 -18.637,36.721 -22.3,57.179c-1.95,10.971 14.942,14.875 16.908,3.871c3.412,-19.075 11.829,-36 20.767,-53.012c5.183,-9.921 -10.183,-17.929 -15.375,-8.033" style="fill-rule:nonzero;"/><path d="M2955.288,1989.807l57.387,-17.942c10.671,-3.337 5.508,-19.858 -5.167,-16.525l-57.388,17.942c-10.671,3.338 -5.508,19.858 5.167,16.525" style="fill-rule:nonzero;"/><path d="M2155.713,2108.194c-144.45,-98.208 -287.358,-198.579 -420.629,-311.658c-69.033,-58.562 -102.642,-110.088 -60.321,-197.133c25.275,-51.983 60.7,-100.425 92.15,-148.883c28.65,-44.158 57.642,-88.121 87.221,-131.683c19.538,-28.775 11.5,-20.908 36.004,-2.362c10.321,7.817 20.65,15.612 30.975,23.429c23.512,17.842 -56.6,113.625 -71.533,136.446c-39.825,60.917 -74.013,125.017 -106.463,190.083c-1.658,3.346 -1.2,7.921 1.85,10.421c152.763,125.3 312.371,242.333 462.858,370.4c8.479,7.217 20.217,-5.538 11.692,-12.813c-119.075,-101.325 -243.904,-196 -366.467,-293.042c-26.462,-20.95 -52.867,-41.996 -79.112,-63.233c-24.238,-19.6 33.387,-97.921 46.908,-121.796c40.058,-70.725 87.921,-136.792 132.221,-204.871c1.962,-3.021 1.008,-8.254 -1.833,-10.425c-26.442,-20.046 -52.9,-40.054 -79.346,-60.067c-3.654,-2.762 -9.004,-3.279 -12.262,0.571c-44.725,53 -79.738,117.258 -117.392,175.262c-43.229,66.621 -107.167,141.475 -107.675,224.521c-0.513,88.792 127.558,161.283 185.817,207.325c105.35,83.267 216.296,159.387 327.279,234.871c9.242,6.267 17.183,-9.146 8.062,-15.362" style="fill-rule:nonzero;"/><path d="M2253,2879.027c27.121,13.158 56.887,13.283 85.5,4.946c10.746,-3.142 5.554,-19.658 -5.167,-16.525c-24.167,7.033 -49.292,7.383 -72.275,-3.788c-10.042,-4.871 -18.125,10.454 -8.062,15.362" style="fill-rule:nonzero;"/><path d="M2328.183,2752.107c21.083,22.2 38.775,46.85 55.625,72.346c6.146,9.296 20.771,-0.05 14.596,-9.379c-17.692,-26.742 -36.438,-52.483 -58.529,-75.775c-7.675,-8.092 -19.346,4.742 -11.692,12.812" style="fill-rule:nonzero;"/><path d="M2477.263,2816.398c19.308,-5.704 39.438,-7.758 58.754,-13.521c10.729,-3.196 5.554,-19.712 -5.167,-16.525c-19.317,5.763 -39.446,7.817 -58.754,13.521c-10.737,3.167 -5.558,19.688 5.167,16.525" style="fill-rule:nonzero;"/><path d="M2451.171,2667.957c11.613,18.413 26.971,33.458 44.463,46.304c8.908,6.546 20.7,-6.179 11.696,-12.8c-16.35,-11.996 -30.717,-25.675 -41.575,-42.883c-5.942,-9.433 -20.546,-0.079 -14.583,9.375" style="fill-rule:nonzero;"/><path d="M2589.083,2699.565c5.129,-16.696 13.387,-32.45 14.304,-50.167c0.575,-11.179 -16.771,-10.458 -17.342,0.604c-0.804,15.792 -9.279,30.762 -13.871,45.692c-3.283,10.704 13.654,14.479 16.908,3.871" style="fill-rule:nonzero;"/><path d="M2554.721,2531.348c19.279,13.692 39.537,24.279 61.812,32.304c10.513,3.779 14.258,-13.163 3.879,-16.883c-19.246,-6.929 -37.329,-16.379 -54,-28.233c-8.971,-6.379 -20.8,6.329 -11.692,12.812" style="fill-rule:nonzero;"/><path d="M2731.204,2534.219c4.317,-15.525 5.146,-31.383 5.471,-47.404c0.208,-11.196 -17.121,-10.508 -17.342,0.604c-0.292,14.6 -1.104,28.788 -5.037,42.929c-3.004,10.804 13.925,14.6 16.908,3.871" style="fill-rule:nonzero;"/><path d="M2713.967,2363.89c20.254,7.467 37.996,20.133 55.375,32.633c8.962,6.442 20.783,-6.279 11.696,-12.8c-20,-14.367 -39.912,-28.125 -63.183,-36.725c-10.479,-3.862 -14.212,13.075 -3.892,16.888" style="fill-rule:nonzero;"/><path d="M2901.975,2398.602c2.887,-18.388 4.033,-36.988 6.921,-55.375c1.708,-10.996 -15.183,-14.9 -16.908,-3.871c-2.871,18.383 -4.033,36.988 -6.921,55.375c-1.721,11 15.183,14.9 16.908,3.871" style="fill-rule:nonzero;"/><path d="M2873.171,2222.227c20.904,7.542 40.579,17.846 60.242,28.108c9.917,5.171 17.967,-10.175 8.067,-15.35c-21.029,-10.971 -42.054,-21.592 -64.412,-29.65c-10.525,-3.775 -14.262,13.15 -3.892,16.888" style="fill-rule:nonzero;"/><path d="M3044.838,2279.219c0.342,-13.733 1.267,-26.908 -2.596,-40.296c-3.096,-10.742 -19.637,-5.542 -16.55,5.175c3.396,11.75 2.125,23.671 1.821,35.721c-0.279,11.2 17.046,10.5 17.329,-0.6" style="fill-rule:nonzero;"/><path d="M3002.292,2123.819c20.904,7.542 40.579,17.846 60.242,28.108c9.917,5.171 17.967,-10.175 8.067,-15.35c-21.029,-10.971 -42.054,-21.592 -64.412,-29.65c-10.525,-3.775 -14.263,13.15 -3.892,16.888" style="fill-rule:nonzero;"/><path d="M3130.312,2051.773c4.45,14.238 7.938,28.225 8.958,43.167c0.758,11.125 18.104,10.533 17.342,-0.604c-1.125,-16.438 -4.858,-32.046 -9.75,-47.738c-3.329,-10.654 -19.883,-5.479 -16.55,5.175" style="fill-rule:nonzero;"/><path d="M3243.333,2843.29c46.45,50.067 74.287,107.171 82.896,175.1c1.404,10.996 18.738,10.467 17.342,-0.604c-9.213,-72.704 -38.733,-133.621 -88.542,-187.308c-7.6,-8.175 -19.237,4.667 -11.692,12.812" style="fill-rule:nonzero;"/><path d="M3031.663,1048.461c7.558,-100.237 18.592,-200.296 10.279,-300.854c-0.913,-11.104 -18.263,-10.529 -17.329,0.6c8.292,100.55 -2.725,200.604 -10.279,300.854c-0.846,11.146 16.504,10.396 17.329,-0.6" style="fill-rule:nonzero;"/><path d="M2846.233,1319.598c-42.7,13.35 -22.042,79.442 20.662,66.096c42.7,-13.35 22.042,-79.442 -20.662,-66.096" style="fill:#ff6347;fill-rule:nonzero;"/></g><g><path d="M3580.871,323.965c-163.958,-7.171 -290.925,129.292 -328.342,279.517c-15.138,60.763 -11.896,128.442 25.638,180.454c39.108,54.167 94.383,96.254 149.304,133.179c145.879,98.096 313.787,164.392 479.142,221.642c149.467,51.746 303.008,95.65 458.608,124.642c48.508,9.037 156.129,40.35 186.117,-20.404c32.704,-66.292 -62.442,-168.421 -98.8,-212.262c-96.833,-116.796 -210.867,-220 -325.663,-318.763c-119,-102.387 -242.954,-199.95 -372.888,-288.196c-53.85,-36.575 -109.583,-74.142 -169.975,-99.221c-7.142,-2.975 -12.45,7.821 -5.279,10.796c109.1,45.312 207.692,123.292 301.412,193.55c132.3,99.179 259.538,205.671 380.046,318.837c95.304,89.512 198.483,186.308 261.946,302.138c14.833,27.071 35.604,71.233 11.05,98.608c-22.758,25.371 -68.129,17.371 -97.408,13.875c-131.888,-15.742 -262.638,-52.908 -389.463,-91.017c-168.525,-50.637 -335.292,-112.2 -491.6,-193.412c-112.346,-58.362 -287.9,-150.45 -298.158,-293.467c-12.558,-174.95 148.575,-356.242 325.312,-348.525c7.733,0.346 6.65,-11.638 -1.008,-11.975" style="fill-rule:nonzero;"/><path d="M4365.221,1263.398l-318.896,-92.058l-218.683,-75.546c0,0 -86.613,-28.487 -130.4,-47.796c-52.571,-23.179 -185.033,-91.287 -185.033,-91.287c0,0 -95.608,-50.992 -130.392,-77.954c-30.721,-23.813 -80.121,-78 -80.121,-78c0,0 -50.925,-61.758 -46.754,-93.558c2.646,-20.171 0.013,-97.738 0.013,-97.738c0,0 37.029,-96.046 46.129,-111.458c15.617,-26.442 43.317,-61.604 43.317,-61.604c0,0 62.683,-57.254 96.862,-76.296c30.875,-17.204 139.275,-33.554 139.275,-33.554l110.779,64.35c0,0 120.758,89.646 158.688,115.196c69.225,46.633 198.1,154.267 198.1,154.267c0,0 194.608,167.075 272.533,242.008c67.904,65.292 191.4,214.346 191.4,214.346c0,0 39.404,88.108 39.013,111.025c-0.337,19.767 -55.254,44.188 -55.254,44.188l-130.579,-8.533l0.004,0.004Z" style="fill:#ff6347;"/><path d="M3339.833,844.257c77.733,-94.979 124.617,-204.663 160.508,-321.079c2.279,-7.4 -9.579,-9.533 -11.833,-2.217c-35.325,114.558 -81.246,221.921 -157.783,315.421c-4.908,6.004 4.188,13.883 9.104,7.879" style="fill-rule:nonzero;"/><path d="M3437.763,789.619c26.842,-40.638 44.842,-85.613 64.037,-130.137c3.067,-7.104 -7.75,-12.387 -10.817,-5.275c-19.196,44.525 -37.192,89.5 -64.037,130.137c-4.279,6.467 6.608,11.638 10.817,5.275" style="fill-rule:nonzero;"/><path d="M3744.658,427.065c-4.808,71.317 -32.508,148.442 -81.437,201.421c-5.275,5.721 3.854,13.567 9.104,7.879c50.175,-54.329 79.225,-133.912 84.167,-207.083c0.508,-7.633 -11.312,-9.946 -11.833,-2.217" style="fill-rule:nonzero;"/><path d="M3662.45,552.319c21.825,-16.487 29.396,-43.221 34.529,-68.921c1.525,-7.608 -10.308,-9.817 -11.833,-2.217c-4.454,22.288 -10.413,46.8 -29.504,61.208c-6.167,4.675 0.6,14.608 6.808,9.933" style="fill-rule:nonzero;"/><path d="M3613.042,1008.702c66.608,-70.292 83.425,-169.854 116.783,-257.454c2.742,-7.196 -8.058,-12.517 -10.817,-5.275c-33.004,86.65 -49.196,185.342 -115.071,254.85c-5.35,5.65 3.783,13.483 9.104,7.879" style="fill-rule:nonzero;"/><path d="M3706.25,983.777c27.842,-29.563 46.521,-67.729 57.471,-106.563c2.104,-7.458 -9.75,-9.613 -11.833,-2.217c-10.358,36.754 -28.421,72.971 -54.742,100.904c-5.333,5.662 3.796,13.508 9.104,7.879" style="fill-rule:nonzero;"/><path d="M3959.921,592.49c-3.546,74.554 -62.6,144.054 -101.483,204.275c-4.208,6.508 6.675,11.7 10.817,5.275c40.662,-62.971 98.95,-132.512 102.658,-210.55c0.371,-7.717 -11.629,-6.642 -11.996,1" style="fill-rule:nonzero;"/><path d="M4009.758,664.04c-17.767,36.792 -32.521,74.933 -54.042,109.808c-4.079,6.608 6.792,11.8 10.817,5.275c21.521,-34.875 36.275,-73.017 54.042,-109.808c3.379,-6.988 -7.454,-12.246 -10.817,-5.275" style="fill-rule:nonzero;"/><path d="M3429.221,513.502c5.408,-26.021 15.417,-50.496 30.583,-72.383c4.379,-6.321 -4.696,-14.25 -9.104,-7.879c-16.408,23.696 -27.454,49.846 -33.308,78.042c-1.583,7.596 10.254,9.796 11.833,2.217" style="fill-rule:nonzero;"/><path d="M3252.263,577.744c-67.217,25.35 -137.271,40.246 -208.237,50.687c-12.492,1.833 -25.354,0.304 -37.771,-1.35c-24.546,-3.292 -19.571,-30.288 0.438,-37.967c19.137,-7.338 43.208,-6.725 63.279,-10.933c35.896,-7.513 73.642,-47.492 23.654,-66c-64.9,-24.033 -144.963,-20.571 -213.162,-24.046c-98.754,-5.021 -195.517,-22.996 -292.217,-43.262c-17.121,-3.592 -34.104,-7.637 -50.987,-12.171c-18.863,-5.054 -56.158,-16.467 -12.946,-24.287c77.596,-14.033 156.908,7.658 233.637,17.85c30.096,4 184.704,5.358 98.692,-44.342c-53.458,-30.871 -118.742,-50.575 -176.975,-70.267c-48.75,-16.479 -111.842,-25.45 -144.863,-69.021c-17.921,-23.658 -0.054,-53.787 27.5,-44.388c8.096,2.758 15.8,6.867 23.429,10.692c16.829,8.437 32.967,18.408 48.725,28.642c61.45,39.938 130.383,65.825 194.671,100.604c27.888,15.088 55.979,26.625 87.521,30.342c4.542,0.537 8.262,-3.4 6.775,-7.925c-9.696,-29.746 -16.471,-60.604 -23.388,-91.071c-8.829,-38.913 -22.971,-85.662 -17.6,-125.963c0.633,-4.692 36.238,49.658 37.979,53.075c12.671,24.854 23.767,50.537 35.321,75.925c17.704,38.983 35.071,85.162 66.838,115.179c2.938,2.771 7.562,1.358 9.354,-1.912c7.592,-13.825 26.804,-58.083 52.9,-40.438c8.642,5.854 14.888,15.4 21.267,23.483c13.742,17.425 26.883,34.7 42.571,50.475c40.042,40.246 97.971,54.346 147.021,79.979c6.887,3.608 12.129,-7.213 5.279,-10.796c-48.812,-25.508 -103.387,-39.771 -144.425,-78.267c-25.196,-23.642 -42.887,-66.613 -75.962,-80.788c-18.304,-7.825 -36.242,12.475 -44.542,25.6c-16.438,26 -23.267,3.071 -34.042,-15.392c-15.346,-26.312 -27.458,-54.692 -40.046,-82.387c-6.325,-13.921 -56.537,-147.067 -85.35,-127.387c-27.317,18.646 6.833,119.846 12.104,143.662c6.308,28.446 13.238,56.838 21.408,84.8c-0.1,-0.35 -60.604,-23.229 -75.7,-30.988c-33.983,-17.483 -66.958,-34.75 -102,-50.104c-49.817,-21.821 -93.637,-53.663 -141.408,-79.142c-19.2,-10.254 -45.721,-23.862 -66.763,-11.65c-15.846,9.208 -10.108,42.562 -3.608,54.883c19.287,36.55 61.742,51.504 98.675,64.008c58.033,19.654 115.471,38.867 172.404,61.713c25.387,10.188 51.712,19.079 74.329,34.892c17.317,12.1 -37.1,15.6 -42.483,15.929c-26.646,1.646 -53.554,-2.15 -79.921,-5.654c-79.946,-10.629 -168.733,-36.15 -248.271,-9.15c-33.508,11.392 10.771,32.217 21.938,36.05c120.483,41.404 254.525,55.208 381.167,61.829c57.412,3.008 115.771,5.704 172.213,17.337c9.375,1.933 18.55,4.642 27.287,8.579c37.029,16.646 -29.592,39.417 -38.179,41.213c-18.958,3.975 -45.571,1.717 -62.667,11.971c-39.021,23.425 -39.308,49 6.912,58.813c34.733,7.375 72.137,-3.012 106.062,-9.358c49.813,-9.342 98.829,-22.6 146.221,-40.467c7.246,-2.742 3.217,-14.071 -4.058,-11.325" style="fill-rule:nonzero;"/><path d="M3308.429,489.744c-59.992,-76.875 -147.379,-130.008 -210.525,-204.846c-14.083,-16.696 -26.621,-34.904 -34.604,-55.3c-3.542,-9.067 -11.817,-23.137 -2.667,-15.096c9.471,8.337 17.954,17.963 26.6,27.125c26.383,27.975 58.262,74.8 98.171,83.846c4.208,0.954 6.925,-2.704 7.1,-6.404c2.529,-50.946 -40.304,-102.067 -65.692,-142.658c-18.092,-28.933 -35.367,-58.446 -46.333,-90.883c-7.125,-21.054 -4.308,-97.421 31.054,-64.612c38.567,35.775 57.475,100.854 77.404,147.975c14.392,34.021 26.108,80.683 52.179,108.238c3.108,3.283 9.283,0.821 9.854,-3.433c2.479,-18.658 5.092,-37.242 8.925,-55.688c1.258,-6.075 9.113,-48.6 26.971,-26.363c14.692,18.325 14.658,44.613 15.583,66.817c2.525,61.404 0.983,126.583 37.246,180.042c4.363,6.421 14.296,-0.363 9.946,-6.792c-25.017,-36.871 -33.792,-88.688 -34.933,-132.275c-0.863,-32.921 5.792,-75.767 -12.425,-105.596c-22.567,-36.933 -41.938,-22.046 -52.188,13.562c-3.25,11.275 -4.975,23.033 -6.858,34.592c-0.825,5.392 -1.604,10.8 -2.325,16.213c-1.604,11.583 6.129,7.712 3.158,3.262c-12.883,-19.287 -21.004,-42.762 -30.042,-64c-22.092,-51.963 -42.692,-105.021 -71.183,-153.921c-10.033,-17.2 -31.233,-52.896 -56.304,-41.262c-37.104,17.233 -21.567,77.817 -10.9,105.096c25.017,63.996 74.629,115.392 99.558,179.421c8.083,20.746 12.567,31.329 -9.421,15.558c-14.338,-10.279 -26.708,-23.729 -39.008,-36.258c-22.413,-22.817 -42.546,-49.317 -68.092,-68.796c-3.463,-2.646 -9.121,-1.321 -9.854,3.433c-8.312,53.679 49.287,104.533 83.021,138.396c53.229,53.471 120.129,97.775 166.642,157.4c4.767,6.088 14.712,-0.662 9.946,-6.792" style="fill-rule:nonzero;"/><path d="M2904.213,405.59c69.217,36.65 142.467,64.042 214.546,94.262c40.221,16.875 106.146,56.517 151.967,46.875c7.483,-1.558 6.592,-13.562 -1.008,-11.975c-46.388,9.75 -114.033,-32.438 -155.671,-49.887c-68.775,-28.829 -138.517,-55.104 -204.554,-90.071c-6.871,-3.638 -12.113,7.179 -5.279,10.796" style="fill-rule:nonzero;"/><path d="M3107.175,599.152c44.488,-11.829 91.033,-28.992 127.858,-57.25c6.125,-4.7 -0.642,-14.654 -6.808,-9.925c-36.054,27.679 -81.492,44.271 -125.108,55.85c-7.496,2 -3.404,13.3 4.058,11.325" style="fill-rule:nonzero;"/><path d="M3066.558,389.99c17.237,38.083 46.471,68.971 63.696,107.021c3.175,7.004 14.55,3.042 11.342,-4.046c-17.237,-38.083 -46.492,-68.971 -63.696,-107.021c-3.175,-7.004 -14.538,-3.038 -11.342,4.046" style="fill-rule:nonzero;"/><path d="M2874.3,468.215c38.121,-2.429 78.425,-3.779 115.117,-15.25c7.412,-2.317 3.342,-13.633 -4.058,-11.325c-35.608,11.146 -75.075,12.246 -112.062,14.6c-7.742,0.483 -6.737,12.471 1.008,11.975" style="fill-rule:nonzero;"/><path d="M2922.771,296.669c17.738,41.942 35.133,84.138 44.233,128.921c1.525,7.496 13.546,6.6 12.004,-0.996c-9.338,-45.883 -26.721,-88.983 -44.896,-131.971c-3.008,-7.108 -14.367,-3.125 -11.342,4.046" style="fill-rule:nonzero;"/><path d="M3128.554,114.94c25.037,59.963 55.342,116.917 90.421,171.629c36.592,57.071 62.433,120.588 94.467,180.233c3.667,6.829 13.567,-0.029 9.933,-6.792c-29.4,-54.725 -54.675,-111.5 -85.542,-165.446c-34.762,-60.729 -70.842,-118.758 -97.938,-183.675c-2.975,-7.121 -14.325,-3.125 -11.342,4.046" style="fill-rule:nonzero;"/><path d="M3184.95,343.977c31.442,11.137 59.246,30.262 92.137,37.429c3.946,0.846 7.292,-2.625 7.108,-6.404c-1.804,-36.571 2.287,-72.963 3.287,-109.488c0.217,-7.738 -11.779,-6.671 -11.996,1c-1.013,36.542 -5.096,72.904 -3.287,109.488c2.371,-2.138 4.729,-4.279 7.1,-6.404c-31.792,-6.921 -58.671,-25.646 -89.075,-36.413c-7.238,-2.571 -12.583,8.213 -5.279,10.796" style="fill-rule:nonzero;"/><path d="M3889.629,299.194c-30.525,-5.725 -39.383,41.521 -8.858,47.246c30.525,5.725 39.383,-41.521 8.858,-47.246" style="fill:#ff6347;fill-rule:nonzero;"/></g><g><path d="M1712.5,2684.627c-0.288,8.183 -0.517,16.354 -0.979,24.512c-5.479,14.15 -5.588,28.963 -4.508,44.096c0.233,6.854 0.879,13.683 2.567,20.354c2.054,8.062 11.021,10.187 17.737,6.975c1.388,-0.663 2.496,-1.512 3.738,-2.271c3,3.954 8.454,4.429 13.1,2.383c-0.142,2.171 -0.208,4.288 -0.133,6.325c0.196,5.367 3.933,10.154 9.242,11.392c14.962,3.475 28.983,6.775 41.004,17.058c3.263,2.792 6.908,3.425 10.233,2.754c0.483,5.05 3.621,9.967 8.979,10.554c2.063,0.225 4.179,0.4 6.317,0.533c0.417,0.558 0.746,1.158 1.242,1.692c4.271,4.6 9.725,6.117 15.421,6.054c0.379,2.062 1.308,4.133 3.05,6.033c36.646,39.958 109.492,20.504 130.858,-26.329c3.908,-8.562 -1.371,-17.379 -10.863,-17.812c-31.971,-1.438 -64.092,14.087 -93.433,24.837c-1.2,0.438 -2.225,1.104 -3.196,1.829c0.4,-0.921 0.433,-1.925 0.608,-2.9c14.421,-6.654 24.696,-18.771 24.312,-39.075c-0.046,-2.746 -1.029,-5.012 -2.475,-6.838c1.717,-5.071 3.112,-9.812 4.167,-13.642c0.45,-1.629 0.5,-3.183 0.254,-4.633c0.879,-3.433 1.725,-6.875 2.487,-10.317c1.158,-5.233 -1.162,-10.712 -5.912,-13.325l-6.329,-3.479c-3.55,-1.954 -8.521,-2.117 -11.975,0.208c-13.25,8.921 -24.854,22.929 -34.013,37.946c-0.2,0.021 -0.388,0.104 -0.588,0.129c3.483,-18.242 3.146,-37.296 2.183,-55.896c-0.308,-5.888 -3.579,-10.058 -8.142,-12.917c-0.438,-2.117 -1.538,-3.854 -3.083,-5.154c1.158,-9.842 -9.283,-15.146 -16.758,-12.396c-2.617,0.217 -5.112,1.296 -7.013,3.529c-3.571,4.183 -6.325,8.758 -8.546,13.583c-11.404,5.967 -21.771,16.979 -29.95,29.817c-1.633,-8.363 -4.104,-16.108 -8.142,-22.904c-4.413,-12.096 -10.392,-23.15 -21.025,-31.621c-8.329,-6.633 -20.046,-2.188 -20.437,8.912" style="fill:#ff6347;fill-rule:nonzero;"/><path d="M1449.612,3420.657c135.738,92.571 282.167,-14.929 381.917,-109.858c29.171,-27.767 56.583,-57.367 83.592,-87.212c29.442,-32.525 66.267,-66.817 81.967,-108.696c35.725,-95.217 -38.758,-193.621 -110.213,-250.337c-143.146,-113.654 -388.9,-175.604 -480.146,28.575c-39.2,87.7 -42.346,200.517 -39.158,295.392c2.629,78.317 13.675,179.887 80.742,231.183c6.096,4.658 14.546,-3.908 8.4,-8.617c-65.067,-49.771 -73.513,-147.329 -77.108,-222.875c-3.908,-82.058 3.875,-167.767 23.692,-247.292c24.179,-97.025 96.138,-168.642 198.079,-173.35c90.954,-4.208 191.379,48.104 264.875,96.771c45.746,30.279 80.021,73.004 106.233,120.546c35.837,64.983 23.612,122.733 -21.413,179.796c-38.513,48.804 -83.587,94.504 -128.175,137.729c-94.846,91.954 -237.175,196.583 -367.483,107.721c-6.408,-4.371 -12.154,6.192 -5.804,10.525" style="fill-rule:nonzero;"/><path d="M1887.513,2871.148c28.517,-6.838 55.088,-16.358 78.129,-34.942c8.787,-7.088 26.075,-25.663 15.133,-37.825c-13.646,-15.175 -42.842,-6.788 -59.554,-2.7c-30.771,7.529 -59.446,22.729 -88.317,35.3c-7.125,3.096 -0.838,13.367 6.175,10.321c37.033,-16.125 74.204,-36.279 115.287,-38.892c32.617,-2.071 7.671,21.963 -4.375,30.771c-19.354,14.146 -42.829,20.912 -65.838,26.425c-7.562,1.812 -4.175,13.354 3.354,11.546" style="fill-rule:nonzero;"/><path d="M1882.325,2817.727c10.933,-18.679 35.229,-75.354 8.667,-90.829c-15.013,-8.75 -36.287,12.233 -46.275,20.6c-20.925,17.554 -40.987,39.588 -53.375,64.092c-3.496,6.9 7.038,12.725 10.546,5.8c8.213,-16.233 19.938,-30.1 32.333,-43.292c12.621,-13.437 28.317,-29.688 45.963,-36.146c15.037,-5.504 7.854,28.625 6.567,34.579c-2.958,13.704 -7.887,27.292 -14.967,39.396c-3.925,6.7 6.633,12.479 10.546,5.8" style="fill-rule:nonzero;"/><path d="M1838.429,2762.694c0.854,-21.096 9.263,-86.383 -25.229,-86.917c-18.879,-0.296 -36.462,25.492 -46.283,38.383c-15.55,20.429 -30.583,44.45 -35.354,70.029c-1.421,7.583 10.283,10.442 11.708,2.796c6.362,-34.096 31.133,-67.983 56.171,-91.142c21.925,-20.283 26.079,8.196 27.279,25.063c1,13.983 0.237,28.104 -0.325,42.092c-0.308,7.742 11.725,7.412 12.033,-0.308" style="fill-rule:nonzero;"/><path d="M1768.804,2717.532c-4.333,-20.279 -20.642,-60.196 -47.725,-43.196c-27.433,17.213 -30.304,71.379 -21.925,98.725c2.267,7.413 13.833,4.083 11.558,-3.333c-6.971,-22.796 -3.225,-52.121 7.192,-73.333c16.958,-34.529 35.438,6.196 39.342,24.488c1.625,7.6 13.171,4.192 11.562,-3.342" style="fill-rule:nonzero;"/><path d="M1933.196,3029.14c6.021,-2.383 18.25,-11.767 14.621,-18.725c-8.504,-16.288 -20.5,5.575 -14.621,18.725" style="fill-rule:nonzero;"/><path d="M1833.242,2974.177c6.021,-2.383 18.25,-11.767 14.621,-18.725c-8.504,-16.288 -20.5,5.575 -14.621,18.725" style="fill-rule:nonzero;"/><path d="M1733.283,2919.215c6.021,-2.383 18.25,-11.767 14.621,-18.725c-8.504,-16.288 -20.5,5.575 -14.621,18.725" style="fill-rule:nonzero;"/><path d="M1633.338,2864.257c6.012,-2.392 18.242,-11.775 14.612,-18.729c-8.496,-16.279 -20.492,5.579 -14.612,18.729" style="fill-rule:nonzero;"/><path d="M1533.388,2809.298c6.021,-2.383 18.25,-11.767 14.621,-18.725c-8.504,-16.288 -20.5,5.575 -14.621,18.725" style="fill-rule:nonzero;"/><path d="M1948.625,3120.777c6.021,-2.383 18.25,-11.767 14.621,-18.725c-8.504,-16.288 -20.5,5.575 -14.621,18.725" style="fill-rule:nonzero;"/><path d="M1848.667,3065.811c6.021,-2.383 18.25,-11.767 14.621,-18.725c-8.504,-16.288 -20.5,5.575 -14.621,18.725" style="fill-rule:nonzero;"/><path d="M1748.713,3010.848c6.021,-2.383 18.25,-11.767 14.621,-18.725c-8.504,-16.288 -20.5,5.575 -14.621,18.725" style="fill-rule:nonzero;"/><path d="M1648.767,2955.89c6.012,-2.392 18.242,-11.775 14.612,-18.729c-8.496,-16.279 -20.492,5.579 -14.612,18.729" style="fill-rule:nonzero;"/><path d="M1548.812,2900.932c6.021,-2.383 18.25,-11.767 14.621,-18.725c-8.504,-16.288 -20.5,5.575 -14.621,18.725" style="fill-rule:nonzero;"/><path d="M1873.296,3154.344c6.021,-2.383 18.25,-11.767 14.621,-18.725c-8.504,-16.288 -20.5,5.575 -14.621,18.725" style="fill-rule:nonzero;"/><path d="M1773.338,3099.382c6.021,-2.383 18.25,-11.767 14.621,-18.725c-8.504,-16.288 -20.5,5.575 -14.621,18.725" style="fill-rule:nonzero;"/><path d="M1673.383,3044.415c6.021,-2.383 18.25,-11.767 14.621,-18.725c-8.504,-16.288 -20.5,5.575 -14.621,18.725" style="fill-rule:nonzero;"/><path d="M1573.438,2989.461c6.013,-2.392 18.242,-11.775 14.613,-18.729c-8.496,-16.279 -20.492,5.579 -14.613,18.729" style="fill-rule:nonzero;"/><path d="M1473.488,2934.498c6.021,-2.383 18.25,-11.767 14.621,-18.725c-8.504,-16.288 -20.508,5.567 -14.621,18.725" style="fill-rule:nonzero;"/><path d="M1801.5,3198.282c6.021,-2.383 18.25,-11.767 14.621,-18.725c-8.504,-16.288 -20.5,5.575 -14.621,18.725" style="fill-rule:nonzero;"/><path d="M1701.542,3143.319c6.021,-2.383 18.25,-11.767 14.621,-18.725c-8.504,-16.288 -20.5,5.575 -14.621,18.725" style="fill-rule:nonzero;"/><path d="M1601.596,3088.361c6.013,-2.392 18.242,-11.775 14.613,-18.729c-8.496,-16.279 -20.492,5.579 -14.613,18.729" style="fill-rule:nonzero;"/><path d="M1501.65,3033.402c6.021,-2.383 18.25,-11.767 14.621,-18.725c-8.504,-16.288 -20.508,5.567 -14.621,18.725" style="fill-rule:nonzero;"/><path d="M1832.233,2890.898c6.021,-2.383 18.25,-11.767 14.621,-18.725c-8.504,-16.288 -20.508,5.567 -14.621,18.725" style="fill-rule:nonzero;"/><path d="M1719.246,2843.394c6.021,-2.383 18.25,-11.767 14.621,-18.725c-8.504,-16.288 -20.508,5.567 -14.621,18.725" style="fill-rule:nonzero;"/><path d="M1456.888,2865.132c6.029,-2.379 18.25,-11.767 14.621,-18.725c-8.504,-16.288 -20.492,5.579 -14.621,18.725" style="fill-rule:nonzero;"/></g><g><g><path d="M834.396,3466.669c6.196,-4.675 -1.038,-14.267 -7.237,-9.596c-6.196,4.675 1.037,14.267 7.237,9.596" style="fill-rule:nonzero;"/><path d="M1599.608,3335.107l30.754,-23.196c6.196,-4.675 -1.037,-14.267 -7.237,-9.596l-30.754,23.196c-6.196,4.675 1.038,14.267 7.238,9.596" style="fill-rule:nonzero;"/><path d="M1356.596,3268.494c14.104,-2.617 28.221,-5.233 42.333,-7.842c7.608,-1.413 6.233,-13.358 -1.4,-11.95c-14.108,2.608 -28.221,5.233 -42.333,7.842c-7.608,1.413 -6.233,13.358 1.4,11.95" style="fill-rule:nonzero;"/><path d="M1325.304,3138.39c23.413,3.008 47.046,1.958 70.588,2.963c7.675,0.329 9.433,-11.579 1.667,-11.913c-23.525,-0.996 -47.171,0.038 -70.579,-2.967c-7.688,-0.983 -9.379,10.929 -1.675,11.921" style="fill-rule:nonzero;"/><path d="M1317.183,3022.565c17.167,4.804 34.608,7.233 52.446,7.312c7.754,0.029 6.242,-11.908 -1.408,-11.942c-15.608,-0.079 -31.371,-2.267 -46.396,-6.471c-7.358,-2.062 -12.121,9.008 -4.642,11.1" style="fill-rule:nonzero;"/><path d="M1398.125,2763.048c11.892,9.321 25.446,15.575 39.879,19.883c7.35,2.2 12.088,-8.875 4.65,-11.092c-13.483,-4.029 -26.058,-9.621 -37.188,-18.329c-6.088,-4.779 -13.458,4.754 -7.342,9.537" style="fill-rule:nonzero;"/><path d="M1294.067,3752.69c5.512,-94.458 -26.504,-196.087 -75.629,-275.988c-53.567,-87.133 -152.442,-104.429 -244.917,-122.833c-119.383,-23.758 -262.833,-97.633 -292.383,-226.537c-9.954,-43.379 2.704,-85.979 39.533,-111.929c20.5,-14.433 44.9,-23.629 66.025,-37.379c31.658,-20.625 45.733,-55.358 44.221,-91.946c-3.787,-91.404 -115.5,-79.033 -176.317,-68.896c-56.779,9.462 -110.804,15.121 -160.1,-20.746c-61.679,-44.904 -42.167,-133.879 -26.392,-196.242c7.867,-31.087 11.871,-23.329 36.767,-17.383c3.337,0.796 -14.521,37.092 -16.671,43.196c-11.908,33.692 -11.183,70.387 -1.583,104.354c20.975,74.242 96.633,91.333 163.083,73.229c30.771,-8.383 58.108,-21.725 90.825,-19.463c35.546,2.467 70.838,31.713 93.904,56.812c33.1,35.992 35.4,82.892 9.792,123.675c-20.087,31.996 -62.508,37.642 -92.258,56.283c-93.771,58.787 -37.496,158.854 28.854,213.917c49.617,41.175 115.7,73.175 178.096,88.242c33.15,8.004 67.896,9.546 101.458,15.492c42.917,7.613 83.325,28.95 117.8,54.754c122.667,91.833 132.692,258.358 150.629,397.554c0.983,7.7 12.933,6.275 11.95,-1.412c-20.763,-161.092 -37.117,-337.642 -190.737,-429.479c-80.079,-47.871 -177.775,-37.725 -262.171,-75.325c-74.121,-33.012 -254.9,-155.308 -140.392,-246.783c48.496,-38.742 133.525,-46.825 127.35,-129.721c-4.654,-62.596 -55.688,-109.233 -111.7,-131.075c-67.196,-26.208 -132.542,38.087 -202.225,17.104c-90.788,-27.333 -78.088,-150.175 -37.696,-211.871c2.425,-3.696 0.817,-8.946 -3.929,-9.608c-15.483,-1.158 -30.042,-5.8 -43.688,-13.917c-2.942,-1.708 -8.079,-1.708 -9.225,2.454c-18.133,65.708 -40.2,137.367 -12.688,203.438c23.65,56.787 90.396,74.629 145.862,72.05c72.117,-3.358 228.7,-57.646 219.104,70.183c-4.175,55.771 -64.858,74.817 -105.188,98.921c-30.679,18.354 -42.604,47.208 -46.817,81.175c-18.587,149.812 173.429,249.554 292.596,276.158c91.617,20.45 183.346,30.104 243.412,111.567c54.4,73.767 84.846,185.321 79.521,276.317c-0.442,7.7 11.467,9.417 11.921,1.667" style="fill-rule:nonzero;"/><path d="M781.587,2427.802c-35.079,60.112 -116.871,219.633 0.675,246.442c53.458,12.188 120.625,-32.317 167.771,-3.833c74.904,45.25 -4.392,186.85 -29,243.1c-20.221,46.233 -41.779,107.925 -5.783,151.946c24.013,29.358 69.688,-9.025 91.654,-20.992c89.183,-48.571 76.117,96.129 69.171,141.379c-7.229,46.971 -26.175,97.254 -22.983,145.133c0.521,7.758 12.463,6.292 11.95,-1.413c-6.008,-90.321 64.192,-195.296 14.567,-282.054c-18.9,-33.025 -56.842,-25.262 -84.367,-10.275c-20.921,11.396 -53.179,42 -75.3,14.942c-32.275,-39.454 0.133,-106.467 17.321,-145.75c26.642,-60.892 112.729,-254.346 -20.312,-257c-59.242,-1.192 -121.458,46.275 -171.146,-11.658c-44.412,-51.788 17.812,-155.513 45.317,-202.638c3.85,-6.6 -5.621,-14.029 -9.529,-7.325" style="fill-rule:nonzero;"/><path d="M782.683,2436.236c19.587,13.767 23.762,12.763 13.342,31.988c-8.529,15.754 -14.812,32.725 -20.833,49.546c-10.167,28.454 -16.746,58.579 -15.592,88.837c2.317,60.425 65.508,39.571 100.979,26.8c53.871,-19.396 113.867,1.862 135.629,55.713c16.617,41.112 6.992,91.604 -2,133.325c-13.829,64.221 -69.337,141.387 -49.062,207.367c1.029,3.367 4.85,4.192 7.8,3.367c24.346,-6.775 46.188,-19.875 70.725,-25.917c75.246,-18.517 91.321,77.567 89.421,128.308c-2.55,68.321 -19.242,135.458 -23.629,203.696c-0.496,7.696 11.417,9.417 11.912,1.675c4.717,-73.458 21.458,-145.508 24.204,-219.133c1.608,-43 -9.854,-99.125 -54.642,-118.113c-20.267,-8.592 -37.046,-11.233 -58.604,-5.929c-22.879,5.633 -62.933,43.092 -59.987,-6.179c3.021,-50.408 37.933,-106.167 50.912,-155.538c18.979,-72.171 29.392,-193.846 -66.258,-216.233c-19.721,-4.621 -41.45,-8.708 -61.542,-3.346c-25.192,6.742 -83.296,40.275 -100.904,3.462c-21.163,-44.262 18.575,-128.767 43.767,-165.683c1.779,-2.617 1.696,-6.467 -1.1,-8.429c-9.062,-6.375 -18.138,-12.742 -27.2,-19.117c-6.321,-4.446 -13.708,5.062 -7.342,9.537" style="fill-rule:nonzero;"/><path d="M1053.408,3375.836c-14.15,77.487 2.65,154.892 35.358,225.533c42.65,92.154 118.237,166.137 118.704,273.604c0.025,7.758 11.975,6.238 11.942,-1.421c-0.342,-81.204 -42.221,-146.012 -83.517,-212.829c-52.812,-85.462 -89.179,-181.342 -70.567,-283.221c1.396,-7.65 -10.529,-9.279 -11.921,-1.667" style="fill-rule:nonzero;"/><path d="M1086.404,3392.969c-16.538,81.025 9.179,169.113 49.096,239.954c41.079,72.892 109.463,157.075 89.433,246.167c-1.7,7.579 10.229,9.179 11.921,1.667c15.812,-70.375 -22.871,-137.608 -57.133,-196.288c-51.354,-87.925 -102.908,-184.404 -81.392,-289.833c1.554,-7.617 -10.367,-9.233 -11.921,-1.667" style="fill-rule:nonzero;"/><path d="M869.125,2327.898c-17.3,55.108 -26.808,109.096 -5.775,164.508c15.983,42.083 62.996,49.317 101.938,54.05c67.662,8.217 141.471,12.775 196.175,57.625c72.112,59.121 53.621,179.442 43.404,260.096c-18.096,143.008 -67.529,298.25 -36.779,442.679c12.621,59.262 54.425,110.042 92.879,154.65c23.1,26.796 47.371,52.529 70.242,79.529c27.45,32.4 47.492,69.642 73.237,103.271c4.704,6.146 14.321,-1.096 9.613,-7.25c-41.421,-54.087 -77.217,-108.879 -123.083,-159.829c-49.354,-54.837 -98.217,-112.033 -113.996,-186.1c-15.317,-71.971 -1.133,-155.325 8.4,-227.467c9.992,-75.483 25.792,-150.125 34.838,-225.742c12.383,-103.529 10.092,-220.846 -96.188,-271.608c-47.246,-22.567 -105.888,-25.842 -157.067,-31.762c-44.229,-5.117 -79.742,-13.183 -97.375,-59.625c-17.242,-45.4 -3.217,-98.292 10.637,-142.392c2.3,-7.333 -8.771,-12.05 -11.104,-4.629" style="fill-rule:nonzero;"/><path d="M1439.833,3608.632c-31.963,-27.3 -53.513,-62.467 -77.567,-96.392c-26.417,-37.25 -56.242,-72.079 -82.671,-109.412c-55.204,-77.95 -74.438,-159.012 -71.183,-253.812c5.008,-146.146 62.554,-283.517 53.133,-431.471c-3.358,-52.833 -16.642,-113.679 -54.65,-152.75c-28.525,-29.317 -71.237,-41.442 -109.933,-50.046c-47.688,-10.613 -96.854,-12.392 -144.804,-21.421c-28.312,-5.333 -50.112,-13.154 -53.512,-44.788c-3.671,-34.188 5.642,-71.7 12.038,-105.158c1.454,-7.637 -10.462,-9.267 -11.921,-1.667c-7.329,38.438 -27.054,102.504 -3.171,138.475c16.421,24.75 63.746,27.029 89.304,30.546c56.512,7.762 113.629,11.65 167.121,33.033c81.892,32.742 96.279,125.629 99,204.233c5.442,156.675 -61.579,304.817 -54.217,461.912c3.546,75.838 30.679,138.608 73.183,200.163c26.021,37.683 55.104,72.908 82.671,109.412c25.858,34.254 46.842,70.508 79.838,98.679c5.892,5.033 13.225,-4.521 7.342,-9.537" style="fill-rule:nonzero;"/><path d="M876.229,2335.732c8.633,4.233 17.238,7.917 26.696,9.875c7.604,1.575 9.238,-10.35 1.667,-11.912c-8.4,-1.733 -16.058,-5.312 -23.721,-9.062c-6.967,-3.417 -11.583,7.7 -4.642,11.1" style="fill-rule:nonzero;"/></g><path d="M1620.263,2557.252c12.079,10.738 24.192,21.363 38.612,28.871c6.883,3.575 11.488,-7.542 4.658,-11.1c-13.417,-6.979 -24.704,-17.338 -35.925,-27.308c-5.788,-5.146 -13.112,4.412 -7.342,9.537" style="fill-rule:nonzero;"/></g><g><g><path d="M1853.338,3554.065c-18.875,-6.267 -42.95,-10.133 -63.771,-5.854c-0.888,-9.125 -12.383,-16.575 -20.167,-7.875c-4.525,5.058 -9.121,10.112 -13.588,15.258c-29.979,23.95 -61.625,55.721 -62.171,94.188c-0.087,6.296 5.558,12.346 12.038,12.017c35.487,-1.796 65.217,-19.912 93.421,-40.1c15.592,-11.154 30.404,-23.4 45.667,-34.996c8.271,-6.287 17.4,-9.642 17.4,-21.046c0,-5.567 -3.708,-9.892 -8.829,-11.596" style="fill:#ff6347;fill-rule:nonzero;"/><path d="M1918.7,3656.661c-0.329,-4.942 -0.808,-9.892 -1.579,-14.883c-0.008,-0.038 -0.029,-0.067 -0.029,-0.104c0.258,-2.117 0.425,-4.221 0.454,-6.317c0.075,-4.383 -2.079,-7.488 -5.025,-9.442c0.846,-2.95 1.6,-5.933 2.196,-8.988c2.446,-12.546 -16.033,-22.4 -22.004,-9.267c-25.567,56.308 -82.163,77.479 -133.829,103.937c-10.046,1.75 -19.875,2.838 -29.121,3.075c-13.108,0.346 -16.996,21.092 -3.196,23.612c4.15,0.75 8.254,1.229 12.338,1.575c0.279,0.521 0.617,1.021 0.992,1.508c0.221,1.117 0.558,2.25 1.146,3.404c20.042,39.137 85.171,32.254 119.529,19.95c23.621,-8.471 41.333,-24.408 49.279,-48.129c1.225,-3.654 2.012,-7.375 2.637,-11.142c0.346,-0.492 0.712,-0.95 1.013,-1.537c8.158,-15.508 9.208,-31.321 5.208,-47.254" style="fill:#ff6347;fill-rule:nonzero;"/><path d="M1761.517,3543.736c-70.6,30.313 -88.558,112.446 -54.883,177.525c34.217,66.117 127.475,73.904 183.992,33.225c47.825,-34.417 48.217,-101.6 26.05,-150.488c-27.579,-60.858 -92.979,-82.25 -153.725,-60.858c-7.262,2.558 -4.133,14.162 3.196,11.583c52.946,-18.65 103.188,-4.017 133.821,43.696c26.683,41.579 27.1,100.363 -6.713,137.771c-45.262,50.042 -135.083,38.079 -171.975,-14c-40.842,-57.637 -17.554,-140.654 46.312,-168.071c7.108,-3.058 0.971,-13.4 -6.075,-10.383" style="fill-rule:nonzero;"/><path d="M1776.167,3539.482c-16.987,-22.158 -41.525,-40.233 -40.908,-70.671l-6.021,6.008c26.029,-0.471 43.808,21.487 64.379,34.429c3.908,2.462 9.042,-0.758 9.054,-5.192c0.075,-23.054 -0.067,-45.629 17.5,-63.037c-3.158,-0.413 -6.308,-0.817 -9.458,-1.221c8.763,19.729 11.554,39.667 12.017,61.058c0.133,6.067 8.013,8.083 11.221,3.038c10.112,-15.958 19.971,-28.062 38.133,-35.696c-2.467,-1.404 -4.942,-2.796 -7.404,-4.2c7.375,28.188 -9.137,54.762 -19.258,80.133c-2.871,7.2 8.783,10.304 11.604,3.192c11.171,-27.988 27.342,-55.667 19.258,-86.517c-0.75,-2.854 -4.4,-5.462 -7.396,-4.192c-20.463,8.596 -33.562,22.633 -45.338,41.217c3.746,1.008 7.475,2.021 11.221,3.029c-0.508,-23.717 -3.987,-45.35 -13.654,-67.125c-1.608,-3.617 -6.942,-3.721 -9.458,-1.221c-20,19.842 -20.938,44.717 -21.021,71.546c3.013,-1.721 6.038,-3.45 9.054,-5.192c-22.979,-14.458 -41.371,-36.592 -70.446,-36.062c-3.333,0.067 -5.95,2.692 -6.021,6.008c-0.683,33.554 23.679,52.108 42.546,76.737c4.65,6.067 15.108,0.096 10.4,-6.067" style="fill-rule:nonzero;"/><path d="M1698.742,3673.29c71.204,-16.738 129.054,-54.925 179.208,-107.292c5.362,-5.604 -3.138,-14.113 -8.513,-8.508c-48.833,51.004 -104.533,87.912 -173.892,104.217c-7.55,1.771 -4.354,13.363 3.196,11.583" style="fill-rule:nonzero;"/><path d="M1713.183,3721.577c77.108,-5.808 156.479,-51.117 191.388,-121.55c3.417,-6.913 -6.963,-13.008 -10.4,-6.058c-32.963,66.521 -107.963,110.1 -180.988,115.588c-7.696,0.587 -7.754,12.604 0,12.017" style="fill-rule:nonzero;"/></g></g><g><path d="M3662.329,1993.652c5.521,6.929 11.825,12.863 19.496,17.379c4.35,2.558 8.433,1.983 11.529,-0.175c0.983,1.467 2.092,2.904 3.5,4.287c63.704,61.633 138.262,117.562 218.825,155.846c0.783,0.762 1.583,1.525 2.525,2.254c39.067,29.833 75.646,63.367 120.229,84.963c0.471,0.221 0.921,0.312 1.396,0.504c44.842,36.025 90.858,70.479 137.096,105.038c72.142,53.904 145.033,106.733 219.062,158.004c79.954,55.371 160.246,114.283 245.946,160.379c24.237,13.037 51.387,1.525 64.796,-20.642c13.692,-22.65 26.404,-45.671 43.142,-66.254c14.962,-18.392 19.546,-52 -2.617,-68.05c-69.613,-50.458 -148.525,-82.7 -216.725,-135.917c-11.029,-8.612 -22.079,-17.137 -33.142,-25.612c-121.079,-70.95 -235.567,-153.471 -352.733,-231.163c-33.646,-19.8 -67.229,-39.7 -100.375,-60.325c-26.7,-16.613 -52.492,-33.7 -78.346,-50.213c-17.096,-9.587 -34.283,-19.004 -51.692,-28.025c-6.667,-3.454 -11.854,-7.771 -15.771,-12.588c-24.25,-13.413 -49.3,-25.537 -75.742,-35.737c-20.221,-13.104 -37.15,-28.829 -61.75,-35.558c-9.288,-2.533 -22.854,3.025 -26.329,12.504c-0.854,2.346 -1.821,4.629 -2.75,6.933c-9.183,6.812 -17.633,14.321 -25.225,22.867c-4.887,5.517 -6.704,12.675 -5.821,19.529c-5.829,-2.567 -11.637,-5.175 -17.317,-8.042c-5.846,-2.954 -13.162,-0.717 -16.2,5.163l-5.529,10.692c-1.783,3.446 -2.05,8.763 0.513,11.967" style="fill:none;fill-rule:nonzero;"/><path d="M4654.675,2678.102c-102.121,-57.012 -197.496,-128.425 -293.454,-194.996c-142.971,-99.179 -284.904,-199.85 -426.625,-300.821c-87.296,-62.192 -174.367,-124.713 -261.55,-187.062c-13.333,-9.533 5.279,-33.867 2.65,-35.067c11.708,5.363 22.817,12.292 33.925,18.775c44.621,26.062 88.438,53.554 132.3,80.875c169.125,105.337 336.992,212.658 505.383,319.146c121.629,76.917 241.958,159.721 368.858,227.821c6.837,3.675 12.354,-7.021 5.529,-10.692c-190.312,-102.125 -370.033,-228.504 -552.333,-344.008c-109.358,-69.288 -218.683,-138.658 -328.575,-207.104c-51.15,-31.858 -107.75,-78.908 -165.688,-97.938c-2.492,-0.812 -5.483,0.933 -6.583,3.125c-6.892,13.629 -9.963,27.6 -13.508,42.483c-0.442,1.821 0.175,4.537 1.792,5.667c151.158,106.296 300.529,215.158 451.396,321.879c107.988,76.375 216.229,152.429 325.275,227.313c70.546,48.446 140.863,99.529 215.683,141.3c6.779,3.783 12.279,-6.921 5.529,-10.692" style="fill-rule:nonzero;"/><path d="M4759.2,2526.719c-184.85,-116.167 -367.696,-235.579 -551.942,-352.7c-94.967,-60.375 -189.929,-120.85 -286.067,-179.358c-28.854,-17.554 -58.429,-33.675 -87.562,-50.704c-26.458,-15.467 -61.942,-42.6 -94.804,-37.538c-16.442,2.529 -30.575,43.333 -38.525,55.275c-4.292,6.462 6.425,11.921 10.671,5.529c9.117,-13.7 17.363,-27.658 25.471,-41.979c11.846,-20.942 53.454,7.513 66.625,14.683c20.754,11.3 41.042,23.592 61.637,35.208c28.917,16.3 57.129,33.904 85.388,51.312c96.558,59.479 192.217,120.429 287.896,181.312c172.1,109.546 342.954,221.108 515.692,329.65c6.567,4.129 12.042,-6.6 5.529,-10.692" style="fill-rule:nonzero;"/><path d="M3671.896,1960.173c-196.271,-147.713 -430.263,-262.713 -665.133,-333.192c-0.312,3.958 -0.625,7.929 -0.933,11.9c132.479,8.133 252.571,60.613 369.763,119.317c62.654,31.387 123.392,62.996 180.367,104.104c48.075,34.688 93.829,72.333 143.033,105.492c6.425,4.325 11.879,-6.413 5.529,-10.692c-53.658,-36.158 -103.092,-77.937 -156.104,-114.942c-57.663,-40.262 -119.983,-70.954 -182.704,-102.375c-114.071,-57.133 -231.871,-105.029 -360.5,-112.925c-7.225,-0.45 -7.025,10.067 -0.942,11.896c232.35,69.729 465.267,184.117 659.467,330.254c6.137,4.625 14.354,-4.188 8.162,-8.838" style="fill-rule:nonzero;"/><path d="M3723.242,1924.052c-126.987,-68.917 -239.229,-148.546 -345.383,-247.288c-109.342,-101.708 -203.029,-215.504 -279.567,-343.708c-3.333,-5.588 -10.842,-2.125 -11.079,3.529c-2.992,70.417 72.692,151.142 114.008,201.392c73.042,88.783 159.704,165.85 237.537,250.304c5.271,5.717 13.379,-3.183 8.162,-8.838c-66.6,-72.267 -137.633,-140.183 -204.312,-212.35c-33.958,-36.763 -63.479,-76.204 -91.738,-117.375c-22.854,-33.283 -53.454,-71.375 -51.654,-113.754l-11.079,3.529c74.354,124.554 164.387,233.4 268.758,333.983c109.5,105.529 227.9,189.133 360.825,261.267c6.825,3.7 12.333,-7 5.529,-10.692" style="fill-rule:nonzero;"/><path d="M3385.404,1749.211c-25.458,-19.45 -54.779,-31.308 -82.517,-47.046c-35.583,-20.2 -70.379,-41.421 -107.033,-59.654c-76.688,-38.138 -156.275,-70.058 -233.2,-107.692c-1.338,3.742 -2.671,7.488 -4.008,11.229c73.962,23.583 150.142,39.042 221.287,70.912c67.967,30.442 130.654,73.3 196.496,108.025c6.854,3.617 12.383,-7.075 5.529,-10.692c-71.029,-37.462 -138.662,-82.121 -212.021,-114.987c-66.521,-29.788 -139.629,-42.983 -208.796,-65.038c-6.542,-2.088 -10,8.308 -4.012,11.238c71.417,34.929 144.892,65.363 216.642,99.587c31.946,15.233 62.75,32.283 93.325,50.113c36.029,21.012 76.996,37.517 110.146,62.842c6.113,4.675 14.317,-4.142 8.162,-8.838" style="fill-rule:nonzero;"/><path d="M3732.537,1912.423c-52.183,-30.221 -96.862,-77.313 -142.692,-116.429c-44.975,-38.404 -87.308,-79.65 -127.054,-123.433c-84.633,-93.204 -146.592,-205.679 -203.767,-317.046c-3.1,-6.042 -10.683,-1.742 -11.079,3.529c-5.679,75.658 52.908,168.404 89.983,230.737c26.729,44.925 62.367,85.017 97.054,123.883c19.167,21.471 39.329,42.062 59.571,62.517c22.963,23.212 53.704,44.383 73.421,70.163c4.683,6.125 14.867,-0.279 10.158,-6.438c-23.85,-31.187 -59.733,-56.712 -87.587,-84.867c-40.417,-40.858 -78.275,-84.042 -113.446,-129.492c-30.379,-39.267 -51.867,-83.025 -73.408,-127.492c-20.479,-42.292 -47.383,-91.133 -43.742,-139.629l-11.079,3.529c55.517,108.146 116.017,213.125 194.417,306.45c41.688,49.617 89.612,93.975 138.404,136.429c46.412,40.375 91.929,87.358 145.325,118.283c6.713,3.892 12.208,-6.817 5.529,-10.692" style="fill-rule:nonzero;"/><path d="M3664.412,1964.519c-54.796,-17.208 -100.75,-49.992 -148.496,-80.854c-44.979,-29.079 -93.125,-47.733 -143.354,-65.467c-104.379,-36.854 -209.242,-56.442 -317.904,-74.321c-0.321,3.967 -0.629,7.938 -0.95,11.904c48.887,-4.671 99.621,6.275 148.65,9.204c60.833,3.625 118.279,10.112 176.583,28.475c7.371,2.325 9.833,-9.471 2.487,-11.779c-54.075,-17.029 -107.292,-24.438 -163.621,-27.796c-54.292,-3.238 -110.35,-15.317 -164.708,-10.129c-6.562,0.633 -7.912,10.758 -0.938,11.908c108.887,17.921 213.067,38.433 317.904,74.321c55.662,19.046 105.588,41.913 154.992,73.842c43.987,28.438 86.521,56.658 136.862,72.471c7.383,2.321 9.833,-9.471 2.496,-11.775" style="fill-rule:nonzero;"/><path d="M4169.142,2347.736l15.425,-29.833c3.562,-6.896 -7.108,-12.425 -10.671,-5.529l-15.425,29.833c-3.562,6.896 7.108,12.425 10.671,5.529" style="fill-rule:nonzero;"/><path d="M4069.696,2279.757l12.742,-24.642c3.567,-6.904 -7.104,-12.433 -10.671,-5.529l-12.742,24.642c-3.562,6.896 7.108,12.425 10.671,5.529" style="fill-rule:nonzero;"/><path d="M3977.788,2181.89c-2.896,8.217 -5.729,16.542 -9.863,24.242c-3.629,6.762 6.2,13.704 9.863,6.879c4.662,-8.688 8.058,-17.821 11.333,-27.113c2.579,-7.321 -8.75,-11.329 -11.333,-4.008" style="fill-rule:nonzero;"/><path d="M3894.733,2157.832l15.421,-29.825c3.562,-6.896 -7.108,-12.425 -10.671,-5.529l-15.421,29.825c-3.562,6.896 7.108,12.425 10.671,5.529" style="fill-rule:nonzero;"/><path d="M3813.287,2099.023c2.833,-10.675 8.783,-19.35 15.921,-27.613c5.067,-5.867 -3.746,-14.046 -8.821,-8.171c-8.579,9.913 -15.463,20.508 -18.858,33.292c-1.996,7.5 9.771,9.975 11.754,2.492" style="fill-rule:nonzero;"/><path d="M3738.567,2044.015c5.379,-10.4 10.842,-20.721 17.379,-30.458c4.333,-6.429 -6.387,-11.888 -10.671,-5.529c-6.537,9.733 -12.004,20.054 -17.379,30.458c-3.563,6.896 7.108,12.425 10.671,5.529" style="fill-rule:nonzero;"/><path d="M3343.567,2108.457c27.525,14.262 49.633,-28.5 22.108,-42.767c-27.525,-14.262 -49.633,28.5 -22.108,42.767" style="fill:#61cab1;fill-rule:nonzero;"/></g></g></g></svg>