<?xml version="1.0" encoding="UTF-8" standalone="no"?><!DOCTYPE svg PUBLIC "-//W3C//DTD SVG 1.1//EN" "http://www.w3.org/Graphics/SVG/1.1/DTD/svg11.dtd"><svg width="100%" height="100%" viewBox="0 0 1000 1600" version="1.1" xmlns="http://www.w3.org/2000/svg" xmlns:xlink="http://www.w3.org/1999/xlink" xml:space="preserve" xmlns:serif="http://www.serif.com/" style="fill-rule:evenodd;clip-rule:evenodd;stroke-linejoin:round;stroke-miterlimit:2;"><g><g><path d="M1066.196,695.628c-40.256,9.895 -82.388,-7.178 -110.626,-36.25c-26.427,-27.211 -33.658,-64.071 -32.208,-100.802c1.46,-36.986 15.905,-71.782 43.335,-96.918c13.165,-12.063 29.24,-20.268 46.537,-24.495c19.044,-4.652 42.371,-6.107 61.802,-3.418c1.571,0.218 1.633,-2.238 0.08,-2.453c-20.871,-2.889 -44.913,-0.801 -65.402,4.203c-16.729,4.089 -31.85,13.116 -44.699,24.37c-29.444,25.794 -42.729,63.599 -44.241,101.889c-1.491,37.802 8.23,73.798 34.991,101.35c28.033,28.862 71.503,44.621 111.006,34.91c1.538,-0.378 0.966,-2.766 -0.576,-2.386" style="fill-rule:nonzero;"/><path d="M1065.757,668.763c-14.686,5.22 -34.341,13.412 -45.101,-2.719c-7.152,-10.721 -5.931,-23.739 -19.888,-28.528c-15.668,-5.376 -38.128,-1.516 -43.142,-22.528c-2.333,-9.773 5.037,-19.211 8.322,-27.877c2.265,-5.98 0.428,-11.727 -2.436,-17.095c-5.077,-9.507 -12.104,-16.876 -15.3,-27.473c-4.722,-15.662 6.646,-24.581 19.67,-28.875c13.305,-4.386 18.492,-11.932 22.2,-25.077c2.411,-8.547 4.678,-16.938 12.395,-22.301c9.902,-6.878 19.718,1.558 29.271,4.094c16.175,4.294 23.717,-23.191 38.675,-14.691c1.376,0.783 2.685,-1.294 1.307,-2.078c-17.022,-9.676 -24.111,18.444 -41.559,13.811c-6.882,-1.828 -13.872,-7.955 -21.456,-6.165c-7.727,1.822 -12.908,6.421 -16.507,13.354c-3.536,6.815 -4.609,14.782 -7.242,21.953c-4.414,12.036 -16.018,13.525 -26.412,17.909c-18.705,7.887 -14.391,29.144 -6.197,43.162c2.729,4.672 6.008,9.034 8.99,13.545c4.689,7.093 3.165,13.909 -0.27,20.961c-3.682,7.563 -6.778,14.852 -5.843,23.419c1.78,16.27 22.293,20.786 35.254,22.477c10.251,1.34 17.323,4.025 21.877,13.894c3.524,7.637 4.568,16.933 12.131,22.087c12.671,8.633 28.943,1.708 41.835,-2.875c1.475,-0.524 0.919,-2.917 -0.576,-2.386" style="fill-rule:nonzero;"/><path d="M997.474,626.688c2.152,-2.088 3.604,-4.679 5.023,-7.289c0.752,-1.388 -1.327,-2.699 -2.083,-1.307c-1.313,2.419 -2.626,4.87 -4.624,6.805c-1.134,1.103 0.543,2.896 1.683,1.791" style="fill-rule:nonzero;"/><path d="M977.594,618.592c1.318,-2.397 2.846,-4.672 4.166,-7.07c0.759,-1.384 -1.32,-2.695 -2.083,-1.307c-1.318,2.397 -2.846,4.672 -4.166,7.07c-0.759,1.384 1.32,2.695 2.083,1.307" style="fill-rule:nonzero;"/><path d="M970.492,602.597c2.998,0.048 5.946,-0.57 8.889,-1.066c1.563,-0.264 0.982,-2.648 -0.576,-2.386c-2.729,0.46 -5.452,1.043 -8.233,0.999c-1.585,-0.026 -1.667,2.427 -0.08,2.453" style="fill-rule:nonzero;"/><path d="M999.938,602.323l0.276,-8.504c0.051,-1.584 -2.406,-1.663 -2.457,-0.08l-0.276,8.504c-0.051,1.582 2.406,1.662 2.457,0.08" style="fill-rule:nonzero;"/><path d="M976.55,587.687c3.035,-0.735 5.641,-2.56 7.911,-4.644c1.168,-1.074 -0.513,-2.863 -1.681,-1.791c-1.962,1.801 -4.179,3.411 -6.805,4.049c-1.537,0.373 -0.967,2.761 0.576,2.386" style="fill-rule:nonzero;"/><path d="M998.334,572.396c-1.729,-1.284 -2.87,-3.127 -3.988,-4.929c-0.834,-1.337 -3.003,-0.18 -2.163,1.17c1.356,2.182 2.752,4.286 4.842,5.837c1.276,0.949 2.572,-1.141 1.309,-2.078" style="fill-rule:nonzero;"/><path d="M973.005,564.526c2.581,-1.235 4.777,-3.111 7.358,-4.345c1.431,-0.684 0.256,-2.843 -1.172,-2.158c-2.581,1.235 -4.777,3.109 -7.358,4.345c-1.429,0.685 -0.256,2.843 1.172,2.158" style="fill-rule:nonzero;"/><path d="M988.615,548.504c-1.729,-1.284 -2.872,-3.129 -3.99,-4.929c-0.834,-1.337 -3.003,-0.178 -2.163,1.17c1.358,2.182 2.754,4.286 4.844,5.837c1.276,0.949 2.572,-1.141 1.309,-2.078" style="fill-rule:nonzero;"/><path d="M961.975,540.592c2.948,-1.335 5.973,-2.482 8.667,-4.303c1.3,-0.877 0.142,-3.049 -1.172,-2.158c-2.694,1.82 -5.719,2.968 -8.667,4.303c-1.444,0.653 -0.266,2.809 1.172,2.158" style="fill-rule:nonzero;"/><path d="M1008.393,532.964c-1.93,-2.129 -3.052,-4.783 -4.034,-7.447c-0.539,-1.465 -2.938,-0.913 -2.39,0.575c1.132,3.076 2.402,6.094 4.628,8.551c1.068,1.174 2.86,-0.505 1.796,-1.679" style="fill-rule:nonzero;"/><path d="M983.35,519.796c2.439,-0.754 4.777,-1.849 6.956,-3.172c1.349,-0.819 0.188,-2.984 -1.17,-2.16c-2,1.214 -4.125,2.253 -6.362,2.945c-1.505,0.466 -0.943,2.856 0.576,2.386" style="fill-rule:nonzero;"/><path d="M997.465,499.341c3.455,0.029 6.435,-1.214 9.249,-3.142c1.294,-0.885 0.139,-3.057 -1.17,-2.158c-2.45,1.677 -4.974,2.874 -8,2.847c-1.584,-0.014 -1.667,2.439 -0.08,2.453" style="fill-rule:nonzero;"/><path d="M981.947,680.542c3.485,-3.331 6.353,-7.217 9.537,-10.825c1.038,-1.177 -0.633,-2.979 -1.684,-1.789c-3.179,3.606 -6.051,7.492 -9.537,10.823c-1.144,1.095 0.536,2.888 1.683,1.791" style="fill-rule:nonzero;"/><path d="M962.457,667.005c2.969,-2.11 5.596,-4.567 7.9,-7.389c1,-1.227 -1.095,-2.515 -2.083,-1.305c-2.017,2.467 -4.39,4.689 -6.988,6.536c-1.273,0.904 -0.122,3.077 1.172,2.158" style="fill-rule:nonzero;"/><path d="M943.143,643.266c2.739,-2.53 5.767,-4.695 8.752,-6.921c1.271,-0.947 -0.425,-2.727 -1.683,-1.791c-2.983,2.226 -6.011,4.391 -8.752,6.921c-1.165,1.076 0.519,2.868 1.683,1.791" style="fill-rule:nonzero;"/><path d="M931.517,620.937c3.012,-0.694 5.748,-2.046 8.288,-3.785c1.294,-0.885 0.139,-3.055 -1.17,-2.158c-2.373,1.625 -4.879,2.905 -7.694,3.556c-1.543,0.355 -0.971,2.745 0.576,2.386" style="fill-rule:nonzero;"/><path d="M933.804,510.332c3.145,1.332 6.426,2.159 9.745,2.935c1.537,0.36 2.273,-1.981 0.73,-2.344c-3.318,-0.776 -6.6,-1.603 -9.745,-2.935c-1.462,-0.619 -2.174,1.733 -0.73,2.344" style="fill-rule:nonzero;"/><path d="M949.875,480.073c2.599,0.738 5.201,1.479 7.8,2.217c1.525,0.434 2.254,-1.911 0.73,-2.344c-2.599,-0.74 -5.201,-1.479 -7.8,-2.217c-1.525,-0.434 -2.254,1.911 -0.73,2.344" style="fill-rule:nonzero;"/><path d="M981.236,466.188c-2.339,-3.659 -5.437,-6.561 -8.405,-9.689c-1.092,-1.151 -2.886,0.527 -1.794,1.677c2.816,2.97 5.815,5.709 8.036,9.182c0.848,1.326 3.017,0.168 2.163,-1.17" style="fill-rule:nonzero;"/><path d="M1006.037,449.963c-1.367,-2.919 -2.947,-5.734 -4.312,-8.653c-0.672,-1.434 -2.831,-0.261 -2.163,1.168c1.365,2.921 2.947,5.734 4.312,8.655c0.672,1.434 2.831,0.261 2.163,-1.17" style="fill-rule:nonzero;"/><path d="M911.742,663.894c0.282,1.872 2.142,2.818 3.893,2.283c1.698,-0.521 2.632,-2.32 2.132,-4.018c-0.438,-1.486 -1.951,-2.325 -3.445,-2.137c-1.765,0.22 -2.642,1.914 -2.613,3.544c0.027,1.577 2.485,1.664 2.457,0.08c-0.006,-0.291 -0.029,-0.616 0.11,-0.886c0.072,-0.145 0.217,-0.27 0.221,-0.27c0.327,-0.119 0.667,-0.041 0.804,0.152c0.627,0.885 -0.988,1.882 -1.169,0.677c-0.235,-1.564 -2.625,-0.981 -2.39,0.575" style="fill-rule:nonzero;"/></g><g><path d="M534.255,385.579c-11.012,1.877 -15.519,11.894 -12.19,22.075c3.273,10.008 14.362,14.46 24.013,11.023c7.911,-2.818 11.739,-11.497 10.583,-19.395c-1.565,-10.675 -12.718,-14.283 -22.101,-13.743c-1.475,0.083 -1.484,2.382 0,2.298c8.173,-0.471 16.726,1.821 19.488,10.363c2.055,6.358 -0.937,13.524 -6.363,17.129c-7.396,4.911 -17.693,1.696 -22.099,-5.483c-5.569,-9.074 -1.362,-20.238 9.279,-22.051c1.462,-0.248 0.84,-2.463 -0.611,-2.215" style="fill-rule:nonzero;"/><path d="M575.967,392.38c-5.816,0.991 -8.265,6.393 -6.506,11.763c1.731,5.295 7.596,7.755 12.737,5.924c4.284,-1.526 6.328,-6.139 5.7,-10.422c-0.819,-5.593 -6.691,-7.591 -11.625,-7.306c-1.475,0.083 -1.484,2.382 0,2.298c3.817,-0.221 7.909,0.746 9.209,4.772c0.95,2.933 -0.412,6.264 -2.922,7.935c-8.913,5.918 -17.03,-10.866 -5.982,-12.749c1.462,-0.248 0.84,-2.463 -0.611,-2.215" style="fill-rule:nonzero;"/><path d="M561.138,428.558c-3.213,0.548 -4.632,3.636 -3.662,6.6c0.959,2.933 4.207,4.395 7.088,3.369c2.469,-0.88 3.62,-3.457 3.259,-5.929c-0.446,-3.046 -3.675,-4.237 -6.379,-4.08c-1.475,0.083 -1.484,2.382 0,2.298c1.631,-0.094 3.493,0.211 4.061,1.97c0.394,1.219 -0.151,2.628 -1.2,3.327c-3.754,2.496 -7.259,-4.536 -2.555,-5.339c1.462,-0.25 0.84,-2.463 -0.611,-2.215" style="fill-rule:nonzero;"/></g><g><g><path d="M720.058,906.845c-8.211,1.397 -11.608,8.927 -9.126,16.516c2.443,7.466 10.713,10.844 17.934,8.273c5.958,-2.121 8.823,-8.609 7.954,-14.557c-1.164,-7.935 -9.472,-10.675 -16.456,-10.273c-1.475,0.085 -1.484,2.382 0,2.298c5.825,-0.336 11.975,1.241 13.948,7.35c1.458,4.511 -0.654,9.609 -4.509,12.17c-13.659,9.071 -26.018,-16.686 -9.134,-19.562c1.462,-0.248 0.84,-2.463 -0.611,-2.215" style="fill-rule:nonzero;"/><path d="M750.551,911.816c-4.411,0.752 -6.306,4.906 -4.973,8.981c1.315,4.022 5.77,5.942 9.692,4.545c3.305,-1.178 4.868,-4.692 4.384,-7.999c-0.619,-4.22 -5.067,-5.782 -8.797,-5.567c-1.475,0.085 -1.484,2.382 0,2.298c2.64,-0.153 5.527,0.456 6.433,3.261c0.65,2.009 -0.269,4.306 -1.994,5.452c-6.129,4.073 -11.761,-7.455 -4.133,-8.754c1.462,-0.248 0.84,-2.463 -0.611,-2.215" style="fill-rule:nonzero;"/><path d="M739.71,938.263c-2.509,0.426 -3.649,2.889 -2.892,5.205c0.751,2.294 3.294,3.487 5.562,2.678c1.977,-0.706 2.891,-2.731 2.598,-4.715c-0.344,-2.358 -2.859,-3.33 -4.962,-3.209c-1.475,0.085 -1.484,2.382 0,2.298c1.037,-0.061 2.301,0.07 2.671,1.213c0.243,0.754 -0.079,1.647 -0.735,2.082c-2.36,1.57 -4.621,-2.829 -1.631,-3.338c1.462,-0.248 0.84,-2.463 -0.611,-2.215" style="fill-rule:nonzero;"/></g></g><g><path d="M547.741,352.579c-5.98,-5.505 -7.206,-12.737 -7.274,-20.538c-0.041,-4.474 -6.645,-4.404 -6.904,0c-0.004,0.061 -0.013,0.119 -0.017,0.18c-0.525,0.38 -0.967,0.923 -1.241,1.662c-0.195,0.529 -0.331,1.057 -0.434,1.583c-5.822,9.651 2.033,21.268 12.512,22.874c3.121,0.48 6.155,-3.185 3.358,-5.76" style="fill:#ff6347;fill-rule:nonzero;"/><path d="M577.198,344.308c-0.751,-0.669 -1.523,-1.423 -2.294,-2.246c0.23,-0.776 0.16,-1.66 -0.388,-2.57c-2.879,-4.772 -5.868,-9.473 -8.745,-14.245c-0.201,-0.335 -0.438,-0.592 -0.689,-0.818c-0.306,-1.645 -0.403,-3.259 -0.221,-4.795c0.315,-2.656 -3.145,-4.216 -5.194,-2.976c-2.822,1.709 -5.615,2.731 -8.841,3.33c-2.252,0.415 -3.082,3.253 -2.064,5.06c1.556,2.766 2.576,5.661 3.397,8.653c0.037,0.136 0.075,0.267 0.114,0.399c0.263,0.987 0.508,1.983 0.744,2.99c0.206,0.882 0.65,1.496 1.21,1.895c2.18,4.266 5.186,8.049 7.423,12.714c0.838,1.752 3.165,2.053 4.722,1.237c2.997,-1.568 5.978,-2.371 9.301,-2.869c2.559,-0.382 3.325,-4.156 1.524,-5.76" style="fill:#ff6347;fill-rule:nonzero;"/><path d="M604.921,325.822c-2.185,-1.757 -4.636,-2.86 -7.184,-3.766c2.248,-1.511 4.507,-3.009 6.718,-4.573c2.069,-1.463 0.869,-4.885 -1.773,-4.198c-2.762,0.717 -5.413,1.713 -8.04,2.796c0.269,-0.586 0.571,-1.163 0.972,-1.719c0.377,-0.526 0.412,-1.184 0.221,-1.781c1.583,-1.86 3.049,-3.801 3.883,-6.275c0.922,-2.729 -2.62,-5.679 -5.07,-3.891c-4.223,3.079 -7.607,6.736 -9.41,11.71c-0.156,0.434 -0.21,0.834 -0.206,1.211c-1.184,2.286 0.495,4.387 2.489,4.843c-0.044,0.274 -0.09,0.546 -0.107,0.834c-0.088,1.654 1.259,3.066 2.815,3.378c0.147,0.085 0.309,0.158 0.486,0.215c0.206,0.066 0.414,0.127 0.62,0.191c-0.107,0.836 -0.208,1.674 -0.387,2.498c-0.315,1.458 0.661,2.893 2.219,2.908c3.575,0.031 7.252,0.463 10.737,-0.542c1.523,-0.437 2.421,-2.713 1.016,-3.84" style="fill:#ff6347;fill-rule:nonzero;"/><path d="M562.639,315.157c-14.119,3.864 -33.009,10.037 -34.48,27.681c-1.552,18.636 19.829,16.459 32.103,13.254c11.516,-3.009 34.329,-11.037 32.17,-26.705c-2.044,-14.814 -17.485,-17.823 -29.793,-14.23c-1.421,0.415 -0.816,2.632 0.611,2.215c10.728,-3.132 23.756,-1.369 26.759,11.149c3.36,14.02 -17.829,21.056 -27.399,24.442c-12.473,4.415 -37.588,6.639 -31.083,-14.094c4.409,-14.055 19.188,-18.068 31.724,-21.497c1.429,-0.391 0.821,-2.608 -0.611,-2.215" style="fill-rule:nonzero;"/><path d="M537.901,327.597c1.526,10.043 4.231,21.632 11.341,29.304c1.011,1.09 2.635,-0.54 1.629,-1.625c-6.814,-7.348 -9.287,-18.656 -10.752,-28.289c-0.221,-1.461 -2.439,-0.838 -2.219,0.61" style="fill-rule:nonzero;"/><path d="M546.45,321.778c1.171,11.33 8.092,24.223 16.294,32.059c1.073,1.024 2.701,-0.599 1.628,-1.625c-7.711,-7.365 -14.519,-19.783 -15.62,-30.434c-0.151,-1.459 -2.454,-1.474 -2.301,0" style="fill-rule:nonzero;"/><path d="M562.448,317.183c2.81,11.223 9.771,20.413 15.458,30.294c0.738,1.285 2.729,0.129 1.988,-1.158c-5.588,-9.703 -12.466,-18.72 -15.228,-29.747c-0.359,-1.437 -2.578,-0.827 -2.219,0.61" style="fill-rule:nonzero;"/><path d="M585.532,317.795c1.683,-4.564 3.493,-9.019 7.011,-12.5c3.331,-3.299 6.709,-2.27 5.326,2.746c-0.746,2.713 -2.421,5.306 -3.509,7.918c-0.407,0.972 0.897,1.766 1.69,1.298c0.609,-0.36 9.012,-4.402 8.782,-3.062c-0.475,2.75 -4.94,5.747 -6.875,7.205c-0.711,0.535 -0.814,1.884 0.274,2.101c2.688,0.531 10.995,2.479 4.455,4.635c-3.279,1.081 -6.867,1.178 -10.286,1.072c-1.484,-0.046 -1.478,2.252 0,2.298c4.096,0.127 12.567,0.329 15.357,-3.603c3.22,-4.538 -6.707,-6.181 -8.915,-6.619l0.276,2.101c1.948,-1.469 10.1,-7.043 7.854,-10.609c-2.46,-3.906 -9.681,1.075 -12.085,2.496c0.563,0.432 1.127,0.866 1.69,1.298c2.193,-5.266 5.054,-9.446 3.682,-15.314c-0.11,-0.472 -0.619,-0.875 -1.11,-0.844c-9.263,0.588 -13,9.074 -15.837,16.774c-0.514,1.393 1.712,1.989 2.219,0.61" style="fill-rule:nonzero;"/><path d="M527.348,340.848c-4.838,-0.129 -14.316,0.68 -17.122,5.58c-3.22,5.626 8.615,5.336 10.986,5.295c-0.193,-0.715 -0.387,-1.426 -0.58,-2.141c-4.761,2.228 -8.76,5.81 -8.548,11.409c0.026,0.662 0.506,1.101 1.151,1.149c4.524,0.342 8.259,-1.25 12.24,-3.22l-1.574,-1.572c-1.545,2.033 -7.04,9.942 -0.775,10.004c5.584,0.055 11.426,-6.264 13.81,-10.684c0.703,-1.305 -1.283,-2.463 -1.988,-1.158c-1.898,3.522 -4.792,6.238 -8.239,8.24c-1.112,0.647 -2.763,1.496 -4.117,1.277c-1.16,-0.187 3.034,-6.176 3.297,-6.521c0.76,-1 -0.652,-2.027 -1.574,-1.572c-3.623,1.796 -6.95,3.22 -11.08,2.908l1.151,1.149c-0.184,-4.83 3.415,-7.556 7.407,-9.424c1.062,-0.496 0.514,-2.162 -0.58,-2.141c-2.578,0.044 -5.144,0.057 -7.664,-0.551c-2.819,-0.678 -0.412,-2.241 0.948,-3.024c3.783,-2.18 8.565,-2.821 12.853,-2.706c1.486,0.039 1.482,-2.259 0,-2.298" style="fill-rule:nonzero;"/><path d="M533.562,340.159c0.121,3.88 1.888,7.13 3.843,10.39c0.763,1.271 2.753,0.117 1.988,-1.158c-1.734,-2.89 -3.422,-5.777 -3.529,-9.231c-0.045,-1.479 -2.348,-1.485 -2.302,-0.001" style="fill-rule:nonzero;"/><path d="M558.268,334c1.215,2.393 2.692,4.591 4.295,6.738c0.878,1.173 2.878,0.029 1.988,-1.16c-1.605,-2.147 -3.082,-4.345 -4.295,-6.738c-0.672,-1.323 -2.657,-0.158 -1.988,1.16" style="fill-rule:nonzero;"/><path d="M574.838,324.81c1.405,2.763 2.995,5.433 4.181,8.302c0.556,1.349 2.784,0.759 2.219,-0.61c-1.263,-3.058 -2.916,-5.906 -4.411,-8.852c-0.672,-1.322 -2.657,-0.158 -1.988,1.16" style="fill-rule:nonzero;"/></g><g><path d="M947.899,1351.7c-7.046,8.875 -14.667,16.539 -19.461,26.183c-1.948,1.075 -3.483,3.017 -3.744,5.304c-10.475,6.029 -21.78,10.365 -32.723,15.476c-8.238,1.471 -16.767,3.771 -25.101,4.968c-4.923,-0.095 -9.922,-0.477 -15.047,-1.136c-2.124,-0.618 -4.271,-1.189 -6.442,-1.701c-10.559,-5.748 -19.518,-10.915 -28.065,-19.889c-5.931,-6.227 -10.491,-13.773 -13.862,-22.004c-1.195,-4.623 -2.468,-9.29 -4.002,-13.843c-0.411,-1.411 -0.865,-2.803 -1.337,-4.187c-2.904,-15.077 -2.539,-30.957 0.551,-44.736c0.161,-0.713 0.179,-1.374 0.137,-2.007c0.494,-0.881 1.003,-1.759 1.49,-2.646c8.669,-15.771 21.562,-28.201 34.506,-40.618c10.712,-2.098 20.739,-6.112 30.819,-9.432c0.173,0.01 0.329,0.047 0.512,0.045c3.513,-0.041 7.065,-0.228 10.616,-0.345c1.779,0.82 3.708,1.301 5.654,1.525c1.483,0.174 2.968,0.276 4.458,0.359c1.326,0.074 1.809,0.117 2.476,0.214c1.045,0.153 2.077,0.083 3.05,-0.146c6.126,1.88 12.073,4.398 17.861,7.089c19.146,8.898 35.176,25.839 43.078,45.301c6.966,17.153 6.316,41.438 -5.423,56.227m100.531,-42.028c-0.114,-0.222 -0.246,-0.431 -0.378,-0.642c-0.09,-0.138 -0.146,-0.279 -0.247,-0.417c-6.246,-8.512 -15.013,-14.645 -22.419,-21.981c-2.748,-3.324 -5.532,-6.621 -8.127,-10.007c-1.537,-2.818 -3.098,-5.606 -4.953,-8.236c-1.495,-2.115 -3.949,-3.229 -6.376,-2.956c-9.544,-11.445 -20.905,-21.628 -31.878,-31.713c-4.894,-5.941 -9.882,-11.814 -14.925,-17.636c-1.17,-1.351 -2.484,-1.953 -3.782,-2.052c-2.015,-2.311 -4.03,-4.616 -6.109,-6.873c-9.801,-10.649 -20.261,-20.686 -30.792,-30.605c-4.607,-4.336 -8.983,-8.63 -14.111,-11.424c-1.542,-1.868 -3.21,-3.638 -5.142,-5.212c-3.465,-2.826 -7.69,-1.754 -9.775,1.336c-0.656,-0 -1.318,0.068 -1.966,0.287c-4.179,1.415 -7.565,4.06 -10.165,7.591c-0.031,0.043 -0.05,0.088 -0.081,0.131c-3.122,2.823 -5.906,6.016 -8.267,8.721c-10.927,12.512 -20.756,25.924 -31.772,38.368c-0.883,0.997 -1.36,2.289 -1.488,3.639c-23.796,11.109 -49.205,25.633 -55.458,50.913c-3.81,7.769 -6.683,15.999 -12.11,22.861c-10.451,13.218 -29.162,20.804 -43.554,28.793c-6.086,3.376 -11.735,9.35 -12.636,16.095c-0.869,0.776 -1.576,1.811 -1.968,3.181c-1.544,5.39 -1.615,11.624 3.713,14.927c1.783,1.107 3.77,1.429 5.788,1.342c5.292,5.522 10.901,10.718 16.403,16.025c0.098,0.988 0.405,1.946 1.032,2.776c0.347,0.46 0.719,0.904 1.09,1.346c0.446,0.734 1.006,1.361 1.651,1.859c0.063,0.069 0.127,0.141 0.191,0.21c0.329,0.341 0.66,0.681 0.991,1.027c0.08,0.089 0.161,0.177 0.241,0.266c0.043,0.056 0.076,0.101 0.145,0.188c0.57,0.757 1.257,1.371 2.01,1.86c5.92,7.293 11.744,14.563 19.459,20.13c1.022,0.735 2.085,1.115 3.143,1.262c4.007,4.401 8.272,8.586 12.949,12.433c14.975,12.319 27.058,27.691 42.531,39.283c8.69,14.206 24.848,22.204 36.144,34.605c3.169,3.479 8.134,1.344 10.338,-1.828c0.606,-0.869 1.266,-1.694 1.915,-2.524c14.834,-7.561 26.008,-19.435 37.372,-31.51c15.578,-16.543 33.888,-30.301 50.217,-46.128c15.847,-15.363 31.228,-31.148 47.408,-46.174c15.448,-14.345 30.995,-28.887 43.274,-46.116c1.65,-2.313 1.613,-4.857 0.688,-6.965c-0.064,-0.152 -0.137,-0.304 -0.212,-0.455" style="fill:#ff6347;fill-rule:nonzero;"/><path d="M899.536,1294.358c-1.016,-0.983 -2.108,-1.499 -3.194,-1.712c-3.209,-4.762 -7.175,-8.782 -11.9,-9.543c-21.883,-3.52 -13.465,29.798 -8.242,45.476c-13.734,-3.097 -29.342,-6.368 -38.426,-0.998c-3.061,1.051 -5.208,2.283 -7.454,4.655c-2.391,2.52 -2.2,6.652 0.19,9.079c0.621,5.765 6.198,9.356 13.678,11.487c16.388,7.471 33.85,5.106 51.864,3.344c1.08,0.45 2.287,0.622 3.554,0.481c0.005,-0.002 0.008,0 0.014,0.001c0.488,-0.058 0.982,-0.157 1.48,-0.307c0.402,-0.12 0.771,-0.288 1.128,-0.48c1.027,-0.518 1.805,-1.222 2.348,-2.046c3.15,0.405 6.445,-1.18 7.139,-4.923c1.179,-6.344 0.735,-12.528 -0.751,-18.499c0.206,-4.195 -0.303,-8.408 -1.575,-12.424c-0.466,-8.743 -3.463,-17.407 -9.853,-23.59" style="fill:#ff6347;fill-rule:nonzero;"/><path d="M972.072,1232.594c19.116,17.005 36.365,36.253 53.97,54.773c8.092,8.514 16.163,17.046 24.369,25.444c0.548,0.561 -0.234,0.958 -2.025,2.828c-2.024,2.111 -4.07,4.199 -6.121,6.286c-27.991,28.505 -56.656,56.378 -85.328,84.197c-27.602,26.783 -55.038,53.997 -84.097,79.221c-2.697,2.341 -5.437,4.84 -8.496,6.717c-2.495,1.529 -10.584,-6.06 -12.299,-7.404c-15.775,-12.374 -30.199,-26.61 -44.619,-40.497c-18.926,-18.23 -37.458,-36.863 -55.996,-55.486c-25.447,-25.57 -53.768,-48.359 -76.442,-76.561c-0.609,-0.758 -1.919,-1.151 -2.619,-0.219c-3.111,3.949 -7.112,5.774 -12.011,5.48c-2.888,-1.63 -5.442,-1.603 -7.658,0.089c1.206,-1.626 2.505,-3.177 3.808,-4.725c3.406,-4.055 7.045,-7.917 10.695,-11.752c9.52,-10 19.489,-19.578 29.496,-29.087c26.409,-25.087 53.601,-49.348 80.912,-73.445c24.325,-21.461 48.845,-42.704 73.52,-63.764c7.834,-6.682 15.679,-13.349 23.583,-19.948c1.932,-1.614 3.867,-3.229 5.831,-4.805c0.354,-0.288 0.714,-0.578 1.091,-0.838c-1.122,4.59 -2.5,9.104 -4.135,13.538c-1.49,3.75 -3.941,7.33 -6.268,10.573c-0.543,0.752 -0.6,1.655 0.106,2.339c33.381,32.442 69.274,62.687 100.733,97.044c1.442,1.572 3.667,-0.883 2.235,-2.449c-20.645,-22.547 -43.586,-43.131 -65.845,-64.058c-10.312,-9.696 -20.664,-19.354 -30.899,-29.134c-4.605,-4.403 0.235,-7.408 2.874,-12.78c2.687,-5.476 3.536,-11.151 1.944,-16.992c-0.298,-1.097 -1.573,-1.397 -2.479,-0.898c-11.244,6.184 -21.534,17.917 -31.222,26.181c-23.951,20.424 -47.727,41.053 -71.351,61.851c-26.165,23.032 -52.141,46.294 -77.56,70.148c-17.275,16.208 -35.944,32.531 -50.153,51.615c-0.783,1.052 -0.384,2.309 0.853,2.729c4.309,1.463 9.163,2.59 13.742,1.566c2.784,-0.623 9.021,-5.178 11.003,-2.716c12.29,15.286 26.78,28.766 41.112,42.096c14.101,13.116 27.886,26.367 41.467,40.006c29.701,29.825 59.096,61.002 92.019,87.346c4.046,3.235 11.557,10.915 17.146,7.212c8.815,-5.838 16.534,-13.966 24.274,-21.082c32.079,-29.509 63.276,-60.001 94.425,-90.484c23.052,-22.556 46.759,-44.773 68.606,-68.516c0.635,-0.689 0.52,-1.697 -0.108,-2.338c-26.66,-27.083 -51.426,-56.468 -79.847,-81.752c-1.593,-1.416 -3.833,1.026 -2.235,2.449" style="fill-rule:nonzero;"/><path d="M710.354,1348.211c2.592,-26.81 25.714,-27.816 44.637,-39.479c17.477,-10.77 22.513,-33.237 31.453,-50.266c13.055,-24.871 41.721,-26.95 59.908,-45.957c7.009,-7.323 11.698,-17.325 16.93,-25.907c8.078,-13.261 18.056,-21.887 32.7,-27.381c1.995,-0.748 1.017,-3.911 -0.988,-3.159c-22.521,8.447 -31.661,24.723 -43.872,44.134c-16.386,26.037 -49.377,27.884 -65.832,53.637c-6.394,10.008 -10.076,21.662 -15.358,32.251c-7.176,14.386 -18.2,21.774 -32.645,27.638c-17.383,7.054 -28.338,14.846 -30.248,34.604c-0.209,2.124 3.11,1.977 3.313,-0.115" style="fill-rule:nonzero;"/><path d="M660.067,1302.905c-10.699,-16.918 -22.934,-32.809 -32.29,-50.552c-10.205,-19.355 -14.862,-41.541 -14.87,-63.307c-0.012,-38.599 19.584,-78.911 47.442,-105.05c30.443,-28.564 75.517,-43.626 115.515,-28c34.098,13.315 57.895,44.625 84.509,68.186c1.598,1.415 3.841,-1.029 2.239,-2.448c-29.24,-25.88 -54.417,-58.151 -92.546,-71.379c-37.414,-12.977 -80.851,3.629 -109.221,28.801c-29.14,25.854 -47.469,63.765 -50.914,102.459c-1.95,21.824 2.806,44.103 11.12,64.185c8.834,21.343 23.969,39.518 36.227,58.897c1.139,1.802 3.93,0.011 2.788,-1.793" style="fill-rule:nonzero;"/><path d="M822.423,1260.188c-34.384,27.646 -33.599,81.553 -10.183,116.003c27.461,40.401 81.853,32.669 114.455,4.317c15.829,-13.767 30.447,-35.487 31.897,-56.927c1.415,-20.877 -7.284,-39.46 -21.302,-54.533c-30.022,-32.274 -81.777,-39.037 -115.195,-8.586c-1.579,1.439 0.88,3.659 2.449,2.233c32.122,-29.275 78.524,-21.518 108.463,6.74c14.17,13.372 22.835,31.891 22.463,51.437c-0.399,21.025 -14.439,41.074 -28.881,55.241c-31.024,30.438 -83.699,36.092 -111.561,-1.715c-23.484,-31.877 -22.885,-85.639 9.188,-111.428c1.646,-1.322 -0.125,-4.125 -1.792,-2.783" style="fill-rule:nonzero;"/><path d="M911.557,1349.764c-20.072,10.017 -49.489,12.164 -70.185,2.319c-12.767,-6.076 -16.847,-23.188 1.369,-25.967c10.024,-1.527 21.761,2.019 31.172,5.297c1.331,0.463 2.144,-1.034 1.953,-2.109c-2.096,-11.781 -14.299,-57.136 12.723,-43.39c18.193,9.254 23.312,47.424 22.206,65.3c-0.134,2.131 3.182,1.993 3.315,-0.115c1.302,-21.027 -4.948,-58.433 -25.862,-69.073c-24.337,-12.382 -20.712,22.706 -18.267,35.139c0.551,2.813 1.184,5.611 1.79,8.409c1.016,4.707 1.1,1.945 -3.088,0.666c-8.413,-2.566 -17.273,-3.83 -26.054,-3.432c-7.993,0.36 -18.924,7.547 -16.173,16.86c3.584,12.132 15.022,16.862 26.346,19.342c20.183,4.418 41.995,2.795 60.547,-6.464c1.909,-0.952 0.101,-3.73 -1.792,-2.783" style="fill-rule:nonzero;"/><path d="M662.524,1301.677c-8.888,-25.668 -2.849,-47.008 18.235,-63.714c10.256,-8.127 21.884,-15.552 25.813,-28.709c0.612,-2.05 -2.625,-2.772 -3.232,-0.737c-5.757,19.291 -28.638,25.265 -39.411,40.98c-11.257,16.416 -10.865,34.989 -4.57,53.169c0.696,2.013 3.863,1.031 3.164,-0.989" style="fill-rule:nonzero;"/><path d="M668.199,1243.544c-17.545,-12.336 -14.738,-37.998 3.335,-47.965c10.595,-5.842 21.156,-8.406 28.258,-18.993c1.19,-1.776 -1.757,-3.293 -2.937,-1.537c-9.494,14.164 -30.634,13.341 -39.067,27.992c-8.237,14.299 -5.712,33.186 8.175,42.952c1.72,1.21 3.981,-1.22 2.235,-2.449" style="fill-rule:nonzero;"/><path d="M674.78,1188.426c-24.331,-12.923 53.726,-63.909 18.836,-88.761c-1.718,-1.222 -3.977,1.207 -2.235,2.449c34.603,24.645 -50.263,72.178 -18.142,89.248c1.891,1.001 3.427,-1.934 1.541,-2.937" style="fill-rule:nonzero;"/><path d="M692.816,1103.385c14.553,0.294 28.805,19.527 27.804,33.561c-0.151,2.131 3.168,1.992 3.315,-0.115c1.135,-15.951 -14.871,-36.423 -31.231,-36.754c-2.145,-0.045 -2.014,3.265 0.112,3.308" style="fill-rule:nonzero;"/><path d="M722.329,1124.231c4.781,-12.502 14.612,-23.56 28.517,-25.294c17.874,-2.228 22.684,17.041 22.194,30.871c-0.076,2.138 3.239,2.006 3.313,-0.115c0.497,-14.02 -3.843,-32.729 -20.909,-34.03c-16.947,-1.294 -30.394,12.242 -36.055,27.031c-0.753,1.972 2.176,3.531 2.939,1.536" style="fill-rule:nonzero;"/><path d="M773.121,1114.345c10.231,-6.741 38.161,-26.766 45.121,-5.997c3.382,10.089 -1.766,22.859 -2.653,33.123c-0.182,2.129 3.135,1.983 3.315,-0.115c1.041,-12.046 8.067,-29.154 -0.605,-39.803c-12.305,-15.112 -36.176,2.892 -46.97,10.009c-1.781,1.175 0.005,3.963 1.792,2.783" style="fill-rule:nonzero;"/><path d="M822.42,1123.901c10.383,-7.321 25.214,-3.913 35.775,1.319c1.913,0.945 3.456,-1.985 1.539,-2.936c-11.619,-5.753 -27.726,-9.187 -39.106,-1.166c-1.742,1.227 0.039,4.019 1.792,2.783" style="fill-rule:nonzero;"/><path d="M677.855,1212.557c3.466,0.037 6.909,-0.309 10.244,-1.294c2.053,-0.606 1.063,-3.764 -0.988,-3.159c-3.06,0.904 -6.186,1.179 -9.368,1.145c-2.144,-0.023 -2.016,3.285 0.112,3.308" style="fill-rule:nonzero;"/><path d="M703.148,1187.72c0.282,3.721 1.287,7.263 2.393,10.809c0.637,2.037 3.801,1.048 3.164,-0.989c-1.018,-3.266 -1.983,-6.504 -2.244,-9.935c-0.159,-2.125 -3.472,-2.013 -3.313,0.115" style="fill-rule:nonzero;"/><path d="M691.47,1165.588c4.576,0.708 9.202,1.046 13.821,1.402c2.132,0.163 1.994,-3.151 -0.112,-3.311c-4.331,-0.333 -8.666,-0.653 -12.965,-1.321c-2.106,-0.327 -2.858,2.902 -0.744,3.229" style="fill-rule:nonzero;"/><path d="M719.983,1155.642c0.549,4.575 1.812,8.952 3.18,13.337c0.637,2.037 3.801,1.048 3.164,-0.989c-1.278,-4.097 -2.52,-8.184 -3.032,-12.462c-0.25,-2.108 -3.569,-2.002 -3.313,0.115" style="fill-rule:nonzero;"/><path d="M728.993,1141.566c3.619,1.807 7.565,2.501 11.525,3.141c2.104,0.338 2.854,-2.887 0.744,-3.229c-3.666,-0.59 -7.377,-1.17 -10.728,-2.849c-1.909,-0.951 -3.455,1.979 -1.541,2.937" style="fill-rule:nonzero;"/><path d="M748.365,1119.028c-0.04,3.144 0.136,6.355 1.02,9.388c0.595,2.053 3.757,1.059 3.164,-0.989c-0.802,-2.751 -0.909,-5.664 -0.872,-8.513c0.028,-2.142 -3.285,-2.011 -3.313,0.115" style="fill-rule:nonzero;"/><path d="M742.882,1167.087c4.169,0.644 8.38,0.976 12.551,1.625c2.105,0.324 2.853,-2.9 0.744,-3.229c-4.17,-0.647 -8.381,-0.978 -12.551,-1.625c-2.106,-0.327 -2.858,2.902 -0.744,3.229" style="fill-rule:nonzero;"/><path d="M762.753,1141.345c0.508,4.283 1.637,8.391 2.917,12.496c0.637,2.037 3.801,1.048 3.164,-0.989c-1.191,-3.819 -2.294,-7.639 -2.769,-11.621c-0.248,-2.109 -3.566,-2.003 -3.313,0.115" style="fill-rule:nonzero;"/><path d="M783.022,1151.938c2.906,0.104 5.736,0.892 8.647,0.995c2.142,0.079 2.011,-3.231 -0.112,-3.308c-2.906,-0.104 -5.736,-0.892 -8.647,-0.995c-2.142,-0.079 -2.011,3.231 0.112,3.308" style="fill-rule:nonzero;"/><path d="M797.038,1117.683c0.153,3.725 -0.373,7.438 -0.217,11.164c0.086,2.134 3.401,2.016 3.313,-0.115c-0.153,-3.725 0.37,-7.439 0.217,-11.164c-0.086,-2.134 -3.401,-2.016 -3.313,0.115" style="fill-rule:nonzero;"/><path d="M765.799,1171.835c-0.355,4.516 -0.825,8.969 -2.875,13.077c-0.95,1.912 1.981,3.448 2.939,1.534c2.309,-4.639 2.85,-9.63 3.249,-14.726c0.168,-2.13 -3.147,-1.987 -3.313,0.115" style="fill-rule:nonzero;"/><path d="M727.457,1188.441c2.01,2.784 4.157,5.164 7.211,6.834c1.879,1.024 3.416,-1.908 1.542,-2.934c-2.55,-1.392 -4.289,-3.373 -5.964,-5.692c-1.244,-1.722 -4.042,0.057 -2.788,1.793" style="fill-rule:nonzero;"/><path d="M723.598,1225.202c0.899,-3.052 1.947,-5.816 4.252,-8.104c1.515,-1.508 -0.937,-3.735 -2.448,-2.231c-2.7,2.686 -3.983,6.014 -5.037,9.595c-0.602,2.055 2.633,2.778 3.232,0.74" style="fill-rule:nonzero;"/><path d="M698.015,1236.483c2.159,3.431 5.011,6.304 8.583,8.255c1.879,1.024 3.416,-1.908 1.542,-2.934c-3.086,-1.685 -5.476,-4.156 -7.337,-7.114c-1.134,-1.806 -3.926,-0.016 -2.788,1.793" style="fill-rule:nonzero;"/><path d="M678.286,1269.883c0.876,-2.868 2.261,-5.54 3.651,-8.188c0.994,-1.895 -1.942,-3.429 -2.937,-1.537c-1.521,2.903 -2.986,5.844 -3.947,8.985c-0.624,2.048 2.61,2.768 3.232,0.74" style="fill-rule:nonzero;"/><path d="M744.313,1210.336l8.437,-2.638c2.04,-0.638 1.053,-3.797 -0.988,-3.159l-8.437,2.638c-2.04,0.638 -1.053,3.797 0.988,3.159" style="fill-rule:nonzero;"/><path d="M802.377,1154.085c-1.829,3.493 -3.563,7.02 -4.263,10.931c-0.373,2.097 2.856,2.844 3.232,0.74c0.652,-3.647 2.261,-6.882 3.97,-10.135c0.991,-1.897 -1.947,-3.428 -2.939,-1.536" style="fill-rule:nonzero;"/><path d="M826.757,1139.252l10.971,-3.43c2.04,-0.638 1.053,-3.797 -0.988,-3.159l-10.971,3.43c-2.04,0.638 -1.053,3.797 0.988,3.159" style="fill-rule:nonzero;"/><path d="M673.894,1161.885c-27.616,-18.775 -54.937,-37.965 -80.416,-59.583c-13.198,-11.196 -19.623,-21.047 -11.532,-37.688c4.832,-9.938 11.605,-19.199 17.617,-28.464c5.478,-8.443 11.02,-16.847 16.675,-25.176c3.735,-5.501 2.199,-3.997 6.884,-0.451c1.973,1.494 3.948,2.985 5.921,4.479c4.495,3.411 -10.821,21.723 -13.676,26.086c-7.613,11.646 -14.15,23.901 -20.354,36.341c-0.317,0.64 -0.23,1.514 0.353,1.992c29.205,23.955 59.719,46.329 88.49,70.814c1.621,1.38 3.865,-1.058 2.235,-2.449c-22.765,-19.371 -46.63,-37.471 -70.061,-56.024c-5.059,-4.006 -10.107,-8.029 -15.125,-12.089c-4.634,-3.747 6.383,-18.721 8.968,-23.285c7.658,-13.521 16.809,-26.152 25.278,-39.167c0.375,-0.578 0.193,-1.578 -0.351,-1.993c-5.055,-3.832 -10.113,-7.658 -15.169,-11.484c-0.699,-0.528 -1.722,-0.627 -2.345,0.109c-8.551,10.133 -15.245,22.418 -22.443,33.506c-8.264,12.737 -20.489,27.048 -20.586,42.924c-0.098,16.975 24.387,30.835 35.525,39.637c20.141,15.919 41.352,30.472 62.569,44.903c1.767,1.198 3.285,-1.748 1.541,-2.937" style="fill-rule:nonzero;"/><path d="M692.493,1309.253c5.185,2.515 10.875,2.54 16.346,0.946c2.055,-0.601 1.062,-3.758 -0.988,-3.159c-4.62,1.345 -9.423,1.412 -13.817,-0.724c-1.92,-0.931 -3.466,1.999 -1.541,2.937" style="fill-rule:nonzero;"/><path d="M706.867,1284.989c4.03,4.244 7.413,8.957 10.634,13.831c1.175,1.777 3.971,-0.01 2.791,-1.793c-3.382,-5.112 -6.966,-10.034 -11.19,-14.487c-1.467,-1.547 -3.699,0.907 -2.235,2.449" style="fill-rule:nonzero;"/><path d="M735.369,1297.28c3.691,-1.09 7.539,-1.483 11.232,-2.585c2.052,-0.611 1.061,-3.769 -0.988,-3.159c-3.693,1.102 -7.541,1.495 -11.232,2.585c-2.053,0.606 -1.063,3.764 0.988,3.159" style="fill-rule:nonzero;"/><path d="M730.38,1268.901c2.22,3.52 5.157,6.397 8.5,8.853c1.703,1.251 3.957,-1.182 2.236,-2.447c-3.126,-2.293 -5.872,-4.908 -7.948,-8.199c-1.136,-1.803 -3.928,-0.015 -2.788,1.793" style="fill-rule:nonzero;"/><path d="M756.746,1274.944c0.981,-3.192 2.559,-6.204 2.734,-9.591c0.11,-2.137 -3.207,-1.999 -3.315,0.115c-0.154,3.019 -1.774,5.881 -2.652,8.735c-0.627,2.046 2.61,2.768 3.232,0.74" style="fill-rule:nonzero;"/><path d="M750.177,1242.784c3.686,2.618 7.559,4.642 11.818,6.176c2.01,0.723 2.726,-2.517 0.742,-3.228c-3.679,-1.324 -7.137,-3.131 -10.324,-5.397c-1.715,-1.22 -3.976,1.21 -2.235,2.449" style="fill-rule:nonzero;"/><path d="M783.917,1243.333c0.825,-2.968 0.984,-6 1.046,-9.063c0.04,-2.14 -3.273,-2.009 -3.315,0.115c-0.055,2.791 -0.211,5.503 -0.963,8.207c-0.574,2.066 2.662,2.791 3.232,0.74" style="fill-rule:nonzero;"/><path d="M780.622,1210.77c3.873,1.428 7.264,3.849 10.587,6.239c1.713,1.232 3.974,-1.201 2.236,-2.447c-3.824,-2.747 -7.63,-5.377 -12.079,-7.021c-2.004,-0.738 -2.717,2.5 -0.744,3.229" style="fill-rule:nonzero;"/><path d="M816.566,1217.405c0.552,-3.515 0.771,-7.071 1.323,-10.586c0.327,-2.102 -2.902,-2.849 -3.232,-0.74c-0.549,3.515 -0.771,7.071 -1.323,10.586c-0.329,2.103 2.902,2.849 3.232,0.74" style="fill-rule:nonzero;"/><path d="M811.058,1183.686c3.996,1.442 7.758,3.412 11.517,5.374c1.896,0.989 3.435,-1.945 1.542,-2.934c-4.021,-2.097 -8.04,-4.128 -12.315,-5.668c-2.012,-0.722 -2.726,2.514 -0.744,3.229" style="fill-rule:nonzero;"/><path d="M843.878,1194.582c0.066,-2.625 0.243,-5.144 -0.497,-7.704c-0.592,-2.054 -3.755,-1.059 -3.164,0.989c0.65,2.247 0.406,4.525 0.348,6.829c-0.053,2.142 3.259,2.008 3.313,-0.115" style="fill-rule:nonzero;"/><path d="M835.744,1164.872c3.996,1.442 7.758,3.412 11.517,5.374c1.896,0.989 3.435,-1.945 1.542,-2.934c-4.021,-2.097 -8.04,-4.128 -12.315,-5.668c-2.012,-0.722 -2.726,2.514 -0.744,3.229" style="fill-rule:nonzero;"/><path d="M860.219,1151.098c0.851,2.722 1.517,5.396 1.713,8.253c0.145,2.127 3.461,2.014 3.315,-0.115c-0.215,-3.142 -0.929,-6.126 -1.864,-9.127c-0.637,-2.037 -3.801,-1.048 -3.164,0.989" style="fill-rule:nonzero;"/><path d="M881.826,1302.422c8.881,9.572 14.202,20.489 15.848,33.476c0.268,2.102 3.582,2.001 3.315,-0.115c-1.761,-13.9 -7.405,-25.546 -16.928,-35.81c-1.453,-1.563 -3.678,0.892 -2.235,2.449" style="fill-rule:nonzero;"/><path d="M841.359,959.284c1.445,-19.164 3.554,-38.293 1.965,-57.518c-0.175,-2.123 -3.491,-2.013 -3.313,0.115c1.586,19.223 -0.521,38.352 -1.965,57.518c-0.162,2.131 3.156,1.987 3.313,-0.115" style="fill-rule:nonzero;"/><path d="M805.909,1011.12c-8.164,2.552 -4.214,15.188 3.95,12.636c8.164,-2.552 4.214,-15.188 -3.95,-12.636" style="fill:#ff6347;fill-rule:nonzero;"/></g><g><path d="M946.358,820.774c-31.346,-1.371 -55.619,24.718 -62.773,53.438c-2.894,11.616 -2.274,24.556 4.901,34.5c7.477,10.356 18.044,18.402 28.544,25.461c27.889,18.754 59.99,31.429 91.603,42.374c28.575,9.893 57.929,18.287 87.678,23.829c9.274,1.728 29.849,7.714 35.582,-3.901c6.252,-12.674 -11.937,-32.199 -18.889,-40.58c-18.512,-22.329 -40.314,-42.06 -62.26,-60.941c-22.751,-19.574 -46.448,-38.227 -71.289,-55.098c-10.295,-6.993 -20.95,-14.174 -32.496,-18.969c-1.366,-0.568 -2.38,1.495 -1.009,2.064c20.858,8.663 39.707,23.571 57.625,37.003c25.294,18.961 49.619,39.32 72.657,60.955c18.22,17.113 37.946,35.619 50.079,57.763c2.836,5.175 6.807,13.619 2.113,18.852c-4.351,4.85 -13.025,3.321 -18.622,2.653c-25.214,-3.009 -50.212,-10.115 -74.458,-17.401c-32.219,-9.681 -64.102,-21.451 -93.984,-36.977c-21.478,-11.158 -55.041,-28.763 -57.002,-56.105c-2.401,-33.447 28.405,-68.107 62.194,-66.631c1.479,0.066 1.271,-2.224 -0.193,-2.29" style="fill-rule:nonzero;"/><path d="M1096.31,1000.376l-60.967,-17.6l-41.808,-14.443c0,0 -16.559,-5.447 -24.93,-9.138c-10.051,-4.432 -35.375,-17.452 -35.375,-17.452c0,0 -18.278,-9.749 -24.929,-14.903c-5.874,-4.553 -15.318,-14.912 -15.318,-14.912c0,0 -9.736,-11.807 -8.938,-17.887c0.506,-3.856 0.002,-18.686 0.002,-18.686c0,0 7.079,-18.362 8.819,-21.309c2.985,-5.056 8.281,-11.778 8.281,-11.778c0,0 11.984,-10.946 18.518,-14.587c5.903,-3.289 26.627,-6.415 26.627,-6.415l21.179,12.303c0,0 23.086,17.138 30.338,22.023c13.235,8.916 37.873,29.493 37.873,29.493c0,0 37.205,31.942 52.103,46.267c12.982,12.483 36.592,40.979 36.592,40.979c0,0 7.533,16.845 7.458,21.226c-0.065,3.779 -10.563,8.448 -10.563,8.448l-24.964,-1.631Z" style="fill:#ff6347;"/><path d="M900.276,920.244c14.861,-18.158 23.825,-39.127 30.686,-61.385c0.436,-1.414 -1.831,-1.823 -2.262,-0.424c-6.754,21.902 -15.533,42.427 -30.165,60.302c-0.938,1.148 0.8,2.654 1.741,1.506" style="fill-rule:nonzero;"/><path d="M918.998,909.799c5.132,-7.769 8.573,-16.367 12.242,-24.88c0.586,-1.358 -1.482,-2.369 -2.068,-1.009c-3.67,8.513 -7.11,17.111 -12.242,24.88c-0.818,1.236 1.263,2.225 2.068,1.009" style="fill-rule:nonzero;"/><path d="M977.671,840.485c-0.919,13.634 -6.215,28.38 -15.57,38.508c-1.009,1.094 0.737,2.594 1.741,1.506c9.592,-10.387 15.146,-25.602 16.091,-39.59c0.098,-1.459 -2.163,-1.902 -2.262,-0.424" style="fill-rule:nonzero;"/><path d="M961.954,864.431c4.173,-3.152 5.62,-8.263 6.601,-13.177c0.291,-1.454 -1.971,-1.877 -2.262,-0.424c-0.851,4.261 -1.991,8.947 -5.641,11.702c-1.179,0.893 0.115,2.793 1.302,1.899" style="fill-rule:nonzero;"/><path d="M952.508,951.683c12.734,-13.438 15.95,-32.473 22.327,-49.22c0.524,-1.375 -1.541,-2.393 -2.068,-1.009c-6.309,16.566 -9.405,35.434 -21.999,48.723c-1.023,1.08 0.723,2.578 1.741,1.506" style="fill-rule:nonzero;"/><path d="M970.328,946.917c5.323,-5.652 8.894,-12.949 10.987,-20.373c0.402,-1.426 -1.864,-1.838 -2.262,-0.424c-1.981,7.027 -5.433,13.951 -10.466,19.291c-1.02,1.082 0.726,2.582 1.741,1.506" style="fill-rule:nonzero;"/><path d="M1018.824,872.111c-0.678,14.254 -11.968,27.54 -19.401,39.053c-0.805,1.244 1.276,2.236 2.068,1.009c7.774,-12.038 18.917,-25.334 19.626,-40.253c0.071,-1.475 -2.223,-1.27 -2.293,0.191" style="fill-rule:nonzero;"/><path d="M917.365,857.01c1.034,-4.975 2.947,-9.654 5.847,-13.838c0.837,-1.208 -0.898,-2.725 -1.741,-1.506c-3.137,4.53 -5.249,9.529 -6.368,14.92c-0.302,1.452 1.96,1.873 2.262,0.424" style="fill-rule:nonzero;"/><path d="M883.534,869.292c-12.85,4.846 -26.244,7.694 -39.811,9.691c-2.389,0.351 -4.847,0.058 -7.221,-0.258c-4.692,-0.629 -3.742,-5.79 0.084,-7.259c3.659,-1.403 8.26,-1.286 12.098,-2.091c6.863,-1.436 14.079,-9.08 4.522,-12.618c-12.408,-4.595 -27.714,-3.933 -40.753,-4.597c-18.88,-0.96 -37.379,-4.397 -55.866,-8.271c-3.273,-0.687 -6.52,-1.46 -9.748,-2.327c-3.606,-0.966 -10.737,-3.148 -2.475,-4.644c14.835,-2.683 29.998,1.464 44.667,3.413c5.753,0.765 35.312,1.024 18.868,-8.477c-10.221,-5.902 -22.701,-9.669 -33.834,-13.434c-9.32,-3.15 -21.382,-4.866 -27.695,-13.195c-3.427,-4.523 -0.01,-10.284 5.257,-8.486c1.548,0.528 3.021,1.313 4.479,2.044c3.217,1.613 6.303,3.519 9.315,5.476c11.748,7.635 24.927,12.584 37.218,19.233c5.332,2.885 10.702,5.091 16.732,5.8c0.869,0.103 1.579,-0.65 1.296,-1.515c-1.854,-5.687 -3.149,-11.586 -4.471,-17.411c-1.688,-7.44 -4.392,-16.377 -3.365,-24.081c0.121,-0.897 6.928,9.494 7.261,10.147c2.423,4.752 4.544,9.662 6.753,14.516c3.385,7.453 6.704,16.281 12.778,22.02c0.562,0.53 1.446,0.26 1.788,-0.366c1.451,-2.643 5.124,-11.105 10.113,-7.731c1.652,1.12 2.846,2.944 4.066,4.489c2.627,3.331 5.14,6.634 8.139,9.65c7.655,7.695 18.73,10.39 28.108,15.29c1.317,0.69 2.319,-1.379 1.009,-2.064c-9.332,-4.877 -19.766,-7.604 -27.611,-14.963c-4.817,-4.52 -8.199,-12.735 -14.523,-15.445c-3.5,-1.496 -6.928,2.385 -8.515,4.894c-3.142,4.97 -4.448,0.587 -6.508,-2.943c-2.934,-5.031 -5.249,-10.456 -7.656,-15.751c-1.209,-2.662 -10.809,-28.116 -16.317,-24.354c-5.222,3.565 1.306,22.912 2.314,27.466c1.206,5.438 2.531,10.867 4.093,16.212c-0.019,-0.067 -11.586,-4.441 -14.472,-5.925c-6.497,-3.343 -12.801,-6.644 -19.5,-9.579c-9.524,-4.172 -17.902,-10.259 -27.035,-15.13c-3.671,-1.96 -8.741,-4.562 -12.764,-2.227c-3.029,1.76 -1.932,8.137 -0.69,10.493c3.687,6.988 11.803,9.847 18.865,12.237c11.095,3.758 22.076,7.431 32.961,11.798c4.853,1.948 9.886,3.647 14.211,6.67c3.311,2.313 -7.093,2.982 -8.122,3.046c-5.094,0.315 -10.239,-0.411 -15.279,-1.081c-15.284,-2.032 -32.259,-6.911 -47.465,-1.749c-6.406,2.178 2.059,6.159 4.194,6.892c23.034,7.915 48.661,10.555 72.872,11.821c10.976,0.575 22.133,1.091 32.924,3.314c1.793,0.37 3.546,0.888 5.216,1.64c7.08,3.183 -5.658,7.536 -7.299,7.879c-3.625,0.76 -8.712,0.328 -11.981,2.288c-7.46,4.479 -7.515,9.368 1.321,11.244c6.64,1.41 13.792,-0.576 20.277,-1.789c9.523,-1.786 18.894,-4.321 27.954,-7.736c1.385,-0.524 0.615,-2.69 -0.776,-2.165" style="fill-rule:nonzero;"/><path d="M894.271,852.468c-11.469,-14.697 -28.176,-24.855 -40.249,-39.162c-2.693,-3.192 -5.089,-6.673 -6.616,-10.572c-0.677,-1.733 -2.259,-4.424 -0.51,-2.886c1.81,1.594 3.432,3.434 5.086,5.186c5.044,5.348 11.139,14.3 18.768,16.03c0.805,0.183 1.324,-0.517 1.357,-1.225c0.483,-9.74 -7.706,-19.513 -12.559,-27.274c-3.458,-5.531 -6.761,-11.174 -8.858,-17.375c-1.362,-4.025 -0.823,-18.625 5.937,-12.353c7.374,6.839 10.988,19.282 14.798,28.29c2.752,6.504 4.992,15.425 9.976,20.693c0.594,0.628 1.774,0.157 1.884,-0.657c0.474,-3.567 0.974,-7.12 1.706,-10.646c0.24,-1.161 1.742,-9.291 5.156,-5.04c2.808,3.504 2.803,8.529 2.979,12.774c0.483,11.739 0.188,24.2 7.121,34.42c0.834,1.228 2.733,-0.069 1.901,-1.298c-4.783,-7.049 -6.46,-16.955 -6.679,-25.288c-0.165,-6.294 1.107,-14.485 -2.375,-20.188c-4.314,-7.061 -8.017,-4.215 -9.978,2.593c-0.621,2.156 -0.951,4.403 -1.311,6.613c-0.158,1.031 -0.307,2.065 -0.444,3.099c-0.307,2.215 1.171,1.474 0.604,0.624c-2.463,-3.688 -4.015,-8.175 -5.744,-12.236c-4.223,-9.935 -8.162,-20.078 -13.609,-29.426c-1.918,-3.288 -5.971,-10.113 -10.764,-7.888c-7.093,3.295 -4.123,14.877 -2.084,20.092c4.783,12.235 14.267,22.06 19.034,34.302c1.545,3.966 2.402,5.99 -1.801,2.974c-2.741,-1.965 -5.106,-4.537 -7.457,-6.932c-4.285,-4.362 -8.134,-9.428 -13.017,-13.153c-0.662,-0.506 -1.743,-0.252 -1.884,0.657c-1.589,10.262 9.423,19.985 15.872,26.459c10.176,10.222 22.967,18.693 31.859,30.092c0.911,1.164 2.813,-0.127 1.901,-1.298" style="fill-rule:nonzero;"/><path d="M816.993,836.379c13.233,7.007 27.237,12.243 41.017,18.021c7.69,3.226 20.293,10.805 29.053,8.962c1.431,-0.298 1.26,-2.593 -0.193,-2.29c-8.869,1.864 -21.801,-6.201 -29.762,-9.538c-13.148,-5.512 -26.482,-10.535 -39.107,-17.22c-1.314,-0.695 -2.316,1.372 -1.009,2.064" style="fill-rule:nonzero;"/><path d="M855.795,873.384c8.505,-2.261 17.404,-5.543 24.444,-10.945c1.171,-0.899 -0.123,-2.802 -1.302,-1.897c-6.893,5.292 -15.58,8.463 -23.918,10.677c-1.433,0.382 -0.651,2.543 0.776,2.165" style="fill-rule:nonzero;"/><path d="M848.03,833.397c3.295,7.281 8.885,13.186 12.177,20.46c0.607,1.339 2.781,0.581 2.168,-0.773c-3.295,-7.281 -8.888,-13.186 -12.177,-20.46c-0.607,-1.339 -2.78,-0.581 -2.168,0.773" style="fill-rule:nonzero;"/><path d="M811.274,848.352c7.288,-0.464 14.994,-0.723 22.008,-2.916c1.417,-0.443 0.639,-2.607 -0.776,-2.165c-6.808,2.131 -14.353,2.341 -21.424,2.791c-1.48,0.093 -1.288,2.384 0.193,2.29" style="fill-rule:nonzero;"/><path d="M820.541,815.555c3.391,8.019 6.717,16.085 8.457,24.647c0.291,1.433 2.59,1.262 2.295,-0.191c-1.785,-8.772 -5.108,-17.012 -8.584,-25.23c-0.575,-1.359 -2.746,-0.597 -2.168,0.773" style="fill-rule:nonzero;"/><path d="M859.883,780.812c4.787,11.463 10.581,22.353 17.286,32.813c6.996,10.911 11.936,23.054 18.061,34.458c0.701,1.306 2.594,-0.006 1.899,-1.299c-5.621,-10.462 -10.453,-21.317 -16.354,-31.63c-6.646,-11.61 -13.544,-22.704 -18.724,-35.115c-0.569,-1.361 -2.739,-0.598 -2.168,0.773" style="fill-rule:nonzero;"/><path d="M870.665,824.6c6.011,2.129 11.327,5.786 17.615,7.155c0.754,0.162 1.394,-0.502 1.359,-1.224c-0.345,-6.991 0.437,-13.949 0.628,-20.932c0.041,-1.479 -2.252,-1.275 -2.293,0.191c-0.194,6.986 -0.975,13.938 -0.628,20.932c0.453,-0.409 0.904,-0.818 1.357,-1.225c-6.078,-1.323 -11.217,-4.903 -17.029,-6.961c-1.384,-0.491 -2.406,1.57 -1.009,2.064" style="fill-rule:nonzero;"/><path d="M1005.386,816.039c-5.836,-1.094 -7.53,7.938 -1.694,9.033c5.836,1.094 7.53,-7.938 1.694,-9.033" style="fill:#ff6347;fill-rule:nonzero;"/></g><g><path d="M954.123,327.404c-1.732,-1.947 -3.883,-3.703 -6.576,-5.186c-7.259,-3.996 -17.375,-3.703 -25.352,-4.496c-9.495,-0.946 -20.643,-0.809 -29.393,3.573c-27.679,13.859 -34.268,50.989 -17.752,75.925c8.522,12.874 23.082,17.857 38.234,17.645c0.997,0.259 2.112,0.296 3.35,-0.047c0.13,-0.034 0.262,-0.065 0.392,-0.099c14.641,-1.011 29.419,-6.646 39.483,-14.533c22.043,-17.274 18.425,-56.574 -2.387,-72.782" style="fill:#ff6347;fill-rule:nonzero;"/><path d="M864.729,275.514c-41.826,31.237 -86.272,61.003 -123.311,97.996c-0.623,0.625 -0.626,1.67 0,2.292c19.066,18.972 38.618,37.597 54.669,59.273c0.678,0.913 2.182,1.172 2.805,0c9.27,-17.481 32.738,-29.178 49.984,-15.168c20.222,16.421 2.6,42.531 -15.191,51.095c-0.878,0.42 -1.119,1.919 -0.33,2.544c19.856,15.69 34.886,35.844 51.342,54.832c0.439,0.506 1.415,0.656 1.969,0.254c30.819,-22.408 59.253,-48.386 87.989,-73.332c36.881,-32.02 73.419,-64.444 110.543,-96.186c0.551,-0.472 0.592,-1.366 0.252,-1.963c-15.726,-27.487 -37.67,-52.112 -57.659,-76.516c-19.674,-24.026 -40.182,-47.393 -59.604,-71.618c-0.322,-0.402 -1.104,-0.609 -1.579,-0.417c-17.646,7.073 -33.554,20.004 -48.989,30.822c-17.344,12.158 -34.283,25.867 -52.89,36.093c-1.834,1.009 -0.197,3.806 1.639,2.798c18.599,-10.221 35.564,-23.914 52.89,-36.093c9.698,-6.819 19.456,-13.561 29.424,-19.983c3.872,-2.497 7.815,-4.882 11.833,-7.138c4.197,-2.357 5.368,-3.76 8.472,0.023c29.689,36.215 60.497,71.494 89.09,108.603c6.135,7.963 12.132,16.034 17.809,24.329c2.099,3.067 4.096,6.2 5.992,9.394c0.426,0.716 -13.506,11.862 -14.778,12.962c-22.323,19.291 -44.491,38.761 -66.71,58.171c-22.409,19.576 -44.839,39.124 -67.502,58.402c-8.862,7.54 -17.775,15.015 -26.777,22.382c-3.649,2.984 -7.327,5.93 -11.025,8.847c-1.971,1.553 -3.963,3.08 -5.958,4.595c-4.106,3.114 -4.737,0.283 -7.948,-3.49c-7.636,-8.977 -15.028,-18.14 -22.908,-26.912c-3.93,-4.374 -8.114,-8.494 -12.386,-12.534c-2.182,-2.009 -4.418,-3.954 -6.714,-5.834c-2.761,-2.328 3.062,-4.12 4.582,-5.183c10.329,-7.203 20.204,-22.628 16.711,-35.771c-3.935,-14.811 -16.659,-23.554 -31.798,-22.613c-6.989,0.438 -13.591,3.861 -19.3,7.626c-2.93,1.932 -5.374,4.46 -7.755,6.998c-3.859,4.11 -3.104,7.706 -7.844,1.576c-14.113,-18.251 -31.011,-34.281 -47.366,-50.484c-3.485,-3.454 32.117,-31.042 36.333,-34.444c27.237,-21.985 55.596,-42.492 83.633,-63.43c1.657,-1.234 0.039,-4.05 -1.639,-2.798" style="fill-rule:nonzero;"/><path d="M787.987,426.357c-38.46,40.949 -84.194,74.628 -124.979,113.208c-16.24,15.36 -32.291,30.264 -49.34,44.655c-12.742,10.758 -2.558,19.944 7.953,28.789c0.706,0.594 1.597,0.63 2.299,0c37.037,-33.23 73.509,-67.101 109.951,-100.977c20.804,-19.34 41.545,-38.743 62.144,-58.298c12.95,-12.295 29.915,-24.783 39.893,-39.715c1.164,-1.745 -1.649,-3.366 -2.805,-1.636c-7.568,11.328 -20.277,20.808 -30.06,30.173c-14.373,13.758 -28.873,27.391 -43.395,40.994c-32.624,30.557 -65.44,60.907 -98.388,91.114c-11.63,10.665 -23.282,21.308 -34.998,31.882c-3.392,3.062 -3,3.674 -6.709,0.412c-6.301,-5.544 -10.742,-14.033 -3.589,-20.445c8.249,-7.395 17.155,-13.706 25.17,-21.412c23.959,-23.035 48.098,-45.783 73.257,-67.516c25.879,-22.356 52.441,-43.965 75.894,-68.934c1.428,-1.525 -0.862,-3.819 -2.299,-2.292" style="fill-rule:nonzero;"/><path d="M662.219,578.044c4.711,5.64 9.262,11.357 14.329,16.688c0.649,0.682 1.634,0.555 2.296,0c32.198,-26.976 61.754,-57.438 91.711,-86.82c28.336,-27.796 56.459,-55.802 84.55,-83.844c1.48,-1.478 -0.816,-3.77 -2.299,-2.292c-29.582,29.536 -59.217,59.017 -89.069,88.277c-17.809,17.453 -35.689,34.828 -53.789,51.977c-7.316,6.936 -14.69,13.815 -22.165,20.585c-2.618,2.367 -5.265,4.706 -7.929,7.019c-2.584,2.24 -1.449,2.347 -4.182,-0.532c-3.984,-4.19 -7.451,-8.917 -11.155,-13.351c-1.345,-1.605 -3.628,0.7 -2.299,2.292" style="fill-rule:nonzero;"/><path d="M636.115,567.34c-1.67,-3.104 -11.646,-12.832 -8.571,-15.594c7.293,-6.542 14.469,-13.216 21.63,-19.898c14.402,-13.436 28.632,-27.054 43.031,-40.491c28.099,-26.217 59.638,-50.095 83.753,-80.193c1.293,-1.613 -0.99,-3.923 -2.299,-2.292c-21.097,26.333 -48.101,47.569 -72.943,70.215c-26.619,24.269 -52.28,49.56 -79.093,73.62c-0.652,0.586 -0.605,1.698 0,2.292c4.431,4.333 8.722,8.455 11.688,13.976c0.992,1.841 3.795,0.205 2.805,-1.636" style="fill-rule:nonzero;"/><path d="M625.604,559.86c-2.015,1.978 -10.158,12.127 -12.869,7.299c-2.01,-3.576 -4.841,-6.783 -7.42,-9.962c-1.54,-1.901 -8.077,-6.651 -4.052,-9.573c4.052,-2.943 8.059,-5.964 12.02,-9.031c19.297,-14.945 37.805,-30.806 55.89,-47.183c16.264,-14.725 31.933,-30.039 48.602,-44.318c17.038,-14.595 34.247,-28.947 48.631,-46.26c1.325,-1.595 -0.958,-3.9 -2.299,-2.29c-22.152,26.665 -50.812,47.136 -75.933,70.845c-29.401,27.746 -59.747,54.523 -92.49,78.297c-0.906,0.659 -1.026,1.678 -0.327,2.546c5.758,7.149 11.945,13.88 16.459,21.92c0.447,0.793 1.452,0.99 2.223,0.581c5.472,-2.886 9.464,-6.267 13.864,-10.582c1.493,-1.468 -0.805,-3.757 -2.299,-2.292" style="fill-rule:nonzero;"/><path d="M639.298,514.097c-3.693,-7.299 -11.433,-8.37 -3.421,-15.259c9.501,-8.165 18.516,-16.893 27.492,-25.628c15.157,-14.751 30.097,-29.668 45.893,-43.75c9.059,-8.069 18.038,-16.226 26.933,-24.474c4.08,-3.783 16.048,-11.614 17.092,-17.58c0.356,-2.043 -2.771,-2.917 -3.13,-0.861c-0.969,5.538 -14.386,14.414 -18.269,18.01c-7.849,7.281 -15.799,14.453 -23.778,21.591c-27.809,24.892 -53.093,52.509 -81.714,76.498c-0.849,0.713 -0.468,2.004 0.33,2.544c4.441,2.419 7.698,5.933 9.766,10.545c0.945,1.867 3.745,0.223 2.805,-1.636" style="fill-rule:nonzero;"/><path d="M631.503,507.953c-2.543,1.628 -13.695,12.425 -16.129,9.975c-10.28,-10.343 0.616,-16.027 8.29,-23.126c13.371,-12.368 27.123,-24.306 40.257,-36.925c13.082,-12.57 24.637,-26.515 38.036,-38.766c14.599,-13.348 30.515,-25.239 46.137,-37.348c1.649,-1.281 -0.665,-3.557 -2.299,-2.292c-25.414,19.701 -49.553,39.505 -71.393,63.16c-21.617,23.409 -46.849,43.208 -69.497,65.577c-0.478,0.472 -0.678,1.385 -0.255,1.963c3.46,4.711 7.272,8.891 11.399,13.042c0.626,0.627 1.67,0.622 2.299,0c4.626,-4.587 9.277,-8.925 14.791,-12.461c1.756,-1.123 0.13,-3.931 -1.639,-2.798" style="fill-rule:nonzero;"/><path d="M666.741,584.822c-6.906,9.871 -16.648,16.631 -23.087,27.018c-0.387,0.63 -0.239,1.447 0.255,1.965c4.582,4.797 9.114,9.244 14.329,13.34c0.745,0.583 1.553,0.62 2.296,0c38.707,-32.351 74.922,-67.944 111.611,-102.52c29.554,-27.855 59.49,-55.441 88.327,-84.046c1.486,-1.475 -0.813,-3.767 -2.299,-2.292c-34.444,34.172 -70.24,67.086 -105.601,100.301c-23.027,21.627 -46.114,43.2 -69.525,64.418c-7.537,6.832 -15.113,13.631 -22.869,20.219c-1.706,1.449 -3.867,-1.724 -5.449,-3.083c-6.503,-5.58 -7.592,-8.837 -1.579,-16.185c5.119,-6.259 11.701,-10.792 16.396,-17.499c1.203,-1.719 -1.615,-3.337 -2.805,-1.636" style="fill-rule:nonzero;"/><path d="M684.506,604.268c3.571,4.387 7.231,8.629 11.145,12.716c0.514,0.534 1.338,0.599 1.969,0.252c12.778,-6.975 22.713,-17.608 32.754,-27.946c12.15,-12.508 25.71,-23.435 38.605,-35.154c25.635,-23.287 46.693,-51.44 73.042,-73.835c1.597,-1.356 -0.712,-3.635 -2.296,-2.29c-26.326,22.371 -47.592,50.401 -73.039,73.832c-12.83,11.811 -26.411,22.672 -38.608,35.154c-5.675,5.811 -11.321,11.608 -17.347,17.061c-3.613,3.27 -7.566,6.096 -11.675,8.702c-3.618,2.295 -10.617,-8.772 -12.251,-10.784c-1.322,-1.623 -3.605,0.685 -2.299,2.292" style="fill-rule:nonzero;"/><path d="M689.824,610.252c-6.303,8.528 -13.695,16.138 -20.443,24.306c-0.595,0.718 -0.621,1.574 0,2.292c4.561,5.248 9.766,9.897 15.124,14.315c0.667,0.547 1.649,0.687 2.299,0c53.061,-56.354 112.026,-106.804 167.293,-160.933c1.496,-1.465 -0.803,-3.755 -2.299,-2.29c-35.005,34.286 -71.33,67.205 -106.871,100.931c-16.991,16.125 -33.8,32.447 -50.142,49.229c-0.886,0.908 -8.685,10.193 -9.906,9.187c-4.083,-3.363 -7.906,-7.047 -11.568,-10.854c-1.421,-1.473 17.092,-21.537 19.318,-24.547c1.247,-1.685 -1.574,-3.298 -2.805,-1.636" style="fill-rule:nonzero;"/><path d="M739.174,597.584c3.657,5.126 6.724,11.144 11.412,15.425c0.644,0.589 1.662,0.659 2.296,0c36.322,-37.646 75.12,-72.8 111.429,-110.457c1.449,-1.504 -0.844,-3.799 -2.299,-2.292c-20.578,21.345 -42.021,41.818 -63.318,62.439c-11.417,11.059 -22.749,22.205 -33.941,33.492c-2.356,2.38 -4.701,4.768 -7.038,7.164c-3.963,4.05 -4.465,8.494 -8.532,3.052c-2.532,-3.389 -4.748,-7.014 -7.205,-10.46c-1.205,-1.685 -4.023,-0.07 -2.805,1.636" style="fill-rule:nonzero;"/><path d="M744.204,603.566c-10.958,9.215 -21.63,17.647 -31.042,28.607c-0.574,0.672 -0.66,1.634 0,2.292c4.511,4.501 9.02,9.008 13.532,13.509c0.642,0.64 1.652,0.604 2.299,0c48.262,-45.095 97.118,-89.737 143.437,-136.847c1.467,-1.491 -0.829,-3.786 -2.299,-2.292c-32.019,32.569 -65.427,63.793 -98.726,95.042c-8.012,7.519 -16.04,15.026 -24.069,22.527c-3.997,3.736 -7.999,7.47 -11.999,11.206c-4.745,4.431 -6.353,8.069 -11.859,2.57l-5.397,-5.388c-3.223,-3.218 3.987,-7.776 6.628,-10.509c6.659,-6.884 14.495,-12.29 21.793,-18.425c1.602,-1.348 -0.709,-3.63 -2.299,-2.292" style="fill-rule:nonzero;"/><path d="M720.324,639.325c-6.657,6.073 -12.784,12.656 -19.103,19.071c-0.639,0.648 -0.608,1.644 0,2.292c2.911,3.119 11.649,16.729 17.155,14.588c3.517,-1.366 6.714,-4.844 9.511,-7.229c16.529,-14.085 32.265,-29.139 48.106,-43.981c35.686,-33.438 70.71,-67.584 106.554,-100.853c1.535,-1.426 -0.766,-3.713 -2.299,-2.292c-33.12,30.744 -65.528,62.26 -98.435,93.232c-16.669,15.684 -33.343,31.384 -50.467,46.579c-4.215,3.744 -8.431,7.667 -13.069,10.895c-2.719,1.893 -8.683,-6.467 -10.485,-8.463c-4.228,-4.68 -2.286,-4.47 2.091,-9.01c4.148,-4.296 8.327,-8.512 12.739,-12.537c1.545,-1.413 -0.756,-3.697 -2.299,-2.292" style="fill-rule:nonzero;"/><path d="M939.471,316.93c-29.424,-7.276 -60.274,2.414 -71.972,32.157c-11.051,28.097 5.171,60.676 34.502,67.195c29.084,6.467 63.869,-11.305 70.993,-40.771c5.397,-22.32 -9.511,-55.892 -33.954,-58.638c-2.08,-0.236 -2.057,3.008 0,3.241c24.463,2.748 35.083,36.923 30.027,57.84c-6.652,27.49 -41.213,38.914 -66.203,35.204c-28.637,-4.252 -39.501,-35.559 -33.097,-60.541c7.766,-30.306 41.896,-39.223 68.842,-32.561c2.031,0.503 2.893,-2.624 0.862,-3.124" style="fill-rule:nonzero;"/><path d="M916.742,366.067c-17.76,10.177 -36.862,2.629 -24.128,-12.469c10.347,-11.92 37.411,-13.906 52.139,-13.509c-1.688,8.424 -1.586,19.083 -3.075,28.956c-1.319,8.752 -3.888,16.886 -10.06,22.301c-5.176,4.766 -17.516,6.355 -22.289,0c-3.979,-5.564 1.592,-19.073 7.412,-25.278" style="fill-rule:nonzero;"/><path d="M755.496,363.554c1.961,3.031 4.639,5.45 6.763,8.344c1.226,1.667 4.046,0.052 2.808,-1.636c-2.127,-2.891 -4.815,-5.323 -6.766,-8.344c-1.13,-1.75 -3.943,-0.127 -2.805,1.636" style="fill-rule:nonzero;"/><path d="M776.046,346.399c4.649,5.419 9.199,10.895 13.28,16.758c1.187,1.704 4.002,0.086 2.805,-1.634c-4.239,-6.091 -8.96,-11.787 -13.786,-17.416c-1.366,-1.589 -3.652,0.716 -2.299,2.292" style="fill-rule:nonzero;"/><path d="M797.539,329.711c3.156,3.602 5.797,7.698 9.553,10.729c1.613,1.302 3.924,-0.978 2.296,-2.292c-3.756,-3.031 -6.397,-7.128 -9.55,-10.729c-1.382,-1.576 -3.667,0.726 -2.299,2.292" style="fill-rule:nonzero;"/><path d="M821.563,310.71c4.265,6.096 9.15,11.728 12.734,18.277c1.005,1.833 3.81,0.197 2.805,-1.636c-3.584,-6.547 -8.47,-12.181 -12.734,-18.277c-1.19,-1.701 -4.005,-0.083 -2.805,1.636" style="fill-rule:nonzero;"/><path d="M842.115,294.35c3.252,3.267 6.309,6.705 9.153,10.33c1.291,1.644 3.574,-0.666 2.299,-2.292c-2.847,-3.622 -5.904,-7.063 -9.153,-10.33c-1.48,-1.486 -3.774,0.809 -2.299,2.292" style="fill-rule:nonzero;"/><path d="M892.005,502.224c3.158,4.079 6.093,8.505 10.537,11.308c1.774,1.12 3.402,-1.685 1.636,-2.798c-3.94,-2.487 -6.571,-6.529 -9.368,-10.146c-1.26,-1.628 -4.083,-0.018 -2.805,1.636" style="fill-rule:nonzero;"/><path d="M909.519,478.78c4.527,6.083 9.636,11.676 14.581,17.414c1.371,1.587 3.654,-0.718 2.299,-2.292c-4.766,-5.525 -9.714,-10.9 -14.074,-16.758c-1.236,-1.657 -4.054,-0.044 -2.805,1.636" style="fill-rule:nonzero;"/><path d="M936.982,468.848c2.104,2.865 4.701,5.212 7.415,7.48c1.597,1.33 3.906,-0.949 2.299,-2.292c-2.483,-2.072 -4.989,-4.206 -6.909,-6.824c-1.226,-1.667 -4.044,-0.052 -2.805,1.636" style="fill-rule:nonzero;"/><path d="M954.093,442.226c4.01,6.244 10.002,11.531 16.105,15.679c1.735,1.18 3.358,-1.628 1.639,-2.798c-5.618,-3.817 -11.251,-8.772 -14.939,-14.518c-1.127,-1.753 -3.94,-0.13 -2.805,1.636" style="fill-rule:nonzero;"/><path d="M980.362,428.717c2.454,3.666 4.992,7.283 7.163,11.126c1.029,1.818 3.834,0.184 2.805,-1.636c-2.174,-3.843 -4.711,-7.46 -7.163,-11.126c-1.156,-1.727 -3.971,-0.106 -2.805,1.636" style="fill-rule:nonzero;"/><path d="M995.486,410.44c2.376,5.253 7.013,8.92 10.347,13.509c1.218,1.672 4.036,0.06 2.805,-1.636c-3.327,-4.579 -7.984,-8.282 -10.347,-13.509c-0.862,-1.903 -3.659,-0.254 -2.805,1.636" style="fill-rule:nonzero;"/><path d="M620.344,436.062c-8.376,0 8.376,0 0,0" style="fill:#61cab1;fill-rule:nonzero;"/></g><g><path d="M589.16,1272.088c-0.055,1.564 -0.099,3.126 -0.187,4.687c-1.048,2.705 -1.068,5.537 -0.862,8.43c0.045,1.311 0.168,2.616 0.491,3.891c0.392,1.542 2.107,1.947 3.391,1.334c0.265,-0.127 0.477,-0.289 0.714,-0.434c0.573,0.756 1.616,0.847 2.504,0.456c-0.027,0.415 -0.04,0.819 -0.025,1.209c0.038,1.026 0.752,1.941 1.767,2.178c2.86,0.664 5.541,1.295 7.839,3.262c0.624,0.534 1.321,0.655 1.957,0.526c0.092,0.965 0.692,1.906 1.717,2.018c0.395,0.043 0.799,0.076 1.207,0.102c0.08,0.107 0.143,0.221 0.238,0.324c0.816,0.879 1.859,1.169 2.948,1.157c0.073,0.394 0.25,0.79 0.583,1.154c7.006,7.639 20.933,3.92 25.017,-5.033c0.747,-1.637 -0.262,-3.322 -2.076,-3.405c-6.112,-0.275 -12.253,2.693 -17.863,4.748c-0.229,0.084 -0.425,0.211 -0.611,0.35c0.076,-0.176 0.083,-0.368 0.117,-0.555c2.757,-1.272 4.721,-3.589 4.648,-7.47c-0.009,-0.525 -0.197,-0.958 -0.473,-1.307c0.328,-0.969 0.595,-1.876 0.797,-2.608c0.086,-0.312 0.096,-0.608 0.049,-0.886c0.168,-0.656 0.33,-1.315 0.476,-1.973c0.222,-1.001 -0.222,-2.048 -1.13,-2.548l-1.21,-0.665c-0.679,-0.373 -1.629,-0.405 -2.29,0.04c-2.534,1.706 -4.752,4.384 -6.503,7.254c-0.038,0.004 -0.074,0.02 -0.112,0.024c0.666,-3.488 0.601,-7.13 0.418,-10.686c-0.059,-1.125 -0.685,-1.923 -1.556,-2.469c-0.084,-0.405 -0.294,-0.736 -0.59,-0.985c0.222,-1.882 -1.775,-2.896 -3.204,-2.37c-0.5,0.042 -0.977,0.247 -1.341,0.675c-0.683,0.8 -1.209,1.674 -1.634,2.597c-2.18,1.141 -4.162,3.246 -5.726,5.701c-0.313,-1.599 -0.785,-3.079 -1.557,-4.379c-0.844,-2.312 -1.987,-4.426 -4.02,-6.045c-1.592,-1.268 -3.832,-0.418 -3.907,1.704" style="fill:#ff6347;fill-rule:nonzero;"/><path d="M538.901,1412.803c25.951,17.698 53.945,-2.854 73.016,-21.003c5.577,-5.309 10.818,-10.968 15.981,-16.674c5.629,-6.218 12.669,-12.774 15.67,-20.78c6.83,-18.204 -7.41,-37.017 -21.07,-47.86c-27.367,-21.728 -74.351,-33.572 -91.795,5.463c-7.494,16.767 -8.095,38.335 -7.487,56.473c0.502,14.973 2.615,34.391 15.436,44.198c1.165,0.89 2.781,-0.747 1.606,-1.647c-12.44,-9.515 -14.054,-28.167 -14.742,-42.61c-0.747,-15.688 0.741,-32.074 4.53,-47.278c4.622,-18.549 18.38,-32.241 37.869,-33.141c17.389,-0.804 36.588,9.197 50.639,18.5c8.746,5.789 15.298,13.957 20.31,23.046c6.851,12.424 4.514,23.464 -4.094,34.374c-7.363,9.33 -15.98,18.067 -24.504,26.331c-18.133,17.58 -45.343,37.583 -70.256,20.595c-1.225,-0.835 -2.323,1.183 -1.109,2.012" style="fill-rule:nonzero;"/><path d="M622.619,1307.748c5.452,-1.307 10.531,-3.128 14.937,-6.68c1.68,-1.355 4.985,-4.906 2.893,-7.231c-2.609,-2.901 -8.19,-1.298 -11.385,-0.516c-5.882,1.44 -11.365,4.346 -16.885,6.748c-1.362,0.592 -0.16,2.555 1.18,1.973c7.08,-3.083 14.186,-6.936 22.041,-7.436c6.236,-0.396 1.467,4.199 -0.836,5.882c-3.7,2.705 -8.188,3.998 -12.586,5.052c-1.446,0.346 -0.798,2.553 0.641,2.207" style="fill-rule:nonzero;"/><path d="M621.628,1297.534c2.091,-3.571 6.735,-14.406 1.657,-17.364c-2.87,-1.672 -6.937,2.339 -8.847,3.938c-4,3.356 -7.836,7.568 -10.204,12.253c-0.668,1.319 1.345,2.433 2.016,1.109c1.57,-3.104 3.812,-5.755 6.181,-8.276c2.413,-2.569 5.414,-5.675 8.787,-6.911c2.875,-1.052 1.502,5.473 1.255,6.611c-0.566,2.62 -1.508,5.217 -2.862,7.532c-0.75,1.281 1.268,2.386 2.016,1.109" style="fill-rule:nonzero;"/><path d="M613.236,1287.013c0.163,-4.033 1.771,-16.515 -4.824,-16.617c-3.609,-0.057 -6.971,4.874 -8.848,7.338c-2.973,3.906 -5.847,8.498 -6.759,13.388c-0.271,1.449 1.966,1.996 2.238,0.534c1.216,-6.519 5.952,-12.997 10.739,-17.425c4.191,-3.878 4.986,1.567 5.215,4.792c0.191,2.673 0.046,5.373 -0.062,8.047c-0.059,1.48 2.241,1.417 2.3,-0.059" style="fill-rule:nonzero;"/><path d="M599.924,1278.379c-0.828,-3.877 -3.947,-11.508 -9.124,-8.259c-5.244,3.291 -5.793,13.647 -4.192,18.874c0.433,1.417 2.645,0.781 2.21,-0.638c-1.333,-4.358 -0.617,-9.965 1.375,-14.02c3.242,-6.601 6.775,1.185 7.521,4.681c0.311,1.453 2.518,0.801 2.21,-0.639" style="fill-rule:nonzero;"/><path d="M631.353,1337.953c1.151,-0.456 3.489,-2.25 2.795,-3.58c-1.626,-3.114 -3.919,1.065 -2.795,3.58" style="fill-rule:nonzero;"/><path d="M612.244,1327.445c1.151,-0.456 3.489,-2.25 2.795,-3.58c-1.626,-3.114 -3.919,1.065 -2.795,3.58" style="fill-rule:nonzero;"/><path d="M593.134,1316.937c1.151,-0.456 3.489,-2.25 2.795,-3.58c-1.626,-3.114 -3.919,1.065 -2.795,3.58" style="fill-rule:nonzero;"/><path d="M574.026,1306.43c1.149,-0.457 3.488,-2.251 2.794,-3.581c-1.624,-3.113 -3.917,1.066 -2.794,3.581" style="fill-rule:nonzero;"/><path d="M554.917,1295.922c1.151,-0.456 3.489,-2.25 2.795,-3.58c-1.626,-3.114 -3.919,1.065 -2.795,3.58" style="fill-rule:nonzero;"/><path d="M634.303,1355.471c1.151,-0.456 3.489,-2.25 2.795,-3.58c-1.626,-3.114 -3.919,1.065 -2.795,3.58" style="fill-rule:nonzero;"/><path d="M615.193,1344.963c1.151,-0.456 3.489,-2.25 2.795,-3.58c-1.626,-3.114 -3.919,1.065 -2.795,3.58" style="fill-rule:nonzero;"/><path d="M596.083,1334.455c1.151,-0.456 3.489,-2.25 2.795,-3.58c-1.626,-3.114 -3.919,1.065 -2.795,3.58" style="fill-rule:nonzero;"/><path d="M576.976,1323.949c1.149,-0.457 3.488,-2.251 2.794,-3.581c-1.624,-3.113 -3.917,1.066 -2.794,3.581" style="fill-rule:nonzero;"/><path d="M557.867,1313.441c1.151,-0.456 3.489,-2.25 2.795,-3.58c-1.626,-3.114 -3.919,1.065 -2.795,3.58" style="fill-rule:nonzero;"/><path d="M619.901,1361.889c1.151,-0.456 3.489,-2.25 2.795,-3.58c-1.626,-3.114 -3.919,1.065 -2.795,3.58" style="fill-rule:nonzero;"/><path d="M600.791,1351.381c1.151,-0.456 3.489,-2.25 2.795,-3.58c-1.626,-3.114 -3.919,1.065 -2.795,3.58" style="fill-rule:nonzero;"/><path d="M581.682,1340.873c1.151,-0.456 3.489,-2.25 2.795,-3.58c-1.626,-3.114 -3.919,1.065 -2.795,3.58" style="fill-rule:nonzero;"/><path d="M562.574,1330.366c1.149,-0.457 3.488,-2.251 2.794,-3.581c-1.624,-3.113 -3.917,1.066 -2.794,3.581" style="fill-rule:nonzero;"/><path d="M543.466,1319.859c1.151,-0.456 3.489,-2.25 2.795,-3.58c-1.626,-3.114 -3.921,1.065 -2.795,3.58" style="fill-rule:nonzero;"/><path d="M606.175,1370.289c1.151,-0.456 3.489,-2.25 2.795,-3.58c-1.626,-3.114 -3.919,1.065 -2.795,3.58" style="fill-rule:nonzero;"/><path d="M587.065,1359.781c1.151,-0.456 3.489,-2.25 2.795,-3.58c-1.626,-3.114 -3.919,1.065 -2.795,3.58" style="fill-rule:nonzero;"/><path d="M567.958,1349.274c1.149,-0.457 3.488,-2.251 2.794,-3.581c-1.624,-3.113 -3.917,1.066 -2.794,3.581" style="fill-rule:nonzero;"/><path d="M548.849,1338.767c1.151,-0.456 3.489,-2.25 2.795,-3.58c-1.626,-3.114 -3.921,1.065 -2.795,3.58" style="fill-rule:nonzero;"/><path d="M612.051,1311.523c1.151,-0.456 3.489,-2.25 2.795,-3.58c-1.626,-3.114 -3.921,1.065 -2.795,3.58" style="fill-rule:nonzero;"/><path d="M590.45,1302.442c1.151,-0.456 3.489,-2.25 2.795,-3.58c-1.626,-3.114 -3.921,1.065 -2.795,3.58" style="fill-rule:nonzero;"/><path d="M540.292,1306.597c1.153,-0.455 3.489,-2.25 2.795,-3.58c-1.626,-3.114 -3.917,1.066 -2.795,3.58" style="fill-rule:nonzero;"/></g><g><g><path d="M421.283,1421.599c1.185,-0.894 -0.199,-2.728 -1.383,-1.834c-1.185,0.894 0.199,2.728 1.383,1.834" style="fill-rule:nonzero;"/><path d="M567.578,1396.448l5.88,-4.434c1.185,-0.894 -0.199,-2.728 -1.383,-1.834l-5.88,4.434c-1.185,0.894 0.199,2.728 1.383,1.834" style="fill-rule:nonzero;"/><path d="M521.118,1383.712c2.697,-0.5 5.396,-1 8.093,-1.499c1.454,-0.27 1.192,-2.554 -0.268,-2.284c-2.698,0.499 -5.396,1 -8.093,1.499c-1.454,0.27 -1.192,2.554 0.268,2.284" style="fill-rule:nonzero;"/><path d="M515.135,1358.839c4.476,0.575 8.994,0.374 13.495,0.566c1.468,0.063 1.803,-2.214 0.319,-2.278c-4.497,-0.19 -9.018,0.007 -13.494,-0.568c-1.47,-0.188 -1.793,2.089 -0.32,2.279" style="fill-rule:nonzero;"/><path d="M513.583,1336.695c3.282,0.918 6.616,1.383 10.027,1.398c1.482,0.006 1.193,-2.277 -0.269,-2.283c-2.984,-0.015 -5.997,-0.433 -8.87,-1.237c-1.406,-0.394 -2.317,1.722 -0.888,2.122" style="fill-rule:nonzero;"/><path d="M529.058,1287.08c2.273,1.782 4.865,2.977 7.624,3.802c1.405,0.42 2.311,-1.697 0.889,-2.121c-2.578,-0.77 -4.982,-1.839 -7.109,-3.504c-1.164,-0.913 -2.573,0.909 -1.404,1.823" style="fill-rule:nonzero;"/><path d="M509.164,1476.281c1.054,-18.058 -5.067,-37.488 -14.459,-52.763c-10.241,-16.658 -29.144,-19.965 -46.824,-23.484c-22.824,-4.542 -50.248,-18.665 -55.898,-43.31c-1.903,-8.293 0.517,-16.438 7.558,-21.398c3.919,-2.76 8.584,-4.517 12.623,-7.146c6.052,-3.943 8.743,-10.584 8.454,-17.578c-0.724,-17.475 -22.081,-15.11 -33.708,-13.171c-10.855,1.809 -21.184,2.891 -30.608,-3.967c-11.792,-8.585 -8.061,-25.595 -5.046,-37.518c1.504,-5.943 2.27,-4.46 7.029,-3.323c0.638,0.152 -2.776,7.091 -3.187,8.258c-2.277,6.441 -2.138,13.457 -0.303,19.951c4.01,14.193 18.475,17.461 31.178,14c5.882,-1.602 11.109,-4.154 17.364,-3.721c6.796,0.471 13.543,6.063 17.952,10.861c6.328,6.881 6.768,15.848 1.872,23.644c-3.84,6.117 -11.951,7.196 -17.638,10.76c-17.928,11.239 -7.168,30.37 5.516,40.897c9.486,7.872 22.12,13.989 34.048,16.87c6.338,1.53 12.98,1.825 19.397,2.962c8.205,1.455 15.93,5.535 22.521,10.468c23.452,17.557 25.368,49.393 28.798,76.005c0.188,1.472 2.473,1.199 2.284,-0.27c-3.969,-30.797 -7.096,-64.551 -36.465,-82.108c-15.31,-9.152 -33.987,-7.212 -50.122,-14.4c-14.171,-6.312 -48.732,-29.692 -26.84,-47.181c9.272,-7.407 25.528,-8.952 24.347,-24.801c-0.89,-11.968 -10.646,-20.883 -21.355,-25.059c-12.846,-5.011 -25.339,7.282 -38.661,3.27c-17.357,-5.226 -14.929,-28.711 -7.207,-40.506c0.463,-0.706 0.156,-1.711 -0.751,-1.837c-2.96,-0.222 -5.743,-1.109 -8.353,-2.661c-0.562,-0.327 -1.545,-0.327 -1.763,0.469c-3.467,12.562 -7.686,26.262 -2.426,38.894c4.521,10.857 17.282,14.268 27.886,13.775c13.788,-0.642 43.723,-11.021 41.889,13.418c-0.798,10.662 -12.4,14.303 -20.11,18.912c-5.865,3.509 -8.145,9.025 -8.951,15.519c-3.554,28.641 33.156,47.71 55.939,52.797c17.515,3.909 35.052,5.756 46.536,21.329c10.4,14.103 16.221,35.43 15.203,52.826c-0.084,1.472 2.192,1.8 2.279,0.319" style="fill-rule:nonzero;"/><path d="M411.188,1222.988c-6.707,11.492 -22.343,41.99 0.129,47.115c10.22,2.33 23.061,-6.178 32.074,-0.733c14.321,8.651 -0.84,35.722 -5.544,46.476c-3.866,8.839 -7.988,20.633 -1.106,29.049c4.591,5.613 13.323,-1.726 17.522,-4.013c17.051,-9.286 14.552,18.378 13.224,27.029c-1.382,8.98 -5.004,18.593 -4.394,27.746c0.1,1.483 2.383,1.203 2.284,-0.27c-1.149,-17.267 12.273,-37.337 2.785,-53.923c-3.613,-6.313 -10.867,-4.83 -16.129,-1.964c-4,2.179 -10.167,8.029 -14.396,2.857c-6.171,-7.543 0.026,-20.354 3.311,-27.864c5.094,-11.641 21.552,-48.626 -3.883,-49.134c-11.326,-0.227 -23.22,8.847 -32.72,-2.229c-8.49,-9.9 3.405,-29.731 8.664,-38.741c0.736,-1.262 -1.075,-2.682 -1.822,-1.4" style="fill-rule:nonzero;"/><path d="M411.397,1224.6c3.744,2.632 4.543,2.44 2.551,6.115c-1.631,3.012 -2.832,6.256 -3.983,9.472c-1.944,5.44 -3.201,11.199 -2.981,16.984c0.443,11.552 12.524,7.565 19.305,5.124c10.299,-3.708 21.769,0.356 25.929,10.651c3.177,7.86 1.336,17.513 -0.382,25.49c-2.644,12.278 -13.256,27.031 -9.38,39.644c0.197,0.643 0.927,0.802 1.491,0.644c4.654,-1.295 8.83,-3.8 13.521,-4.955c14.385,-3.54 17.459,14.83 17.096,24.53c-0.487,13.061 -3.679,25.897 -4.517,38.942c-0.094,1.471 2.183,1.8 2.277,0.32c0.902,-14.044 4.102,-27.819 4.627,-41.894c0.308,-8.221 -1.884,-18.951 -10.446,-22.581c-3.875,-1.643 -7.082,-2.147 -11.204,-1.134c-4.374,1.077 -12.032,8.238 -11.468,-1.181c0.577,-9.637 7.252,-20.297 9.734,-29.736c3.628,-13.798 5.619,-37.059 -12.667,-41.34c-3.77,-0.884 -7.924,-1.665 -11.765,-0.639c-4.816,1.289 -15.924,7.7 -19.291,0.662c-4.046,-8.462 3.551,-24.617 8.368,-31.675c0.34,-0.5 0.324,-1.237 -0.21,-1.612c-1.733,-1.218 -3.467,-2.436 -5.2,-3.654c-1.208,-0.85 -2.621,0.968 -1.404,1.823" style="fill-rule:nonzero;"/><path d="M463.155,1404.234c-2.705,14.814 0.507,29.612 6.76,43.118c8.154,17.618 22.605,31.762 22.694,52.308c0.005,1.483 2.29,1.192 2.283,-0.272c-0.065,-15.525 -8.072,-27.915 -15.967,-40.689c-10.097,-16.339 -17.049,-34.669 -13.491,-54.147c0.267,-1.463 -2.013,-1.774 -2.279,-0.319" style="fill-rule:nonzero;"/><path d="M469.462,1407.51c-3.161,15.49 1.755,32.331 9.386,45.875c7.853,13.936 20.927,30.03 17.098,47.062c-0.325,1.449 1.955,1.755 2.279,0.319c3.023,-13.454 -4.372,-26.308 -10.923,-37.526c-9.818,-16.81 -19.674,-35.254 -15.561,-55.411c0.297,-1.456 -1.982,-1.765 -2.279,-0.319" style="fill-rule:nonzero;"/><path d="M427.923,1203.888c-3.308,10.536 -5.125,20.857 -1.104,31.451c3.056,8.046 12.043,9.429 19.489,10.333c12.936,1.571 27.046,2.442 37.505,11.017c13.786,11.303 10.251,34.306 8.298,49.725c-3.46,27.341 -12.911,57.02 -7.032,84.632c2.413,11.33 10.405,21.038 17.757,29.566c4.417,5.123 9.056,10.042 13.429,15.205c5.248,6.194 9.08,13.314 14.002,19.743c0.9,1.175 2.738,-0.21 1.837,-1.386c-7.919,-10.341 -14.762,-20.816 -23.531,-30.557c-9.435,-10.484 -18.777,-21.418 -21.793,-35.578c-2.928,-13.759 -0.216,-29.695 1.606,-43.488c1.91,-14.431 4.931,-28.701 6.66,-43.158c2.368,-19.793 1.929,-42.221 -18.389,-51.927c-9.032,-4.314 -20.244,-4.941 -30.029,-6.073c-8.456,-0.978 -15.245,-2.52 -18.616,-11.399c-3.296,-8.679 -0.615,-18.791 2.033,-27.223c0.439,-1.402 -1.677,-2.303 -2.123,-0.885" style="fill-rule:nonzero;"/><path d="M537.032,1448.74c-6.111,-5.219 -10.231,-11.942 -14.83,-18.428c-5.05,-7.122 -10.752,-13.78 -15.805,-20.918c-10.554,-14.903 -14.231,-30.4 -13.609,-48.524c0.958,-27.94 11.959,-54.203 10.158,-82.489c-0.642,-10.101 -3.182,-21.733 -10.448,-29.203c-5.453,-5.604 -13.619,-7.923 -21.017,-9.568c-9.117,-2.029 -18.517,-2.369 -27.684,-4.095c-5.413,-1.019 -9.58,-2.515 -10.23,-8.563c-0.702,-6.536 1.079,-13.708 2.301,-20.104c0.278,-1.46 -2,-1.772 -2.279,-0.319c-1.401,7.349 -5.172,19.597 -0.606,26.474c3.14,4.732 12.187,5.167 17.073,5.84c10.804,1.484 21.723,2.227 31.95,6.315c15.656,6.26 18.407,24.018 18.927,39.046c1.04,29.953 -11.773,58.275 -10.365,88.309c0.678,14.499 5.865,26.499 13.991,38.267c4.974,7.204 10.535,13.939 15.805,20.918c4.943,6.549 8.955,13.48 15.263,18.866c1.127,0.962 2.528,-0.864 1.404,-1.823" style="fill-rule:nonzero;"/><path d="M429.281,1205.386c1.65,0.809 3.295,1.514 5.104,1.888c1.454,0.301 1.766,-1.979 0.319,-2.278c-1.606,-0.331 -3.07,-1.016 -4.535,-1.732c-1.332,-0.653 -2.215,1.472 -0.888,2.122" style="fill-rule:nonzero;"/></g><path d="M571.526,1247.736c2.309,2.053 4.625,4.084 7.382,5.52c1.316,0.684 2.196,-1.442 0.89,-2.122c-2.565,-1.334 -4.723,-3.315 -6.868,-5.221c-1.107,-0.984 -2.507,0.843 -1.404,1.823" style="fill-rule:nonzero;"/></g><g><g><path d="M616.086,1438.308c-3.609,-1.198 -8.211,-1.937 -12.192,-1.119c-0.169,-1.744 -2.368,-3.169 -3.855,-1.505c-0.865,0.967 -1.744,1.934 -2.598,2.917c-5.731,4.579 -11.781,10.653 -11.886,18.007c-0.017,1.204 1.062,2.36 2.301,2.298c6.784,-0.344 12.468,-3.807 17.861,-7.666c2.981,-2.132 5.812,-4.474 8.73,-6.69c1.582,-1.202 3.327,-1.844 3.327,-4.023c0,-1.064 -0.709,-1.891 -1.688,-2.217" style="fill:#ff6347;fill-rule:nonzero;"/><path d="M628.582,1457.923c-0.063,-0.945 -0.155,-1.891 -0.302,-2.845c-0.002,-0.007 -0.006,-0.013 -0.006,-0.02c0.05,-0.404 0.081,-0.807 0.087,-1.208c0.015,-0.838 -0.398,-1.432 -0.961,-1.805c0.162,-0.564 0.306,-1.134 0.42,-1.719c0.468,-2.399 -3.065,-4.283 -4.207,-1.772c-4.888,10.765 -15.708,14.813 -25.586,19.871c-1.92,0.335 -3.8,0.542 -5.567,0.588c-2.506,0.066 -3.25,4.033 -0.611,4.514c0.794,0.143 1.578,0.235 2.358,0.301c0.053,0.099 0.118,0.195 0.19,0.289c0.042,0.213 0.107,0.43 0.219,0.651c3.831,7.483 16.283,6.167 22.852,3.814c4.516,-1.619 7.902,-4.667 9.421,-9.201c0.234,-0.698 0.385,-1.41 0.504,-2.13c0.066,-0.094 0.136,-0.182 0.193,-0.294c1.559,-2.965 1.76,-5.988 0.996,-9.034" style="fill:#ff6347;fill-rule:nonzero;"/><path d="M598.531,1436.333c-13.497,5.795 -16.931,21.497 -10.492,33.939c6.541,12.64 24.371,14.129 35.176,6.352c9.143,-6.58 9.218,-19.424 4.98,-28.771c-5.273,-11.635 -17.776,-15.724 -29.389,-11.635c-1.388,0.489 -0.79,2.707 0.611,2.215c10.122,-3.566 19.727,-0.768 25.584,8.354c5.102,7.949 5.181,19.187 -1.283,26.339c-8.653,9.567 -25.825,7.28 -32.878,-2.676c-7.808,-11.019 -3.356,-26.89 8.854,-32.132c1.359,-0.584 0.186,-2.562 -1.162,-1.985" style="fill-rule:nonzero;"/><path d="M601.332,1435.52c-3.248,-4.237 -7.939,-7.692 -7.821,-13.511l-1.151,1.149c4.976,-0.09 8.375,4.108 12.308,6.582c0.747,0.471 1.729,-0.145 1.731,-0.993c0.015,-4.408 -0.013,-8.723 3.345,-12.052c-0.604,-0.079 -1.206,-0.156 -1.808,-0.233c1.675,3.772 2.209,7.584 2.298,11.673c0.026,1.16 1.532,1.546 2.145,0.581c1.933,-3.051 3.818,-5.365 7.291,-6.825c-0.471,-0.268 -0.944,-0.535 -1.416,-0.803c1.41,5.389 -1.747,10.469 -3.682,15.32c-0.549,1.377 1.679,1.97 2.219,0.61c2.136,-5.35 5.227,-10.642 3.682,-16.54c-0.144,-0.546 -0.841,-1.044 -1.414,-0.801c-3.912,1.643 -6.416,4.327 -8.668,7.88c0.716,0.193 1.429,0.386 2.145,0.579c-0.098,-4.534 -0.762,-8.67 -2.611,-12.833c-0.307,-0.691 -1.327,-0.711 -1.808,-0.233c-3.824,3.794 -4.003,8.549 -4.019,13.679c0.576,-0.329 1.154,-0.66 1.731,-0.993c-4.393,-2.764 -7.909,-6.996 -13.468,-6.894c-0.637,0.013 -1.138,0.515 -1.151,1.149c-0.131,6.415 4.527,9.962 8.134,14.671c0.889,1.16 2.889,0.018 1.988,-1.16" style="fill-rule:nonzero;"/><path d="M586.53,1461.102c13.613,-3.2 24.673,-10.501 34.261,-20.512c1.025,-1.072 -0.6,-2.698 -1.628,-1.627c-9.336,9.751 -19.985,16.807 -33.245,19.924c-1.443,0.338 -0.832,2.555 0.611,2.215" style="fill-rule:nonzero;"/><path d="M589.291,1470.333c14.742,-1.11 29.916,-9.773 36.59,-23.238c0.654,-1.322 -1.331,-2.487 -1.988,-1.158c-6.302,12.717 -20.641,21.049 -34.602,22.099c-1.471,0.112 -1.482,2.41 0,2.298" style="fill-rule:nonzero;"/></g></g><g><path d="M961.931,1139.987c1.056,1.325 2.261,2.459 3.727,3.323c0.832,0.489 1.612,0.38 2.205,-0.033c0.188,0.28 0.4,0.556 0.669,0.819c12.179,11.783 26.433,22.476 41.836,29.795c0.15,0.146 0.302,0.292 0.483,0.431c7.469,5.704 14.462,12.115 22.986,16.244c0.09,0.042 0.176,0.06 0.267,0.097c8.573,6.887 17.371,13.475 26.21,20.081c13.792,10.305 27.727,20.405 41.881,30.208c15.286,10.586 30.636,21.848 47.021,30.661c4.634,2.493 9.824,0.292 12.388,-3.947c2.618,-4.331 5.048,-8.731 8.248,-12.667c2.861,-3.516 3.737,-9.942 -0.5,-13.01c-13.309,-9.647 -28.395,-15.811 -41.434,-25.985c-2.108,-1.646 -4.221,-3.276 -6.336,-4.897c-23.148,-13.564 -45.036,-29.34 -67.436,-44.194c-6.432,-3.786 -12.853,-7.59 -19.19,-11.533c-5.104,-3.176 -10.036,-6.443 -14.978,-9.6c-3.268,-1.833 -6.555,-3.633 -9.883,-5.358c-1.275,-0.661 -2.266,-1.485 -3.015,-2.406c-4.636,-2.565 -9.425,-4.882 -14.48,-6.833c-3.866,-2.505 -7.103,-5.512 -11.806,-6.798c-1.775,-0.485 -4.369,0.578 -5.033,2.39c-0.163,0.448 -0.348,0.885 -0.526,1.326c-1.756,1.302 -3.371,2.738 -4.822,4.372c-0.934,1.054 -1.282,2.423 -1.113,3.734c-1.114,-0.49 -2.224,-0.989 -3.311,-1.538c-1.117,-0.565 -2.516,-0.137 -3.097,0.987l-1.057,2.044c-0.341,0.659 -0.392,1.675 0.098,2.288" style="fill:none;fill-rule:nonzero;"/><path d="M1151.648,1270.841c-19.523,-10.9 -37.758,-24.553 -56.103,-37.28c-27.334,-18.961 -54.468,-38.207 -81.562,-57.511c-16.689,-11.89 -33.336,-23.843 -50.004,-35.763c-2.549,-1.823 1.009,-6.475 0.507,-6.704c2.239,1.025 4.362,2.35 6.486,3.59c8.531,4.983 16.908,10.239 25.294,15.462c32.333,20.139 64.427,40.657 96.62,61.015c23.253,14.705 46.258,30.536 70.519,43.555c1.307,0.702 2.362,-1.343 1.057,-2.044c-36.384,-19.524 -70.743,-43.686 -105.596,-65.768c-20.907,-13.247 -41.808,-26.509 -62.817,-39.594c-9.779,-6.09 -20.6,-15.086 -31.676,-18.724c-0.476,-0.156 -1.048,0.178 -1.259,0.598c-1.318,2.605 -1.904,5.277 -2.583,8.122c-0.085,0.348 0.034,0.868 0.342,1.083c28.898,20.322 57.456,41.135 86.298,61.537c20.645,14.602 41.339,29.141 62.186,43.457c13.487,9.262 26.931,19.028 41.235,27.014c1.296,0.723 2.348,-1.323 1.057,-2.044" style="fill-rule:nonzero;"/><path d="M1171.631,1241.899c-35.34,-22.209 -70.297,-45.038 -105.521,-67.43c-18.156,-11.543 -36.311,-23.104 -54.691,-34.29c-5.516,-3.356 -11.17,-6.438 -16.74,-9.694c-5.058,-2.957 -11.842,-8.144 -18.125,-7.177c-3.143,0.484 -5.846,8.285 -7.365,10.568c-0.821,1.235 1.229,2.279 2.04,1.057c1.743,-2.619 3.319,-5.288 4.869,-8.025c2.264,-4.004 10.22,1.436 12.737,2.807c3.968,2.16 7.846,4.51 11.784,6.731c5.529,3.116 10.922,6.482 16.324,9.81c18.46,11.371 36.748,23.024 55.04,34.664c32.902,20.943 65.566,42.271 98.59,63.023c1.256,0.79 2.302,-1.262 1.057,-2.044" style="fill-rule:nonzero;"/><path d="M963.76,1133.586c-37.524,-28.24 -82.258,-50.225 -127.161,-63.7c-0.06,0.757 -0.119,1.516 -0.179,2.275c25.327,1.555 48.287,11.588 70.691,22.811c11.978,6 23.59,12.043 34.483,19.903c9.191,6.631 17.939,13.829 27.345,20.168c1.228,0.827 2.271,-1.226 1.057,-2.044c-10.258,-6.913 -19.709,-14.9 -29.844,-21.975c-11.024,-7.697 -22.938,-13.565 -34.929,-19.572c-21.808,-10.923 -44.329,-20.08 -68.921,-21.589c-1.382,-0.086 -1.343,1.925 -0.18,2.274c44.421,13.331 88.95,35.2 126.077,63.139c1.174,0.884 2.744,-0.8 1.561,-1.69" style="fill-rule:nonzero;"/><path d="M973.576,1126.681c-24.278,-13.175 -45.736,-28.399 -66.031,-47.277c-20.904,-19.444 -38.815,-41.2 -53.448,-65.71c-0.638,-1.069 -2.072,-0.406 -2.118,0.675c-0.572,13.462 13.897,28.895 21.796,38.502c13.964,16.973 30.532,31.707 45.413,47.853c1.008,1.093 2.558,-0.609 1.561,-1.69c-12.732,-13.816 -26.313,-26.8 -39.061,-40.597c-6.492,-7.028 -12.136,-14.569 -17.539,-22.44c-4.369,-6.363 -10.219,-13.645 -9.875,-21.748l-2.118,0.675c14.215,23.813 31.428,44.622 51.382,63.851c20.934,20.175 43.57,36.159 68.983,49.949c1.304,0.707 2.358,-1.339 1.057,-2.044" style="fill-rule:nonzero;"/><path d="M908.988,1093.254c-4.867,-3.719 -10.473,-5.985 -15.775,-8.995c-6.803,-3.862 -13.455,-7.919 -20.462,-11.405c-14.661,-7.291 -29.877,-13.394 -44.583,-20.589c-0.256,0.715 -0.51,1.431 -0.766,2.147c14.14,4.508 28.704,7.464 42.306,13.558c12.994,5.82 24.979,14.013 37.566,20.653c1.31,0.692 2.367,-1.352 1.057,-2.044c-13.579,-7.162 -26.509,-15.7 -40.535,-21.984c-12.717,-5.695 -26.694,-8.218 -39.918,-12.434c-1.25,-0.399 -1.912,1.588 -0.767,2.148c13.654,6.678 27.7,12.496 41.417,19.039c6.108,2.912 11.997,6.172 17.842,9.581c6.888,4.018 14.72,7.173 21.058,12.014c1.169,0.894 2.737,-0.792 1.561,-1.69" style="fill-rule:nonzero;"/><path d="M975.353,1124.457c-9.976,-5.778 -18.519,-14.781 -27.28,-22.259c-8.598,-7.342 -16.692,-15.227 -24.291,-23.598c-16.18,-17.819 -28.026,-39.322 -38.956,-60.613c-0.593,-1.155 -2.042,-0.333 -2.118,0.675c-1.086,14.465 10.115,32.195 17.203,44.112c5.11,8.589 11.923,16.254 18.555,23.684c3.664,4.105 7.519,8.041 11.388,11.952c4.39,4.438 10.267,8.485 14.037,13.414c0.895,1.171 2.842,-0.053 1.942,-1.231c-4.56,-5.963 -11.42,-10.843 -16.745,-16.225c-7.727,-7.811 -14.964,-16.067 -21.689,-24.756c-5.808,-7.507 -9.916,-15.873 -14.035,-24.374c-3.916,-8.085 -9.059,-17.423 -8.363,-26.695l-2.118,0.675c10.614,20.675 22.18,40.746 37.168,58.588c7.97,9.486 17.132,17.966 26.46,26.083c8.873,7.719 17.575,16.701 27.784,22.614c1.283,0.744 2.334,-1.303 1.057,-2.044" style="fill-rule:nonzero;"/><path d="M962.329,1134.417c-10.476,-3.29 -19.261,-9.557 -28.39,-15.457c-8.599,-5.559 -17.804,-9.126 -27.406,-12.516c-19.956,-7.046 -40.003,-10.79 -60.777,-14.209c-0.061,0.758 -0.12,1.518 -0.181,2.276c9.346,-0.893 19.046,1.2 28.419,1.76c11.63,0.693 22.613,1.933 33.759,5.444c1.409,0.444 1.88,-1.81 0.475,-2.252c-10.338,-3.256 -20.512,-4.672 -31.281,-5.314c-10.379,-0.619 -21.097,-2.929 -31.489,-1.937c-1.255,0.121 -1.512,2.057 -0.18,2.277c20.817,3.426 40.734,7.348 60.777,14.209c10.642,3.641 20.186,8.013 29.631,14.117c8.41,5.437 16.541,10.832 26.166,13.855c1.412,0.443 1.88,-1.81 0.477,-2.251" style="fill-rule:nonzero;"/><path d="M990.791,1160.131c0.542,-2.041 1.679,-3.7 3.044,-5.279c0.969,-1.121 -0.716,-2.685 -1.686,-1.562c-1.64,1.895 -2.956,3.921 -3.605,6.365c-0.381,1.434 1.868,1.907 2.247,0.476" style="fill-rule:nonzero;"/><path d="M976.506,1149.615c1.028,-1.988 2.073,-3.962 3.323,-5.823c0.828,-1.229 -1.221,-2.273 -2.04,-1.057c-1.25,1.861 -2.295,3.834 -3.323,5.823c-0.681,1.318 1.359,2.375 2.04,1.057" style="fill-rule:nonzero;"/><path d="M900.989,1161.935c5.262,2.727 9.489,-5.449 4.227,-8.176c-5.262,-2.727 -9.489,5.449 -4.227,8.176" style="fill:#61cab1;fill-rule:nonzero;"/></g></g></svg>